M48
; DRILL file {KiCad 9.0.3} date 2026-02-24T15:17:48-0500
; FORMAT={-:-/ absolute / metric / decimal}
; #@! TF.CreationDate,2026-02-24T15:17:48-05:00
; #@! TF.GenerationSoftware,Kicad,Pcbnew,9.0.3
; #@! TF.FileFunction,Plated,1,2,PTH
FMAT,2
METRIC
; #@! TA.AperFunction,Plated,PTH,ComponentDrill
T1C0.200
; #@! TA.AperFunction,Plated,PTH,ViaDrill
T2C0.300
; #@! TA.AperFunction,Plated,PTH,ViaDrill
T3C0.406
; #@! TA.AperFunction,Plated,PTH,ComponentDrill
T4C0.600
; #@! TA.AperFunction,Plated,PTH,ComponentDrill
T5C1.000
; #@! TA.AperFunction,Plated,PTH,ComponentDrill
T6C1.067
; #@! TA.AperFunction,Plated,PTH,ComponentDrill
T7C1.190
%
G90
G05
T1
X49.32Y-46.52
X49.32Y-47.92
X50.02Y-45.82
X50.02Y-47.22
X50.02Y-48.62
X50.72Y-46.52
X50.72Y-47.92
X51.42Y-45.82
X51.42Y-47.22
X51.42Y-48.62
X52.12Y-46.52
X52.12Y-47.92
X137.872Y-43.52
X137.872Y-44.92
X138.572Y-42.82
X138.572Y-44.22
X138.572Y-45.62
X139.272Y-43.52
X139.272Y-44.92
X139.972Y-42.82
X139.972Y-44.22
X139.972Y-45.62
X140.672Y-43.52
X140.672Y-44.92
T2
X59.51Y-35.126
X73.743Y-29.718
X74.676Y-29.21
X77.486Y-64.022
X78.488Y-63.494
X81.536Y-64.022
X82.558Y-63.494
X84.328Y-28.702
T3
X43.666Y-66.549
X43.688Y-39.37
X43.688Y-52.07
X46.228Y-59.69
X46.228Y-61.722
X76.964Y-57.023
X82.323Y-53.645
X85.321Y-53.619
X86.768Y-59.665
X87.886Y-53.645
X89.408Y-30.82
X92.964Y-28.956
X93.294Y-37.973
X97.012Y-32.512
X105.918Y-53.808
X106.693Y-27.686
X112.776Y-22.876
X112.903Y-31.623
X114.316Y-33.528
X120.882Y-34.544
X123.698Y-31.496
X129.436Y-23.114
X129.561Y-26.416
X134.62Y-28.426
X137.176Y-24.892
X141.478Y-23.114
X146.304Y-39.37
X146.304Y-52.324
X147.558Y-30.353
X147.558Y-33.909
T5
X45.72Y-23.368
X45.72Y-25.908
X45.72Y-28.448
X49.784Y-23.368
X49.784Y-25.908
X49.784Y-28.448
X51.816Y-63.754
X51.816Y-66.294
X51.816Y-68.834
X55.898Y-63.754
X55.898Y-66.294
X55.898Y-68.834
X59.98Y-63.754
X59.98Y-66.294
X59.98Y-68.834
X64.008Y-63.754
X64.008Y-66.294
X64.008Y-68.834
X68.072Y-63.754
X68.072Y-66.294
X68.072Y-68.834
X84.328Y-37.973
X95.76Y-51.308
X95.76Y-55.354
X95.76Y-59.436
X95.76Y-63.5
X95.76Y-67.564
X98.3Y-51.308
X98.3Y-55.354
X98.3Y-59.436
X98.3Y-63.5
X98.3Y-67.564
X100.84Y-51.308
X100.84Y-55.354
X100.84Y-59.436
X100.84Y-63.5
X100.84Y-67.564
X105.156Y-67.564
X109.22Y-67.564
X113.538Y-51.308
T6
X65.532Y-25.908
X68.072Y-25.908
X88.9Y-25.146
X91.44Y-25.146
X130.493Y-66.04
X133.032Y-66.04
T7
X53.848Y-24.892
X56.388Y-24.892
X58.928Y-24.892
X61.468Y-24.892
X113.792Y-66.04
X116.332Y-66.04
X118.872Y-66.04
X121.412Y-66.04
X123.952Y-66.04
X126.492Y-66.04
X138.1Y-66.06
X140.64Y-66.06
X143.18Y-66.06
X145.72Y-66.06
T4
G00X79.248Y-61.369
M15
G01X79.248Y-62.469
M16
G05
G00X79.248Y-65.699
M15
G01X79.248Y-66.499
M16
G05
G00X87.888Y-61.369
M15
G01X87.888Y-62.469
M16
G05
G00X87.888Y-65.699
M15
G01X87.888Y-66.499
M16
G05
G00X115.06Y-25.741
M15
G01X115.06Y-24.941
M16
G05
G00X115.06Y-30.071
M15
G01X115.06Y-28.971
M16
G05
G00X123.7Y-25.741
M15
G01X123.7Y-24.941
M16
G05
G00X123.7Y-30.071
M15
G01X123.7Y-28.971
M16
G05
M30
