%TF.GenerationSoftware,KiCad,Pcbnew,9.0.3*%
%TF.CreationDate,2026-02-24T15:17:57-05:00*%
%TF.ProjectId,Main_PCB,4d61696e-5f50-4434-922e-6b696361645f,v.3*%
%TF.SameCoordinates,Original*%
%TF.FileFunction,Copper,L2,Bot*%
%TF.FilePolarity,Positive*%
%FSLAX46Y46*%
G04 Gerber Fmt 4.6, Leading zero omitted, Abs format (unit mm)*
G04 Created by KiCad (PCBNEW 9.0.3) date 2026-02-24 15:17:57*
%MOMM*%
%LPD*%
G01*
G04 APERTURE LIST*
G04 Aperture macros list*
%AMRoundRect*
0 Rectangle with rounded corners*
0 $1 Rounding radius*
0 $2 $3 $4 $5 $6 $7 $8 $9 X,Y pos of 4 corners*
0 Add a 4 corners polygon primitive as box body*
4,1,4,$2,$3,$4,$5,$6,$7,$8,$9,$2,$3,0*
0 Add four circle primitives for the rounded corners*
1,1,$1+$1,$2,$3*
1,1,$1+$1,$4,$5*
1,1,$1+$1,$6,$7*
1,1,$1+$1,$8,$9*
0 Add four rect primitives between the rounded corners*
20,1,$1+$1,$2,$3,$4,$5,0*
20,1,$1+$1,$4,$5,$6,$7,0*
20,1,$1+$1,$6,$7,$8,$9,0*
20,1,$1+$1,$8,$9,$2,$3,0*%
G04 Aperture macros list end*
%TA.AperFunction,ComponentPad*%
%ADD10R,1.700000X1.700000*%
%TD*%
%TA.AperFunction,ComponentPad*%
%ADD11C,1.700000*%
%TD*%
%TA.AperFunction,ComponentPad*%
%ADD12C,2.000000*%
%TD*%
%TA.AperFunction,ComponentPad*%
%ADD13C,1.574800*%
%TD*%
%TA.AperFunction,HeatsinkPad*%
%ADD14O,1.000000X2.100000*%
%TD*%
%TA.AperFunction,HeatsinkPad*%
%ADD15O,1.000000X1.800000*%
%TD*%
%TA.AperFunction,ComponentPad*%
%ADD16RoundRect,0.250000X-0.620000X-0.845000X0.620000X-0.845000X0.620000X0.845000X-0.620000X0.845000X0*%
%TD*%
%TA.AperFunction,ComponentPad*%
%ADD17O,1.740000X2.190000*%
%TD*%
%TA.AperFunction,ComponentPad*%
%ADD18RoundRect,0.250000X0.620000X0.845000X-0.620000X0.845000X-0.620000X-0.845000X0.620000X-0.845000X0*%
%TD*%
%TA.AperFunction,HeatsinkPad*%
%ADD19C,0.600000*%
%TD*%
%TA.AperFunction,ViaPad*%
%ADD20C,0.600000*%
%TD*%
%TA.AperFunction,ViaPad*%
%ADD21C,0.914400*%
%TD*%
%TA.AperFunction,Conductor*%
%ADD22C,0.200000*%
%TD*%
%TA.AperFunction,Conductor*%
%ADD23C,0.635000*%
%TD*%
G04 APERTURE END LIST*
D10*
%TO.P,M8,1,Pin_1*%
%TO.N,/Screen + Motors/IO8*%
X68072000Y-63754000D03*
D11*
%TO.P,M8,2,Pin_2*%
%TO.N,6V*%
X68072000Y-66294000D03*
%TO.P,M8,3,Pin_3*%
%TO.N,GND*%
X68072000Y-68834000D03*
%TD*%
D12*
%TO.P,TP1,1,1*%
%TO.N,6V*%
X113538000Y-51308000D03*
%TD*%
D13*
%TO.P,J9,1,Pin_1*%
%TO.N,VCC*%
X91440000Y-25146000D03*
%TO.P,J9,2,Pin_2*%
%TO.N,GND*%
X88900000Y-25146000D03*
%TD*%
D10*
%TO.P,M7,1,Pin_1*%
%TO.N,/Screen + Motors/IO7*%
X64008000Y-63754000D03*
D11*
%TO.P,M7,2,Pin_2*%
%TO.N,6V*%
X64008000Y-66294000D03*
%TO.P,M7,3,Pin_3*%
%TO.N,GND*%
X64008000Y-68834000D03*
%TD*%
D10*
%TO.P,M3,1,Pin_1*%
%TO.N,/Screen + Motors/IO3*%
X95760000Y-67564000D03*
D11*
%TO.P,M3,2,Pin_2*%
%TO.N,6V*%
X98300000Y-67564000D03*
%TO.P,M3,3,Pin_3*%
%TO.N,GND*%
X100840000Y-67564000D03*
%TD*%
D14*
%TO.P,J22,S1,SHIELD*%
%TO.N,Net-(J22-SHIELD)*%
X123700000Y-29521000D03*
D15*
X123700000Y-25341000D03*
D14*
X115060000Y-29521000D03*
D15*
X115060000Y-25341000D03*
%TD*%
D10*
%TO.P,M10,1,Pin_1*%
%TO.N,/Screen + Motors/IO10*%
X95760000Y-59436000D03*
D11*
%TO.P,M10,2,Pin_2*%
%TO.N,6V*%
X98300000Y-59436000D03*
%TO.P,M10,3,Pin_3*%
%TO.N,GND*%
X100840000Y-59436000D03*
%TD*%
D10*
%TO.P,M5,1,Pin_1*%
%TO.N,/Screen + Motors/IO5*%
X55898000Y-63754000D03*
D11*
%TO.P,M5,2,Pin_2*%
%TO.N,6V*%
X55898000Y-66294000D03*
%TO.P,M5,3,Pin_3*%
%TO.N,GND*%
X55898000Y-68834000D03*
%TD*%
D12*
%TO.P,TP4,1,1*%
%TO.N,3.3V*%
X109220000Y-67564000D03*
%TD*%
D10*
%TO.P,M12,1,Pin_1*%
%TO.N,/Screen + Motors/IO12*%
X95760000Y-51308000D03*
D11*
%TO.P,M12,2,Pin_2*%
%TO.N,6V*%
X98300000Y-51308000D03*
%TO.P,M12,3,Pin_3*%
%TO.N,GND*%
X100840000Y-51308000D03*
%TD*%
D16*
%TO.P,J24,1,Pin_1*%
%TO.N,3.3V*%
X113792000Y-66040000D03*
D17*
%TO.P,J24,2,Pin_2*%
%TO.N,GND*%
X116332000Y-66040000D03*
%TO.P,J24,3,Pin_3*%
%TO.N,Net-(J24-Pin_3)*%
X118872000Y-66040000D03*
%TO.P,J24,4,Pin_4*%
%TO.N,Net-(J24-Pin_4)*%
X121412000Y-66040000D03*
%TO.P,J24,5,Pin_5*%
%TO.N,Net-(J24-Pin_5)*%
X123952000Y-66040000D03*
%TO.P,J24,6,Pin_6*%
%TO.N,Net-(J24-Pin_6)*%
X126492000Y-66040000D03*
%TD*%
D18*
%TO.P,J30,1,Pin_1*%
%TO.N,3.3V*%
X61468000Y-24892000D03*
D17*
%TO.P,J30,2,Pin_2*%
%TO.N,Net-(J30-Pin_2)*%
X58928000Y-24892000D03*
%TO.P,J30,3,Pin_3*%
%TO.N,Net-(J30-Pin_3)*%
X56388000Y-24892000D03*
%TO.P,J30,4,Pin_4*%
%TO.N,GND*%
X53848000Y-24892000D03*
%TD*%
D13*
%TO.P,J37,1,Pin_1*%
%TO.N,Net-(J37-Pin_1)*%
X68072000Y-25908000D03*
%TO.P,J37,2,Pin_2*%
%TO.N,GND*%
X65532000Y-25908000D03*
%TD*%
D19*
%TO.P,U2,41,GND*%
%TO.N,GND*%
X50020000Y-48620000D03*
X51420000Y-48620000D03*
X49320000Y-47920000D03*
X50720000Y-47920000D03*
X52120000Y-47920000D03*
X50020000Y-47220000D03*
X51420000Y-47220000D03*
X49320000Y-46520000D03*
X50720000Y-46520000D03*
X52120000Y-46520000D03*
X50020000Y-45820000D03*
X51420000Y-45820000D03*
%TD*%
D10*
%TO.P,M11,1,Pin_1*%
%TO.N,/Screen + Motors/IO11*%
X95760000Y-55354000D03*
D11*
%TO.P,M11,2,Pin_2*%
%TO.N,6V*%
X98300000Y-55354000D03*
%TO.P,M11,3,Pin_3*%
%TO.N,GND*%
X100840000Y-55354000D03*
%TD*%
D10*
%TO.P,M9,1,Pin_1*%
%TO.N,/Screen + Motors/IO9*%
X95760000Y-63500000D03*
D11*
%TO.P,M9,2,Pin_2*%
%TO.N,6V*%
X98300000Y-63500000D03*
%TO.P,M9,3,Pin_3*%
%TO.N,GND*%
X100840000Y-63500000D03*
%TD*%
D10*
%TO.P,M2,1,Pin_1*%
%TO.N,/Screen + Motors/IO2*%
X49784000Y-28448000D03*
D11*
%TO.P,M2,2,Pin_2*%
%TO.N,6V*%
X49784000Y-25908000D03*
%TO.P,M2,3,Pin_3*%
%TO.N,GND*%
X49784000Y-23368000D03*
%TD*%
D12*
%TO.P,TP5,1,1*%
%TO.N,GND*%
X105156000Y-67564000D03*
%TD*%
D14*
%TO.P,J1,S1,SHIELD*%
%TO.N,Net-(J1-SHIELD)*%
X79248000Y-61919000D03*
D15*
X79248000Y-66099000D03*
D14*
X87888000Y-61919000D03*
D15*
X87888000Y-66099000D03*
%TD*%
D13*
%TO.P,J25,1,Pin_1*%
%TO.N,Net-(J25-Pin_1)*%
X130492500Y-66040000D03*
%TO.P,J25,2,Pin_2*%
%TO.N,GND*%
X133032500Y-66040000D03*
%TD*%
D10*
%TO.P,M4,1,Pin_1*%
%TO.N,/Screen + Motors/IO4*%
X51816000Y-63754000D03*
D11*
%TO.P,M4,2,Pin_2*%
%TO.N,6V*%
X51816000Y-66294000D03*
%TO.P,M4,3,Pin_3*%
%TO.N,GND*%
X51816000Y-68834000D03*
%TD*%
D16*
%TO.P,J23,1,Pin_1*%
%TO.N,3.3V*%
X138099800Y-66060000D03*
D17*
%TO.P,J23,2,Pin_2*%
%TO.N,Net-(J23-Pin_2)*%
X140639800Y-66060000D03*
%TO.P,J23,3,Pin_3*%
%TO.N,Net-(J23-Pin_3)*%
X143179800Y-66060000D03*
%TO.P,J23,4,Pin_4*%
%TO.N,GND*%
X145719800Y-66060000D03*
%TD*%
D19*
%TO.P,U1,41,GND*%
%TO.N,GND*%
X139972000Y-42820000D03*
X138572000Y-42820000D03*
X140672000Y-43520000D03*
X139272000Y-43520000D03*
X137872000Y-43520000D03*
X139972000Y-44220000D03*
X138572000Y-44220000D03*
X140672000Y-44920000D03*
X139272000Y-44920000D03*
X137872000Y-44920000D03*
X139972000Y-45620000D03*
X138572000Y-45620000D03*
%TD*%
D10*
%TO.P,M1,1,Pin_1*%
%TO.N,/Screen + Motors/IO1*%
X45720000Y-28448000D03*
D11*
%TO.P,M1,2,Pin_2*%
%TO.N,6V*%
X45720000Y-25908000D03*
%TO.P,M1,3,Pin_3*%
%TO.N,GND*%
X45720000Y-23368000D03*
%TD*%
D12*
%TO.P,TP3,1,1*%
%TO.N,VCC*%
X84328000Y-37973000D03*
%TD*%
D10*
%TO.P,M6,1,Pin_1*%
%TO.N,/Screen + Motors/IO6*%
X59980000Y-63754000D03*
D11*
%TO.P,M6,2,Pin_2*%
%TO.N,6V*%
X59980000Y-66294000D03*
%TO.P,M6,3,Pin_3*%
%TO.N,GND*%
X59980000Y-68834000D03*
%TD*%
D20*
%TO.N,GND*%
X73743100Y-29718000D03*
D21*
X76964000Y-57023000D03*
X112776000Y-22876000D03*
X134620000Y-28426500D03*
X141478000Y-23114000D03*
X97012000Y-32512000D03*
X43688000Y-52070000D03*
X112903000Y-31623000D03*
X87886000Y-53644800D03*
X43666500Y-66549500D03*
X147558000Y-33909000D03*
X82323400Y-53644800D03*
X46228000Y-59690000D03*
X89408000Y-30820000D03*
X46228000Y-61722000D03*
X146304000Y-39370000D03*
X137176000Y-24892000D03*
X129436500Y-23114000D03*
X43688000Y-39370000D03*
X120882500Y-34544000D03*
X105918000Y-53808000D03*
X86768400Y-59664600D03*
X123698000Y-31496000D03*
X147558000Y-30353000D03*
X85320600Y-53619400D03*
D20*
X84328000Y-28702000D03*
D21*
X106692700Y-27686000D03*
X93294200Y-37973000D03*
X129561500Y-26416000D03*
X114316000Y-33528000D03*
X146304000Y-52324000D03*
D20*
X74676000Y-29210000D03*
%TO.N,Net-(JP2-A)*%
X82558068Y-63493932D03*
X78488000Y-63493932D03*
%TO.N,Net-(JP3-A)*%
X77485932Y-64021932D03*
X81536000Y-64021932D03*
D21*
%TO.N,6V*%
X92964000Y-28956000D03*
D20*
%TO.N,Net-(J37-Pin_1)*%
X59510000Y-35126000D03*
%TD*%
D22*
%TO.N,Net-(JP2-A)*%
X82558068Y-63493932D02*
X78488000Y-63493932D01*
%TO.N,Net-(JP3-A)*%
X81536000Y-64021932D02*
X77485932Y-64021932D01*
D23*
%TO.N,6V*%
X47244000Y-65278000D02*
X48260000Y-66294000D01*
X98300000Y-48260000D02*
X98300000Y-32260000D01*
X97284000Y-69596000D02*
X72644000Y-69596000D01*
X112649000Y-48260000D02*
X113538000Y-49149000D01*
X98300000Y-48260000D02*
X112649000Y-48260000D01*
X48260000Y-66294000D02*
X51816000Y-66294000D01*
X45720000Y-25908000D02*
X47244000Y-27432000D01*
X67839300Y-66294000D02*
X70866000Y-66294000D01*
X93980000Y-31496000D02*
X92964000Y-30480000D01*
X98300000Y-67564000D02*
X98300000Y-68580000D01*
X70866000Y-66294000D02*
X71628000Y-67056000D01*
X98300000Y-51308000D02*
X98300000Y-48260000D01*
X71628000Y-68580000D02*
X72644000Y-69596000D01*
X97536000Y-31496000D02*
X93980000Y-31496000D01*
X92964000Y-30480000D02*
X92964000Y-28956000D01*
X98300000Y-68580000D02*
X97284000Y-69596000D01*
X47244000Y-27432000D02*
X47244000Y-65278000D01*
X98300000Y-32260000D02*
X97536000Y-31496000D01*
X71628000Y-67056000D02*
X71628000Y-68580000D01*
X113538000Y-49149000D02*
X113538000Y-51308000D01*
X98300000Y-67564000D02*
X98300000Y-51308000D01*
D22*
%TO.N,Net-(J37-Pin_1)*%
X67564000Y-33528000D02*
X68072000Y-33020000D01*
X68072000Y-33020000D02*
X68072000Y-25908000D01*
X59510000Y-35126000D02*
X59510000Y-33962000D01*
X59944000Y-33528000D02*
X67564000Y-33528000D01*
X59510000Y-33962000D02*
X59944000Y-33528000D01*
%TD*%
%TA.AperFunction,Conductor*%
%TO.N,GND*%
G36*
X148425039Y-20208185D02*
G01*
X148470794Y-20260989D01*
X148482000Y-20312500D01*
X148482000Y-70104000D01*
X148462315Y-70171039D01*
X148409511Y-70216794D01*
X148358000Y-70228000D01*
X98108189Y-70228000D01*
X98041150Y-70208315D01*
X97995395Y-70155511D01*
X97985451Y-70086353D01*
X98014476Y-70022797D01*
X98020508Y-70016319D01*
X98935379Y-69101448D01*
X98935382Y-69101445D01*
X99024903Y-68967468D01*
X99070330Y-68857796D01*
X99086565Y-68818602D01*
X99114177Y-68679784D01*
X99114974Y-68676645D01*
X99131175Y-68649253D01*
X99145931Y-68621044D01*
X99149904Y-68617588D01*
X99150544Y-68616507D01*
X99151973Y-68615788D01*
X99162273Y-68606831D01*
X99179792Y-68594104D01*
X99330104Y-68443792D01*
X99330106Y-68443788D01*
X99330109Y-68443786D01*
X99415890Y-68325717D01*
X99455051Y-68271816D01*
X99459793Y-68262508D01*
X99507763Y-68211711D01*
X99575583Y-68194911D01*
X99641719Y-68217445D01*
X99680763Y-68262500D01*
X99685373Y-68271547D01*
X99724728Y-68325716D01*
X100357037Y-67693408D01*
X100374075Y-67756993D01*
X100439901Y-67871007D01*
X100532993Y-67964099D01*
X100647007Y-68029925D01*
X100710590Y-68046962D01*
X100078282Y-68679269D01*
X100078282Y-68679270D01*
X100132449Y-68718624D01*
X100321782Y-68815095D01*
X100523870Y-68880757D01*
X100733754Y-68914000D01*
X100946246Y-68914000D01*
X101156127Y-68880757D01*
X101156130Y-68880757D01*
X101358217Y-68815095D01*
X101547554Y-68718622D01*
X101601717Y-68679270D01*
X100969408Y-68046962D01*
X101032993Y-68029925D01*
X101147007Y-67964099D01*
X101240099Y-67871007D01*
X101305925Y-67756993D01*
X101322962Y-67693409D01*
X101955270Y-68325717D01*
X101955270Y-68325716D01*
X101994622Y-68271554D01*
X102091095Y-68082217D01*
X102156757Y-67880130D01*
X102156757Y-67880127D01*
X102190000Y-67670246D01*
X102190000Y-67457752D01*
X102189999Y-67457750D01*
X102188130Y-67445947D01*
X103656000Y-67445947D01*
X103656000Y-67682052D01*
X103692934Y-67915247D01*
X103765897Y-68139802D01*
X103873087Y-68350174D01*
X103933338Y-68433104D01*
X103933340Y-68433105D01*
X104673037Y-67693408D01*
X104690075Y-67756993D01*
X104755901Y-67871007D01*
X104848993Y-67964099D01*
X104963007Y-68029925D01*
X105026590Y-68046962D01*
X104286893Y-68786658D01*
X104369828Y-68846914D01*
X104580197Y-68954102D01*
X104804752Y-69027065D01*
X104804751Y-69027065D01*
X105037948Y-69064000D01*
X105274052Y-69064000D01*
X105507247Y-69027065D01*
X105731802Y-68954102D01*
X105942163Y-68846918D01*
X105942169Y-68846914D01*
X106025104Y-68786658D01*
X106025105Y-68786658D01*
X105285408Y-68046962D01*
X105348993Y-68029925D01*
X105463007Y-67964099D01*
X105556099Y-67871007D01*
X105621925Y-67756993D01*
X105638962Y-67693409D01*
X106378658Y-68433105D01*
X106378658Y-68433104D01*
X106438914Y-68350169D01*
X106438918Y-68350163D01*
X106546102Y-68139802D01*
X106619065Y-67915247D01*
X106656000Y-67682052D01*
X106656000Y-67445947D01*
X106655993Y-67445902D01*
X107719500Y-67445902D01*
X107719500Y-67682097D01*
X107756446Y-67915368D01*
X107829433Y-68139996D01*
X107928284Y-68334000D01*
X107936657Y-68350433D01*
X108075483Y-68541510D01*
X108242490Y-68708517D01*
X108433567Y-68847343D01*
X108499146Y-68880757D01*
X108644003Y-68954566D01*
X108644005Y-68954566D01*
X108644008Y-68954568D01*
X108764412Y-68993689D01*
X108868631Y-69027553D01*
X109101903Y-69064500D01*
X109101908Y-69064500D01*
X109338097Y-69064500D01*
X109571368Y-69027553D01*
X109573091Y-69026993D01*
X109795992Y-68954568D01*
X110006433Y-68847343D01*
X110197510Y-68708517D01*
X110364517Y-68541510D01*
X110503343Y-68350433D01*
X110610568Y-68139992D01*
X110683553Y-67915368D01*
X110708637Y-67756993D01*
X110720500Y-67682097D01*
X110720500Y-67445902D01*
X110683553Y-67212631D01*
X110635259Y-67064000D01*
X110610568Y-66988008D01*
X110610566Y-66988005D01*
X110610566Y-66988003D01*
X110520424Y-66811091D01*
X110503343Y-66777567D01*
X110364517Y-66586490D01*
X110197510Y-66419483D01*
X110006433Y-66280657D01*
X109984852Y-66269661D01*
X109795996Y-66173433D01*
X109571368Y-66100446D01*
X109338097Y-66063500D01*
X109338092Y-66063500D01*
X109101908Y-66063500D01*
X109101903Y-66063500D01*
X108868631Y-66100446D01*
X108644003Y-66173433D01*
X108433566Y-66280657D01*
X108350047Y-66341338D01*
X108242490Y-66419483D01*
X108242488Y-66419485D01*
X108242487Y-66419485D01*
X108075485Y-66586487D01*
X108075485Y-66586488D01*
X108075483Y-66586490D01*
X108017631Y-66666116D01*
X107936657Y-66777566D01*
X107829433Y-66988003D01*
X107756446Y-67212631D01*
X107719500Y-67445902D01*
X106655993Y-67445902D01*
X106619065Y-67212752D01*
X106546102Y-66988197D01*
X106438914Y-66777828D01*
X106378658Y-66694894D01*
X106378658Y-66694893D01*
X105638962Y-67434590D01*
X105621925Y-67371007D01*
X105556099Y-67256993D01*
X105463007Y-67163901D01*
X105348993Y-67098075D01*
X105285409Y-67081037D01*
X106025105Y-66341340D01*
X106025104Y-66341338D01*
X105942174Y-66281087D01*
X105731802Y-66173897D01*
X105507247Y-66100934D01*
X105507248Y-66100934D01*
X105274052Y-66064000D01*
X105037948Y-66064000D01*
X104804752Y-66100934D01*
X104580197Y-66173897D01*
X104369830Y-66281084D01*
X104286894Y-66341340D01*
X105026591Y-67081037D01*
X104963007Y-67098075D01*
X104848993Y-67163901D01*
X104755901Y-67256993D01*
X104690075Y-67371007D01*
X104673037Y-67434591D01*
X103933340Y-66694894D01*
X103873084Y-66777830D01*
X103765897Y-66988197D01*
X103692934Y-67212752D01*
X103656000Y-67445947D01*
X102188130Y-67445947D01*
X102156757Y-67247872D01*
X102156757Y-67247869D01*
X102091095Y-67045782D01*
X101994624Y-66856449D01*
X101955270Y-66802282D01*
X101955269Y-66802282D01*
X101322962Y-67434590D01*
X101305925Y-67371007D01*
X101240099Y-67256993D01*
X101147007Y-67163901D01*
X101032993Y-67098075D01*
X100969409Y-67081037D01*
X101601716Y-66448728D01*
X101547550Y-66409375D01*
X101358217Y-66312904D01*
X101156129Y-66247242D01*
X100946246Y-66214000D01*
X100733754Y-66214000D01*
X100523872Y-66247242D01*
X100523869Y-66247242D01*
X100321782Y-66312904D01*
X100132439Y-66409380D01*
X100078282Y-66448727D01*
X100078282Y-66448728D01*
X100710591Y-67081037D01*
X100647007Y-67098075D01*
X100532993Y-67163901D01*
X100439901Y-67256993D01*
X100374075Y-67371007D01*
X100357037Y-67434591D01*
X99724728Y-66802282D01*
X99724727Y-66802282D01*
X99685380Y-66856440D01*
X99685376Y-66856446D01*
X99680760Y-66865505D01*
X99632781Y-66916297D01*
X99564959Y-66933087D01*
X99498826Y-66910543D01*
X99459794Y-66865493D01*
X99455051Y-66856184D01*
X99455049Y-66856181D01*
X99455048Y-66856179D01*
X99330109Y-66684213D01*
X99231106Y-66585210D01*
X99179792Y-66533896D01*
X99162978Y-66521680D01*
X99157432Y-66516508D01*
X99143336Y-66492707D01*
X99126448Y-66470805D01*
X99124629Y-66461121D01*
X99121828Y-66456391D01*
X99122139Y-66447861D01*
X99118000Y-66425820D01*
X99118000Y-65144983D01*
X112421500Y-65144983D01*
X112421500Y-66935001D01*
X112421501Y-66935018D01*
X112432000Y-67037796D01*
X112432001Y-67037799D01*
X112487185Y-67204331D01*
X112487187Y-67204336D01*
X112499523Y-67224336D01*
X112579288Y-67353656D01*
X112703344Y-67477712D01*
X112852666Y-67569814D01*
X113019203Y-67624999D01*
X113121991Y-67635500D01*
X114462008Y-67635499D01*
X114564797Y-67624999D01*
X114731334Y-67569814D01*
X114880656Y-67477712D01*
X115004712Y-67353656D01*
X115096814Y-67204334D01*
X115096817Y-67204323D01*
X115097353Y-67203177D01*
X115097934Y-67202516D01*
X115100605Y-67198187D01*
X115101344Y-67198643D01*
X115143521Y-67150734D01*
X115210713Y-67131577D01*
X115277596Y-67151788D01*
X115297420Y-67167892D01*
X115439502Y-67309974D01*
X115613963Y-67436728D01*
X115806098Y-67534627D01*
X116011190Y-67601266D01*
X116082000Y-67612481D01*
X116082000Y-66582709D01*
X116102339Y-66594452D01*
X116253667Y-66635000D01*
X116410333Y-66635000D01*
X116561661Y-66594452D01*
X116582000Y-66582709D01*
X116582000Y-67612480D01*
X116652809Y-67601266D01*
X116857901Y-67534627D01*
X117050036Y-67436728D01*
X117224496Y-67309974D01*
X117224497Y-67309974D01*
X117376974Y-67157497D01*
X117376979Y-67157491D01*
X117501372Y-66986280D01*
X117556702Y-66943614D01*
X117626315Y-66937635D01*
X117688110Y-66970241D01*
X117702008Y-66986279D01*
X117826641Y-67157821D01*
X117979179Y-67310359D01*
X118153701Y-67437157D01*
X118345911Y-67535092D01*
X118551074Y-67601754D01*
X118618796Y-67612480D01*
X118764134Y-67635500D01*
X118764139Y-67635500D01*
X118979866Y-67635500D01*
X119098230Y-67616752D01*
X119192926Y-67601754D01*
X119398089Y-67535092D01*
X119590299Y-67437157D01*
X119764821Y-67310359D01*
X119917359Y-67157821D01*
X120041682Y-66986704D01*
X120097012Y-66944040D01*
X120166626Y-66938061D01*
X120228420Y-66970667D01*
X120242315Y-66986702D01*
X120366641Y-67157821D01*
X120519179Y-67310359D01*
X120693701Y-67437157D01*
X120885911Y-67535092D01*
X121091074Y-67601754D01*
X121158796Y-67612480D01*
X121304134Y-67635500D01*
X121304139Y-67635500D01*
X121519866Y-67635500D01*
X121638230Y-67616752D01*
X121732926Y-67601754D01*
X121938089Y-67535092D01*
X122130299Y-67437157D01*
X122304821Y-67310359D01*
X122457359Y-67157821D01*
X122581682Y-66986704D01*
X122637012Y-66944040D01*
X122706626Y-66938061D01*
X122768420Y-66970667D01*
X122782315Y-66986702D01*
X122906641Y-67157821D01*
X123059179Y-67310359D01*
X123233701Y-67437157D01*
X123425911Y-67535092D01*
X123631074Y-67601754D01*
X123698796Y-67612480D01*
X123844134Y-67635500D01*
X123844139Y-67635500D01*
X124059866Y-67635500D01*
X124178230Y-67616752D01*
X124272926Y-67601754D01*
X124478089Y-67535092D01*
X124670299Y-67437157D01*
X124844821Y-67310359D01*
X124997359Y-67157821D01*
X125121682Y-66986704D01*
X125177012Y-66944040D01*
X125246626Y-66938061D01*
X125308420Y-66970667D01*
X125322315Y-66986702D01*
X125446641Y-67157821D01*
X125599179Y-67310359D01*
X125773701Y-67437157D01*
X125965911Y-67535092D01*
X126171074Y-67601754D01*
X126238796Y-67612480D01*
X126384134Y-67635500D01*
X126384139Y-67635500D01*
X126599866Y-67635500D01*
X126718230Y-67616752D01*
X126812926Y-67601754D01*
X127018089Y-67535092D01*
X127210299Y-67437157D01*
X127384821Y-67310359D01*
X127537359Y-67157821D01*
X127664157Y-66983299D01*
X127762092Y-66791089D01*
X127828754Y-66585926D01*
X127846850Y-66471671D01*
X127862500Y-66372866D01*
X127862500Y-65938640D01*
X129204600Y-65938640D01*
X129204600Y-66141360D01*
X129211942Y-66187713D01*
X129236293Y-66341463D01*
X129236313Y-66341584D01*
X129298957Y-66534382D01*
X129390860Y-66714751D01*
X129390992Y-66715009D01*
X129510139Y-66879004D01*
X129653495Y-67022360D01*
X129788504Y-67120448D01*
X129817494Y-67141510D01*
X129998118Y-67233543D01*
X130190916Y-67296187D01*
X130391140Y-67327900D01*
X130391141Y-67327900D01*
X130593859Y-67327900D01*
X130593860Y-67327900D01*
X130794084Y-67296187D01*
X130986882Y-67233543D01*
X131167506Y-67141510D01*
X131282728Y-67057797D01*
X131331504Y-67022360D01*
X131331506Y-67022357D01*
X131331510Y-67022355D01*
X131474855Y-66879010D01*
X131474857Y-66879006D01*
X131474860Y-66879004D01*
X131594007Y-66715010D01*
X131594008Y-66715009D01*
X131594010Y-66715006D01*
X131652295Y-66600614D01*
X131700270Y-66549819D01*
X131768091Y-66533024D01*
X131834225Y-66555561D01*
X131873265Y-66600615D01*
X131931416Y-66714744D01*
X131962045Y-66756899D01*
X131962046Y-66756900D01*
X132522265Y-66196680D01*
X132535450Y-66245885D01*
X132605674Y-66367515D01*
X132704985Y-66466826D01*
X132826615Y-66537050D01*
X132875819Y-66550234D01*
X132315599Y-67110453D01*
X132315599Y-67110454D01*
X132357754Y-67141082D01*
X132538307Y-67233078D01*
X132731036Y-67295700D01*
X132731035Y-67295700D01*
X132931180Y-67327400D01*
X133133820Y-67327400D01*
X133333963Y-67295700D01*
X133526692Y-67233078D01*
X133707247Y-67141081D01*
X133707251Y-67141079D01*
X133749399Y-67110454D01*
X133749400Y-67110454D01*
X133189180Y-66550234D01*
X133238385Y-66537050D01*
X133360015Y-66466826D01*
X133459326Y-66367515D01*
X133529550Y-66245885D01*
X133542734Y-66196680D01*
X134102953Y-66756900D01*
X134102954Y-66756899D01*
X134133579Y-66714751D01*
X134133581Y-66714747D01*
X134225578Y-66534192D01*
X134288200Y-66341463D01*
X134319900Y-66141320D01*
X134319900Y-65938679D01*
X134288200Y-65738536D01*
X134225578Y-65545807D01*
X134133582Y-65365254D01*
X134102953Y-65323099D01*
X133542733Y-65883318D01*
X133529550Y-65834115D01*
X133459326Y-65712485D01*
X133360015Y-65613174D01*
X133238385Y-65542950D01*
X133189180Y-65529765D01*
X133553963Y-65164983D01*
X136729300Y-65164983D01*
X136729300Y-66955001D01*
X136729301Y-66955018D01*
X136739800Y-67057796D01*
X136739801Y-67057799D01*
X136772946Y-67157822D01*
X136794986Y-67224334D01*
X136887088Y-67373656D01*
X137011144Y-67497712D01*
X137160466Y-67589814D01*
X137327003Y-67644999D01*
X137429791Y-67655500D01*
X138769808Y-67655499D01*
X138872597Y-67644999D01*
X139039134Y-67589814D01*
X139188456Y-67497712D01*
X139312512Y-67373656D01*
X139404614Y-67224334D01*
X139404617Y-67224322D01*
X139404929Y-67223657D01*
X139405269Y-67223269D01*
X139408405Y-67218187D01*
X139409273Y-67218722D01*
X139451099Y-67171216D01*
X139518291Y-67152060D01*
X139585173Y-67172272D01*
X139604995Y-67188375D01*
X139746979Y-67330359D01*
X139921501Y-67457157D01*
X140113711Y-67555092D01*
X140318874Y-67621754D01*
X140386596Y-67632480D01*
X140531934Y-67655500D01*
X140531939Y-67655500D01*
X140747666Y-67655500D01*
X140872535Y-67635722D01*
X140960726Y-67621754D01*
X141165889Y-67555092D01*
X141358099Y-67457157D01*
X141532621Y-67330359D01*
X141685159Y-67177821D01*
X141809482Y-67006704D01*
X141864812Y-66964040D01*
X141934426Y-66958061D01*
X141996220Y-66990667D01*
X142010115Y-67006702D01*
X142134441Y-67177821D01*
X142286979Y-67330359D01*
X142461501Y-67457157D01*
X142653711Y-67555092D01*
X142858874Y-67621754D01*
X142926596Y-67632480D01*
X143071934Y-67655500D01*
X143071939Y-67655500D01*
X143287666Y-67655500D01*
X143412535Y-67635722D01*
X143500726Y-67621754D01*
X143705889Y-67555092D01*
X143898099Y-67457157D01*
X144072621Y-67330359D01*
X144225159Y-67177821D01*
X144349791Y-67006279D01*
X144405121Y-66963614D01*
X144474734Y-66957635D01*
X144536529Y-66990241D01*
X144550427Y-67006279D01*
X144674825Y-67177497D01*
X144827302Y-67329974D01*
X145001763Y-67456728D01*
X145193898Y-67554627D01*
X145398990Y-67621266D01*
X145469800Y-67632481D01*
X145469800Y-66602709D01*
X145490139Y-66614452D01*
X145641467Y-66655000D01*
X145798133Y-66655000D01*
X145949461Y-66614452D01*
X145969800Y-66602709D01*
X145969800Y-67632480D01*
X146040609Y-67621266D01*
X146245701Y-67554627D01*
X146437836Y-67456728D01*
X146612296Y-67329974D01*
X146612297Y-67329974D01*
X146764774Y-67177497D01*
X146891528Y-67003036D01*
X146989427Y-66810901D01*
X147056065Y-66605809D01*
X147089800Y-66392820D01*
X147089800Y-66310000D01*
X146262509Y-66310000D01*
X146274252Y-66289661D01*
X146314800Y-66138333D01*
X146314800Y-65981667D01*
X146274252Y-65830339D01*
X146262509Y-65810000D01*
X147089800Y-65810000D01*
X147089800Y-65727179D01*
X147056065Y-65514190D01*
X146989427Y-65309098D01*
X146891528Y-65116963D01*
X146764774Y-64942503D01*
X146764774Y-64942502D01*
X146612297Y-64790025D01*
X146437836Y-64663271D01*
X146245699Y-64565372D01*
X146040605Y-64498733D01*
X145969800Y-64487518D01*
X145969800Y-65517290D01*
X145949461Y-65505548D01*
X145798133Y-65465000D01*
X145641467Y-65465000D01*
X145490139Y-65505548D01*
X145469800Y-65517290D01*
X145469800Y-64487518D01*
X145469799Y-64487518D01*
X145398994Y-64498733D01*
X145193900Y-64565372D01*
X145001763Y-64663271D01*
X144827303Y-64790025D01*
X144827302Y-64790025D01*
X144674824Y-64942503D01*
X144550427Y-65113720D01*
X144495096Y-65156385D01*
X144425483Y-65162364D01*
X144363688Y-65129758D01*
X144349791Y-65113720D01*
X144225159Y-64942179D01*
X144072621Y-64789641D01*
X143898099Y-64662843D01*
X143705889Y-64564908D01*
X143500726Y-64498246D01*
X143500724Y-64498245D01*
X143500722Y-64498245D01*
X143287666Y-64464500D01*
X143287661Y-64464500D01*
X143071939Y-64464500D01*
X143071934Y-64464500D01*
X142858877Y-64498245D01*
X142653708Y-64564909D01*
X142461500Y-64662843D01*
X142373751Y-64726597D01*
X142286979Y-64789641D01*
X142286977Y-64789643D01*
X142286976Y-64789643D01*
X142134443Y-64942176D01*
X142134443Y-64942177D01*
X142134441Y-64942179D01*
X142110238Y-64975492D01*
X142010118Y-65113294D01*
X141954788Y-65155959D01*
X141885174Y-65161938D01*
X141823379Y-65129332D01*
X141809482Y-65113294D01*
X141781044Y-65074153D01*
X141685159Y-64942179D01*
X141532621Y-64789641D01*
X141358099Y-64662843D01*
X141165889Y-64564908D01*
X140960726Y-64498246D01*
X140960724Y-64498245D01*
X140960722Y-64498245D01*
X140747666Y-64464500D01*
X140747661Y-64464500D01*
X140531939Y-64464500D01*
X140531934Y-64464500D01*
X140318877Y-64498245D01*
X140113708Y-64564909D01*
X139921500Y-64662843D01*
X139746980Y-64789640D01*
X139604995Y-64931625D01*
X139543672Y-64965109D01*
X139473980Y-64960125D01*
X139418047Y-64918253D01*
X139404932Y-64896348D01*
X139404615Y-64895669D01*
X139404614Y-64895668D01*
X139404614Y-64895666D01*
X139312512Y-64746344D01*
X139188456Y-64622288D01*
X139063004Y-64544909D01*
X139039136Y-64530187D01*
X139039131Y-64530185D01*
X139037662Y-64529698D01*
X138872597Y-64475001D01*
X138872595Y-64475000D01*
X138769810Y-64464500D01*
X137429798Y-64464500D01*
X137429781Y-64464501D01*
X137327003Y-64475000D01*
X137327000Y-64475001D01*
X137160468Y-64530185D01*
X137160463Y-64530187D01*
X137011142Y-64622289D01*
X136887089Y-64746342D01*
X136794987Y-64895663D01*
X136794985Y-64895668D01*
X136780795Y-64938492D01*
X136739801Y-65062203D01*
X136739801Y-65062204D01*
X136739800Y-65062204D01*
X136729300Y-65164983D01*
X133553963Y-65164983D01*
X133644793Y-65074153D01*
X133749400Y-64969545D01*
X133707244Y-64938916D01*
X133526692Y-64846921D01*
X133333963Y-64784299D01*
X133333964Y-64784299D01*
X133133820Y-64752600D01*
X132931180Y-64752600D01*
X132731036Y-64784299D01*
X132538307Y-64846921D01*
X132357750Y-64938919D01*
X132315599Y-64969544D01*
X132315598Y-64969545D01*
X132875819Y-65529765D01*
X132826615Y-65542950D01*
X132704985Y-65613174D01*
X132605674Y-65712485D01*
X132535450Y-65834115D01*
X132522266Y-65883319D01*
X131962045Y-65323098D01*
X131962044Y-65323099D01*
X131931419Y-65365251D01*
X131873265Y-65479384D01*
X131825290Y-65530180D01*
X131757469Y-65546975D01*
X131691334Y-65524437D01*
X131652295Y-65479384D01*
X131640943Y-65457105D01*
X131594010Y-65364994D01*
X131563571Y-65323098D01*
X131474860Y-65200995D01*
X131331504Y-65057639D01*
X131167509Y-64938492D01*
X131167508Y-64938491D01*
X131167506Y-64938490D01*
X130986882Y-64846457D01*
X130794084Y-64783813D01*
X130794082Y-64783812D01*
X130794080Y-64783812D01*
X130654282Y-64761670D01*
X130593860Y-64752100D01*
X130391140Y-64752100D01*
X130344724Y-64759451D01*
X130190919Y-64783812D01*
X130160188Y-64793797D01*
X129998494Y-64846335D01*
X129998115Y-64846458D01*
X129817490Y-64938492D01*
X129653495Y-65057639D01*
X129510139Y-65200995D01*
X129390992Y-65364990D01*
X129298958Y-65545615D01*
X129298957Y-65545617D01*
X129298957Y-65545618D01*
X129291328Y-65569097D01*
X129236312Y-65738419D01*
X129221155Y-65834115D01*
X129204600Y-65938640D01*
X127862500Y-65938640D01*
X127862500Y-65707133D01*
X127835753Y-65538266D01*
X127828754Y-65494074D01*
X127762092Y-65288911D01*
X127664157Y-65096701D01*
X127537359Y-64922179D01*
X127384821Y-64769641D01*
X127210299Y-64642843D01*
X127111157Y-64592328D01*
X127018091Y-64544909D01*
X127018090Y-64544908D01*
X127018089Y-64544908D01*
X126812926Y-64478246D01*
X126812924Y-64478245D01*
X126812922Y-64478245D01*
X126599866Y-64444500D01*
X126599861Y-64444500D01*
X126384139Y-64444500D01*
X126384134Y-64444500D01*
X126171077Y-64478245D01*
X125965908Y-64544909D01*
X125773700Y-64642843D01*
X125702022Y-64694921D01*
X125599179Y-64769641D01*
X125599177Y-64769643D01*
X125599176Y-64769643D01*
X125446643Y-64922176D01*
X125446643Y-64922177D01*
X125446641Y-64922179D01*
X125407907Y-64975492D01*
X125322318Y-65093294D01*
X125266988Y-65135959D01*
X125197374Y-65141938D01*
X125135579Y-65109332D01*
X125121682Y-65093294D01*
X125088623Y-65047793D01*
X124997359Y-64922179D01*
X124844821Y-64769641D01*
X124670299Y-64642843D01*
X124571157Y-64592328D01*
X124478091Y-64544909D01*
X124478090Y-64544908D01*
X124478089Y-64544908D01*
X124272926Y-64478246D01*
X124272924Y-64478245D01*
X124272922Y-64478245D01*
X124059866Y-64444500D01*
X124059861Y-64444500D01*
X123844139Y-64444500D01*
X123844134Y-64444500D01*
X123631077Y-64478245D01*
X123425908Y-64544909D01*
X123233700Y-64642843D01*
X123162022Y-64694921D01*
X123059179Y-64769641D01*
X123059177Y-64769643D01*
X123059176Y-64769643D01*
X122906643Y-64922176D01*
X122906643Y-64922177D01*
X122906641Y-64922179D01*
X122867907Y-64975492D01*
X122782318Y-65093294D01*
X122726988Y-65135959D01*
X122657374Y-65141938D01*
X122595579Y-65109332D01*
X122581682Y-65093294D01*
X122548623Y-65047793D01*
X122457359Y-64922179D01*
X122304821Y-64769641D01*
X122130299Y-64642843D01*
X122031157Y-64592328D01*
X121938091Y-64544909D01*
X121938090Y-64544908D01*
X121938089Y-64544908D01*
X121732926Y-64478246D01*
X121732924Y-64478245D01*
X121732922Y-64478245D01*
X121519866Y-64444500D01*
X121519861Y-64444500D01*
X121304139Y-64444500D01*
X121304134Y-64444500D01*
X121091077Y-64478245D01*
X120885908Y-64544909D01*
X120693700Y-64642843D01*
X120622022Y-64694921D01*
X120519179Y-64769641D01*
X120519177Y-64769643D01*
X120519176Y-64769643D01*
X120366643Y-64922176D01*
X120366643Y-64922177D01*
X120366641Y-64922179D01*
X120327907Y-64975492D01*
X120242318Y-65093294D01*
X120186988Y-65135959D01*
X120117374Y-65141938D01*
X120055579Y-65109332D01*
X120041682Y-65093294D01*
X120008623Y-65047793D01*
X119917359Y-64922179D01*
X119764821Y-64769641D01*
X119590299Y-64642843D01*
X119491157Y-64592328D01*
X119398091Y-64544909D01*
X119398090Y-64544908D01*
X119398089Y-64544908D01*
X119192926Y-64478246D01*
X119192924Y-64478245D01*
X119192922Y-64478245D01*
X118979866Y-64444500D01*
X118979861Y-64444500D01*
X118764139Y-64444500D01*
X118764134Y-64444500D01*
X118551077Y-64478245D01*
X118345908Y-64544909D01*
X118153700Y-64642843D01*
X118082022Y-64694921D01*
X117979179Y-64769641D01*
X117979177Y-64769643D01*
X117979176Y-64769643D01*
X117826642Y-64922177D01*
X117702008Y-65093720D01*
X117646677Y-65136385D01*
X117577064Y-65142364D01*
X117515269Y-65109758D01*
X117501372Y-65093720D01*
X117376974Y-64922503D01*
X117376974Y-64922502D01*
X117224497Y-64770025D01*
X117050036Y-64643271D01*
X116857899Y-64545372D01*
X116652805Y-64478733D01*
X116582000Y-64467518D01*
X116582000Y-65497290D01*
X116561661Y-65485548D01*
X116410333Y-65445000D01*
X116253667Y-65445000D01*
X116102339Y-65485548D01*
X116082000Y-65497290D01*
X116082000Y-64467518D01*
X116081999Y-64467518D01*
X116011194Y-64478733D01*
X115806100Y-64545372D01*
X115613963Y-64643271D01*
X115439506Y-64770022D01*
X115297420Y-64912108D01*
X115236097Y-64945592D01*
X115166405Y-64940608D01*
X115110472Y-64898736D01*
X115097356Y-64876828D01*
X115096816Y-64875670D01*
X115096812Y-64875663D01*
X115004712Y-64726344D01*
X114880656Y-64602288D01*
X114787628Y-64544908D01*
X114731336Y-64510187D01*
X114731331Y-64510185D01*
X114696771Y-64498733D01*
X114564797Y-64455001D01*
X114564795Y-64455000D01*
X114462010Y-64444500D01*
X113121998Y-64444500D01*
X113121981Y-64444501D01*
X113019203Y-64455000D01*
X113019200Y-64455001D01*
X112852668Y-64510185D01*
X112852663Y-64510187D01*
X112703342Y-64602289D01*
X112579289Y-64726342D01*
X112487187Y-64875663D01*
X112487185Y-64875668D01*
X112479541Y-64898736D01*
X112432001Y-65042203D01*
X112432001Y-65042204D01*
X112432000Y-65042204D01*
X112421500Y-65144983D01*
X99118000Y-65144983D01*
X99118000Y-64638179D01*
X99127231Y-64606738D01*
X99135309Y-64574989D01*
X99137147Y-64572969D01*
X99137685Y-64571140D01*
X99157433Y-64547491D01*
X99162979Y-64542319D01*
X99179792Y-64530104D01*
X99330104Y-64379792D01*
X99330106Y-64379788D01*
X99330109Y-64379786D01*
X99415890Y-64261717D01*
X99455051Y-64207816D01*
X99459793Y-64198508D01*
X99507763Y-64147711D01*
X99575583Y-64130911D01*
X99641719Y-64153445D01*
X99680763Y-64198500D01*
X99685373Y-64207547D01*
X99724728Y-64261716D01*
X100357037Y-63629408D01*
X100374075Y-63692993D01*
X100439901Y-63807007D01*
X100532993Y-63900099D01*
X100647007Y-63965925D01*
X100710590Y-63982962D01*
X100078282Y-64615269D01*
X100078282Y-64615270D01*
X100132449Y-64654624D01*
X100321782Y-64751095D01*
X100523870Y-64816757D01*
X100733754Y-64850000D01*
X100946246Y-64850000D01*
X101156127Y-64816757D01*
X101156130Y-64816757D01*
X101358217Y-64751095D01*
X101547554Y-64654622D01*
X101601716Y-64615270D01*
X101601717Y-64615270D01*
X100969408Y-63982962D01*
X101032993Y-63965925D01*
X101147007Y-63900099D01*
X101240099Y-63807007D01*
X101305925Y-63692993D01*
X101322962Y-63629409D01*
X101955270Y-64261717D01*
X101955270Y-64261716D01*
X101994622Y-64207554D01*
X102091095Y-64018217D01*
X102156757Y-63816130D01*
X102156757Y-63816127D01*
X102190000Y-63606246D01*
X102190000Y-63393753D01*
X102156757Y-63183872D01*
X102156757Y-63183869D01*
X102091095Y-62981782D01*
X101994624Y-62792449D01*
X101955270Y-62738282D01*
X101955269Y-62738282D01*
X101322962Y-63370590D01*
X101305925Y-63307007D01*
X101240099Y-63192993D01*
X101147007Y-63099901D01*
X101032993Y-63034075D01*
X100969409Y-63017037D01*
X101601716Y-62384728D01*
X101547550Y-62345375D01*
X101358217Y-62248904D01*
X101156129Y-62183242D01*
X100946246Y-62150000D01*
X100733754Y-62150000D01*
X100523872Y-62183242D01*
X100523869Y-62183242D01*
X100321782Y-62248904D01*
X100132439Y-62345380D01*
X100078282Y-62384727D01*
X100078282Y-62384728D01*
X100710591Y-63017037D01*
X100647007Y-63034075D01*
X100532993Y-63099901D01*
X100439901Y-63192993D01*
X100374075Y-63307007D01*
X100357037Y-63370591D01*
X99724728Y-62738282D01*
X99724727Y-62738282D01*
X99685380Y-62792440D01*
X99685376Y-62792446D01*
X99680760Y-62801505D01*
X99632781Y-62852297D01*
X99564959Y-62869087D01*
X99498826Y-62846543D01*
X99459794Y-62801493D01*
X99455051Y-62792184D01*
X99455049Y-62792181D01*
X99455048Y-62792179D01*
X99330109Y-62620213D01*
X99231106Y-62521210D01*
X99179792Y-62469896D01*
X99162978Y-62457680D01*
X99157432Y-62452508D01*
X99143336Y-62428707D01*
X99126448Y-62406805D01*
X99124629Y-62397121D01*
X99121828Y-62392391D01*
X99122139Y-62383861D01*
X99118000Y-62361820D01*
X99118000Y-60574179D01*
X99137685Y-60507140D01*
X99169114Y-60473861D01*
X99179792Y-60466104D01*
X99330104Y-60315792D01*
X99330106Y-60315788D01*
X99330109Y-60315786D01*
X99415890Y-60197717D01*
X99455051Y-60143816D01*
X99459793Y-60134508D01*
X99507763Y-60083711D01*
X99575583Y-60066911D01*
X99641719Y-60089445D01*
X99680763Y-60134500D01*
X99685373Y-60143547D01*
X99724728Y-60197716D01*
X100357037Y-59565408D01*
X100374075Y-59628993D01*
X100439901Y-59743007D01*
X100532993Y-59836099D01*
X100647007Y-59901925D01*
X100710590Y-59918962D01*
X100078282Y-60551269D01*
X100078282Y-60551270D01*
X100132449Y-60590624D01*
X100321782Y-60687095D01*
X100523870Y-60752757D01*
X100733754Y-60786000D01*
X100946246Y-60786000D01*
X101156127Y-60752757D01*
X101156130Y-60752757D01*
X101358217Y-60687095D01*
X101547554Y-60590622D01*
X101601716Y-60551270D01*
X101601717Y-60551270D01*
X100969408Y-59918962D01*
X101032993Y-59901925D01*
X101147007Y-59836099D01*
X101240099Y-59743007D01*
X101305925Y-59628993D01*
X101322962Y-59565409D01*
X101955270Y-60197717D01*
X101955270Y-60197716D01*
X101994622Y-60143554D01*
X102091095Y-59954217D01*
X102156757Y-59752130D01*
X102156757Y-59752127D01*
X102190000Y-59542246D01*
X102190000Y-59329753D01*
X102156757Y-59119872D01*
X102156757Y-59119869D01*
X102091095Y-58917782D01*
X101994624Y-58728449D01*
X101955270Y-58674282D01*
X101955269Y-58674282D01*
X101322962Y-59306590D01*
X101305925Y-59243007D01*
X101240099Y-59128993D01*
X101147007Y-59035901D01*
X101032993Y-58970075D01*
X100969409Y-58953037D01*
X101601716Y-58320728D01*
X101547550Y-58281375D01*
X101358217Y-58184904D01*
X101156129Y-58119242D01*
X100946246Y-58086000D01*
X100733754Y-58086000D01*
X100523872Y-58119242D01*
X100523869Y-58119242D01*
X100321782Y-58184904D01*
X100132439Y-58281380D01*
X100078282Y-58320727D01*
X100078282Y-58320728D01*
X100710591Y-58953037D01*
X100647007Y-58970075D01*
X100532993Y-59035901D01*
X100439901Y-59128993D01*
X100374075Y-59243007D01*
X100357037Y-59306591D01*
X99724728Y-58674282D01*
X99724727Y-58674282D01*
X99685380Y-58728440D01*
X99685376Y-58728446D01*
X99680760Y-58737505D01*
X99632781Y-58788297D01*
X99564959Y-58805087D01*
X99498826Y-58782543D01*
X99459794Y-58737493D01*
X99455051Y-58728184D01*
X99455049Y-58728181D01*
X99455048Y-58728179D01*
X99330109Y-58556213D01*
X99231106Y-58457210D01*
X99179792Y-58405896D01*
X99162978Y-58393680D01*
X99157432Y-58388508D01*
X99143336Y-58364707D01*
X99126448Y-58342805D01*
X99124629Y-58333121D01*
X99121828Y-58328391D01*
X99122139Y-58319861D01*
X99118000Y-58297820D01*
X99118000Y-56492179D01*
X99137685Y-56425140D01*
X99169114Y-56391861D01*
X99179792Y-56384104D01*
X99330104Y-56233792D01*
X99330106Y-56233788D01*
X99330109Y-56233786D01*
X99415890Y-56115717D01*
X99455051Y-56061816D01*
X99459793Y-56052508D01*
X99507763Y-56001711D01*
X99575583Y-55984911D01*
X99641719Y-56007445D01*
X99680763Y-56052500D01*
X99685373Y-56061547D01*
X99724728Y-56115716D01*
X100357037Y-55483408D01*
X100374075Y-55546993D01*
X100439901Y-55661007D01*
X100532993Y-55754099D01*
X100647007Y-55819925D01*
X100710590Y-55836962D01*
X100078282Y-56469269D01*
X100078282Y-56469270D01*
X100132449Y-56508624D01*
X100321782Y-56605095D01*
X100523870Y-56670757D01*
X100733754Y-56704000D01*
X100946246Y-56704000D01*
X101156127Y-56670757D01*
X101156130Y-56670757D01*
X101358217Y-56605095D01*
X101547554Y-56508622D01*
X101601716Y-56469270D01*
X101601717Y-56469270D01*
X100969408Y-55836962D01*
X101032993Y-55819925D01*
X101147007Y-55754099D01*
X101240099Y-55661007D01*
X101305925Y-55546993D01*
X101322962Y-55483409D01*
X101955270Y-56115717D01*
X101955270Y-56115716D01*
X101994622Y-56061554D01*
X102091095Y-55872217D01*
X102156757Y-55670130D01*
X102156757Y-55670127D01*
X102190000Y-55460246D01*
X102190000Y-55247753D01*
X102156757Y-55037872D01*
X102156757Y-55037869D01*
X102091095Y-54835782D01*
X101994624Y-54646449D01*
X101955270Y-54592282D01*
X101955269Y-54592282D01*
X101322962Y-55224590D01*
X101305925Y-55161007D01*
X101240099Y-55046993D01*
X101147007Y-54953901D01*
X101032993Y-54888075D01*
X100969409Y-54871037D01*
X101601716Y-54238728D01*
X101547550Y-54199375D01*
X101358217Y-54102904D01*
X101156129Y-54037242D01*
X100946246Y-54004000D01*
X100733754Y-54004000D01*
X100523872Y-54037242D01*
X100523869Y-54037242D01*
X100321782Y-54102904D01*
X100132439Y-54199380D01*
X100078282Y-54238727D01*
X100078282Y-54238728D01*
X100710591Y-54871037D01*
X100647007Y-54888075D01*
X100532993Y-54953901D01*
X100439901Y-55046993D01*
X100374075Y-55161007D01*
X100357037Y-55224591D01*
X99724728Y-54592282D01*
X99724727Y-54592282D01*
X99685380Y-54646440D01*
X99685376Y-54646446D01*
X99680760Y-54655505D01*
X99632781Y-54706297D01*
X99564959Y-54723087D01*
X99498826Y-54700543D01*
X99459794Y-54655493D01*
X99455051Y-54646184D01*
X99455049Y-54646181D01*
X99455048Y-54646179D01*
X99330109Y-54474213D01*
X99231106Y-54375210D01*
X99179792Y-54323896D01*
X99162978Y-54311680D01*
X99157432Y-54306508D01*
X99143336Y-54282707D01*
X99126448Y-54260805D01*
X99124629Y-54251121D01*
X99121828Y-54246391D01*
X99122139Y-54237861D01*
X99118000Y-54215820D01*
X99118000Y-52446179D01*
X99137685Y-52379140D01*
X99169114Y-52345861D01*
X99179792Y-52338104D01*
X99330104Y-52187792D01*
X99330106Y-52187788D01*
X99330109Y-52187786D01*
X99415890Y-52069717D01*
X99455051Y-52015816D01*
X99459793Y-52006508D01*
X99507763Y-51955711D01*
X99575583Y-51938911D01*
X99641719Y-51961445D01*
X99680763Y-52006500D01*
X99685373Y-52015547D01*
X99724728Y-52069716D01*
X100357037Y-51437408D01*
X100374075Y-51500993D01*
X100439901Y-51615007D01*
X100532993Y-51708099D01*
X100647007Y-51773925D01*
X100710590Y-51790962D01*
X100078282Y-52423269D01*
X100078282Y-52423270D01*
X100132449Y-52462624D01*
X100321782Y-52559095D01*
X100523870Y-52624757D01*
X100733754Y-52658000D01*
X100946246Y-52658000D01*
X101156127Y-52624757D01*
X101156130Y-52624757D01*
X101358217Y-52559095D01*
X101547554Y-52462622D01*
X101601716Y-52423270D01*
X101601717Y-52423270D01*
X100969408Y-51790962D01*
X101032993Y-51773925D01*
X101147007Y-51708099D01*
X101240099Y-51615007D01*
X101305925Y-51500993D01*
X101322962Y-51437409D01*
X101955270Y-52069717D01*
X101955270Y-52069716D01*
X101994622Y-52015554D01*
X102091095Y-51826217D01*
X102156757Y-51624130D01*
X102156757Y-51624127D01*
X102190000Y-51414246D01*
X102190000Y-51201753D01*
X102156757Y-50991872D01*
X102156757Y-50991869D01*
X102091095Y-50789782D01*
X101994624Y-50600449D01*
X101955270Y-50546282D01*
X101955269Y-50546282D01*
X101322962Y-51178590D01*
X101305925Y-51115007D01*
X101240099Y-51000993D01*
X101147007Y-50907901D01*
X101032993Y-50842075D01*
X100969409Y-50825037D01*
X101601716Y-50192728D01*
X101547550Y-50153375D01*
X101358217Y-50056904D01*
X101156129Y-49991242D01*
X100946246Y-49958000D01*
X100733754Y-49958000D01*
X100523872Y-49991242D01*
X100523869Y-49991242D01*
X100321782Y-50056904D01*
X100132439Y-50153380D01*
X100078282Y-50192727D01*
X100078282Y-50192728D01*
X100710591Y-50825037D01*
X100647007Y-50842075D01*
X100532993Y-50907901D01*
X100439901Y-51000993D01*
X100374075Y-51115007D01*
X100357037Y-51178591D01*
X99724728Y-50546282D01*
X99724727Y-50546282D01*
X99685380Y-50600440D01*
X99685376Y-50600446D01*
X99680760Y-50609505D01*
X99632781Y-50660297D01*
X99564959Y-50677087D01*
X99498826Y-50654543D01*
X99459794Y-50609493D01*
X99455051Y-50600184D01*
X99455049Y-50600181D01*
X99455048Y-50600179D01*
X99330109Y-50428213D01*
X99231106Y-50329210D01*
X99179792Y-50277896D01*
X99162978Y-50265680D01*
X99157432Y-50260508D01*
X99143336Y-50236707D01*
X99126448Y-50214805D01*
X99124629Y-50205121D01*
X99121828Y-50200391D01*
X99122139Y-50191861D01*
X99118000Y-50169820D01*
X99118000Y-49202000D01*
X99137685Y-49134961D01*
X99190489Y-49089206D01*
X99242000Y-49078000D01*
X112258811Y-49078000D01*
X112325850Y-49097685D01*
X112346492Y-49114319D01*
X112683681Y-49451507D01*
X112717166Y-49512830D01*
X112720000Y-49539188D01*
X112720000Y-49984410D01*
X112700315Y-50051449D01*
X112668886Y-50084728D01*
X112560488Y-50163484D01*
X112393485Y-50330487D01*
X112393485Y-50330488D01*
X112393483Y-50330490D01*
X112361586Y-50374392D01*
X112254657Y-50521566D01*
X112147433Y-50732003D01*
X112074446Y-50956631D01*
X112037500Y-51189902D01*
X112037500Y-51426097D01*
X112074446Y-51659368D01*
X112147433Y-51883996D01*
X112254657Y-52094433D01*
X112393483Y-52285510D01*
X112560490Y-52452517D01*
X112751567Y-52591343D01*
X112817146Y-52624757D01*
X112962003Y-52698566D01*
X112962005Y-52698566D01*
X112962008Y-52698568D01*
X113082412Y-52737689D01*
X113186631Y-52771553D01*
X113419903Y-52808500D01*
X113419908Y-52808500D01*
X113656097Y-52808500D01*
X113889368Y-52771553D01*
X114113992Y-52698568D01*
X114324433Y-52591343D01*
X114515510Y-52452517D01*
X114682517Y-52285510D01*
X114821343Y-52094433D01*
X114928568Y-51883992D01*
X115001553Y-51659368D01*
X115026637Y-51500993D01*
X115038500Y-51426097D01*
X115038500Y-51189902D01*
X115001553Y-50956631D01*
X114928566Y-50732003D01*
X114821342Y-50521566D01*
X114682517Y-50330490D01*
X114515510Y-50163483D01*
X114407113Y-50084727D01*
X114364448Y-50029397D01*
X114356000Y-49984410D01*
X114356000Y-49068433D01*
X114355999Y-49068429D01*
X114324566Y-48910404D01*
X114324565Y-48910398D01*
X114293733Y-48835965D01*
X114262903Y-48761532D01*
X114186687Y-48647468D01*
X114173382Y-48627555D01*
X114059445Y-48513618D01*
X114059444Y-48513617D01*
X114055114Y-48509287D01*
X114055103Y-48509277D01*
X113170448Y-47624620D01*
X113170444Y-47624617D01*
X113036474Y-47535100D01*
X113036461Y-47535093D01*
X112887606Y-47473436D01*
X112887594Y-47473433D01*
X112729570Y-47442000D01*
X112729566Y-47442000D01*
X99242000Y-47442000D01*
X99174961Y-47422315D01*
X99129206Y-47369511D01*
X99118000Y-47318000D01*
X99118000Y-32179433D01*
X99117999Y-32179429D01*
X99086566Y-32021405D01*
X99086565Y-32021398D01*
X99055733Y-31946965D01*
X99024903Y-31872533D01*
X98935381Y-31738554D01*
X98821445Y-31624618D01*
X98057448Y-30860620D01*
X98057444Y-30860617D01*
X97923474Y-30771100D01*
X97923461Y-30771093D01*
X97774606Y-30709436D01*
X97774594Y-30709433D01*
X97616570Y-30678000D01*
X97616566Y-30678000D01*
X94370189Y-30678000D01*
X94303150Y-30658315D01*
X94282508Y-30641681D01*
X93818319Y-30177492D01*
X93813979Y-30169543D01*
X114059499Y-30169543D01*
X114097947Y-30362829D01*
X114097950Y-30362839D01*
X114173364Y-30544907D01*
X114173371Y-30544920D01*
X114282860Y-30708781D01*
X114282863Y-30708785D01*
X114422214Y-30848136D01*
X114422218Y-30848139D01*
X114586079Y-30957628D01*
X114586092Y-30957635D01*
X114768160Y-31033049D01*
X114768165Y-31033051D01*
X114768169Y-31033051D01*
X114768170Y-31033052D01*
X114961456Y-31071500D01*
X114961459Y-31071500D01*
X115158543Y-31071500D01*
X115288582Y-31045632D01*
X115351835Y-31033051D01*
X115533914Y-30957632D01*
X115697782Y-30848139D01*
X115837139Y-30708782D01*
X115946632Y-30544914D01*
X116022051Y-30362835D01*
X116034632Y-30299582D01*
X116060500Y-30169543D01*
X116060500Y-29539634D01*
X116080185Y-29472595D01*
X116132989Y-29426840D01*
X116202147Y-29416896D01*
X116246499Y-29432246D01*
X116305537Y-29466332D01*
X116427083Y-29498900D01*
X116427085Y-29498900D01*
X116552915Y-29498900D01*
X116552917Y-29498900D01*
X116674463Y-29466332D01*
X116783438Y-29403415D01*
X116872415Y-29314438D01*
X116935332Y-29205463D01*
X116967900Y-29083917D01*
X116967900Y-28958083D01*
X121792100Y-28958083D01*
X121792100Y-29083916D01*
X121824668Y-29205464D01*
X121841919Y-29235343D01*
X121887585Y-29314438D01*
X121976562Y-29403415D01*
X122085537Y-29466332D01*
X122207083Y-29498900D01*
X122207085Y-29498900D01*
X122332915Y-29498900D01*
X122332917Y-29498900D01*
X122454463Y-29466332D01*
X122513500Y-29432246D01*
X122581399Y-29415774D01*
X122647426Y-29438626D01*
X122690617Y-29493547D01*
X122699500Y-29539634D01*
X122699500Y-30169541D01*
X122699500Y-30169543D01*
X122699499Y-30169543D01*
X122737947Y-30362829D01*
X122737950Y-30362839D01*
X122813364Y-30544907D01*
X122813371Y-30544920D01*
X122922860Y-30708781D01*
X122922863Y-30708785D01*
X123062214Y-30848136D01*
X123062218Y-30848139D01*
X123226079Y-30957628D01*
X123226092Y-30957635D01*
X123408160Y-31033049D01*
X123408165Y-31033051D01*
X123408169Y-31033051D01*
X123408170Y-31033052D01*
X123601456Y-31071500D01*
X123601459Y-31071500D01*
X123798543Y-31071500D01*
X123928582Y-31045632D01*
X123991835Y-31033051D01*
X124173914Y-30957632D01*
X124337782Y-30848139D01*
X124477139Y-30708782D01*
X124586632Y-30544914D01*
X124662051Y-30362835D01*
X124674632Y-30299582D01*
X124700500Y-30169543D01*
X124700500Y-28872456D01*
X124662052Y-28679170D01*
X124662051Y-28679169D01*
X124662051Y-28679165D01*
X124658728Y-28671143D01*
X124586635Y-28497092D01*
X124586628Y-28497079D01*
X124477139Y-28333218D01*
X124477136Y-28333214D01*
X124337785Y-28193863D01*
X124337781Y-28193860D01*
X124173920Y-28084371D01*
X124173907Y-28084364D01*
X123991839Y-28008950D01*
X123991829Y-28008947D01*
X123798543Y-27970500D01*
X123798541Y-27970500D01*
X123601459Y-27970500D01*
X123601457Y-27970500D01*
X123408170Y-28008947D01*
X123408160Y-28008950D01*
X123226092Y-28084364D01*
X123226079Y-28084371D01*
X123062218Y-28193860D01*
X123062214Y-28193863D01*
X122922863Y-28333214D01*
X122922860Y-28333218D01*
X122813371Y-28497079D01*
X122813364Y-28497092D01*
X122769739Y-28602415D01*
X122725898Y-28656819D01*
X122659604Y-28678884D01*
X122591905Y-28661605D01*
X122567497Y-28642644D01*
X122563440Y-28638587D01*
X122563438Y-28638585D01*
X122500790Y-28602415D01*
X122454464Y-28575668D01*
X122393690Y-28559384D01*
X122332917Y-28543100D01*
X122207083Y-28543100D01*
X122085535Y-28575668D01*
X121976562Y-28638585D01*
X121976559Y-28638587D01*
X121887587Y-28727559D01*
X121887585Y-28727562D01*
X121824668Y-28836535D01*
X121792100Y-28958083D01*
X116967900Y-28958083D01*
X116935332Y-28836537D01*
X116872415Y-28727562D01*
X116783438Y-28638585D01*
X116720790Y-28602415D01*
X116674464Y-28575668D01*
X116613690Y-28559384D01*
X116552917Y-28543100D01*
X116427083Y-28543100D01*
X116305535Y-28575668D01*
X116196562Y-28638585D01*
X116196560Y-28638586D01*
X116192498Y-28642649D01*
X116131173Y-28676131D01*
X116061482Y-28671143D01*
X116005550Y-28629268D01*
X115990263Y-28602423D01*
X115946632Y-28497086D01*
X115946630Y-28497083D01*
X115946628Y-28497079D01*
X115837139Y-28333218D01*
X115837136Y-28333214D01*
X115697785Y-28193863D01*
X115697781Y-28193860D01*
X115533920Y-28084371D01*
X115533907Y-28084364D01*
X115351839Y-28008950D01*
X115351829Y-28008947D01*
X115158543Y-27970500D01*
X115158541Y-27970500D01*
X114961459Y-27970500D01*
X114961457Y-27970500D01*
X114768170Y-28008947D01*
X114768160Y-28008950D01*
X114586092Y-28084364D01*
X114586079Y-28084371D01*
X114422218Y-28193860D01*
X114422214Y-28193863D01*
X114282863Y-28333214D01*
X114282860Y-28333218D01*
X114173371Y-28497079D01*
X114173364Y-28497092D01*
X114097950Y-28679160D01*
X114097947Y-28679170D01*
X114059500Y-28872456D01*
X114059500Y-28872459D01*
X114059500Y-30169541D01*
X114059500Y-30169543D01*
X114059499Y-30169543D01*
X93813979Y-30169543D01*
X93784834Y-30116169D01*
X93782000Y-30089811D01*
X93782000Y-29493206D01*
X93801685Y-29426167D01*
X93802900Y-29424312D01*
X93812700Y-29409645D01*
X93812703Y-29409641D01*
X93884896Y-29235351D01*
X93921700Y-29050325D01*
X93921700Y-28861675D01*
X93921700Y-28861672D01*
X93921699Y-28861670D01*
X93895023Y-28727562D01*
X93884896Y-28676649D01*
X93884894Y-28676644D01*
X93812706Y-28502365D01*
X93812699Y-28502352D01*
X93707894Y-28345502D01*
X93707891Y-28345498D01*
X93574501Y-28212108D01*
X93574497Y-28212105D01*
X93417647Y-28107300D01*
X93417634Y-28107293D01*
X93243355Y-28035105D01*
X93243343Y-28035102D01*
X93058328Y-27998300D01*
X93058325Y-27998300D01*
X92869675Y-27998300D01*
X92869672Y-27998300D01*
X92684656Y-28035102D01*
X92684644Y-28035105D01*
X92510365Y-28107293D01*
X92510352Y-28107300D01*
X92353502Y-28212105D01*
X92353498Y-28212108D01*
X92220108Y-28345498D01*
X92220105Y-28345502D01*
X92115300Y-28502352D01*
X92115293Y-28502365D01*
X92043105Y-28676644D01*
X92043102Y-28676656D01*
X92006300Y-28861670D01*
X92006300Y-29050329D01*
X92043102Y-29235343D01*
X92043105Y-29235355D01*
X92115293Y-29409634D01*
X92115299Y-29409645D01*
X92125100Y-29424312D01*
X92145980Y-29490989D01*
X92146000Y-29493206D01*
X92146000Y-30560570D01*
X92177433Y-30718594D01*
X92177436Y-30718606D01*
X92239093Y-30867461D01*
X92239100Y-30867474D01*
X92328617Y-31001444D01*
X92328620Y-31001448D01*
X93458551Y-32131379D01*
X93458555Y-32131382D01*
X93592532Y-32220903D01*
X93666963Y-32251732D01*
X93666964Y-32251733D01*
X93666965Y-32251733D01*
X93741398Y-32282565D01*
X93899429Y-32313999D01*
X93899433Y-32314000D01*
X93899434Y-32314000D01*
X97145811Y-32314000D01*
X97212850Y-32333685D01*
X97233492Y-32350319D01*
X97445681Y-32562508D01*
X97479166Y-32623831D01*
X97482000Y-32650189D01*
X97482000Y-50169820D01*
X97473044Y-50200320D01*
X97465708Y-50231261D01*
X97463105Y-50234166D01*
X97462315Y-50236859D01*
X97444035Y-50259117D01*
X97437840Y-50265084D01*
X97420208Y-50277896D01*
X97305875Y-50392228D01*
X97305027Y-50393046D01*
X97275047Y-50408699D01*
X97245350Y-50424915D01*
X97244154Y-50424829D01*
X97243091Y-50425385D01*
X97209401Y-50422344D01*
X97175658Y-50419931D01*
X97174697Y-50419211D01*
X97173504Y-50419104D01*
X97146796Y-50398325D01*
X97119725Y-50378059D01*
X97118969Y-50376674D01*
X97118359Y-50376200D01*
X97117722Y-50374392D01*
X97102810Y-50347082D01*
X97053797Y-50215671D01*
X97053793Y-50215664D01*
X96967547Y-50100455D01*
X96967544Y-50100452D01*
X96852335Y-50014206D01*
X96852328Y-50014202D01*
X96717482Y-49963908D01*
X96717483Y-49963908D01*
X96657883Y-49957501D01*
X96657881Y-49957500D01*
X96657873Y-49957500D01*
X96657864Y-49957500D01*
X94862129Y-49957500D01*
X94862123Y-49957501D01*
X94802516Y-49963908D01*
X94667671Y-50014202D01*
X94667664Y-50014206D01*
X94552455Y-50100452D01*
X94552452Y-50100455D01*
X94466206Y-50215664D01*
X94466202Y-50215671D01*
X94415908Y-50350517D01*
X94409501Y-50410116D01*
X94409500Y-50410135D01*
X94409500Y-52205870D01*
X94409501Y-52205876D01*
X94415908Y-52265483D01*
X94466202Y-52400328D01*
X94466206Y-52400335D01*
X94552452Y-52515544D01*
X94552455Y-52515547D01*
X94667664Y-52601793D01*
X94667671Y-52601797D01*
X94802517Y-52652091D01*
X94802516Y-52652091D01*
X94809444Y-52652835D01*
X94862127Y-52658500D01*
X96657872Y-52658499D01*
X96717483Y-52652091D01*
X96852331Y-52601796D01*
X96967546Y-52515546D01*
X97053796Y-52400331D01*
X97102810Y-52268916D01*
X97123089Y-52241826D01*
X97142848Y-52214383D01*
X97143962Y-52213943D01*
X97144681Y-52212984D01*
X97176372Y-52201163D01*
X97207846Y-52188752D01*
X97209021Y-52188984D01*
X97210145Y-52188566D01*
X97243211Y-52195758D01*
X97276384Y-52202331D01*
X97277629Y-52203245D01*
X97278418Y-52203417D01*
X97305027Y-52222953D01*
X97305848Y-52223744D01*
X97420208Y-52338104D01*
X97437843Y-52350917D01*
X97444035Y-52356882D01*
X97457256Y-52380058D01*
X97473550Y-52401188D01*
X97475631Y-52412270D01*
X97478655Y-52417571D01*
X97478209Y-52425997D01*
X97482000Y-52446179D01*
X97482000Y-54215820D01*
X97462315Y-54282859D01*
X97430888Y-54316136D01*
X97420211Y-54323893D01*
X97306673Y-54437431D01*
X97245350Y-54470915D01*
X97175658Y-54465931D01*
X97119725Y-54424059D01*
X97102810Y-54393082D01*
X97053797Y-54261671D01*
X97053793Y-54261664D01*
X96967547Y-54146455D01*
X96967544Y-54146452D01*
X96852335Y-54060206D01*
X96852328Y-54060202D01*
X96717482Y-54009908D01*
X96717483Y-54009908D01*
X96657883Y-54003501D01*
X96657881Y-54003500D01*
X96657873Y-54003500D01*
X96657864Y-54003500D01*
X94862129Y-54003500D01*
X94862123Y-54003501D01*
X94802516Y-54009908D01*
X94667671Y-54060202D01*
X94667664Y-54060206D01*
X94552455Y-54146452D01*
X94552452Y-54146455D01*
X94466206Y-54261664D01*
X94466202Y-54261671D01*
X94415908Y-54396517D01*
X94409501Y-54456116D01*
X94409500Y-54456135D01*
X94409500Y-56251870D01*
X94409501Y-56251876D01*
X94415908Y-56311483D01*
X94466202Y-56446328D01*
X94466206Y-56446335D01*
X94552452Y-56561544D01*
X94552455Y-56561547D01*
X94667664Y-56647793D01*
X94667671Y-56647797D01*
X94802517Y-56698091D01*
X94802516Y-56698091D01*
X94809444Y-56698835D01*
X94862127Y-56704500D01*
X96657872Y-56704499D01*
X96717483Y-56698091D01*
X96852331Y-56647796D01*
X96967546Y-56561546D01*
X97053796Y-56446331D01*
X97102810Y-56314916D01*
X97123089Y-56287826D01*
X97142848Y-56260383D01*
X97143962Y-56259943D01*
X97144681Y-56258984D01*
X97176372Y-56247163D01*
X97207846Y-56234752D01*
X97209021Y-56234984D01*
X97210145Y-56234566D01*
X97243211Y-56241758D01*
X97276384Y-56248331D01*
X97277629Y-56249245D01*
X97278418Y-56249417D01*
X97305027Y-56268953D01*
X97305848Y-56269744D01*
X97420208Y-56384104D01*
X97437843Y-56396917D01*
X97444035Y-56402882D01*
X97457256Y-56426058D01*
X97473550Y-56447188D01*
X97475631Y-56458270D01*
X97478655Y-56463571D01*
X97478209Y-56471997D01*
X97482000Y-56492179D01*
X97482000Y-58297820D01*
X97462315Y-58364859D01*
X97430888Y-58398136D01*
X97420211Y-58405893D01*
X97306673Y-58519431D01*
X97245350Y-58552915D01*
X97175658Y-58547931D01*
X97119725Y-58506059D01*
X97102810Y-58475082D01*
X97053797Y-58343671D01*
X97053793Y-58343664D01*
X96967547Y-58228455D01*
X96967544Y-58228452D01*
X96852335Y-58142206D01*
X96852328Y-58142202D01*
X96717482Y-58091908D01*
X96717483Y-58091908D01*
X96657883Y-58085501D01*
X96657881Y-58085500D01*
X96657873Y-58085500D01*
X96657864Y-58085500D01*
X94862129Y-58085500D01*
X94862123Y-58085501D01*
X94802516Y-58091908D01*
X94667671Y-58142202D01*
X94667664Y-58142206D01*
X94552455Y-58228452D01*
X94552452Y-58228455D01*
X94466206Y-58343664D01*
X94466202Y-58343671D01*
X94415908Y-58478517D01*
X94409501Y-58538116D01*
X94409500Y-58538135D01*
X94409500Y-60333870D01*
X94409501Y-60333876D01*
X94415908Y-60393483D01*
X94466202Y-60528328D01*
X94466206Y-60528335D01*
X94552452Y-60643544D01*
X94552455Y-60643547D01*
X94667664Y-60729793D01*
X94667671Y-60729797D01*
X94802517Y-60780091D01*
X94802516Y-60780091D01*
X94809444Y-60780835D01*
X94862127Y-60786500D01*
X96657872Y-60786499D01*
X96717483Y-60780091D01*
X96852331Y-60729796D01*
X96967546Y-60643546D01*
X97053796Y-60528331D01*
X97102810Y-60396916D01*
X97123089Y-60369826D01*
X97142848Y-60342383D01*
X97143962Y-60341943D01*
X97144681Y-60340984D01*
X97176372Y-60329163D01*
X97207846Y-60316752D01*
X97209021Y-60316984D01*
X97210145Y-60316566D01*
X97243211Y-60323758D01*
X97276384Y-60330331D01*
X97277629Y-60331245D01*
X97278418Y-60331417D01*
X97305027Y-60350953D01*
X97305848Y-60351744D01*
X97420208Y-60466104D01*
X97437843Y-60478917D01*
X97444035Y-60484882D01*
X97457256Y-60508058D01*
X97473550Y-60529188D01*
X97475631Y-60540270D01*
X97478655Y-60545571D01*
X97478209Y-60553997D01*
X97482000Y-60574179D01*
X97482000Y-62361820D01*
X97462315Y-62428859D01*
X97430888Y-62462136D01*
X97420211Y-62469893D01*
X97306673Y-62583431D01*
X97245350Y-62616915D01*
X97175658Y-62611931D01*
X97119725Y-62570059D01*
X97102810Y-62539082D01*
X97053797Y-62407671D01*
X97053793Y-62407664D01*
X96967547Y-62292455D01*
X96967544Y-62292452D01*
X96852335Y-62206206D01*
X96852328Y-62206202D01*
X96717482Y-62155908D01*
X96717483Y-62155908D01*
X96657883Y-62149501D01*
X96657881Y-62149500D01*
X96657873Y-62149500D01*
X96657864Y-62149500D01*
X94862129Y-62149500D01*
X94862123Y-62149501D01*
X94802516Y-62155908D01*
X94667671Y-62206202D01*
X94667664Y-62206206D01*
X94552455Y-62292452D01*
X94552452Y-62292455D01*
X94466206Y-62407664D01*
X94466202Y-62407671D01*
X94415908Y-62542517D01*
X94409501Y-62602116D01*
X94409500Y-62602135D01*
X94409500Y-64397870D01*
X94409501Y-64397876D01*
X94415908Y-64457483D01*
X94466202Y-64592328D01*
X94466206Y-64592335D01*
X94552452Y-64707544D01*
X94552455Y-64707547D01*
X94667664Y-64793793D01*
X94667671Y-64793797D01*
X94802517Y-64844091D01*
X94802516Y-64844091D01*
X94809444Y-64844835D01*
X94862127Y-64850500D01*
X96657872Y-64850499D01*
X96717483Y-64844091D01*
X96852331Y-64793796D01*
X96967546Y-64707546D01*
X97053796Y-64592331D01*
X97102810Y-64460916D01*
X97123089Y-64433826D01*
X97142848Y-64406383D01*
X97143962Y-64405943D01*
X97144681Y-64404984D01*
X97176372Y-64393163D01*
X97207846Y-64380752D01*
X97209021Y-64380984D01*
X97210145Y-64380566D01*
X97243211Y-64387758D01*
X97276384Y-64394331D01*
X97277629Y-64395245D01*
X97278418Y-64395417D01*
X97305027Y-64414953D01*
X97305848Y-64415744D01*
X97420208Y-64530104D01*
X97437843Y-64542917D01*
X97444035Y-64548882D01*
X97457256Y-64572058D01*
X97473550Y-64593188D01*
X97475631Y-64604270D01*
X97478655Y-64609571D01*
X97478209Y-64617997D01*
X97482000Y-64638179D01*
X97482000Y-66425820D01*
X97462315Y-66492859D01*
X97430888Y-66526136D01*
X97420211Y-66533893D01*
X97306673Y-66647431D01*
X97245350Y-66680915D01*
X97175658Y-66675931D01*
X97119725Y-66634059D01*
X97102810Y-66603082D01*
X97053797Y-66471671D01*
X97053793Y-66471664D01*
X96967547Y-66356455D01*
X96967544Y-66356452D01*
X96852335Y-66270206D01*
X96852328Y-66270202D01*
X96717482Y-66219908D01*
X96717483Y-66219908D01*
X96657883Y-66213501D01*
X96657881Y-66213500D01*
X96657873Y-66213500D01*
X96657864Y-66213500D01*
X94862129Y-66213500D01*
X94862123Y-66213501D01*
X94802516Y-66219908D01*
X94667671Y-66270202D01*
X94667664Y-66270206D01*
X94552455Y-66356452D01*
X94552452Y-66356455D01*
X94466206Y-66471664D01*
X94466202Y-66471671D01*
X94415908Y-66606517D01*
X94409501Y-66666116D01*
X94409500Y-66666135D01*
X94409500Y-68461870D01*
X94409501Y-68461876D01*
X94415908Y-68521483D01*
X94449172Y-68610667D01*
X94454156Y-68680359D01*
X94420671Y-68741682D01*
X94359347Y-68775166D01*
X94332990Y-68778000D01*
X73034189Y-68778000D01*
X72967150Y-68758315D01*
X72946508Y-68741681D01*
X72482319Y-68277492D01*
X72448834Y-68216169D01*
X72446000Y-68189811D01*
X72446000Y-66975433D01*
X72445999Y-66975429D01*
X72414566Y-66817402D01*
X72414563Y-66817393D01*
X72411953Y-66811090D01*
X72411953Y-66811091D01*
X72352904Y-66668534D01*
X72351296Y-66666128D01*
X72282722Y-66563500D01*
X72263382Y-66534555D01*
X72149445Y-66420618D01*
X72149442Y-66420616D01*
X71974711Y-66245885D01*
X71387448Y-65658620D01*
X71387444Y-65658617D01*
X71253474Y-65569100D01*
X71253461Y-65569093D01*
X71104606Y-65507436D01*
X71104594Y-65507433D01*
X70946570Y-65476000D01*
X70946566Y-65476000D01*
X69210180Y-65476000D01*
X69179677Y-65467043D01*
X69148739Y-65459708D01*
X69145833Y-65457105D01*
X69143141Y-65456315D01*
X69120883Y-65438035D01*
X69114914Y-65431839D01*
X69102104Y-65414208D01*
X68987744Y-65299848D01*
X68986953Y-65299027D01*
X68971283Y-65269016D01*
X68955084Y-65239350D01*
X68955169Y-65238155D01*
X68954614Y-65237092D01*
X68957656Y-65203380D01*
X68960068Y-65169658D01*
X68960786Y-65168698D01*
X68960894Y-65167505D01*
X68981667Y-65140805D01*
X69001940Y-65113725D01*
X69003325Y-65112968D01*
X69003799Y-65112360D01*
X69005601Y-65111725D01*
X69032915Y-65096810D01*
X69164331Y-65047796D01*
X69279546Y-64961546D01*
X69365796Y-64846331D01*
X69416091Y-64711483D01*
X69422500Y-64651873D01*
X69422499Y-63943085D01*
X76685432Y-63943085D01*
X76685432Y-64100778D01*
X76716193Y-64255421D01*
X76716196Y-64255433D01*
X76776534Y-64401104D01*
X76776541Y-64401117D01*
X76864142Y-64532220D01*
X76864145Y-64532224D01*
X76975639Y-64643718D01*
X76975643Y-64643721D01*
X77106746Y-64731322D01*
X77106759Y-64731329D01*
X77247539Y-64789641D01*
X77252435Y-64791669D01*
X77378560Y-64816757D01*
X77407085Y-64822431D01*
X77407088Y-64822432D01*
X77407090Y-64822432D01*
X77564776Y-64822432D01*
X77564777Y-64822431D01*
X77719429Y-64791669D01*
X77832098Y-64744999D01*
X77865104Y-64731329D01*
X77865104Y-64731328D01*
X77865111Y-64731326D01*
X77919595Y-64694921D01*
X77996807Y-64643330D01*
X78063485Y-64622452D01*
X78065698Y-64622432D01*
X78649571Y-64622432D01*
X78716610Y-64642117D01*
X78762365Y-64694921D01*
X78772309Y-64764079D01*
X78743284Y-64827635D01*
X78718462Y-64849534D01*
X78610218Y-64921860D01*
X78610214Y-64921863D01*
X78470863Y-65061214D01*
X78470860Y-65061218D01*
X78361371Y-65225079D01*
X78361364Y-65225092D01*
X78285950Y-65407160D01*
X78285947Y-65407170D01*
X78247500Y-65600456D01*
X78247500Y-65600459D01*
X78247500Y-66597541D01*
X78247500Y-66597543D01*
X78247499Y-66597543D01*
X78285947Y-66790829D01*
X78285950Y-66790839D01*
X78361364Y-66972907D01*
X78361371Y-66972920D01*
X78470860Y-67136781D01*
X78470863Y-67136785D01*
X78610214Y-67276136D01*
X78610218Y-67276139D01*
X78774079Y-67385628D01*
X78774092Y-67385635D01*
X78948200Y-67457752D01*
X78956165Y-67461051D01*
X78956169Y-67461051D01*
X78956170Y-67461052D01*
X79149456Y-67499500D01*
X79149459Y-67499500D01*
X79346543Y-67499500D01*
X79476582Y-67473632D01*
X79539835Y-67461051D01*
X79721914Y-67385632D01*
X79885782Y-67276139D01*
X80025139Y-67136782D01*
X80134632Y-66972914D01*
X80210051Y-66790835D01*
X80225134Y-66715009D01*
X80248500Y-66597543D01*
X86887499Y-66597543D01*
X86925947Y-66790829D01*
X86925950Y-66790839D01*
X87001364Y-66972907D01*
X87001371Y-66972920D01*
X87110860Y-67136781D01*
X87110863Y-67136785D01*
X87250214Y-67276136D01*
X87250218Y-67276139D01*
X87414079Y-67385628D01*
X87414092Y-67385635D01*
X87588200Y-67457752D01*
X87596165Y-67461051D01*
X87596169Y-67461051D01*
X87596170Y-67461052D01*
X87789456Y-67499500D01*
X87789459Y-67499500D01*
X87986543Y-67499500D01*
X88116582Y-67473632D01*
X88179835Y-67461051D01*
X88361914Y-67385632D01*
X88525782Y-67276139D01*
X88665139Y-67136782D01*
X88774632Y-66972914D01*
X88850051Y-66790835D01*
X88865134Y-66715009D01*
X88888500Y-66597543D01*
X88888500Y-65600456D01*
X88850052Y-65407170D01*
X88850051Y-65407169D01*
X88850051Y-65407165D01*
X88832690Y-65365251D01*
X88774635Y-65225092D01*
X88774628Y-65225079D01*
X88665139Y-65061218D01*
X88665136Y-65061214D01*
X88525785Y-64921863D01*
X88525781Y-64921860D01*
X88361920Y-64812371D01*
X88361907Y-64812364D01*
X88179839Y-64736950D01*
X88179829Y-64736947D01*
X87986543Y-64698500D01*
X87986541Y-64698500D01*
X87789459Y-64698500D01*
X87789457Y-64698500D01*
X87596170Y-64736947D01*
X87596160Y-64736950D01*
X87414092Y-64812364D01*
X87414079Y-64812371D01*
X87250218Y-64921860D01*
X87250214Y-64921863D01*
X87110863Y-65061214D01*
X87110860Y-65061218D01*
X87001371Y-65225079D01*
X87001364Y-65225092D01*
X86925950Y-65407160D01*
X86925947Y-65407170D01*
X86887500Y-65600456D01*
X86887500Y-65600459D01*
X86887500Y-66597541D01*
X86887500Y-66597543D01*
X86887499Y-66597543D01*
X80248500Y-66597543D01*
X80248500Y-65600456D01*
X80210052Y-65407170D01*
X80210051Y-65407169D01*
X80210051Y-65407165D01*
X80192690Y-65365251D01*
X80134635Y-65225092D01*
X80134628Y-65225079D01*
X80025139Y-65061218D01*
X80025136Y-65061214D01*
X79885785Y-64921863D01*
X79885781Y-64921860D01*
X79777538Y-64849534D01*
X79732733Y-64795922D01*
X79724026Y-64726597D01*
X79754181Y-64663569D01*
X79813624Y-64626850D01*
X79846429Y-64622432D01*
X80956234Y-64622432D01*
X81023273Y-64642117D01*
X81025125Y-64643330D01*
X81156814Y-64731322D01*
X81156827Y-64731329D01*
X81297607Y-64789641D01*
X81302503Y-64791669D01*
X81428628Y-64816757D01*
X81457153Y-64822431D01*
X81457156Y-64822432D01*
X81457158Y-64822432D01*
X81614844Y-64822432D01*
X81614845Y-64822431D01*
X81769497Y-64791669D01*
X81882166Y-64744999D01*
X81915172Y-64731329D01*
X81915172Y-64731328D01*
X81915179Y-64731326D01*
X82046289Y-64643721D01*
X82157789Y-64532221D01*
X82245394Y-64401111D01*
X82265073Y-64353599D01*
X82308912Y-64299196D01*
X82375206Y-64277130D01*
X82403826Y-64279434D01*
X82479223Y-64294432D01*
X82479226Y-64294432D01*
X82636912Y-64294432D01*
X82636913Y-64294431D01*
X82791565Y-64263669D01*
X82937247Y-64203326D01*
X83068357Y-64115721D01*
X83179857Y-64004221D01*
X83267462Y-63873111D01*
X83327805Y-63727429D01*
X83358568Y-63572774D01*
X83358568Y-63415090D01*
X83358568Y-63415087D01*
X83358567Y-63415085D01*
X83354316Y-63393713D01*
X83327805Y-63260435D01*
X83324391Y-63252193D01*
X83267465Y-63114759D01*
X83267458Y-63114746D01*
X83179857Y-62983643D01*
X83179854Y-62983639D01*
X83068360Y-62872145D01*
X83068356Y-62872142D01*
X82937253Y-62784541D01*
X82937240Y-62784534D01*
X82791569Y-62724196D01*
X82791557Y-62724193D01*
X82636913Y-62693432D01*
X82636910Y-62693432D01*
X82479226Y-62693432D01*
X82479223Y-62693432D01*
X82324578Y-62724193D01*
X82324566Y-62724196D01*
X82178895Y-62784534D01*
X82178882Y-62784541D01*
X82047193Y-62872534D01*
X81980515Y-62893412D01*
X81978302Y-62893432D01*
X81170692Y-62893432D01*
X81103653Y-62873747D01*
X81057898Y-62820943D01*
X81047954Y-62751785D01*
X81063303Y-62707434D01*
X81123332Y-62603463D01*
X81155900Y-62481917D01*
X81155900Y-62356083D01*
X85980100Y-62356083D01*
X85980100Y-62481917D01*
X85995417Y-62539082D01*
X86012668Y-62603464D01*
X86044126Y-62657950D01*
X86075585Y-62712438D01*
X86164562Y-62801415D01*
X86273537Y-62864332D01*
X86395083Y-62896900D01*
X86395085Y-62896900D01*
X86520915Y-62896900D01*
X86520917Y-62896900D01*
X86642463Y-62864332D01*
X86751438Y-62801415D01*
X86755496Y-62797356D01*
X86816814Y-62763871D01*
X86886506Y-62768852D01*
X86942441Y-62810721D01*
X86957739Y-62837584D01*
X87001364Y-62942907D01*
X87001371Y-62942920D01*
X87110860Y-63106781D01*
X87110863Y-63106785D01*
X87250214Y-63246136D01*
X87250218Y-63246139D01*
X87414079Y-63355628D01*
X87414092Y-63355635D01*
X87557619Y-63415085D01*
X87596165Y-63431051D01*
X87596169Y-63431051D01*
X87596170Y-63431052D01*
X87789456Y-63469500D01*
X87789459Y-63469500D01*
X87986543Y-63469500D01*
X88116582Y-63443632D01*
X88179835Y-63431051D01*
X88361914Y-63355632D01*
X88525782Y-63246139D01*
X88665139Y-63106782D01*
X88774632Y-62942914D01*
X88850051Y-62760835D01*
X88878679Y-62616915D01*
X88888500Y-62567543D01*
X88888500Y-61270456D01*
X88850052Y-61077170D01*
X88850051Y-61077169D01*
X88850051Y-61077165D01*
X88850049Y-61077160D01*
X88774635Y-60895092D01*
X88774628Y-60895079D01*
X88665139Y-60731218D01*
X88665136Y-60731214D01*
X88525785Y-60591863D01*
X88525781Y-60591860D01*
X88361920Y-60482371D01*
X88361907Y-60482364D01*
X88179839Y-60406950D01*
X88179829Y-60406947D01*
X87986543Y-60368500D01*
X87986541Y-60368500D01*
X87789459Y-60368500D01*
X87789457Y-60368500D01*
X87596170Y-60406947D01*
X87596160Y-60406950D01*
X87414092Y-60482364D01*
X87414079Y-60482371D01*
X87250218Y-60591860D01*
X87250214Y-60591863D01*
X87110863Y-60731214D01*
X87110860Y-60731218D01*
X87001371Y-60895079D01*
X87001364Y-60895092D01*
X86925950Y-61077160D01*
X86925947Y-61077170D01*
X86887500Y-61270456D01*
X86887500Y-61900365D01*
X86867815Y-61967404D01*
X86815011Y-62013159D01*
X86745853Y-62023103D01*
X86701501Y-62007752D01*
X86642470Y-61973670D01*
X86642465Y-61973669D01*
X86642464Y-61973668D01*
X86642463Y-61973668D01*
X86520917Y-61941100D01*
X86395083Y-61941100D01*
X86273535Y-61973668D01*
X86164562Y-62036585D01*
X86164559Y-62036587D01*
X86075587Y-62125559D01*
X86075585Y-62125562D01*
X86012668Y-62234535D01*
X86008818Y-62248904D01*
X85980100Y-62356083D01*
X81155900Y-62356083D01*
X81123332Y-62234537D01*
X81060415Y-62125562D01*
X80971438Y-62036585D01*
X80910448Y-62001372D01*
X80862464Y-61973668D01*
X80760887Y-61946451D01*
X80740917Y-61941100D01*
X80615083Y-61941100D01*
X80493537Y-61973668D01*
X80493536Y-61973668D01*
X80493534Y-61973669D01*
X80493529Y-61973670D01*
X80434499Y-62007752D01*
X80366599Y-62024225D01*
X80300572Y-62001372D01*
X80257382Y-61946451D01*
X80248500Y-61900365D01*
X80248500Y-61270456D01*
X80210052Y-61077170D01*
X80210051Y-61077169D01*
X80210051Y-61077165D01*
X80210049Y-61077160D01*
X80134635Y-60895092D01*
X80134628Y-60895079D01*
X80025139Y-60731218D01*
X80025136Y-60731214D01*
X79885785Y-60591863D01*
X79885781Y-60591860D01*
X79721920Y-60482371D01*
X79721907Y-60482364D01*
X79539839Y-60406950D01*
X79539829Y-60406947D01*
X79346543Y-60368500D01*
X79346541Y-60368500D01*
X79149459Y-60368500D01*
X79149457Y-60368500D01*
X78956170Y-60406947D01*
X78956160Y-60406950D01*
X78774092Y-60482364D01*
X78774079Y-60482371D01*
X78610218Y-60591860D01*
X78610214Y-60591863D01*
X78470863Y-60731214D01*
X78470860Y-60731218D01*
X78361371Y-60895079D01*
X78361364Y-60895092D01*
X78285950Y-61077160D01*
X78285947Y-61077170D01*
X78247500Y-61270456D01*
X78247500Y-61270459D01*
X78247500Y-62567541D01*
X78248001Y-62570059D01*
X78256968Y-62615142D01*
X78250739Y-62684733D01*
X78207876Y-62739910D01*
X78182803Y-62753893D01*
X78108824Y-62784536D01*
X78108814Y-62784541D01*
X77977711Y-62872142D01*
X77977707Y-62872145D01*
X77866213Y-62983639D01*
X77866210Y-62983643D01*
X77778609Y-63114746D01*
X77778604Y-63114755D01*
X77760448Y-63158590D01*
X77716607Y-63212993D01*
X77650313Y-63235058D01*
X77621695Y-63232754D01*
X77564776Y-63221432D01*
X77564774Y-63221432D01*
X77407090Y-63221432D01*
X77407087Y-63221432D01*
X77252442Y-63252193D01*
X77252430Y-63252196D01*
X77106759Y-63312534D01*
X77106746Y-63312541D01*
X76975643Y-63400142D01*
X76975639Y-63400145D01*
X76864145Y-63511639D01*
X76864142Y-63511643D01*
X76776541Y-63642746D01*
X76776534Y-63642759D01*
X76716196Y-63788430D01*
X76716193Y-63788442D01*
X76685432Y-63943085D01*
X69422499Y-63943085D01*
X69422499Y-63727433D01*
X69422499Y-62856129D01*
X69422498Y-62856123D01*
X69422497Y-62856116D01*
X69416091Y-62796517D01*
X69414570Y-62792440D01*
X69365797Y-62661671D01*
X69365793Y-62661664D01*
X69279547Y-62546455D01*
X69279544Y-62546452D01*
X69164335Y-62460206D01*
X69164328Y-62460202D01*
X69029482Y-62409908D01*
X69029483Y-62409908D01*
X68969883Y-62403501D01*
X68969881Y-62403500D01*
X68969873Y-62403500D01*
X68969864Y-62403500D01*
X67174129Y-62403500D01*
X67174123Y-62403501D01*
X67114516Y-62409908D01*
X66979671Y-62460202D01*
X66979664Y-62460206D01*
X66864455Y-62546452D01*
X66864452Y-62546455D01*
X66778206Y-62661664D01*
X66778202Y-62661671D01*
X66727908Y-62796517D01*
X66722530Y-62846543D01*
X66721501Y-62856123D01*
X66721500Y-62856135D01*
X66721500Y-64651870D01*
X66721501Y-64651876D01*
X66727908Y-64711483D01*
X66778202Y-64846328D01*
X66778206Y-64846335D01*
X66864452Y-64961544D01*
X66864455Y-64961547D01*
X66979664Y-65047793D01*
X66979671Y-65047797D01*
X67111082Y-65096810D01*
X67167016Y-65138681D01*
X67191433Y-65204145D01*
X67176582Y-65272418D01*
X67155431Y-65300673D01*
X67041889Y-65414215D01*
X66916951Y-65586179D01*
X66820444Y-65775585D01*
X66754753Y-65977760D01*
X66733773Y-66110223D01*
X66721500Y-66187713D01*
X66721500Y-66400287D01*
X66722940Y-66409380D01*
X66754163Y-66606517D01*
X66754754Y-66610243D01*
X66820013Y-66811090D01*
X66820444Y-66812414D01*
X66916951Y-67001820D01*
X67041890Y-67173786D01*
X67192213Y-67324109D01*
X67364179Y-67449048D01*
X67364181Y-67449049D01*
X67364184Y-67449051D01*
X67373493Y-67453794D01*
X67424290Y-67501766D01*
X67441087Y-67569587D01*
X67418552Y-67635722D01*
X67373505Y-67674760D01*
X67364446Y-67679376D01*
X67364440Y-67679380D01*
X67310282Y-67718727D01*
X67310282Y-67718728D01*
X67942591Y-68351037D01*
X67879007Y-68368075D01*
X67764993Y-68433901D01*
X67671901Y-68526993D01*
X67606075Y-68641007D01*
X67589037Y-68704591D01*
X66956728Y-68072282D01*
X66956727Y-68072282D01*
X66917380Y-68126439D01*
X66820904Y-68315782D01*
X66755242Y-68517869D01*
X66755242Y-68517872D01*
X66722000Y-68727753D01*
X66722000Y-68940246D01*
X66755242Y-69150127D01*
X66755242Y-69150130D01*
X66820904Y-69352217D01*
X66917375Y-69541550D01*
X66956728Y-69595716D01*
X67589037Y-68963408D01*
X67606075Y-69026993D01*
X67671901Y-69141007D01*
X67764993Y-69234099D01*
X67879007Y-69299925D01*
X67942590Y-69316962D01*
X67310282Y-69949269D01*
X67310282Y-69949270D01*
X67364452Y-69988626D01*
X67374048Y-69993516D01*
X67424844Y-70041491D01*
X67441638Y-70109312D01*
X67419100Y-70175447D01*
X67364384Y-70218897D01*
X67317752Y-70228000D01*
X64762248Y-70228000D01*
X64695209Y-70208315D01*
X64649454Y-70155511D01*
X64639510Y-70086353D01*
X64668535Y-70022797D01*
X64705952Y-69993516D01*
X64715551Y-69988624D01*
X64769716Y-69949270D01*
X64769717Y-69949270D01*
X64137408Y-69316962D01*
X64200993Y-69299925D01*
X64315007Y-69234099D01*
X64408099Y-69141007D01*
X64473925Y-69026993D01*
X64490962Y-68963408D01*
X65123270Y-69595717D01*
X65123270Y-69595716D01*
X65162622Y-69541554D01*
X65259095Y-69352217D01*
X65324757Y-69150130D01*
X65324757Y-69150127D01*
X65358000Y-68940246D01*
X65358000Y-68727753D01*
X65324757Y-68517872D01*
X65324757Y-68517869D01*
X65259095Y-68315782D01*
X65162624Y-68126449D01*
X65123270Y-68072282D01*
X65123269Y-68072282D01*
X64490962Y-68704590D01*
X64473925Y-68641007D01*
X64408099Y-68526993D01*
X64315007Y-68433901D01*
X64200993Y-68368075D01*
X64137409Y-68351037D01*
X64769716Y-67718728D01*
X64715547Y-67679373D01*
X64715547Y-67679372D01*
X64706500Y-67674763D01*
X64655706Y-67626788D01*
X64638912Y-67558966D01*
X64661451Y-67492832D01*
X64706508Y-67453793D01*
X64715816Y-67449051D01*
X64840440Y-67358507D01*
X64887786Y-67324109D01*
X64887788Y-67324106D01*
X64887792Y-67324104D01*
X65038104Y-67173792D01*
X65038106Y-67173788D01*
X65038109Y-67173786D01*
X65159808Y-67006279D01*
X65163051Y-67001816D01*
X65259557Y-66812412D01*
X65325246Y-66610243D01*
X65358500Y-66400287D01*
X65358500Y-66187713D01*
X65325246Y-65977757D01*
X65259557Y-65775588D01*
X65163051Y-65586184D01*
X65163049Y-65586181D01*
X65163048Y-65586179D01*
X65038109Y-65414213D01*
X64924569Y-65300673D01*
X64891084Y-65239350D01*
X64896068Y-65169658D01*
X64937940Y-65113725D01*
X64968915Y-65096810D01*
X65100331Y-65047796D01*
X65215546Y-64961546D01*
X65301796Y-64846331D01*
X65352091Y-64711483D01*
X65358500Y-64651873D01*
X65358499Y-62856128D01*
X65352091Y-62796517D01*
X65350570Y-62792440D01*
X65301797Y-62661671D01*
X65301793Y-62661664D01*
X65215547Y-62546455D01*
X65215544Y-62546452D01*
X65100335Y-62460206D01*
X65100328Y-62460202D01*
X64965482Y-62409908D01*
X64965483Y-62409908D01*
X64905883Y-62403501D01*
X64905881Y-62403500D01*
X64905873Y-62403500D01*
X64905864Y-62403500D01*
X63110129Y-62403500D01*
X63110123Y-62403501D01*
X63050516Y-62409908D01*
X62915671Y-62460202D01*
X62915664Y-62460206D01*
X62800455Y-62546452D01*
X62800452Y-62546455D01*
X62714206Y-62661664D01*
X62714202Y-62661671D01*
X62663908Y-62796517D01*
X62658530Y-62846543D01*
X62657501Y-62856123D01*
X62657500Y-62856135D01*
X62657500Y-64651870D01*
X62657501Y-64651876D01*
X62663908Y-64711483D01*
X62714202Y-64846328D01*
X62714206Y-64846335D01*
X62800452Y-64961544D01*
X62800455Y-64961547D01*
X62915664Y-65047793D01*
X62915671Y-65047797D01*
X63047082Y-65096810D01*
X63103016Y-65138681D01*
X63127433Y-65204145D01*
X63112582Y-65272418D01*
X63091431Y-65300673D01*
X62977889Y-65414215D01*
X62852951Y-65586179D01*
X62756444Y-65775585D01*
X62690753Y-65977760D01*
X62669773Y-66110223D01*
X62657500Y-66187713D01*
X62657500Y-66400287D01*
X62658940Y-66409380D01*
X62690163Y-66606517D01*
X62690754Y-66610243D01*
X62756013Y-66811090D01*
X62756444Y-66812414D01*
X62852951Y-67001820D01*
X62977890Y-67173786D01*
X63128213Y-67324109D01*
X63300179Y-67449048D01*
X63300181Y-67449049D01*
X63300184Y-67449051D01*
X63309493Y-67453794D01*
X63360290Y-67501766D01*
X63377087Y-67569587D01*
X63354552Y-67635722D01*
X63309505Y-67674760D01*
X63300446Y-67679376D01*
X63300440Y-67679380D01*
X63246282Y-67718727D01*
X63246282Y-67718728D01*
X63878591Y-68351037D01*
X63815007Y-68368075D01*
X63700993Y-68433901D01*
X63607901Y-68526993D01*
X63542075Y-68641007D01*
X63525037Y-68704591D01*
X62892728Y-68072282D01*
X62892727Y-68072282D01*
X62853380Y-68126439D01*
X62756904Y-68315782D01*
X62691242Y-68517869D01*
X62691242Y-68517872D01*
X62658000Y-68727753D01*
X62658000Y-68940246D01*
X62691242Y-69150127D01*
X62691242Y-69150130D01*
X62756904Y-69352217D01*
X62853375Y-69541550D01*
X62892728Y-69595716D01*
X63525037Y-68963408D01*
X63542075Y-69026993D01*
X63607901Y-69141007D01*
X63700993Y-69234099D01*
X63815007Y-69299925D01*
X63878590Y-69316962D01*
X63246282Y-69949269D01*
X63246282Y-69949270D01*
X63300452Y-69988626D01*
X63310048Y-69993516D01*
X63360844Y-70041491D01*
X63377638Y-70109312D01*
X63355100Y-70175447D01*
X63300384Y-70218897D01*
X63253752Y-70228000D01*
X60734248Y-70228000D01*
X60667209Y-70208315D01*
X60621454Y-70155511D01*
X60611510Y-70086353D01*
X60640535Y-70022797D01*
X60677952Y-69993516D01*
X60687551Y-69988624D01*
X60741716Y-69949270D01*
X60741717Y-69949270D01*
X60109408Y-69316962D01*
X60172993Y-69299925D01*
X60287007Y-69234099D01*
X60380099Y-69141007D01*
X60445925Y-69026993D01*
X60462962Y-68963408D01*
X61095270Y-69595717D01*
X61095270Y-69595716D01*
X61134622Y-69541554D01*
X61231095Y-69352217D01*
X61296757Y-69150130D01*
X61296757Y-69150127D01*
X61330000Y-68940246D01*
X61330000Y-68727753D01*
X61296757Y-68517872D01*
X61296757Y-68517869D01*
X61231095Y-68315782D01*
X61134624Y-68126449D01*
X61095270Y-68072282D01*
X61095269Y-68072282D01*
X60462962Y-68704590D01*
X60445925Y-68641007D01*
X60380099Y-68526993D01*
X60287007Y-68433901D01*
X60172993Y-68368075D01*
X60109409Y-68351037D01*
X60741716Y-67718728D01*
X60687547Y-67679373D01*
X60687547Y-67679372D01*
X60678500Y-67674763D01*
X60627706Y-67626788D01*
X60610912Y-67558966D01*
X60633451Y-67492832D01*
X60678508Y-67453793D01*
X60687816Y-67449051D01*
X60812440Y-67358507D01*
X60859786Y-67324109D01*
X60859788Y-67324106D01*
X60859792Y-67324104D01*
X61010104Y-67173792D01*
X61010106Y-67173788D01*
X61010109Y-67173786D01*
X61131808Y-67006279D01*
X61135051Y-67001816D01*
X61231557Y-66812412D01*
X61297246Y-66610243D01*
X61330500Y-66400287D01*
X61330500Y-66187713D01*
X61297246Y-65977757D01*
X61231557Y-65775588D01*
X61135051Y-65586184D01*
X61135049Y-65586181D01*
X61135048Y-65586179D01*
X61010109Y-65414213D01*
X60896569Y-65300673D01*
X60863084Y-65239350D01*
X60868068Y-65169658D01*
X60909940Y-65113725D01*
X60940915Y-65096810D01*
X61072331Y-65047796D01*
X61187546Y-64961546D01*
X61273796Y-64846331D01*
X61324091Y-64711483D01*
X61330500Y-64651873D01*
X61330499Y-62856128D01*
X61324091Y-62796517D01*
X61322570Y-62792440D01*
X61273797Y-62661671D01*
X61273793Y-62661664D01*
X61187547Y-62546455D01*
X61187544Y-62546452D01*
X61072335Y-62460206D01*
X61072328Y-62460202D01*
X60937482Y-62409908D01*
X60937483Y-62409908D01*
X60877883Y-62403501D01*
X60877881Y-62403500D01*
X60877873Y-62403500D01*
X60877864Y-62403500D01*
X59082129Y-62403500D01*
X59082123Y-62403501D01*
X59022516Y-62409908D01*
X58887671Y-62460202D01*
X58887664Y-62460206D01*
X58772455Y-62546452D01*
X58772452Y-62546455D01*
X58686206Y-62661664D01*
X58686202Y-62661671D01*
X58635908Y-62796517D01*
X58630530Y-62846543D01*
X58629501Y-62856123D01*
X58629500Y-62856135D01*
X58629500Y-64651870D01*
X58629501Y-64651876D01*
X58635908Y-64711483D01*
X58686202Y-64846328D01*
X58686206Y-64846335D01*
X58772452Y-64961544D01*
X58772455Y-64961547D01*
X58887664Y-65047793D01*
X58887671Y-65047797D01*
X59019082Y-65096810D01*
X59075016Y-65138681D01*
X59099433Y-65204145D01*
X59084582Y-65272418D01*
X59063431Y-65300673D01*
X58949889Y-65414215D01*
X58824951Y-65586179D01*
X58728444Y-65775585D01*
X58662753Y-65977760D01*
X58641773Y-66110223D01*
X58629500Y-66187713D01*
X58629500Y-66400287D01*
X58630940Y-66409380D01*
X58662163Y-66606517D01*
X58662754Y-66610243D01*
X58728013Y-66811090D01*
X58728444Y-66812414D01*
X58824951Y-67001820D01*
X58949890Y-67173786D01*
X59100213Y-67324109D01*
X59272179Y-67449048D01*
X59272181Y-67449049D01*
X59272184Y-67449051D01*
X59281493Y-67453794D01*
X59332290Y-67501766D01*
X59349087Y-67569587D01*
X59326552Y-67635722D01*
X59281505Y-67674760D01*
X59272446Y-67679376D01*
X59272440Y-67679380D01*
X59218282Y-67718727D01*
X59218282Y-67718728D01*
X59850591Y-68351037D01*
X59787007Y-68368075D01*
X59672993Y-68433901D01*
X59579901Y-68526993D01*
X59514075Y-68641007D01*
X59497037Y-68704591D01*
X58864728Y-68072282D01*
X58864727Y-68072282D01*
X58825380Y-68126439D01*
X58728904Y-68315782D01*
X58663242Y-68517869D01*
X58663242Y-68517872D01*
X58630000Y-68727753D01*
X58630000Y-68940246D01*
X58663242Y-69150127D01*
X58663242Y-69150130D01*
X58728904Y-69352217D01*
X58825375Y-69541550D01*
X58864728Y-69595716D01*
X59497037Y-68963408D01*
X59514075Y-69026993D01*
X59579901Y-69141007D01*
X59672993Y-69234099D01*
X59787007Y-69299925D01*
X59850590Y-69316962D01*
X59218282Y-69949269D01*
X59218282Y-69949270D01*
X59272452Y-69988626D01*
X59282048Y-69993516D01*
X59332844Y-70041491D01*
X59349638Y-70109312D01*
X59327100Y-70175447D01*
X59272384Y-70218897D01*
X59225752Y-70228000D01*
X56652248Y-70228000D01*
X56585209Y-70208315D01*
X56539454Y-70155511D01*
X56529510Y-70086353D01*
X56558535Y-70022797D01*
X56595952Y-69993516D01*
X56605551Y-69988624D01*
X56659716Y-69949270D01*
X56659717Y-69949270D01*
X56027408Y-69316962D01*
X56090993Y-69299925D01*
X56205007Y-69234099D01*
X56298099Y-69141007D01*
X56363925Y-69026993D01*
X56380962Y-68963408D01*
X57013270Y-69595717D01*
X57013270Y-69595716D01*
X57052622Y-69541554D01*
X57149095Y-69352217D01*
X57214757Y-69150130D01*
X57214757Y-69150127D01*
X57248000Y-68940246D01*
X57248000Y-68727753D01*
X57214757Y-68517872D01*
X57214757Y-68517869D01*
X57149095Y-68315782D01*
X57052624Y-68126449D01*
X57013270Y-68072282D01*
X57013269Y-68072282D01*
X56380962Y-68704590D01*
X56363925Y-68641007D01*
X56298099Y-68526993D01*
X56205007Y-68433901D01*
X56090993Y-68368075D01*
X56027409Y-68351037D01*
X56659716Y-67718728D01*
X56605547Y-67679373D01*
X56605547Y-67679372D01*
X56596500Y-67674763D01*
X56545706Y-67626788D01*
X56528912Y-67558966D01*
X56551451Y-67492832D01*
X56596508Y-67453793D01*
X56605816Y-67449051D01*
X56730440Y-67358507D01*
X56777786Y-67324109D01*
X56777788Y-67324106D01*
X56777792Y-67324104D01*
X56928104Y-67173792D01*
X56928106Y-67173788D01*
X56928109Y-67173786D01*
X57049808Y-67006279D01*
X57053051Y-67001816D01*
X57149557Y-66812412D01*
X57215246Y-66610243D01*
X57248500Y-66400287D01*
X57248500Y-66187713D01*
X57215246Y-65977757D01*
X57149557Y-65775588D01*
X57053051Y-65586184D01*
X57053049Y-65586181D01*
X57053048Y-65586179D01*
X56928109Y-65414213D01*
X56814569Y-65300673D01*
X56781084Y-65239350D01*
X56786068Y-65169658D01*
X56827940Y-65113725D01*
X56858915Y-65096810D01*
X56990331Y-65047796D01*
X57105546Y-64961546D01*
X57191796Y-64846331D01*
X57242091Y-64711483D01*
X57248500Y-64651873D01*
X57248499Y-62856128D01*
X57242091Y-62796517D01*
X57240570Y-62792440D01*
X57191797Y-62661671D01*
X57191793Y-62661664D01*
X57105547Y-62546455D01*
X57105544Y-62546452D01*
X56990335Y-62460206D01*
X56990328Y-62460202D01*
X56855482Y-62409908D01*
X56855483Y-62409908D01*
X56795883Y-62403501D01*
X56795881Y-62403500D01*
X56795873Y-62403500D01*
X56795864Y-62403500D01*
X55000129Y-62403500D01*
X55000123Y-62403501D01*
X54940516Y-62409908D01*
X54805671Y-62460202D01*
X54805664Y-62460206D01*
X54690455Y-62546452D01*
X54690452Y-62546455D01*
X54604206Y-62661664D01*
X54604202Y-62661671D01*
X54553908Y-62796517D01*
X54548530Y-62846543D01*
X54547501Y-62856123D01*
X54547500Y-62856135D01*
X54547500Y-64651870D01*
X54547501Y-64651876D01*
X54553908Y-64711483D01*
X54604202Y-64846328D01*
X54604206Y-64846335D01*
X54690452Y-64961544D01*
X54690455Y-64961547D01*
X54805664Y-65047793D01*
X54805671Y-65047797D01*
X54937082Y-65096810D01*
X54993016Y-65138681D01*
X55017433Y-65204145D01*
X55002582Y-65272418D01*
X54981431Y-65300673D01*
X54867889Y-65414215D01*
X54742951Y-65586179D01*
X54646444Y-65775585D01*
X54580753Y-65977760D01*
X54559773Y-66110223D01*
X54547500Y-66187713D01*
X54547500Y-66400287D01*
X54548940Y-66409380D01*
X54580163Y-66606517D01*
X54580754Y-66610243D01*
X54646013Y-66811090D01*
X54646444Y-66812414D01*
X54742951Y-67001820D01*
X54867890Y-67173786D01*
X55018213Y-67324109D01*
X55190179Y-67449048D01*
X55190181Y-67449049D01*
X55190184Y-67449051D01*
X55199493Y-67453794D01*
X55250290Y-67501766D01*
X55267087Y-67569587D01*
X55244552Y-67635722D01*
X55199505Y-67674760D01*
X55190446Y-67679376D01*
X55190440Y-67679380D01*
X55136282Y-67718727D01*
X55136282Y-67718728D01*
X55768591Y-68351037D01*
X55705007Y-68368075D01*
X55590993Y-68433901D01*
X55497901Y-68526993D01*
X55432075Y-68641007D01*
X55415037Y-68704591D01*
X54782728Y-68072282D01*
X54782727Y-68072282D01*
X54743380Y-68126439D01*
X54646904Y-68315782D01*
X54581242Y-68517869D01*
X54581242Y-68517872D01*
X54548000Y-68727753D01*
X54548000Y-68940246D01*
X54581242Y-69150127D01*
X54581242Y-69150130D01*
X54646904Y-69352217D01*
X54743375Y-69541550D01*
X54782728Y-69595716D01*
X55415037Y-68963408D01*
X55432075Y-69026993D01*
X55497901Y-69141007D01*
X55590993Y-69234099D01*
X55705007Y-69299925D01*
X55768590Y-69316962D01*
X55136282Y-69949269D01*
X55136282Y-69949270D01*
X55190452Y-69988626D01*
X55200048Y-69993516D01*
X55250844Y-70041491D01*
X55267638Y-70109312D01*
X55245100Y-70175447D01*
X55190384Y-70218897D01*
X55143752Y-70228000D01*
X52570248Y-70228000D01*
X52503209Y-70208315D01*
X52457454Y-70155511D01*
X52447510Y-70086353D01*
X52476535Y-70022797D01*
X52513952Y-69993516D01*
X52523551Y-69988624D01*
X52577716Y-69949270D01*
X52577717Y-69949270D01*
X51945408Y-69316962D01*
X52008993Y-69299925D01*
X52123007Y-69234099D01*
X52216099Y-69141007D01*
X52281925Y-69026993D01*
X52298962Y-68963408D01*
X52931270Y-69595717D01*
X52931270Y-69595716D01*
X52970622Y-69541554D01*
X53067095Y-69352217D01*
X53132757Y-69150130D01*
X53132757Y-69150127D01*
X53166000Y-68940246D01*
X53166000Y-68727753D01*
X53132757Y-68517872D01*
X53132757Y-68517869D01*
X53067095Y-68315782D01*
X52970624Y-68126449D01*
X52931270Y-68072282D01*
X52931269Y-68072282D01*
X52298962Y-68704590D01*
X52281925Y-68641007D01*
X52216099Y-68526993D01*
X52123007Y-68433901D01*
X52008993Y-68368075D01*
X51945409Y-68351037D01*
X52577716Y-67718728D01*
X52523547Y-67679373D01*
X52523547Y-67679372D01*
X52514500Y-67674763D01*
X52463706Y-67626788D01*
X52446912Y-67558966D01*
X52469451Y-67492832D01*
X52514508Y-67453793D01*
X52523816Y-67449051D01*
X52648440Y-67358507D01*
X52695786Y-67324109D01*
X52695788Y-67324106D01*
X52695792Y-67324104D01*
X52846104Y-67173792D01*
X52846106Y-67173788D01*
X52846109Y-67173786D01*
X52967808Y-67006279D01*
X52971051Y-67001816D01*
X53067557Y-66812412D01*
X53133246Y-66610243D01*
X53166500Y-66400287D01*
X53166500Y-66187713D01*
X53133246Y-65977757D01*
X53067557Y-65775588D01*
X52971051Y-65586184D01*
X52971049Y-65586181D01*
X52971048Y-65586179D01*
X52846109Y-65414213D01*
X52732569Y-65300673D01*
X52699084Y-65239350D01*
X52704068Y-65169658D01*
X52745940Y-65113725D01*
X52776915Y-65096810D01*
X52908331Y-65047796D01*
X53023546Y-64961546D01*
X53109796Y-64846331D01*
X53160091Y-64711483D01*
X53166500Y-64651873D01*
X53166499Y-62856128D01*
X53160091Y-62796517D01*
X53158570Y-62792440D01*
X53109797Y-62661671D01*
X53109793Y-62661664D01*
X53023547Y-62546455D01*
X53023544Y-62546452D01*
X52908335Y-62460206D01*
X52908328Y-62460202D01*
X52773482Y-62409908D01*
X52773483Y-62409908D01*
X52713883Y-62403501D01*
X52713881Y-62403500D01*
X52713873Y-62403500D01*
X52713864Y-62403500D01*
X50918129Y-62403500D01*
X50918123Y-62403501D01*
X50858516Y-62409908D01*
X50723671Y-62460202D01*
X50723664Y-62460206D01*
X50608455Y-62546452D01*
X50608452Y-62546455D01*
X50522206Y-62661664D01*
X50522202Y-62661671D01*
X50471908Y-62796517D01*
X50466530Y-62846543D01*
X50465501Y-62856123D01*
X50465500Y-62856135D01*
X50465500Y-64651870D01*
X50465501Y-64651876D01*
X50471908Y-64711483D01*
X50522202Y-64846328D01*
X50522206Y-64846335D01*
X50608452Y-64961544D01*
X50608455Y-64961547D01*
X50723664Y-65047793D01*
X50723671Y-65047797D01*
X50855082Y-65096810D01*
X50882184Y-65117098D01*
X50909616Y-65136848D01*
X50910055Y-65137961D01*
X50911016Y-65138681D01*
X50922845Y-65170396D01*
X50935247Y-65201846D01*
X50935014Y-65203021D01*
X50935433Y-65204145D01*
X50928240Y-65237211D01*
X50921668Y-65270384D01*
X50920753Y-65271629D01*
X50920582Y-65272418D01*
X50901046Y-65299027D01*
X50900228Y-65299875D01*
X50785896Y-65414208D01*
X50773086Y-65431839D01*
X50767117Y-65438035D01*
X50743937Y-65451257D01*
X50722806Y-65467552D01*
X50711726Y-65469632D01*
X50706428Y-65472655D01*
X50698003Y-65472209D01*
X50677820Y-65476000D01*
X48650189Y-65476000D01*
X48583150Y-65456315D01*
X48562508Y-65439681D01*
X48098319Y-64975492D01*
X48064834Y-64914169D01*
X48062000Y-64887811D01*
X48062000Y-37854902D01*
X82827500Y-37854902D01*
X82827500Y-38091097D01*
X82864446Y-38324368D01*
X82937433Y-38548996D01*
X83044657Y-38759433D01*
X83183483Y-38950510D01*
X83350490Y-39117517D01*
X83541567Y-39256343D01*
X83640991Y-39307002D01*
X83752003Y-39363566D01*
X83752005Y-39363566D01*
X83752008Y-39363568D01*
X83872412Y-39402689D01*
X83976631Y-39436553D01*
X84209903Y-39473500D01*
X84209908Y-39473500D01*
X84446097Y-39473500D01*
X84679368Y-39436553D01*
X84903992Y-39363568D01*
X85114433Y-39256343D01*
X85305510Y-39117517D01*
X85472517Y-38950510D01*
X85611343Y-38759433D01*
X85718568Y-38548992D01*
X85791553Y-38324368D01*
X85828500Y-38091097D01*
X85828500Y-37854902D01*
X85791553Y-37621631D01*
X85718566Y-37397003D01*
X85611342Y-37186566D01*
X85472517Y-36995490D01*
X85305510Y-36828483D01*
X85114433Y-36689657D01*
X84903996Y-36582433D01*
X84679368Y-36509446D01*
X84446097Y-36472500D01*
X84446092Y-36472500D01*
X84209908Y-36472500D01*
X84209903Y-36472500D01*
X83976631Y-36509446D01*
X83752003Y-36582433D01*
X83541566Y-36689657D01*
X83432550Y-36768862D01*
X83350490Y-36828483D01*
X83350488Y-36828485D01*
X83350487Y-36828485D01*
X83183485Y-36995487D01*
X83183485Y-36995488D01*
X83183483Y-36995490D01*
X83123862Y-37077550D01*
X83044657Y-37186566D01*
X82937433Y-37397003D01*
X82864446Y-37621631D01*
X82827500Y-37854902D01*
X48062000Y-37854902D01*
X48062000Y-35047153D01*
X58709500Y-35047153D01*
X58709500Y-35204846D01*
X58740261Y-35359489D01*
X58740264Y-35359501D01*
X58800602Y-35505172D01*
X58800609Y-35505185D01*
X58888210Y-35636288D01*
X58888213Y-35636292D01*
X58999707Y-35747786D01*
X58999711Y-35747789D01*
X59130814Y-35835390D01*
X59130827Y-35835397D01*
X59276498Y-35895735D01*
X59276503Y-35895737D01*
X59431153Y-35926499D01*
X59431156Y-35926500D01*
X59431158Y-35926500D01*
X59588844Y-35926500D01*
X59588845Y-35926499D01*
X59743497Y-35895737D01*
X59889179Y-35835394D01*
X60020289Y-35747789D01*
X60131789Y-35636289D01*
X60219394Y-35505179D01*
X60279737Y-35359497D01*
X60310500Y-35204842D01*
X60310500Y-35047158D01*
X60310500Y-35047155D01*
X60310499Y-35047153D01*
X60279738Y-34892510D01*
X60279737Y-34892503D01*
X60279735Y-34892498D01*
X60219397Y-34746827D01*
X60219390Y-34746814D01*
X60131398Y-34615125D01*
X60110520Y-34548447D01*
X60110500Y-34546234D01*
X60110500Y-34262098D01*
X60119144Y-34232658D01*
X60125671Y-34202665D01*
X60129423Y-34197652D01*
X60130185Y-34195059D01*
X60146823Y-34174412D01*
X60156422Y-34164814D01*
X60217747Y-34131332D01*
X60244099Y-34128500D01*
X67477331Y-34128500D01*
X67477347Y-34128501D01*
X67484943Y-34128501D01*
X67643054Y-34128501D01*
X67643057Y-34128501D01*
X67795785Y-34087577D01*
X67845904Y-34058639D01*
X67932716Y-34008520D01*
X68044520Y-33896716D01*
X68044520Y-33896714D01*
X68054728Y-33886507D01*
X68054730Y-33886504D01*
X68430506Y-33510728D01*
X68430511Y-33510724D01*
X68440714Y-33500520D01*
X68440716Y-33500520D01*
X68552520Y-33388716D01*
X68631577Y-33251784D01*
X68672500Y-33099057D01*
X68672500Y-27123459D01*
X68692185Y-27056420D01*
X68740208Y-27012973D01*
X68747006Y-27009510D01*
X68911010Y-26890355D01*
X69054355Y-26747010D01*
X69054357Y-26747006D01*
X69054360Y-26747004D01*
X69141085Y-26627635D01*
X69173510Y-26583006D01*
X69265543Y-26402382D01*
X69328187Y-26209584D01*
X69359900Y-26009360D01*
X69359900Y-25806640D01*
X69328187Y-25606416D01*
X69265543Y-25413618D01*
X69173510Y-25232994D01*
X69149672Y-25200184D01*
X69086109Y-25112695D01*
X69086106Y-25112692D01*
X69059286Y-25075777D01*
X69054355Y-25068990D01*
X69030044Y-25044679D01*
X87612600Y-25044679D01*
X87612600Y-25247320D01*
X87644299Y-25447463D01*
X87706921Y-25640192D01*
X87798916Y-25820744D01*
X87829545Y-25862899D01*
X87829546Y-25862900D01*
X88389765Y-25302680D01*
X88402950Y-25351885D01*
X88473174Y-25473515D01*
X88572485Y-25572826D01*
X88694115Y-25643050D01*
X88743319Y-25656234D01*
X88183099Y-26216453D01*
X88183099Y-26216454D01*
X88225254Y-26247082D01*
X88405807Y-26339078D01*
X88598536Y-26401700D01*
X88598535Y-26401700D01*
X88798680Y-26433400D01*
X89001320Y-26433400D01*
X89201463Y-26401700D01*
X89394192Y-26339078D01*
X89574747Y-26247081D01*
X89574751Y-26247079D01*
X89616899Y-26216454D01*
X89616900Y-26216454D01*
X89056680Y-25656234D01*
X89105885Y-25643050D01*
X89227515Y-25572826D01*
X89326826Y-25473515D01*
X89397050Y-25351885D01*
X89410234Y-25302680D01*
X89970454Y-25862900D01*
X89970454Y-25862899D01*
X90001079Y-25820751D01*
X90001084Y-25820742D01*
X90059234Y-25706616D01*
X90107208Y-25655820D01*
X90175029Y-25639024D01*
X90241164Y-25661561D01*
X90280203Y-25706614D01*
X90338490Y-25821007D01*
X90457639Y-25985004D01*
X90600995Y-26128360D01*
X90732964Y-26224239D01*
X90764994Y-26247510D01*
X90945618Y-26339543D01*
X91138416Y-26402187D01*
X91338640Y-26433900D01*
X91338641Y-26433900D01*
X91541359Y-26433900D01*
X91541360Y-26433900D01*
X91741584Y-26402187D01*
X91934382Y-26339543D01*
X92115006Y-26247510D01*
X92232207Y-26162359D01*
X92279004Y-26128360D01*
X92279006Y-26128357D01*
X92279010Y-26128355D01*
X92422355Y-25985010D01*
X92422357Y-25985006D01*
X92422360Y-25985004D01*
X92528042Y-25839543D01*
X114059499Y-25839543D01*
X114097947Y-26032829D01*
X114097950Y-26032839D01*
X114173364Y-26214907D01*
X114173371Y-26214920D01*
X114282860Y-26378781D01*
X114282863Y-26378785D01*
X114422214Y-26518136D01*
X114422218Y-26518139D01*
X114586079Y-26627628D01*
X114586092Y-26627635D01*
X114768160Y-26703049D01*
X114768165Y-26703051D01*
X114768169Y-26703051D01*
X114768170Y-26703052D01*
X114961456Y-26741500D01*
X114961459Y-26741500D01*
X115158543Y-26741500D01*
X115288582Y-26715632D01*
X115351835Y-26703051D01*
X115533914Y-26627632D01*
X115697782Y-26518139D01*
X115837139Y-26378782D01*
X115946632Y-26214914D01*
X116022051Y-26032835D01*
X116046883Y-25907999D01*
X116060500Y-25839543D01*
X122699499Y-25839543D01*
X122737947Y-26032829D01*
X122737950Y-26032839D01*
X122813364Y-26214907D01*
X122813371Y-26214920D01*
X122922860Y-26378781D01*
X122922863Y-26378785D01*
X123062214Y-26518136D01*
X123062218Y-26518139D01*
X123226079Y-26627628D01*
X123226092Y-26627635D01*
X123408160Y-26703049D01*
X123408165Y-26703051D01*
X123408169Y-26703051D01*
X123408170Y-26703052D01*
X123601456Y-26741500D01*
X123601459Y-26741500D01*
X123798543Y-26741500D01*
X123928582Y-26715632D01*
X123991835Y-26703051D01*
X124173914Y-26627632D01*
X124337782Y-26518139D01*
X124477139Y-26378782D01*
X124586632Y-26214914D01*
X124662051Y-26032835D01*
X124686883Y-25907999D01*
X124700500Y-25839543D01*
X124700500Y-24842456D01*
X124662052Y-24649170D01*
X124662051Y-24649169D01*
X124662051Y-24649165D01*
X124659083Y-24642000D01*
X124586635Y-24467092D01*
X124586628Y-24467079D01*
X124477139Y-24303218D01*
X124477136Y-24303214D01*
X124337785Y-24163863D01*
X124337781Y-24163860D01*
X124173920Y-24054371D01*
X124173907Y-24054364D01*
X123991839Y-23978950D01*
X123991829Y-23978947D01*
X123798543Y-23940500D01*
X123798541Y-23940500D01*
X123601459Y-23940500D01*
X123601457Y-23940500D01*
X123408170Y-23978947D01*
X123408160Y-23978950D01*
X123226092Y-24054364D01*
X123226079Y-24054371D01*
X123062218Y-24163860D01*
X123062214Y-24163863D01*
X122922863Y-24303214D01*
X122922860Y-24303218D01*
X122813371Y-24467079D01*
X122813364Y-24467092D01*
X122737950Y-24649160D01*
X122737947Y-24649170D01*
X122699500Y-24842456D01*
X122699500Y-24842459D01*
X122699500Y-25839541D01*
X122699500Y-25839543D01*
X122699499Y-25839543D01*
X116060500Y-25839543D01*
X116060500Y-24842456D01*
X116022052Y-24649170D01*
X116022051Y-24649169D01*
X116022051Y-24649165D01*
X116019083Y-24642000D01*
X115946635Y-24467092D01*
X115946628Y-24467079D01*
X115837139Y-24303218D01*
X115837136Y-24303214D01*
X115697785Y-24163863D01*
X115697781Y-24163860D01*
X115533920Y-24054371D01*
X115533907Y-24054364D01*
X115351839Y-23978950D01*
X115351829Y-23978947D01*
X115158543Y-23940500D01*
X115158541Y-23940500D01*
X114961459Y-23940500D01*
X114961457Y-23940500D01*
X114768170Y-23978947D01*
X114768160Y-23978950D01*
X114586092Y-24054364D01*
X114586079Y-24054371D01*
X114422218Y-24163860D01*
X114422214Y-24163863D01*
X114282863Y-24303214D01*
X114282860Y-24303218D01*
X114173371Y-24467079D01*
X114173364Y-24467092D01*
X114097950Y-24649160D01*
X114097947Y-24649170D01*
X114059500Y-24842456D01*
X114059500Y-24842459D01*
X114059500Y-25839541D01*
X114059500Y-25839543D01*
X114059499Y-25839543D01*
X92528042Y-25839543D01*
X92541510Y-25821006D01*
X92633543Y-25640382D01*
X92696187Y-25447584D01*
X92727900Y-25247360D01*
X92727900Y-25044640D01*
X92696187Y-24844416D01*
X92633543Y-24651618D01*
X92541510Y-24470994D01*
X92501469Y-24415882D01*
X92422360Y-24306995D01*
X92279004Y-24163639D01*
X92115009Y-24044492D01*
X92115008Y-24044491D01*
X92115006Y-24044490D01*
X91934382Y-23952457D01*
X91741584Y-23889813D01*
X91741582Y-23889812D01*
X91741580Y-23889812D01*
X91601782Y-23867670D01*
X91541360Y-23858100D01*
X91338640Y-23858100D01*
X91292224Y-23865451D01*
X91138419Y-23889812D01*
X90945615Y-23952458D01*
X90764990Y-24044492D01*
X90600995Y-24163639D01*
X90457639Y-24306995D01*
X90338490Y-24470992D01*
X90280203Y-24585385D01*
X90232228Y-24636180D01*
X90164407Y-24652975D01*
X90098273Y-24630437D01*
X90059234Y-24585383D01*
X90001084Y-24471257D01*
X90001084Y-24471256D01*
X89970453Y-24429099D01*
X89410233Y-24989318D01*
X89397050Y-24940115D01*
X89326826Y-24818485D01*
X89227515Y-24719174D01*
X89105885Y-24648950D01*
X89056680Y-24635765D01*
X89616900Y-24075546D01*
X89616899Y-24075545D01*
X89574744Y-24044916D01*
X89394192Y-23952921D01*
X89201463Y-23890299D01*
X89201464Y-23890299D01*
X89001320Y-23858600D01*
X88798680Y-23858600D01*
X88598536Y-23890299D01*
X88405807Y-23952921D01*
X88225250Y-24044919D01*
X88183099Y-24075544D01*
X88183098Y-24075545D01*
X88743319Y-24635765D01*
X88694115Y-24648950D01*
X88572485Y-24719174D01*
X88473174Y-24818485D01*
X88402950Y-24940115D01*
X88389766Y-24989319D01*
X87829545Y-24429098D01*
X87829544Y-24429099D01*
X87798919Y-24471250D01*
X87706921Y-24651807D01*
X87644299Y-24844536D01*
X87612600Y-25044679D01*
X69030044Y-25044679D01*
X68911010Y-24925645D01*
X68911004Y-24925639D01*
X68747009Y-24806492D01*
X68747008Y-24806491D01*
X68747006Y-24806490D01*
X68566382Y-24714457D01*
X68373584Y-24651813D01*
X68373582Y-24651812D01*
X68373580Y-24651812D01*
X68201001Y-24624478D01*
X68173360Y-24620100D01*
X67970640Y-24620100D01*
X67942999Y-24624478D01*
X67770419Y-24651812D01*
X67577615Y-24714458D01*
X67396990Y-24806492D01*
X67232995Y-24925639D01*
X67089639Y-25068995D01*
X66970490Y-25232992D01*
X66912203Y-25347385D01*
X66864228Y-25398180D01*
X66796407Y-25414975D01*
X66730273Y-25392437D01*
X66691234Y-25347383D01*
X66633084Y-25233257D01*
X66633084Y-25233256D01*
X66602453Y-25191099D01*
X66042233Y-25751318D01*
X66029050Y-25702115D01*
X65958826Y-25580485D01*
X65859515Y-25481174D01*
X65737885Y-25410950D01*
X65688680Y-25397765D01*
X66248900Y-24837546D01*
X66248899Y-24837545D01*
X66206744Y-24806916D01*
X66026192Y-24714921D01*
X65833463Y-24652299D01*
X65833464Y-24652299D01*
X65633320Y-24620600D01*
X65430680Y-24620600D01*
X65230536Y-24652299D01*
X65037807Y-24714921D01*
X64857250Y-24806919D01*
X64815099Y-24837544D01*
X64815098Y-24837545D01*
X65375319Y-25397765D01*
X65326115Y-25410950D01*
X65204485Y-25481174D01*
X65105174Y-25580485D01*
X65034950Y-25702115D01*
X65021766Y-25751319D01*
X64461545Y-25191098D01*
X64461544Y-25191099D01*
X64430919Y-25233250D01*
X64338921Y-25413807D01*
X64276299Y-25606536D01*
X64244600Y-25806679D01*
X64244600Y-26009320D01*
X64276299Y-26209463D01*
X64338921Y-26402192D01*
X64430916Y-26582744D01*
X64461545Y-26624899D01*
X64461546Y-26624900D01*
X65021765Y-26064680D01*
X65034950Y-26113885D01*
X65105174Y-26235515D01*
X65204485Y-26334826D01*
X65326115Y-26405050D01*
X65375319Y-26418234D01*
X64815099Y-26978453D01*
X64815099Y-26978454D01*
X64857254Y-27009082D01*
X65037807Y-27101078D01*
X65230536Y-27163700D01*
X65230535Y-27163700D01*
X65430680Y-27195400D01*
X65633320Y-27195400D01*
X65833463Y-27163700D01*
X66026192Y-27101078D01*
X66206747Y-27009081D01*
X66206751Y-27009079D01*
X66248899Y-26978454D01*
X66248900Y-26978454D01*
X65688680Y-26418234D01*
X65737885Y-26405050D01*
X65859515Y-26334826D01*
X65958826Y-26235515D01*
X66029050Y-26113885D01*
X66042234Y-26064680D01*
X66602454Y-26624900D01*
X66602454Y-26624899D01*
X66633079Y-26582751D01*
X66633084Y-26582742D01*
X66691234Y-26468616D01*
X66739208Y-26417820D01*
X66807029Y-26401024D01*
X66873164Y-26423561D01*
X66912203Y-26468614D01*
X66970490Y-26583007D01*
X67089639Y-26747004D01*
X67089645Y-26747010D01*
X67232990Y-26890355D01*
X67396994Y-27009510D01*
X67403791Y-27012973D01*
X67454588Y-27060944D01*
X67471500Y-27123459D01*
X67471500Y-32719903D01*
X67462855Y-32749343D01*
X67456332Y-32779330D01*
X67452577Y-32784345D01*
X67451815Y-32786942D01*
X67435181Y-32807584D01*
X67351584Y-32891181D01*
X67290261Y-32924666D01*
X67263903Y-32927500D01*
X60030670Y-32927500D01*
X60030654Y-32927499D01*
X60023058Y-32927499D01*
X59864943Y-32927499D01*
X59788579Y-32947961D01*
X59712214Y-32968423D01*
X59712209Y-32968426D01*
X59575290Y-33047475D01*
X59575282Y-33047481D01*
X59134217Y-33488546D01*
X59134214Y-33488548D01*
X59134215Y-33488549D01*
X59029478Y-33593286D01*
X58979361Y-33680094D01*
X58979359Y-33680096D01*
X58950425Y-33730209D01*
X58950424Y-33730210D01*
X58950423Y-33730215D01*
X58909499Y-33882943D01*
X58909499Y-33882945D01*
X58909499Y-34051046D01*
X58909500Y-34051059D01*
X58909500Y-34546234D01*
X58889815Y-34613273D01*
X58888602Y-34615125D01*
X58800609Y-34746814D01*
X58800602Y-34746827D01*
X58740264Y-34892498D01*
X58740261Y-34892510D01*
X58709500Y-35047153D01*
X48062000Y-35047153D01*
X48062000Y-27351433D01*
X48061999Y-27351429D01*
X48039925Y-27240454D01*
X48030565Y-27193398D01*
X47971228Y-27050149D01*
X47969584Y-27045551D01*
X47879382Y-26910554D01*
X47879379Y-26910551D01*
X47103227Y-26134400D01*
X47069742Y-26073077D01*
X47066921Y-26044937D01*
X47067048Y-26036078D01*
X47070500Y-26014287D01*
X47070500Y-25801713D01*
X48433500Y-25801713D01*
X48433500Y-26014286D01*
X48464431Y-26209581D01*
X48466754Y-26224243D01*
X48530948Y-26421812D01*
X48532444Y-26426414D01*
X48628951Y-26615820D01*
X48753890Y-26787786D01*
X48867430Y-26901326D01*
X48900915Y-26962649D01*
X48895931Y-27032341D01*
X48854059Y-27088274D01*
X48823083Y-27105189D01*
X48691669Y-27154203D01*
X48691664Y-27154206D01*
X48576455Y-27240452D01*
X48576452Y-27240455D01*
X48490206Y-27355664D01*
X48490202Y-27355671D01*
X48439908Y-27490517D01*
X48433501Y-27550116D01*
X48433501Y-27550123D01*
X48433500Y-27550135D01*
X48433500Y-29345870D01*
X48433501Y-29345876D01*
X48439908Y-29405483D01*
X48490202Y-29540328D01*
X48490206Y-29540335D01*
X48576452Y-29655544D01*
X48576455Y-29655547D01*
X48691664Y-29741793D01*
X48691671Y-29741797D01*
X48826517Y-29792091D01*
X48826516Y-29792091D01*
X48833444Y-29792835D01*
X48886127Y-29798500D01*
X50681872Y-29798499D01*
X50741483Y-29792091D01*
X50876331Y-29741796D01*
X50991546Y-29655546D01*
X51077796Y-29540331D01*
X51128091Y-29405483D01*
X51134500Y-29345873D01*
X51134499Y-27550128D01*
X51128091Y-27490517D01*
X51077796Y-27355669D01*
X51077795Y-27355668D01*
X51077793Y-27355664D01*
X50991547Y-27240455D01*
X50991544Y-27240452D01*
X50876335Y-27154206D01*
X50876328Y-27154202D01*
X50744917Y-27105189D01*
X50744916Y-27105189D01*
X50706844Y-27076688D01*
X50688983Y-27063318D01*
X50664566Y-26997853D01*
X50679418Y-26929580D01*
X50700566Y-26901329D01*
X50814104Y-26787792D01*
X50814107Y-26787787D01*
X50814109Y-26787786D01*
X50939048Y-26615820D01*
X50939047Y-26615820D01*
X50939051Y-26615816D01*
X51035557Y-26426412D01*
X51101246Y-26224243D01*
X51134500Y-26014287D01*
X51134500Y-25801713D01*
X51101246Y-25591757D01*
X51035557Y-25389588D01*
X50939051Y-25200184D01*
X50932450Y-25191098D01*
X50912416Y-25163523D01*
X50814109Y-25028213D01*
X50663786Y-24877890D01*
X50491817Y-24752949D01*
X50482504Y-24748204D01*
X50479517Y-24745383D01*
X50475537Y-24744368D01*
X50454331Y-24721597D01*
X50431707Y-24700230D01*
X50430719Y-24696242D01*
X50427920Y-24693236D01*
X50422391Y-24662612D01*
X50414912Y-24632409D01*
X50416236Y-24628521D01*
X50415507Y-24624478D01*
X50427411Y-24595729D01*
X50437449Y-24566274D01*
X50441116Y-24562631D01*
X50442238Y-24559924D01*
X50443156Y-24559179D01*
X52478000Y-24559179D01*
X52478000Y-24642000D01*
X53305291Y-24642000D01*
X53293548Y-24662339D01*
X53253000Y-24813667D01*
X53253000Y-24970333D01*
X53293548Y-25121661D01*
X53305291Y-25142000D01*
X52478000Y-25142000D01*
X52478000Y-25224820D01*
X52511734Y-25437809D01*
X52578372Y-25642901D01*
X52676271Y-25835036D01*
X52803025Y-26009496D01*
X52803025Y-26009497D01*
X52955502Y-26161974D01*
X53129963Y-26288728D01*
X53322098Y-26386627D01*
X53527190Y-26453266D01*
X53598000Y-26464481D01*
X53598000Y-25434709D01*
X53618339Y-25446452D01*
X53769667Y-25487000D01*
X53926333Y-25487000D01*
X54077661Y-25446452D01*
X54098000Y-25434709D01*
X54098000Y-26464480D01*
X54168809Y-26453266D01*
X54373901Y-26386627D01*
X54566036Y-26288728D01*
X54740496Y-26161974D01*
X54740497Y-26161974D01*
X54892974Y-26009497D01*
X54892979Y-26009491D01*
X55017372Y-25838280D01*
X55072702Y-25795614D01*
X55142315Y-25789635D01*
X55204110Y-25822241D01*
X55218008Y-25838279D01*
X55342641Y-26009821D01*
X55495179Y-26162359D01*
X55669701Y-26289157D01*
X55861911Y-26387092D01*
X56067074Y-26453754D01*
X56134796Y-26464480D01*
X56280134Y-26487500D01*
X56280139Y-26487500D01*
X56495866Y-26487500D01*
X56614230Y-26468752D01*
X56708926Y-26453754D01*
X56914089Y-26387092D01*
X57106299Y-26289157D01*
X57280821Y-26162359D01*
X57433359Y-26009821D01*
X57557682Y-25838704D01*
X57613012Y-25796040D01*
X57682626Y-25790061D01*
X57744420Y-25822667D01*
X57758315Y-25838702D01*
X57882641Y-26009821D01*
X58035179Y-26162359D01*
X58209701Y-26289157D01*
X58401911Y-26387092D01*
X58607074Y-26453754D01*
X58674796Y-26464480D01*
X58820134Y-26487500D01*
X58820139Y-26487500D01*
X59035866Y-26487500D01*
X59154230Y-26468752D01*
X59248926Y-26453754D01*
X59454089Y-26387092D01*
X59646299Y-26289157D01*
X59820821Y-26162359D01*
X59962807Y-26020372D01*
X60024126Y-25986890D01*
X60093818Y-25991874D01*
X60149752Y-26033745D01*
X60162864Y-26055645D01*
X60163181Y-26056326D01*
X60163186Y-26056334D01*
X60255288Y-26205656D01*
X60379344Y-26329712D01*
X60528666Y-26421814D01*
X60695203Y-26476999D01*
X60797991Y-26487500D01*
X62138008Y-26487499D01*
X62240797Y-26476999D01*
X62407334Y-26421814D01*
X62556656Y-26329712D01*
X62680712Y-26205656D01*
X62772814Y-26056334D01*
X62827999Y-25889797D01*
X62835054Y-25820742D01*
X62838276Y-25789204D01*
X62838276Y-25789202D01*
X62838498Y-25787025D01*
X62838500Y-25787009D01*
X62838499Y-23996992D01*
X62827999Y-23894203D01*
X62772814Y-23727666D01*
X62680712Y-23578344D01*
X62556656Y-23454288D01*
X62416760Y-23368000D01*
X62407336Y-23362187D01*
X62407331Y-23362185D01*
X62405862Y-23361698D01*
X62240797Y-23307001D01*
X62240795Y-23307000D01*
X62138010Y-23296500D01*
X60797998Y-23296500D01*
X60797981Y-23296501D01*
X60695203Y-23307000D01*
X60695200Y-23307001D01*
X60528668Y-23362185D01*
X60528663Y-23362187D01*
X60379342Y-23454289D01*
X60255289Y-23578342D01*
X60163179Y-23727677D01*
X60162861Y-23728360D01*
X60162518Y-23728748D01*
X60159395Y-23733813D01*
X60158529Y-23733278D01*
X60116683Y-23780794D01*
X60049487Y-23799939D01*
X59982608Y-23779716D01*
X59962804Y-23763624D01*
X59820823Y-23621643D01*
X59820821Y-23621641D01*
X59646299Y-23494843D01*
X59454089Y-23396908D01*
X59248926Y-23330246D01*
X59248924Y-23330245D01*
X59248922Y-23330245D01*
X59035866Y-23296500D01*
X59035861Y-23296500D01*
X58820139Y-23296500D01*
X58820134Y-23296500D01*
X58607077Y-23330245D01*
X58401908Y-23396909D01*
X58209700Y-23494843D01*
X58110129Y-23567186D01*
X58035179Y-23621641D01*
X58035177Y-23621643D01*
X58035176Y-23621643D01*
X57882643Y-23774176D01*
X57882643Y-23774177D01*
X57882641Y-23774179D01*
X57839233Y-23833925D01*
X57758318Y-23945294D01*
X57702988Y-23987959D01*
X57633374Y-23993938D01*
X57571579Y-23961332D01*
X57557682Y-23945294D01*
X57520562Y-23894203D01*
X57433359Y-23774179D01*
X57280821Y-23621641D01*
X57106299Y-23494843D01*
X56914089Y-23396908D01*
X56708926Y-23330246D01*
X56708924Y-23330245D01*
X56708922Y-23330245D01*
X56495866Y-23296500D01*
X56495861Y-23296500D01*
X56280139Y-23296500D01*
X56280134Y-23296500D01*
X56067077Y-23330245D01*
X55861908Y-23396909D01*
X55669700Y-23494843D01*
X55570129Y-23567186D01*
X55495179Y-23621641D01*
X55495177Y-23621643D01*
X55495176Y-23621643D01*
X55342642Y-23774177D01*
X55218008Y-23945720D01*
X55162677Y-23988385D01*
X55093064Y-23994364D01*
X55031269Y-23961758D01*
X55017372Y-23945720D01*
X54892974Y-23774503D01*
X54892974Y-23774502D01*
X54740497Y-23622025D01*
X54566036Y-23495271D01*
X54373899Y-23397372D01*
X54168805Y-23330733D01*
X54098000Y-23319518D01*
X54098000Y-24349290D01*
X54077661Y-24337548D01*
X53926333Y-24297000D01*
X53769667Y-24297000D01*
X53618339Y-24337548D01*
X53598000Y-24349290D01*
X53598000Y-23319518D01*
X53597999Y-23319518D01*
X53527194Y-23330733D01*
X53322100Y-23397372D01*
X53129963Y-23495271D01*
X52955503Y-23622025D01*
X52955502Y-23622025D01*
X52803025Y-23774502D01*
X52803025Y-23774503D01*
X52676271Y-23948963D01*
X52578372Y-24141098D01*
X52511734Y-24346190D01*
X52478000Y-24559179D01*
X50443156Y-24559179D01*
X50451038Y-24552779D01*
X50468066Y-24535871D01*
X50544934Y-24482487D01*
X49913408Y-23850962D01*
X49976993Y-23833925D01*
X50091007Y-23768099D01*
X50184099Y-23675007D01*
X50249925Y-23560993D01*
X50266962Y-23497409D01*
X50899270Y-24129717D01*
X50899270Y-24129716D01*
X50938622Y-24075554D01*
X51035095Y-23886217D01*
X51100757Y-23684130D01*
X51100757Y-23684127D01*
X51134000Y-23474246D01*
X51134000Y-23261753D01*
X51100757Y-23051872D01*
X51100757Y-23051869D01*
X51035095Y-22849782D01*
X50938624Y-22660449D01*
X50899270Y-22606282D01*
X50899269Y-22606282D01*
X50266962Y-23238590D01*
X50249925Y-23175007D01*
X50184099Y-23060993D01*
X50091007Y-22967901D01*
X49976993Y-22902075D01*
X49913409Y-22885037D01*
X50545716Y-22252728D01*
X50491550Y-22213375D01*
X50302217Y-22116904D01*
X50100129Y-22051242D01*
X49890246Y-22018000D01*
X49677754Y-22018000D01*
X49467872Y-22051242D01*
X49467869Y-22051242D01*
X49265782Y-22116904D01*
X49076439Y-22213380D01*
X49022282Y-22252727D01*
X49022282Y-22252728D01*
X49654591Y-22885037D01*
X49591007Y-22902075D01*
X49476993Y-22967901D01*
X49383901Y-23060993D01*
X49318075Y-23175007D01*
X49301037Y-23238591D01*
X48668728Y-22606282D01*
X48668727Y-22606282D01*
X48629380Y-22660439D01*
X48532904Y-22849782D01*
X48467242Y-23051869D01*
X48467242Y-23051872D01*
X48434000Y-23261753D01*
X48434000Y-23474246D01*
X48467242Y-23684127D01*
X48467242Y-23684130D01*
X48532904Y-23886217D01*
X48629375Y-24075550D01*
X48668728Y-24129716D01*
X49301037Y-23497408D01*
X49318075Y-23560993D01*
X49383901Y-23675007D01*
X49476993Y-23768099D01*
X49591007Y-23833925D01*
X49654590Y-23850962D01*
X49022282Y-24483269D01*
X49022282Y-24483270D01*
X49076452Y-24522626D01*
X49076451Y-24522626D01*
X49085495Y-24527234D01*
X49136292Y-24575208D01*
X49153087Y-24643029D01*
X49130550Y-24709164D01*
X49085499Y-24748202D01*
X49076182Y-24752949D01*
X48904213Y-24877890D01*
X48753890Y-25028213D01*
X48628951Y-25200179D01*
X48532444Y-25389585D01*
X48466753Y-25591760D01*
X48433500Y-25801713D01*
X47070500Y-25801713D01*
X47037246Y-25591757D01*
X46971557Y-25389588D01*
X46875051Y-25200184D01*
X46875049Y-25200181D01*
X46875048Y-25200179D01*
X46750109Y-25028213D01*
X46599786Y-24877890D01*
X46427817Y-24752949D01*
X46418504Y-24748204D01*
X46367707Y-24700230D01*
X46350912Y-24632409D01*
X46373449Y-24566274D01*
X46418507Y-24527232D01*
X46427555Y-24522622D01*
X46481716Y-24483270D01*
X46481717Y-24483270D01*
X45849408Y-23850962D01*
X45912993Y-23833925D01*
X46027007Y-23768099D01*
X46120099Y-23675007D01*
X46185925Y-23560993D01*
X46202962Y-23497408D01*
X46835270Y-24129717D01*
X46835270Y-24129716D01*
X46874622Y-24075554D01*
X46971095Y-23886217D01*
X47036757Y-23684130D01*
X47036757Y-23684127D01*
X47070000Y-23474246D01*
X47070000Y-23261753D01*
X47036757Y-23051872D01*
X47036757Y-23051869D01*
X46971095Y-22849782D01*
X46874624Y-22660449D01*
X46835270Y-22606282D01*
X46835269Y-22606282D01*
X46202962Y-23238590D01*
X46185925Y-23175007D01*
X46120099Y-23060993D01*
X46027007Y-22967901D01*
X45912993Y-22902075D01*
X45849409Y-22885037D01*
X46481716Y-22252728D01*
X46427550Y-22213375D01*
X46238217Y-22116904D01*
X46036129Y-22051242D01*
X45826246Y-22018000D01*
X45613754Y-22018000D01*
X45403872Y-22051242D01*
X45403869Y-22051242D01*
X45201782Y-22116904D01*
X45012439Y-22213380D01*
X44958282Y-22252727D01*
X44958282Y-22252728D01*
X45590591Y-22885037D01*
X45527007Y-22902075D01*
X45412993Y-22967901D01*
X45319901Y-23060993D01*
X45254075Y-23175007D01*
X45237037Y-23238591D01*
X44604728Y-22606282D01*
X44604727Y-22606282D01*
X44565380Y-22660439D01*
X44468904Y-22849782D01*
X44403242Y-23051869D01*
X44403242Y-23051872D01*
X44370000Y-23261753D01*
X44370000Y-23474246D01*
X44403242Y-23684127D01*
X44403242Y-23684130D01*
X44468904Y-23886217D01*
X44565375Y-24075550D01*
X44604728Y-24129716D01*
X45237037Y-23497408D01*
X45254075Y-23560993D01*
X45319901Y-23675007D01*
X45412993Y-23768099D01*
X45527007Y-23833925D01*
X45590590Y-23850962D01*
X44958282Y-24483269D01*
X44958282Y-24483270D01*
X45012452Y-24522626D01*
X45012451Y-24522626D01*
X45021495Y-24527234D01*
X45072292Y-24575208D01*
X45089087Y-24643029D01*
X45066550Y-24709164D01*
X45021499Y-24748202D01*
X45012182Y-24752949D01*
X44840213Y-24877890D01*
X44689890Y-25028213D01*
X44564951Y-25200179D01*
X44468444Y-25389585D01*
X44402753Y-25591760D01*
X44369500Y-25801713D01*
X44369500Y-26014286D01*
X44400431Y-26209581D01*
X44402754Y-26224243D01*
X44466948Y-26421812D01*
X44468444Y-26426414D01*
X44564951Y-26615820D01*
X44689890Y-26787786D01*
X44803430Y-26901326D01*
X44836915Y-26962649D01*
X44831931Y-27032341D01*
X44790059Y-27088274D01*
X44759083Y-27105189D01*
X44627669Y-27154203D01*
X44627664Y-27154206D01*
X44512455Y-27240452D01*
X44512452Y-27240455D01*
X44426206Y-27355664D01*
X44426202Y-27355671D01*
X44375908Y-27490517D01*
X44369501Y-27550116D01*
X44369501Y-27550123D01*
X44369500Y-27550135D01*
X44369500Y-29345870D01*
X44369501Y-29345876D01*
X44375908Y-29405483D01*
X44426202Y-29540328D01*
X44426206Y-29540335D01*
X44512452Y-29655544D01*
X44512455Y-29655547D01*
X44627664Y-29741793D01*
X44627671Y-29741797D01*
X44762517Y-29792091D01*
X44762516Y-29792091D01*
X44769444Y-29792835D01*
X44822127Y-29798500D01*
X46302000Y-29798499D01*
X46369039Y-29818184D01*
X46414794Y-29870987D01*
X46426000Y-29922499D01*
X46426000Y-65358570D01*
X46457433Y-65516594D01*
X46457436Y-65516606D01*
X46479179Y-65569097D01*
X46479180Y-65569099D01*
X46519097Y-65665468D01*
X46519098Y-65665471D01*
X46608617Y-65799444D01*
X46608620Y-65799448D01*
X47738551Y-66929379D01*
X47738555Y-66929382D01*
X47872528Y-67018901D01*
X47872530Y-67018902D01*
X47872532Y-67018903D01*
X47890320Y-67026271D01*
X47936950Y-67045586D01*
X47936955Y-67045587D01*
X47936957Y-67045588D01*
X48021398Y-67080565D01*
X48109428Y-67098075D01*
X48179429Y-67111999D01*
X48179433Y-67112000D01*
X48179434Y-67112000D01*
X50677820Y-67112000D01*
X50744859Y-67131685D01*
X50778137Y-67163113D01*
X50784024Y-67171216D01*
X50785895Y-67173790D01*
X50785897Y-67173793D01*
X50936213Y-67324109D01*
X51108179Y-67449048D01*
X51108181Y-67449049D01*
X51108184Y-67449051D01*
X51117493Y-67453794D01*
X51168290Y-67501766D01*
X51185087Y-67569587D01*
X51162552Y-67635722D01*
X51117505Y-67674760D01*
X51108446Y-67679376D01*
X51108440Y-67679380D01*
X51054282Y-67718727D01*
X51054282Y-67718728D01*
X51686591Y-68351037D01*
X51623007Y-68368075D01*
X51508993Y-68433901D01*
X51415901Y-68526993D01*
X51350075Y-68641007D01*
X51333037Y-68704591D01*
X50700728Y-68072282D01*
X50700727Y-68072282D01*
X50661380Y-68126439D01*
X50564904Y-68315782D01*
X50499242Y-68517869D01*
X50499242Y-68517872D01*
X50466000Y-68727753D01*
X50466000Y-68940246D01*
X50499242Y-69150127D01*
X50499242Y-69150130D01*
X50564904Y-69352217D01*
X50661375Y-69541550D01*
X50700728Y-69595716D01*
X51333037Y-68963408D01*
X51350075Y-69026993D01*
X51415901Y-69141007D01*
X51508993Y-69234099D01*
X51623007Y-69299925D01*
X51686590Y-69316962D01*
X51054282Y-69949269D01*
X51054282Y-69949270D01*
X51108452Y-69988626D01*
X51118048Y-69993516D01*
X51168844Y-70041491D01*
X51185638Y-70109312D01*
X51163100Y-70175447D01*
X51108384Y-70218897D01*
X51061752Y-70228000D01*
X41634000Y-70228000D01*
X41566961Y-70208315D01*
X41521206Y-70155511D01*
X41510000Y-70104000D01*
X41510000Y-20312500D01*
X41529685Y-20245461D01*
X41582489Y-20199706D01*
X41634000Y-20188500D01*
X148358000Y-20188500D01*
X148425039Y-20208185D01*
G37*
%TD.AperFunction*%
%TA.AperFunction,Conductor*%
G36*
X70542850Y-67131685D02*
G01*
X70563492Y-67148319D01*
X70773681Y-67358507D01*
X70807166Y-67419830D01*
X70810000Y-67446188D01*
X70810000Y-68660570D01*
X70841433Y-68818594D01*
X70841436Y-68818606D01*
X70857669Y-68857795D01*
X70857670Y-68857797D01*
X70903097Y-68967468D01*
X70903098Y-68967471D01*
X70992617Y-69101444D01*
X70992620Y-69101448D01*
X71907492Y-70016319D01*
X71940977Y-70077642D01*
X71935993Y-70147333D01*
X71894121Y-70203267D01*
X71828657Y-70227684D01*
X71819811Y-70228000D01*
X68826248Y-70228000D01*
X68759209Y-70208315D01*
X68713454Y-70155511D01*
X68703510Y-70086353D01*
X68732535Y-70022797D01*
X68769952Y-69993516D01*
X68779551Y-69988624D01*
X68833716Y-69949270D01*
X68833717Y-69949270D01*
X68201408Y-69316962D01*
X68264993Y-69299925D01*
X68379007Y-69234099D01*
X68472099Y-69141007D01*
X68537925Y-69026993D01*
X68554962Y-68963409D01*
X69187270Y-69595717D01*
X69187270Y-69595716D01*
X69226622Y-69541554D01*
X69323095Y-69352217D01*
X69388757Y-69150130D01*
X69388757Y-69150127D01*
X69422000Y-68940246D01*
X69422000Y-68727753D01*
X69388757Y-68517872D01*
X69388757Y-68517869D01*
X69323095Y-68315782D01*
X69226624Y-68126449D01*
X69187270Y-68072282D01*
X69187269Y-68072282D01*
X68554962Y-68704590D01*
X68537925Y-68641007D01*
X68472099Y-68526993D01*
X68379007Y-68433901D01*
X68264993Y-68368075D01*
X68201409Y-68351037D01*
X68833716Y-67718728D01*
X68779547Y-67679373D01*
X68779547Y-67679372D01*
X68770500Y-67674763D01*
X68719706Y-67626788D01*
X68702912Y-67558966D01*
X68725451Y-67492832D01*
X68770508Y-67453793D01*
X68779816Y-67449051D01*
X68904440Y-67358507D01*
X68951786Y-67324109D01*
X68951788Y-67324106D01*
X68951792Y-67324104D01*
X69102104Y-67173792D01*
X69109863Y-67163113D01*
X69165194Y-67120448D01*
X69210180Y-67112000D01*
X70475811Y-67112000D01*
X70542850Y-67131685D01*
G37*
%TD.AperFunction*%
%TD*%
M02*
