%TF.GenerationSoftware,KiCad,Pcbnew,9.0.3*%
%TF.CreationDate,2026-02-24T15:17:57-05:00*%
%TF.ProjectId,Main_PCB,4d61696e-5f50-4434-922e-6b696361645f,v.3*%
%TF.SameCoordinates,Original*%
%TF.FileFunction,Legend,Top*%
%TF.FilePolarity,Positive*%
%FSLAX46Y46*%
G04 Gerber Fmt 4.6, Leading zero omitted, Abs format (unit mm)*
G04 Created by KiCad (PCBNEW 9.0.3) date 2026-02-24 15:17:57*
%MOMM*%
%LPD*%
G01*
G04 APERTURE LIST*
G04 Aperture macros list*
%AMRoundRect*
0 Rectangle with rounded corners*
0 $1 Rounding radius*
0 $2 $3 $4 $5 $6 $7 $8 $9 X,Y pos of 4 corners*
0 Add a 4 corners polygon primitive as box body*
4,1,4,$2,$3,$4,$5,$6,$7,$8,$9,$2,$3,0*
0 Add four circle primitives for the rounded corners*
1,1,$1+$1,$2,$3*
1,1,$1+$1,$4,$5*
1,1,$1+$1,$6,$7*
1,1,$1+$1,$8,$9*
0 Add four rect primitives between the rounded corners*
20,1,$1+$1,$2,$3,$4,$5,0*
20,1,$1+$1,$4,$5,$6,$7,0*
20,1,$1+$1,$6,$7,$8,$9,0*
20,1,$1+$1,$8,$9,$2,$3,0*%
%AMFreePoly0*
4,1,23,0.500000,-0.750000,0.000000,-0.750000,0.000000,-0.745722,-0.065263,-0.745722,-0.191342,-0.711940,-0.304381,-0.646677,-0.396677,-0.554381,-0.461940,-0.441342,-0.495722,-0.315263,-0.495722,-0.250000,-0.500000,-0.250000,-0.500000,0.250000,-0.495722,0.250000,-0.495722,0.315263,-0.461940,0.441342,-0.396677,0.554381,-0.304381,0.646677,-0.191342,0.711940,-0.065263,0.745722,0.000000,0.745722,
0.000000,0.750000,0.500000,0.750000,0.500000,-0.750000,0.500000,-0.750000,$1*%
%AMFreePoly1*
4,1,23,0.000000,0.745722,0.065263,0.745722,0.191342,0.711940,0.304381,0.646677,0.396677,0.554381,0.461940,0.441342,0.495722,0.315263,0.495722,0.250000,0.500000,0.250000,0.500000,-0.250000,0.495722,-0.250000,0.495722,-0.315263,0.461940,-0.441342,0.396677,-0.554381,0.304381,-0.646677,0.191342,-0.711940,0.065263,-0.745722,0.000000,-0.745722,0.000000,-0.750000,-0.500000,-0.750000,
-0.500000,0.750000,0.000000,0.750000,0.000000,0.745722,0.000000,0.745722,$1*%
G04 Aperture macros list end*
%ADD10C,0.200000*%
%ADD11C,0.150000*%
%ADD12C,0.100000*%
%ADD13C,0.125000*%
%ADD14C,0.120000*%
%ADD15C,0.152400*%
%ADD16RoundRect,0.250000X-0.550000X1.250000X-0.550000X-1.250000X0.550000X-1.250000X0.550000X1.250000X0*%
%ADD17RoundRect,0.250000X0.550000X-1.250000X0.550000X1.250000X-0.550000X1.250000X-0.550000X-1.250000X0*%
%ADD18R,1.700000X1.700000*%
%ADD19C,1.700000*%
%ADD20C,2.200000*%
%ADD21RoundRect,0.250000X0.475000X-0.337500X0.475000X0.337500X-0.475000X0.337500X-0.475000X-0.337500X0*%
%ADD22R,0.304800X0.990600*%
%ADD23R,2.006600X1.295400*%
%ADD24C,2.000000*%
%ADD25RoundRect,0.250000X-0.262500X-0.450000X0.262500X-0.450000X0.262500X0.450000X-0.262500X0.450000X0*%
%ADD26C,1.574800*%
%ADD27RoundRect,0.250000X-0.337500X-0.475000X0.337500X-0.475000X0.337500X0.475000X-0.337500X0.475000X0*%
%ADD28C,0.650000*%
%ADD29RoundRect,0.150000X0.150000X0.425000X-0.150000X0.425000X-0.150000X-0.425000X0.150000X-0.425000X0*%
%ADD30RoundRect,0.075000X0.075000X0.500000X-0.075000X0.500000X-0.075000X-0.500000X0.075000X-0.500000X0*%
%ADD31O,1.000000X2.100000*%
%ADD32O,1.000000X1.800000*%
%ADD33R,2.997200X0.990600*%
%ADD34R,8.712200X10.337800*%
%ADD35RoundRect,0.250000X0.450000X-0.262500X0.450000X0.262500X-0.450000X0.262500X-0.450000X-0.262500X0*%
%ADD36RoundRect,0.250000X-0.475000X0.337500X-0.475000X-0.337500X0.475000X-0.337500X0.475000X0.337500X0*%
%ADD37RoundRect,0.250000X0.262500X0.450000X-0.262500X0.450000X-0.262500X-0.450000X0.262500X-0.450000X0*%
%ADD38RoundRect,0.250000X-0.450000X0.262500X-0.450000X-0.262500X0.450000X-0.262500X0.450000X0.262500X0*%
%ADD39R,3.505200X0.965200*%
%ADD40R,9.956800X10.668000*%
%ADD41FreePoly0,90.000000*%
%ADD42FreePoly1,90.000000*%
%ADD43RoundRect,0.250000X0.337500X0.475000X-0.337500X0.475000X-0.337500X-0.475000X0.337500X-0.475000X0*%
%ADD44FreePoly0,270.000000*%
%ADD45FreePoly1,270.000000*%
%ADD46RoundRect,0.250000X-0.620000X-0.845000X0.620000X-0.845000X0.620000X0.845000X-0.620000X0.845000X0*%
%ADD47O,1.740000X2.190000*%
%ADD48RoundRect,0.250000X0.620000X0.845000X-0.620000X0.845000X-0.620000X-0.845000X0.620000X-0.845000X0*%
%ADD49FreePoly0,0.000000*%
%ADD50FreePoly1,0.000000*%
%ADD51R,0.900000X1.500000*%
%ADD52R,1.500000X0.900000*%
%ADD53C,0.600000*%
%ADD54R,3.900000X3.900000*%
%ADD55R,0.990600X0.711200*%
%ADD56RoundRect,0.150000X-0.150000X-0.425000X0.150000X-0.425000X0.150000X0.425000X-0.150000X0.425000X0*%
%ADD57RoundRect,0.075000X-0.075000X-0.500000X0.075000X-0.500000X0.075000X0.500000X-0.075000X0.500000X0*%
%ADD58R,0.711200X0.990600*%
G04 APERTURE END LIST*
D10*
X76363720Y-29367219D02*
X76488720Y-28367219D01*
X76488720Y-28367219D02*
X76726816Y-28367219D01*
X76726816Y-28367219D02*
X76863720Y-28414838D01*
X76863720Y-28414838D02*
X76947054Y-28510076D01*
X76947054Y-28510076D02*
X76982768Y-28605314D01*
X76982768Y-28605314D02*
X77006578Y-28795790D01*
X77006578Y-28795790D02*
X76988720Y-28938647D01*
X76988720Y-28938647D02*
X76917292Y-29129123D01*
X76917292Y-29129123D02*
X76857768Y-29224361D01*
X76857768Y-29224361D02*
X76750625Y-29319600D01*
X76750625Y-29319600D02*
X76601816Y-29367219D01*
X76601816Y-29367219D02*
X76363720Y-29367219D01*
X77363720Y-29367219D02*
X77447054Y-28700552D01*
X77488720Y-28367219D02*
X77435149Y-28414838D01*
X77435149Y-28414838D02*
X77476816Y-28462457D01*
X77476816Y-28462457D02*
X77530387Y-28414838D01*
X77530387Y-28414838D02*
X77488720Y-28367219D01*
X77488720Y-28367219D02*
X77476816Y-28462457D01*
X77798244Y-29319600D02*
X77887529Y-29367219D01*
X77887529Y-29367219D02*
X78078006Y-29367219D01*
X78078006Y-29367219D02*
X78179196Y-29319600D01*
X78179196Y-29319600D02*
X78238720Y-29224361D01*
X78238720Y-29224361D02*
X78244672Y-29176742D01*
X78244672Y-29176742D02*
X78208958Y-29081504D01*
X78208958Y-29081504D02*
X78119672Y-29033885D01*
X78119672Y-29033885D02*
X77976815Y-29033885D01*
X77976815Y-29033885D02*
X77887529Y-28986266D01*
X77887529Y-28986266D02*
X77851815Y-28891028D01*
X77851815Y-28891028D02*
X77857768Y-28843409D01*
X77857768Y-28843409D02*
X77917291Y-28748171D01*
X77917291Y-28748171D02*
X78018482Y-28700552D01*
X78018482Y-28700552D02*
X78161339Y-28700552D01*
X78161339Y-28700552D02*
X78250625Y-28748171D01*
X78732768Y-28700552D02*
X78607768Y-29700552D01*
X78726815Y-28748171D02*
X78828006Y-28700552D01*
X78828006Y-28700552D02*
X79018482Y-28700552D01*
X79018482Y-28700552D02*
X79107768Y-28748171D01*
X79107768Y-28748171D02*
X79149434Y-28795790D01*
X79149434Y-28795790D02*
X79185149Y-28891028D01*
X79185149Y-28891028D02*
X79149434Y-29176742D01*
X79149434Y-29176742D02*
X79089911Y-29271980D01*
X79089911Y-29271980D02*
X79036339Y-29319600D01*
X79036339Y-29319600D02*
X78935149Y-29367219D01*
X78935149Y-29367219D02*
X78744672Y-29367219D01*
X78744672Y-29367219D02*
X78655387Y-29319600D01*
X79697054Y-29367219D02*
X79607768Y-29319600D01*
X79607768Y-29319600D02*
X79572054Y-29224361D01*
X79572054Y-29224361D02*
X79679196Y-28367219D01*
X80506578Y-29367219D02*
X80572054Y-28843409D01*
X80572054Y-28843409D02*
X80536340Y-28748171D01*
X80536340Y-28748171D02*
X80447054Y-28700552D01*
X80447054Y-28700552D02*
X80256578Y-28700552D01*
X80256578Y-28700552D02*
X80155387Y-28748171D01*
X80512530Y-29319600D02*
X80411340Y-29367219D01*
X80411340Y-29367219D02*
X80173244Y-29367219D01*
X80173244Y-29367219D02*
X80083959Y-29319600D01*
X80083959Y-29319600D02*
X80048244Y-29224361D01*
X80048244Y-29224361D02*
X80060149Y-29129123D01*
X80060149Y-29129123D02*
X80119673Y-29033885D01*
X80119673Y-29033885D02*
X80220864Y-28986266D01*
X80220864Y-28986266D02*
X80458959Y-28986266D01*
X80458959Y-28986266D02*
X80560149Y-28938647D01*
X80970864Y-28700552D02*
X81125626Y-29367219D01*
X81447054Y-28700552D02*
X81125626Y-29367219D01*
X81125626Y-29367219D02*
X81000626Y-29605314D01*
X81000626Y-29605314D02*
X80947054Y-29652933D01*
X80947054Y-29652933D02*
X80845864Y-29700552D01*
D11*
X127182666Y-27902819D02*
X127182666Y-28617104D01*
X127182666Y-28617104D02*
X127135047Y-28759961D01*
X127135047Y-28759961D02*
X127039809Y-28855200D01*
X127039809Y-28855200D02*
X126896952Y-28902819D01*
X126896952Y-28902819D02*
X126801714Y-28902819D01*
X127658857Y-28902819D02*
X127658857Y-27902819D01*
X127658857Y-27902819D02*
X128039809Y-27902819D01*
X128039809Y-27902819D02*
X128135047Y-27950438D01*
X128135047Y-27950438D02*
X128182666Y-27998057D01*
X128182666Y-27998057D02*
X128230285Y-28093295D01*
X128230285Y-28093295D02*
X128230285Y-28236152D01*
X128230285Y-28236152D02*
X128182666Y-28331390D01*
X128182666Y-28331390D02*
X128135047Y-28379009D01*
X128135047Y-28379009D02*
X128039809Y-28426628D01*
X128039809Y-28426628D02*
X127658857Y-28426628D01*
X128706476Y-28902819D02*
X128896952Y-28902819D01*
X128896952Y-28902819D02*
X128992190Y-28855200D01*
X128992190Y-28855200D02*
X129039809Y-28807580D01*
X129039809Y-28807580D02*
X129135047Y-28664723D01*
X129135047Y-28664723D02*
X129182666Y-28474247D01*
X129182666Y-28474247D02*
X129182666Y-28093295D01*
X129182666Y-28093295D02*
X129135047Y-27998057D01*
X129135047Y-27998057D02*
X129087428Y-27950438D01*
X129087428Y-27950438D02*
X128992190Y-27902819D01*
X128992190Y-27902819D02*
X128801714Y-27902819D01*
X128801714Y-27902819D02*
X128706476Y-27950438D01*
X128706476Y-27950438D02*
X128658857Y-27998057D01*
X128658857Y-27998057D02*
X128611238Y-28093295D01*
X128611238Y-28093295D02*
X128611238Y-28331390D01*
X128611238Y-28331390D02*
X128658857Y-28426628D01*
X128658857Y-28426628D02*
X128706476Y-28474247D01*
X128706476Y-28474247D02*
X128801714Y-28521866D01*
X128801714Y-28521866D02*
X128992190Y-28521866D01*
X128992190Y-28521866D02*
X129087428Y-28474247D01*
X129087428Y-28474247D02*
X129135047Y-28426628D01*
X129135047Y-28426628D02*
X129182666Y-28331390D01*
D10*
X113447054Y-70271980D02*
X113393482Y-70319600D01*
X113393482Y-70319600D02*
X113244673Y-70367219D01*
X113244673Y-70367219D02*
X113149435Y-70367219D01*
X113149435Y-70367219D02*
X113012530Y-70319600D01*
X113012530Y-70319600D02*
X112929197Y-70224361D01*
X112929197Y-70224361D02*
X112893482Y-70129123D01*
X112893482Y-70129123D02*
X112869673Y-69938647D01*
X112869673Y-69938647D02*
X112887530Y-69795790D01*
X112887530Y-69795790D02*
X112958958Y-69605314D01*
X112958958Y-69605314D02*
X113018482Y-69510076D01*
X113018482Y-69510076D02*
X113125625Y-69414838D01*
X113125625Y-69414838D02*
X113274435Y-69367219D01*
X113274435Y-69367219D02*
X113369673Y-69367219D01*
X113369673Y-69367219D02*
X113506578Y-69414838D01*
X113506578Y-69414838D02*
X113548244Y-69462457D01*
X114292292Y-70367219D02*
X114357768Y-69843409D01*
X114357768Y-69843409D02*
X114322054Y-69748171D01*
X114322054Y-69748171D02*
X114232768Y-69700552D01*
X114232768Y-69700552D02*
X114042292Y-69700552D01*
X114042292Y-69700552D02*
X113941101Y-69748171D01*
X114298244Y-70319600D02*
X114197054Y-70367219D01*
X114197054Y-70367219D02*
X113958958Y-70367219D01*
X113958958Y-70367219D02*
X113869673Y-70319600D01*
X113869673Y-70319600D02*
X113833958Y-70224361D01*
X113833958Y-70224361D02*
X113845863Y-70129123D01*
X113845863Y-70129123D02*
X113905387Y-70033885D01*
X113905387Y-70033885D02*
X114006578Y-69986266D01*
X114006578Y-69986266D02*
X114244673Y-69986266D01*
X114244673Y-69986266D02*
X114345863Y-69938647D01*
X114768482Y-70367219D02*
X114851816Y-69700552D01*
X114839911Y-69795790D02*
X114893482Y-69748171D01*
X114893482Y-69748171D02*
X114994673Y-69700552D01*
X114994673Y-69700552D02*
X115137530Y-69700552D01*
X115137530Y-69700552D02*
X115226816Y-69748171D01*
X115226816Y-69748171D02*
X115262530Y-69843409D01*
X115262530Y-69843409D02*
X115197054Y-70367219D01*
X115262530Y-69843409D02*
X115322054Y-69748171D01*
X115322054Y-69748171D02*
X115423244Y-69700552D01*
X115423244Y-69700552D02*
X115566101Y-69700552D01*
X115566101Y-69700552D02*
X115655387Y-69748171D01*
X115655387Y-69748171D02*
X115691101Y-69843409D01*
X115691101Y-69843409D02*
X115625625Y-70367219D01*
X116488720Y-70319600D02*
X116387530Y-70367219D01*
X116387530Y-70367219D02*
X116197053Y-70367219D01*
X116197053Y-70367219D02*
X116107768Y-70319600D01*
X116107768Y-70319600D02*
X116072053Y-70224361D01*
X116072053Y-70224361D02*
X116119673Y-69843409D01*
X116119673Y-69843409D02*
X116179196Y-69748171D01*
X116179196Y-69748171D02*
X116280387Y-69700552D01*
X116280387Y-69700552D02*
X116470863Y-69700552D01*
X116470863Y-69700552D02*
X116560149Y-69748171D01*
X116560149Y-69748171D02*
X116595863Y-69843409D01*
X116595863Y-69843409D02*
X116583958Y-69938647D01*
X116583958Y-69938647D02*
X116095863Y-70033885D01*
X116958958Y-70367219D02*
X117042292Y-69700552D01*
X117018482Y-69891028D02*
X117078006Y-69795790D01*
X117078006Y-69795790D02*
X117131577Y-69748171D01*
X117131577Y-69748171D02*
X117232768Y-69700552D01*
X117232768Y-69700552D02*
X117328006Y-69700552D01*
X118006578Y-70367219D02*
X118072054Y-69843409D01*
X118072054Y-69843409D02*
X118036340Y-69748171D01*
X118036340Y-69748171D02*
X117947054Y-69700552D01*
X117947054Y-69700552D02*
X117756578Y-69700552D01*
X117756578Y-69700552D02*
X117655387Y-69748171D01*
X118012530Y-70319600D02*
X117911340Y-70367219D01*
X117911340Y-70367219D02*
X117673244Y-70367219D01*
X117673244Y-70367219D02*
X117583959Y-70319600D01*
X117583959Y-70319600D02*
X117548244Y-70224361D01*
X117548244Y-70224361D02*
X117560149Y-70129123D01*
X117560149Y-70129123D02*
X117619673Y-70033885D01*
X117619673Y-70033885D02*
X117720864Y-69986266D01*
X117720864Y-69986266D02*
X117958959Y-69986266D01*
X117958959Y-69986266D02*
X118060149Y-69938647D01*
D12*
X55787027Y-28336419D02*
X56358455Y-28336419D01*
X56072741Y-29336419D02*
X56072741Y-28336419D01*
X56596551Y-29336419D02*
X57120360Y-28669752D01*
X56596551Y-28669752D02*
X57120360Y-29336419D01*
D13*
X64489974Y-29884690D02*
X64463188Y-29908500D01*
X64463188Y-29908500D02*
X64388783Y-29932309D01*
X64388783Y-29932309D02*
X64341164Y-29932309D01*
X64341164Y-29932309D02*
X64272712Y-29908500D01*
X64272712Y-29908500D02*
X64231045Y-29860880D01*
X64231045Y-29860880D02*
X64213188Y-29813261D01*
X64213188Y-29813261D02*
X64201283Y-29718023D01*
X64201283Y-29718023D02*
X64210212Y-29646595D01*
X64210212Y-29646595D02*
X64245926Y-29551357D01*
X64245926Y-29551357D02*
X64275688Y-29503738D01*
X64275688Y-29503738D02*
X64329259Y-29456119D01*
X64329259Y-29456119D02*
X64403664Y-29432309D01*
X64403664Y-29432309D02*
X64451283Y-29432309D01*
X64451283Y-29432309D02*
X64519736Y-29456119D01*
X64519736Y-29456119D02*
X64540569Y-29479928D01*
X64769736Y-29932309D02*
X64725093Y-29908500D01*
X64725093Y-29908500D02*
X64704259Y-29884690D01*
X64704259Y-29884690D02*
X64686402Y-29837071D01*
X64686402Y-29837071D02*
X64704259Y-29694214D01*
X64704259Y-29694214D02*
X64734021Y-29646595D01*
X64734021Y-29646595D02*
X64760807Y-29622785D01*
X64760807Y-29622785D02*
X64811402Y-29598976D01*
X64811402Y-29598976D02*
X64882831Y-29598976D01*
X64882831Y-29598976D02*
X64927474Y-29622785D01*
X64927474Y-29622785D02*
X64948307Y-29646595D01*
X64948307Y-29646595D02*
X64966164Y-29694214D01*
X64966164Y-29694214D02*
X64948307Y-29837071D01*
X64948307Y-29837071D02*
X64918545Y-29884690D01*
X64918545Y-29884690D02*
X64891759Y-29908500D01*
X64891759Y-29908500D02*
X64841164Y-29932309D01*
X64841164Y-29932309D02*
X64769736Y-29932309D01*
X65364974Y-29932309D02*
X65427474Y-29432309D01*
X65367950Y-29908500D02*
X65317355Y-29932309D01*
X65317355Y-29932309D02*
X65222117Y-29932309D01*
X65222117Y-29932309D02*
X65177474Y-29908500D01*
X65177474Y-29908500D02*
X65156640Y-29884690D01*
X65156640Y-29884690D02*
X65138783Y-29837071D01*
X65138783Y-29837071D02*
X65156640Y-29694214D01*
X65156640Y-29694214D02*
X65186402Y-29646595D01*
X65186402Y-29646595D02*
X65213188Y-29622785D01*
X65213188Y-29622785D02*
X65263783Y-29598976D01*
X65263783Y-29598976D02*
X65359021Y-29598976D01*
X65359021Y-29598976D02*
X65403664Y-29622785D01*
X65603069Y-29932309D02*
X65644736Y-29598976D01*
X65665569Y-29432309D02*
X65638783Y-29456119D01*
X65638783Y-29456119D02*
X65659617Y-29479928D01*
X65659617Y-29479928D02*
X65686402Y-29456119D01*
X65686402Y-29456119D02*
X65665569Y-29432309D01*
X65665569Y-29432309D02*
X65659617Y-29479928D01*
X65882831Y-29598976D02*
X65841164Y-29932309D01*
X65876878Y-29646595D02*
X65903664Y-29622785D01*
X65903664Y-29622785D02*
X65954259Y-29598976D01*
X65954259Y-29598976D02*
X66025688Y-29598976D01*
X66025688Y-29598976D02*
X66070331Y-29622785D01*
X66070331Y-29622785D02*
X66088188Y-29670404D01*
X66088188Y-29670404D02*
X66055450Y-29932309D01*
X66549497Y-29598976D02*
X66498902Y-30003738D01*
X66498902Y-30003738D02*
X66469140Y-30051357D01*
X66469140Y-30051357D02*
X66442354Y-30075166D01*
X66442354Y-30075166D02*
X66391759Y-30098976D01*
X66391759Y-30098976D02*
X66320331Y-30098976D01*
X66320331Y-30098976D02*
X66275688Y-30075166D01*
X66510807Y-29908500D02*
X66460212Y-29932309D01*
X66460212Y-29932309D02*
X66364974Y-29932309D01*
X66364974Y-29932309D02*
X66320331Y-29908500D01*
X66320331Y-29908500D02*
X66299497Y-29884690D01*
X66299497Y-29884690D02*
X66281640Y-29837071D01*
X66281640Y-29837071D02*
X66299497Y-29694214D01*
X66299497Y-29694214D02*
X66329259Y-29646595D01*
X66329259Y-29646595D02*
X66356045Y-29622785D01*
X66356045Y-29622785D02*
X66406640Y-29598976D01*
X66406640Y-29598976D02*
X66501878Y-29598976D01*
X66501878Y-29598976D02*
X66546521Y-29622785D01*
X67332235Y-29432309D02*
X67287592Y-29789452D01*
X67287592Y-29789452D02*
X67254854Y-29860880D01*
X67254854Y-29860880D02*
X67201283Y-29908500D01*
X67201283Y-29908500D02*
X67126878Y-29932309D01*
X67126878Y-29932309D02*
X67079259Y-29932309D01*
X67763782Y-29598976D02*
X67722116Y-29932309D01*
X67549497Y-29598976D02*
X67516759Y-29860880D01*
X67516759Y-29860880D02*
X67534616Y-29908500D01*
X67534616Y-29908500D02*
X67579259Y-29932309D01*
X67579259Y-29932309D02*
X67650687Y-29932309D01*
X67650687Y-29932309D02*
X67701282Y-29908500D01*
X67701282Y-29908500D02*
X67728068Y-29884690D01*
X67960211Y-29932309D02*
X68001878Y-29598976D01*
X67995925Y-29646595D02*
X68022711Y-29622785D01*
X68022711Y-29622785D02*
X68073306Y-29598976D01*
X68073306Y-29598976D02*
X68144735Y-29598976D01*
X68144735Y-29598976D02*
X68189378Y-29622785D01*
X68189378Y-29622785D02*
X68207235Y-29670404D01*
X68207235Y-29670404D02*
X68174497Y-29932309D01*
X68207235Y-29670404D02*
X68236997Y-29622785D01*
X68236997Y-29622785D02*
X68287592Y-29598976D01*
X68287592Y-29598976D02*
X68359020Y-29598976D01*
X68359020Y-29598976D02*
X68403663Y-29622785D01*
X68403663Y-29622785D02*
X68421520Y-29670404D01*
X68421520Y-29670404D02*
X68388782Y-29932309D01*
X68668545Y-29598976D02*
X68606045Y-30098976D01*
X68665568Y-29622785D02*
X68716164Y-29598976D01*
X68716164Y-29598976D02*
X68811402Y-29598976D01*
X68811402Y-29598976D02*
X68856045Y-29622785D01*
X68856045Y-29622785D02*
X68876878Y-29646595D01*
X68876878Y-29646595D02*
X68894735Y-29694214D01*
X68894735Y-29694214D02*
X68876878Y-29837071D01*
X68876878Y-29837071D02*
X68847116Y-29884690D01*
X68847116Y-29884690D02*
X68820330Y-29908500D01*
X68820330Y-29908500D02*
X68769735Y-29932309D01*
X68769735Y-29932309D02*
X68674497Y-29932309D01*
X68674497Y-29932309D02*
X68629854Y-29908500D01*
X69272711Y-29908500D02*
X69222116Y-29932309D01*
X69222116Y-29932309D02*
X69126878Y-29932309D01*
X69126878Y-29932309D02*
X69082235Y-29908500D01*
X69082235Y-29908500D02*
X69064378Y-29860880D01*
X69064378Y-29860880D02*
X69088188Y-29670404D01*
X69088188Y-29670404D02*
X69117949Y-29622785D01*
X69117949Y-29622785D02*
X69168545Y-29598976D01*
X69168545Y-29598976D02*
X69263783Y-29598976D01*
X69263783Y-29598976D02*
X69308426Y-29622785D01*
X69308426Y-29622785D02*
X69326283Y-29670404D01*
X69326283Y-29670404D02*
X69320330Y-29718023D01*
X69320330Y-29718023D02*
X69076283Y-29765642D01*
X69507830Y-29932309D02*
X69549497Y-29598976D01*
X69537592Y-29694214D02*
X69567354Y-29646595D01*
X69567354Y-29646595D02*
X69594139Y-29622785D01*
X69594139Y-29622785D02*
X69644735Y-29598976D01*
X69644735Y-29598976D02*
X69692354Y-29598976D01*
D12*
X140575312Y-70484419D02*
X140241979Y-70008228D01*
X140003884Y-70484419D02*
X140003884Y-69484419D01*
X140003884Y-69484419D02*
X140384836Y-69484419D01*
X140384836Y-69484419D02*
X140480074Y-69532038D01*
X140480074Y-69532038D02*
X140527693Y-69579657D01*
X140527693Y-69579657D02*
X140575312Y-69674895D01*
X140575312Y-69674895D02*
X140575312Y-69817752D01*
X140575312Y-69817752D02*
X140527693Y-69912990D01*
X140527693Y-69912990D02*
X140480074Y-69960609D01*
X140480074Y-69960609D02*
X140384836Y-70008228D01*
X140384836Y-70008228D02*
X140003884Y-70008228D01*
X140908646Y-70484419D02*
X141432455Y-69817752D01*
X140908646Y-69817752D02*
X141432455Y-70484419D01*
D11*
X107743810Y-69558819D02*
X108362857Y-69558819D01*
X108362857Y-69558819D02*
X108029524Y-69939771D01*
X108029524Y-69939771D02*
X108172381Y-69939771D01*
X108172381Y-69939771D02*
X108267619Y-69987390D01*
X108267619Y-69987390D02*
X108315238Y-70035009D01*
X108315238Y-70035009D02*
X108362857Y-70130247D01*
X108362857Y-70130247D02*
X108362857Y-70368342D01*
X108362857Y-70368342D02*
X108315238Y-70463580D01*
X108315238Y-70463580D02*
X108267619Y-70511200D01*
X108267619Y-70511200D02*
X108172381Y-70558819D01*
X108172381Y-70558819D02*
X107886667Y-70558819D01*
X107886667Y-70558819D02*
X107791429Y-70511200D01*
X107791429Y-70511200D02*
X107743810Y-70463580D01*
X108791429Y-70463580D02*
X108839048Y-70511200D01*
X108839048Y-70511200D02*
X108791429Y-70558819D01*
X108791429Y-70558819D02*
X108743810Y-70511200D01*
X108743810Y-70511200D02*
X108791429Y-70463580D01*
X108791429Y-70463580D02*
X108791429Y-70558819D01*
X109172381Y-69558819D02*
X109791428Y-69558819D01*
X109791428Y-69558819D02*
X109458095Y-69939771D01*
X109458095Y-69939771D02*
X109600952Y-69939771D01*
X109600952Y-69939771D02*
X109696190Y-69987390D01*
X109696190Y-69987390D02*
X109743809Y-70035009D01*
X109743809Y-70035009D02*
X109791428Y-70130247D01*
X109791428Y-70130247D02*
X109791428Y-70368342D01*
X109791428Y-70368342D02*
X109743809Y-70463580D01*
X109743809Y-70463580D02*
X109696190Y-70511200D01*
X109696190Y-70511200D02*
X109600952Y-70558819D01*
X109600952Y-70558819D02*
X109315238Y-70558819D01*
X109315238Y-70558819D02*
X109220000Y-70511200D01*
X109220000Y-70511200D02*
X109172381Y-70463580D01*
X110077143Y-69558819D02*
X110410476Y-70558819D01*
X110410476Y-70558819D02*
X110743809Y-69558819D01*
D13*
X129661674Y-70384690D02*
X129634888Y-70408500D01*
X129634888Y-70408500D02*
X129560483Y-70432309D01*
X129560483Y-70432309D02*
X129512864Y-70432309D01*
X129512864Y-70432309D02*
X129444412Y-70408500D01*
X129444412Y-70408500D02*
X129402745Y-70360880D01*
X129402745Y-70360880D02*
X129384888Y-70313261D01*
X129384888Y-70313261D02*
X129372983Y-70218023D01*
X129372983Y-70218023D02*
X129381912Y-70146595D01*
X129381912Y-70146595D02*
X129417626Y-70051357D01*
X129417626Y-70051357D02*
X129447388Y-70003738D01*
X129447388Y-70003738D02*
X129500959Y-69956119D01*
X129500959Y-69956119D02*
X129575364Y-69932309D01*
X129575364Y-69932309D02*
X129622983Y-69932309D01*
X129622983Y-69932309D02*
X129691436Y-69956119D01*
X129691436Y-69956119D02*
X129712269Y-69979928D01*
X129941436Y-70432309D02*
X129896793Y-70408500D01*
X129896793Y-70408500D02*
X129875959Y-70384690D01*
X129875959Y-70384690D02*
X129858102Y-70337071D01*
X129858102Y-70337071D02*
X129875959Y-70194214D01*
X129875959Y-70194214D02*
X129905721Y-70146595D01*
X129905721Y-70146595D02*
X129932507Y-70122785D01*
X129932507Y-70122785D02*
X129983102Y-70098976D01*
X129983102Y-70098976D02*
X130054531Y-70098976D01*
X130054531Y-70098976D02*
X130099174Y-70122785D01*
X130099174Y-70122785D02*
X130120007Y-70146595D01*
X130120007Y-70146595D02*
X130137864Y-70194214D01*
X130137864Y-70194214D02*
X130120007Y-70337071D01*
X130120007Y-70337071D02*
X130090245Y-70384690D01*
X130090245Y-70384690D02*
X130063459Y-70408500D01*
X130063459Y-70408500D02*
X130012864Y-70432309D01*
X130012864Y-70432309D02*
X129941436Y-70432309D01*
X130536674Y-70432309D02*
X130599174Y-69932309D01*
X130539650Y-70408500D02*
X130489055Y-70432309D01*
X130489055Y-70432309D02*
X130393817Y-70432309D01*
X130393817Y-70432309D02*
X130349174Y-70408500D01*
X130349174Y-70408500D02*
X130328340Y-70384690D01*
X130328340Y-70384690D02*
X130310483Y-70337071D01*
X130310483Y-70337071D02*
X130328340Y-70194214D01*
X130328340Y-70194214D02*
X130358102Y-70146595D01*
X130358102Y-70146595D02*
X130384888Y-70122785D01*
X130384888Y-70122785D02*
X130435483Y-70098976D01*
X130435483Y-70098976D02*
X130530721Y-70098976D01*
X130530721Y-70098976D02*
X130575364Y-70122785D01*
X130774769Y-70432309D02*
X130816436Y-70098976D01*
X130837269Y-69932309D02*
X130810483Y-69956119D01*
X130810483Y-69956119D02*
X130831317Y-69979928D01*
X130831317Y-69979928D02*
X130858102Y-69956119D01*
X130858102Y-69956119D02*
X130837269Y-69932309D01*
X130837269Y-69932309D02*
X130831317Y-69979928D01*
X131054531Y-70098976D02*
X131012864Y-70432309D01*
X131048578Y-70146595D02*
X131075364Y-70122785D01*
X131075364Y-70122785D02*
X131125959Y-70098976D01*
X131125959Y-70098976D02*
X131197388Y-70098976D01*
X131197388Y-70098976D02*
X131242031Y-70122785D01*
X131242031Y-70122785D02*
X131259888Y-70170404D01*
X131259888Y-70170404D02*
X131227150Y-70432309D01*
X131721197Y-70098976D02*
X131670602Y-70503738D01*
X131670602Y-70503738D02*
X131640840Y-70551357D01*
X131640840Y-70551357D02*
X131614054Y-70575166D01*
X131614054Y-70575166D02*
X131563459Y-70598976D01*
X131563459Y-70598976D02*
X131492031Y-70598976D01*
X131492031Y-70598976D02*
X131447388Y-70575166D01*
X131682507Y-70408500D02*
X131631912Y-70432309D01*
X131631912Y-70432309D02*
X131536674Y-70432309D01*
X131536674Y-70432309D02*
X131492031Y-70408500D01*
X131492031Y-70408500D02*
X131471197Y-70384690D01*
X131471197Y-70384690D02*
X131453340Y-70337071D01*
X131453340Y-70337071D02*
X131471197Y-70194214D01*
X131471197Y-70194214D02*
X131500959Y-70146595D01*
X131500959Y-70146595D02*
X131527745Y-70122785D01*
X131527745Y-70122785D02*
X131578340Y-70098976D01*
X131578340Y-70098976D02*
X131673578Y-70098976D01*
X131673578Y-70098976D02*
X131718221Y-70122785D01*
X132503935Y-69932309D02*
X132459292Y-70289452D01*
X132459292Y-70289452D02*
X132426554Y-70360880D01*
X132426554Y-70360880D02*
X132372983Y-70408500D01*
X132372983Y-70408500D02*
X132298578Y-70432309D01*
X132298578Y-70432309D02*
X132250959Y-70432309D01*
X132935482Y-70098976D02*
X132893816Y-70432309D01*
X132721197Y-70098976D02*
X132688459Y-70360880D01*
X132688459Y-70360880D02*
X132706316Y-70408500D01*
X132706316Y-70408500D02*
X132750959Y-70432309D01*
X132750959Y-70432309D02*
X132822387Y-70432309D01*
X132822387Y-70432309D02*
X132872982Y-70408500D01*
X132872982Y-70408500D02*
X132899768Y-70384690D01*
X133131911Y-70432309D02*
X133173578Y-70098976D01*
X133167625Y-70146595D02*
X133194411Y-70122785D01*
X133194411Y-70122785D02*
X133245006Y-70098976D01*
X133245006Y-70098976D02*
X133316435Y-70098976D01*
X133316435Y-70098976D02*
X133361078Y-70122785D01*
X133361078Y-70122785D02*
X133378935Y-70170404D01*
X133378935Y-70170404D02*
X133346197Y-70432309D01*
X133378935Y-70170404D02*
X133408697Y-70122785D01*
X133408697Y-70122785D02*
X133459292Y-70098976D01*
X133459292Y-70098976D02*
X133530720Y-70098976D01*
X133530720Y-70098976D02*
X133575363Y-70122785D01*
X133575363Y-70122785D02*
X133593220Y-70170404D01*
X133593220Y-70170404D02*
X133560482Y-70432309D01*
X133840245Y-70098976D02*
X133777745Y-70598976D01*
X133837268Y-70122785D02*
X133887864Y-70098976D01*
X133887864Y-70098976D02*
X133983102Y-70098976D01*
X133983102Y-70098976D02*
X134027745Y-70122785D01*
X134027745Y-70122785D02*
X134048578Y-70146595D01*
X134048578Y-70146595D02*
X134066435Y-70194214D01*
X134066435Y-70194214D02*
X134048578Y-70337071D01*
X134048578Y-70337071D02*
X134018816Y-70384690D01*
X134018816Y-70384690D02*
X133992030Y-70408500D01*
X133992030Y-70408500D02*
X133941435Y-70432309D01*
X133941435Y-70432309D02*
X133846197Y-70432309D01*
X133846197Y-70432309D02*
X133801554Y-70408500D01*
X134444411Y-70408500D02*
X134393816Y-70432309D01*
X134393816Y-70432309D02*
X134298578Y-70432309D01*
X134298578Y-70432309D02*
X134253935Y-70408500D01*
X134253935Y-70408500D02*
X134236078Y-70360880D01*
X134236078Y-70360880D02*
X134259888Y-70170404D01*
X134259888Y-70170404D02*
X134289649Y-70122785D01*
X134289649Y-70122785D02*
X134340245Y-70098976D01*
X134340245Y-70098976D02*
X134435483Y-70098976D01*
X134435483Y-70098976D02*
X134480126Y-70122785D01*
X134480126Y-70122785D02*
X134497983Y-70170404D01*
X134497983Y-70170404D02*
X134492030Y-70218023D01*
X134492030Y-70218023D02*
X134247983Y-70265642D01*
X134679530Y-70432309D02*
X134721197Y-70098976D01*
X134709292Y-70194214D02*
X134739054Y-70146595D01*
X134739054Y-70146595D02*
X134765839Y-70122785D01*
X134765839Y-70122785D02*
X134816435Y-70098976D01*
X134816435Y-70098976D02*
X134864054Y-70098976D01*
D11*
X104521095Y-69606438D02*
X104425857Y-69558819D01*
X104425857Y-69558819D02*
X104283000Y-69558819D01*
X104283000Y-69558819D02*
X104140143Y-69606438D01*
X104140143Y-69606438D02*
X104044905Y-69701676D01*
X104044905Y-69701676D02*
X103997286Y-69796914D01*
X103997286Y-69796914D02*
X103949667Y-69987390D01*
X103949667Y-69987390D02*
X103949667Y-70130247D01*
X103949667Y-70130247D02*
X103997286Y-70320723D01*
X103997286Y-70320723D02*
X104044905Y-70415961D01*
X104044905Y-70415961D02*
X104140143Y-70511200D01*
X104140143Y-70511200D02*
X104283000Y-70558819D01*
X104283000Y-70558819D02*
X104378238Y-70558819D01*
X104378238Y-70558819D02*
X104521095Y-70511200D01*
X104521095Y-70511200D02*
X104568714Y-70463580D01*
X104568714Y-70463580D02*
X104568714Y-70130247D01*
X104568714Y-70130247D02*
X104378238Y-70130247D01*
X104997286Y-70558819D02*
X104997286Y-69558819D01*
X104997286Y-69558819D02*
X105568714Y-70558819D01*
X105568714Y-70558819D02*
X105568714Y-69558819D01*
X106044905Y-70558819D02*
X106044905Y-69558819D01*
X106044905Y-69558819D02*
X106283000Y-69558819D01*
X106283000Y-69558819D02*
X106425857Y-69606438D01*
X106425857Y-69606438D02*
X106521095Y-69701676D01*
X106521095Y-69701676D02*
X106568714Y-69796914D01*
X106568714Y-69796914D02*
X106616333Y-69987390D01*
X106616333Y-69987390D02*
X106616333Y-70130247D01*
X106616333Y-70130247D02*
X106568714Y-70320723D01*
X106568714Y-70320723D02*
X106521095Y-70415961D01*
X106521095Y-70415961D02*
X106425857Y-70511200D01*
X106425857Y-70511200D02*
X106283000Y-70558819D01*
X106283000Y-70558819D02*
X106044905Y-70558819D01*
D12*
X91803884Y-20991466D02*
X92565789Y-20991466D01*
X92184836Y-21372419D02*
X92184836Y-20610514D01*
X58787312Y-29387219D02*
X58453979Y-28911028D01*
X58215884Y-29387219D02*
X58215884Y-28387219D01*
X58215884Y-28387219D02*
X58596836Y-28387219D01*
X58596836Y-28387219D02*
X58692074Y-28434838D01*
X58692074Y-28434838D02*
X58739693Y-28482457D01*
X58739693Y-28482457D02*
X58787312Y-28577695D01*
X58787312Y-28577695D02*
X58787312Y-28720552D01*
X58787312Y-28720552D02*
X58739693Y-28815790D01*
X58739693Y-28815790D02*
X58692074Y-28863409D01*
X58692074Y-28863409D02*
X58596836Y-28911028D01*
X58596836Y-28911028D02*
X58215884Y-28911028D01*
X59120646Y-29387219D02*
X59644455Y-28720552D01*
X59120646Y-28720552D02*
X59644455Y-29387219D01*
D10*
X52956720Y-20457219D02*
X52855530Y-21266742D01*
X52855530Y-21266742D02*
X52891244Y-21361980D01*
X52891244Y-21361980D02*
X52932911Y-21409600D01*
X52932911Y-21409600D02*
X53022197Y-21457219D01*
X53022197Y-21457219D02*
X53212673Y-21457219D01*
X53212673Y-21457219D02*
X53313863Y-21409600D01*
X53313863Y-21409600D02*
X53367435Y-21361980D01*
X53367435Y-21361980D02*
X53426958Y-21266742D01*
X53426958Y-21266742D02*
X53528149Y-20457219D01*
X53867435Y-21171504D02*
X54343625Y-21171504D01*
X53736482Y-21457219D02*
X54194816Y-20457219D01*
X54194816Y-20457219D02*
X54403149Y-21457219D01*
X55307911Y-21457219D02*
X55034101Y-20981028D01*
X54736482Y-21457219D02*
X54861482Y-20457219D01*
X54861482Y-20457219D02*
X55242435Y-20457219D01*
X55242435Y-20457219D02*
X55331720Y-20504838D01*
X55331720Y-20504838D02*
X55373387Y-20552457D01*
X55373387Y-20552457D02*
X55409101Y-20647695D01*
X55409101Y-20647695D02*
X55391244Y-20790552D01*
X55391244Y-20790552D02*
X55331720Y-20885790D01*
X55331720Y-20885790D02*
X55278149Y-20933409D01*
X55278149Y-20933409D02*
X55176959Y-20981028D01*
X55176959Y-20981028D02*
X54796006Y-20981028D01*
X55718625Y-20457219D02*
X56290054Y-20457219D01*
X55879340Y-21457219D02*
X56004340Y-20457219D01*
D12*
X142540827Y-69484419D02*
X143112255Y-69484419D01*
X142826541Y-70484419D02*
X142826541Y-69484419D01*
X143350351Y-70484419D02*
X143874160Y-69817752D01*
X143350351Y-69817752D02*
X143874160Y-70484419D01*
X87883084Y-21260465D02*
X88644989Y-21260465D01*
D10*
X137208520Y-61351219D02*
X137107330Y-62160742D01*
X137107330Y-62160742D02*
X137143044Y-62255980D01*
X137143044Y-62255980D02*
X137184711Y-62303600D01*
X137184711Y-62303600D02*
X137273997Y-62351219D01*
X137273997Y-62351219D02*
X137464473Y-62351219D01*
X137464473Y-62351219D02*
X137565663Y-62303600D01*
X137565663Y-62303600D02*
X137619235Y-62255980D01*
X137619235Y-62255980D02*
X137678758Y-62160742D01*
X137678758Y-62160742D02*
X137779949Y-61351219D01*
X138119235Y-62065504D02*
X138595425Y-62065504D01*
X137988282Y-62351219D02*
X138446616Y-61351219D01*
X138446616Y-61351219D02*
X138654949Y-62351219D01*
X139559711Y-62351219D02*
X139285901Y-61875028D01*
X138988282Y-62351219D02*
X139113282Y-61351219D01*
X139113282Y-61351219D02*
X139494235Y-61351219D01*
X139494235Y-61351219D02*
X139583520Y-61398838D01*
X139583520Y-61398838D02*
X139625187Y-61446457D01*
X139625187Y-61446457D02*
X139660901Y-61541695D01*
X139660901Y-61541695D02*
X139643044Y-61684552D01*
X139643044Y-61684552D02*
X139583520Y-61779790D01*
X139583520Y-61779790D02*
X139529949Y-61827409D01*
X139529949Y-61827409D02*
X139428759Y-61875028D01*
X139428759Y-61875028D02*
X139047806Y-61875028D01*
X139970425Y-61351219D02*
X140541854Y-61351219D01*
X140131140Y-62351219D02*
X140256140Y-61351219D01*
D13*
X93567690Y-23213188D02*
X93567690Y-23546521D01*
X93567690Y-23546521D02*
X93067690Y-23269736D01*
X93115309Y-23680449D02*
X93091500Y-23701283D01*
X93091500Y-23701283D02*
X93067690Y-23674497D01*
X93067690Y-23674497D02*
X93091500Y-23653664D01*
X93091500Y-23653664D02*
X93115309Y-23680449D01*
X93115309Y-23680449D02*
X93067690Y-23674497D01*
X93401023Y-24168544D02*
X93067690Y-24126878D01*
X93591500Y-24073306D02*
X93234357Y-23909616D01*
X93234357Y-23909616D02*
X93234357Y-24219140D01*
X93567690Y-24379853D02*
X93067690Y-24484020D01*
X93067690Y-24484020D02*
X93567690Y-24713187D01*
X93067690Y-25198305D02*
X93567690Y-25260805D01*
X93067690Y-25436400D02*
X93567690Y-25498900D01*
X93567690Y-25498900D02*
X93067690Y-25722114D01*
X93067690Y-25722114D02*
X93567690Y-25784614D01*
X93067690Y-25960210D02*
X93567690Y-26022710D01*
X93567690Y-26022710D02*
X93567690Y-26213186D01*
X93567690Y-26213186D02*
X93543880Y-26257829D01*
X93543880Y-26257829D02*
X93520071Y-26278662D01*
X93520071Y-26278662D02*
X93472452Y-26296519D01*
X93472452Y-26296519D02*
X93401023Y-26287591D01*
X93401023Y-26287591D02*
X93353404Y-26257829D01*
X93353404Y-26257829D02*
X93329595Y-26231043D01*
X93329595Y-26231043D02*
X93305785Y-26180448D01*
X93305785Y-26180448D02*
X93305785Y-25989972D01*
X93567690Y-26522710D02*
X93162928Y-26472115D01*
X93162928Y-26472115D02*
X93115309Y-26489972D01*
X93115309Y-26489972D02*
X93091500Y-26510805D01*
X93091500Y-26510805D02*
X93067690Y-26555448D01*
X93067690Y-26555448D02*
X93067690Y-26650686D01*
X93067690Y-26650686D02*
X93091500Y-26701281D01*
X93091500Y-26701281D02*
X93115309Y-26728067D01*
X93115309Y-26728067D02*
X93162928Y-26757829D01*
X93162928Y-26757829D02*
X93567690Y-26808424D01*
X93567690Y-26975091D02*
X93567690Y-27260806D01*
X93067690Y-27055449D02*
X93567690Y-27117949D01*
D11*
X67218112Y-44808177D02*
X67360969Y-44855796D01*
X67360969Y-44855796D02*
X67408588Y-44903415D01*
X67408588Y-44903415D02*
X67456207Y-44998653D01*
X67456207Y-44998653D02*
X67456207Y-45141510D01*
X67456207Y-45141510D02*
X67408588Y-45236748D01*
X67408588Y-45236748D02*
X67360969Y-45284368D01*
X67360969Y-45284368D02*
X67265731Y-45331987D01*
X67265731Y-45331987D02*
X66884779Y-45331987D01*
X66884779Y-45331987D02*
X66884779Y-44331987D01*
X66884779Y-44331987D02*
X67218112Y-44331987D01*
X67218112Y-44331987D02*
X67313350Y-44379606D01*
X67313350Y-44379606D02*
X67360969Y-44427225D01*
X67360969Y-44427225D02*
X67408588Y-44522463D01*
X67408588Y-44522463D02*
X67408588Y-44617701D01*
X67408588Y-44617701D02*
X67360969Y-44712939D01*
X67360969Y-44712939D02*
X67313350Y-44760558D01*
X67313350Y-44760558D02*
X67218112Y-44808177D01*
X67218112Y-44808177D02*
X66884779Y-44808177D01*
X68265731Y-45284368D02*
X68170493Y-45331987D01*
X68170493Y-45331987D02*
X67980017Y-45331987D01*
X67980017Y-45331987D02*
X67884779Y-45284368D01*
X67884779Y-45284368D02*
X67837160Y-45189129D01*
X67837160Y-45189129D02*
X67837160Y-44808177D01*
X67837160Y-44808177D02*
X67884779Y-44712939D01*
X67884779Y-44712939D02*
X67980017Y-44665320D01*
X67980017Y-44665320D02*
X68170493Y-44665320D01*
X68170493Y-44665320D02*
X68265731Y-44712939D01*
X68265731Y-44712939D02*
X68313350Y-44808177D01*
X68313350Y-44808177D02*
X68313350Y-44903415D01*
X68313350Y-44903415D02*
X67837160Y-44998653D01*
X68741922Y-44665320D02*
X68741922Y-45331987D01*
X68741922Y-44760558D02*
X68789541Y-44712939D01*
X68789541Y-44712939D02*
X68884779Y-44665320D01*
X68884779Y-44665320D02*
X69027636Y-44665320D01*
X69027636Y-44665320D02*
X69122874Y-44712939D01*
X69122874Y-44712939D02*
X69170493Y-44808177D01*
X69170493Y-44808177D02*
X69170493Y-45331987D01*
X69646684Y-44665320D02*
X69646684Y-45522463D01*
X69646684Y-45522463D02*
X69599065Y-45617701D01*
X69599065Y-45617701D02*
X69503827Y-45665320D01*
X69503827Y-45665320D02*
X69456208Y-45665320D01*
X69646684Y-44331987D02*
X69599065Y-44379606D01*
X69599065Y-44379606D02*
X69646684Y-44427225D01*
X69646684Y-44427225D02*
X69694303Y-44379606D01*
X69694303Y-44379606D02*
X69646684Y-44331987D01*
X69646684Y-44331987D02*
X69646684Y-44427225D01*
X70551445Y-45331987D02*
X70551445Y-44808177D01*
X70551445Y-44808177D02*
X70503826Y-44712939D01*
X70503826Y-44712939D02*
X70408588Y-44665320D01*
X70408588Y-44665320D02*
X70218112Y-44665320D01*
X70218112Y-44665320D02*
X70122874Y-44712939D01*
X70551445Y-45284368D02*
X70456207Y-45331987D01*
X70456207Y-45331987D02*
X70218112Y-45331987D01*
X70218112Y-45331987D02*
X70122874Y-45284368D01*
X70122874Y-45284368D02*
X70075255Y-45189129D01*
X70075255Y-45189129D02*
X70075255Y-45093891D01*
X70075255Y-45093891D02*
X70122874Y-44998653D01*
X70122874Y-44998653D02*
X70218112Y-44951034D01*
X70218112Y-44951034D02*
X70456207Y-44951034D01*
X70456207Y-44951034D02*
X70551445Y-44903415D01*
X71027636Y-45331987D02*
X71027636Y-44665320D01*
X71027636Y-44760558D02*
X71075255Y-44712939D01*
X71075255Y-44712939D02*
X71170493Y-44665320D01*
X71170493Y-44665320D02*
X71313350Y-44665320D01*
X71313350Y-44665320D02*
X71408588Y-44712939D01*
X71408588Y-44712939D02*
X71456207Y-44808177D01*
X71456207Y-44808177D02*
X71456207Y-45331987D01*
X71456207Y-44808177D02*
X71503826Y-44712939D01*
X71503826Y-44712939D02*
X71599064Y-44665320D01*
X71599064Y-44665320D02*
X71741921Y-44665320D01*
X71741921Y-44665320D02*
X71837160Y-44712939D01*
X71837160Y-44712939D02*
X71884779Y-44808177D01*
X71884779Y-44808177D02*
X71884779Y-45331987D01*
X72360969Y-45331987D02*
X72360969Y-44665320D01*
X72360969Y-44331987D02*
X72313350Y-44379606D01*
X72313350Y-44379606D02*
X72360969Y-44427225D01*
X72360969Y-44427225D02*
X72408588Y-44379606D01*
X72408588Y-44379606D02*
X72360969Y-44331987D01*
X72360969Y-44331987D02*
X72360969Y-44427225D01*
X72837159Y-44665320D02*
X72837159Y-45331987D01*
X72837159Y-44760558D02*
X72884778Y-44712939D01*
X72884778Y-44712939D02*
X72980016Y-44665320D01*
X72980016Y-44665320D02*
X73122873Y-44665320D01*
X73122873Y-44665320D02*
X73218111Y-44712939D01*
X73218111Y-44712939D02*
X73265730Y-44808177D01*
X73265730Y-44808177D02*
X73265730Y-45331987D01*
X74503826Y-45331987D02*
X74503826Y-44331987D01*
X74503826Y-44331987D02*
X74837159Y-45046272D01*
X74837159Y-45046272D02*
X75170492Y-44331987D01*
X75170492Y-44331987D02*
X75170492Y-45331987D01*
X76075254Y-45331987D02*
X76075254Y-44808177D01*
X76075254Y-44808177D02*
X76027635Y-44712939D01*
X76027635Y-44712939D02*
X75932397Y-44665320D01*
X75932397Y-44665320D02*
X75741921Y-44665320D01*
X75741921Y-44665320D02*
X75646683Y-44712939D01*
X76075254Y-45284368D02*
X75980016Y-45331987D01*
X75980016Y-45331987D02*
X75741921Y-45331987D01*
X75741921Y-45331987D02*
X75646683Y-45284368D01*
X75646683Y-45284368D02*
X75599064Y-45189129D01*
X75599064Y-45189129D02*
X75599064Y-45093891D01*
X75599064Y-45093891D02*
X75646683Y-44998653D01*
X75646683Y-44998653D02*
X75741921Y-44951034D01*
X75741921Y-44951034D02*
X75980016Y-44951034D01*
X75980016Y-44951034D02*
X76075254Y-44903415D01*
X76503826Y-45284368D02*
X76599064Y-45331987D01*
X76599064Y-45331987D02*
X76789540Y-45331987D01*
X76789540Y-45331987D02*
X76884778Y-45284368D01*
X76884778Y-45284368D02*
X76932397Y-45189129D01*
X76932397Y-45189129D02*
X76932397Y-45141510D01*
X76932397Y-45141510D02*
X76884778Y-45046272D01*
X76884778Y-45046272D02*
X76789540Y-44998653D01*
X76789540Y-44998653D02*
X76646683Y-44998653D01*
X76646683Y-44998653D02*
X76551445Y-44951034D01*
X76551445Y-44951034D02*
X76503826Y-44855796D01*
X76503826Y-44855796D02*
X76503826Y-44808177D01*
X76503826Y-44808177D02*
X76551445Y-44712939D01*
X76551445Y-44712939D02*
X76646683Y-44665320D01*
X76646683Y-44665320D02*
X76789540Y-44665320D01*
X76789540Y-44665320D02*
X76884778Y-44712939D01*
X77313350Y-45284368D02*
X77408588Y-45331987D01*
X77408588Y-45331987D02*
X77599064Y-45331987D01*
X77599064Y-45331987D02*
X77694302Y-45284368D01*
X77694302Y-45284368D02*
X77741921Y-45189129D01*
X77741921Y-45189129D02*
X77741921Y-45141510D01*
X77741921Y-45141510D02*
X77694302Y-45046272D01*
X77694302Y-45046272D02*
X77599064Y-44998653D01*
X77599064Y-44998653D02*
X77456207Y-44998653D01*
X77456207Y-44998653D02*
X77360969Y-44951034D01*
X77360969Y-44951034D02*
X77313350Y-44855796D01*
X77313350Y-44855796D02*
X77313350Y-44808177D01*
X77313350Y-44808177D02*
X77360969Y-44712939D01*
X77360969Y-44712939D02*
X77456207Y-44665320D01*
X77456207Y-44665320D02*
X77599064Y-44665320D01*
X77599064Y-44665320D02*
X77694302Y-44712939D01*
X78551445Y-45284368D02*
X78456207Y-45331987D01*
X78456207Y-45331987D02*
X78265731Y-45331987D01*
X78265731Y-45331987D02*
X78170493Y-45284368D01*
X78170493Y-45284368D02*
X78122874Y-45189129D01*
X78122874Y-45189129D02*
X78122874Y-44808177D01*
X78122874Y-44808177D02*
X78170493Y-44712939D01*
X78170493Y-44712939D02*
X78265731Y-44665320D01*
X78265731Y-44665320D02*
X78456207Y-44665320D01*
X78456207Y-44665320D02*
X78551445Y-44712939D01*
X78551445Y-44712939D02*
X78599064Y-44808177D01*
X78599064Y-44808177D02*
X78599064Y-44903415D01*
X78599064Y-44903415D02*
X78122874Y-44998653D01*
X79789541Y-44951034D02*
X80551446Y-44951034D01*
X81741922Y-44427225D02*
X81789541Y-44379606D01*
X81789541Y-44379606D02*
X81884779Y-44331987D01*
X81884779Y-44331987D02*
X82122874Y-44331987D01*
X82122874Y-44331987D02*
X82218112Y-44379606D01*
X82218112Y-44379606D02*
X82265731Y-44427225D01*
X82265731Y-44427225D02*
X82313350Y-44522463D01*
X82313350Y-44522463D02*
X82313350Y-44617701D01*
X82313350Y-44617701D02*
X82265731Y-44760558D01*
X82265731Y-44760558D02*
X81694303Y-45331987D01*
X81694303Y-45331987D02*
X82313350Y-45331987D01*
X82932398Y-44331987D02*
X83027636Y-44331987D01*
X83027636Y-44331987D02*
X83122874Y-44379606D01*
X83122874Y-44379606D02*
X83170493Y-44427225D01*
X83170493Y-44427225D02*
X83218112Y-44522463D01*
X83218112Y-44522463D02*
X83265731Y-44712939D01*
X83265731Y-44712939D02*
X83265731Y-44951034D01*
X83265731Y-44951034D02*
X83218112Y-45141510D01*
X83218112Y-45141510D02*
X83170493Y-45236748D01*
X83170493Y-45236748D02*
X83122874Y-45284368D01*
X83122874Y-45284368D02*
X83027636Y-45331987D01*
X83027636Y-45331987D02*
X82932398Y-45331987D01*
X82932398Y-45331987D02*
X82837160Y-45284368D01*
X82837160Y-45284368D02*
X82789541Y-45236748D01*
X82789541Y-45236748D02*
X82741922Y-45141510D01*
X82741922Y-45141510D02*
X82694303Y-44951034D01*
X82694303Y-44951034D02*
X82694303Y-44712939D01*
X82694303Y-44712939D02*
X82741922Y-44522463D01*
X82741922Y-44522463D02*
X82789541Y-44427225D01*
X82789541Y-44427225D02*
X82837160Y-44379606D01*
X82837160Y-44379606D02*
X82932398Y-44331987D01*
X83646684Y-44427225D02*
X83694303Y-44379606D01*
X83694303Y-44379606D02*
X83789541Y-44331987D01*
X83789541Y-44331987D02*
X84027636Y-44331987D01*
X84027636Y-44331987D02*
X84122874Y-44379606D01*
X84122874Y-44379606D02*
X84170493Y-44427225D01*
X84170493Y-44427225D02*
X84218112Y-44522463D01*
X84218112Y-44522463D02*
X84218112Y-44617701D01*
X84218112Y-44617701D02*
X84170493Y-44760558D01*
X84170493Y-44760558D02*
X83599065Y-45331987D01*
X83599065Y-45331987D02*
X84218112Y-45331987D01*
X85075255Y-44331987D02*
X84884779Y-44331987D01*
X84884779Y-44331987D02*
X84789541Y-44379606D01*
X84789541Y-44379606D02*
X84741922Y-44427225D01*
X84741922Y-44427225D02*
X84646684Y-44570082D01*
X84646684Y-44570082D02*
X84599065Y-44760558D01*
X84599065Y-44760558D02*
X84599065Y-45141510D01*
X84599065Y-45141510D02*
X84646684Y-45236748D01*
X84646684Y-45236748D02*
X84694303Y-45284368D01*
X84694303Y-45284368D02*
X84789541Y-45331987D01*
X84789541Y-45331987D02*
X84980017Y-45331987D01*
X84980017Y-45331987D02*
X85075255Y-45284368D01*
X85075255Y-45284368D02*
X85122874Y-45236748D01*
X85122874Y-45236748D02*
X85170493Y-45141510D01*
X85170493Y-45141510D02*
X85170493Y-44903415D01*
X85170493Y-44903415D02*
X85122874Y-44808177D01*
X85122874Y-44808177D02*
X85075255Y-44760558D01*
X85075255Y-44760558D02*
X84980017Y-44712939D01*
X84980017Y-44712939D02*
X84789541Y-44712939D01*
X84789541Y-44712939D02*
X84694303Y-44760558D01*
X84694303Y-44760558D02*
X84646684Y-44808177D01*
X84646684Y-44808177D02*
X84599065Y-44903415D01*
X66884779Y-46560978D02*
X67646684Y-46560978D01*
X68122874Y-46560978D02*
X68884779Y-46560978D01*
X69360969Y-46560978D02*
X70122874Y-46560978D01*
X70599064Y-46560978D02*
X71360969Y-46560978D01*
X71837159Y-46560978D02*
X72599064Y-46560978D01*
X73075254Y-46560978D02*
X73837159Y-46560978D01*
X74313349Y-46560978D02*
X75075254Y-46560978D01*
X75551444Y-46560978D02*
X76313349Y-46560978D01*
X76789539Y-46560978D02*
X77551444Y-46560978D01*
X78027634Y-46560978D02*
X78789539Y-46560978D01*
X79265729Y-46560978D02*
X80027634Y-46560978D01*
X80503824Y-46560978D02*
X81265729Y-46560978D01*
X81741919Y-46560978D02*
X82503824Y-46560978D01*
X82980014Y-46560978D02*
X83741919Y-46560978D01*
X84218109Y-46560978D02*
X84980014Y-46560978D01*
X66884779Y-48551875D02*
X66884779Y-47551875D01*
X66884779Y-47551875D02*
X67218112Y-48266160D01*
X67218112Y-48266160D02*
X67551445Y-47551875D01*
X67551445Y-47551875D02*
X67551445Y-48551875D01*
X67884779Y-47551875D02*
X68456207Y-47551875D01*
X68170493Y-48551875D02*
X68170493Y-47551875D01*
X69313350Y-47599494D02*
X69218112Y-47551875D01*
X69218112Y-47551875D02*
X69075255Y-47551875D01*
X69075255Y-47551875D02*
X68932398Y-47599494D01*
X68932398Y-47599494D02*
X68837160Y-47694732D01*
X68837160Y-47694732D02*
X68789541Y-47789970D01*
X68789541Y-47789970D02*
X68741922Y-47980446D01*
X68741922Y-47980446D02*
X68741922Y-48123303D01*
X68741922Y-48123303D02*
X68789541Y-48313779D01*
X68789541Y-48313779D02*
X68837160Y-48409017D01*
X68837160Y-48409017D02*
X68932398Y-48504256D01*
X68932398Y-48504256D02*
X69075255Y-48551875D01*
X69075255Y-48551875D02*
X69170493Y-48551875D01*
X69170493Y-48551875D02*
X69313350Y-48504256D01*
X69313350Y-48504256D02*
X69360969Y-48456636D01*
X69360969Y-48456636D02*
X69360969Y-48123303D01*
X69360969Y-48123303D02*
X69170493Y-48123303D01*
X71122874Y-48456636D02*
X71075255Y-48504256D01*
X71075255Y-48504256D02*
X70932398Y-48551875D01*
X70932398Y-48551875D02*
X70837160Y-48551875D01*
X70837160Y-48551875D02*
X70694303Y-48504256D01*
X70694303Y-48504256D02*
X70599065Y-48409017D01*
X70599065Y-48409017D02*
X70551446Y-48313779D01*
X70551446Y-48313779D02*
X70503827Y-48123303D01*
X70503827Y-48123303D02*
X70503827Y-47980446D01*
X70503827Y-47980446D02*
X70551446Y-47789970D01*
X70551446Y-47789970D02*
X70599065Y-47694732D01*
X70599065Y-47694732D02*
X70694303Y-47599494D01*
X70694303Y-47599494D02*
X70837160Y-47551875D01*
X70837160Y-47551875D02*
X70932398Y-47551875D01*
X70932398Y-47551875D02*
X71075255Y-47599494D01*
X71075255Y-47599494D02*
X71122874Y-47647113D01*
X71503827Y-48266160D02*
X71980017Y-48266160D01*
X71408589Y-48551875D02*
X71741922Y-47551875D01*
X71741922Y-47551875D02*
X72075255Y-48551875D01*
X72980017Y-48551875D02*
X72646684Y-48075684D01*
X72408589Y-48551875D02*
X72408589Y-47551875D01*
X72408589Y-47551875D02*
X72789541Y-47551875D01*
X72789541Y-47551875D02*
X72884779Y-47599494D01*
X72884779Y-47599494D02*
X72932398Y-47647113D01*
X72932398Y-47647113D02*
X72980017Y-47742351D01*
X72980017Y-47742351D02*
X72980017Y-47885208D01*
X72980017Y-47885208D02*
X72932398Y-47980446D01*
X72932398Y-47980446D02*
X72884779Y-48028065D01*
X72884779Y-48028065D02*
X72789541Y-48075684D01*
X72789541Y-48075684D02*
X72408589Y-48075684D01*
X73408589Y-48551875D02*
X73408589Y-47551875D01*
X73408589Y-47551875D02*
X73646684Y-47551875D01*
X73646684Y-47551875D02*
X73789541Y-47599494D01*
X73789541Y-47599494D02*
X73884779Y-47694732D01*
X73884779Y-47694732D02*
X73932398Y-47789970D01*
X73932398Y-47789970D02*
X73980017Y-47980446D01*
X73980017Y-47980446D02*
X73980017Y-48123303D01*
X73980017Y-48123303D02*
X73932398Y-48313779D01*
X73932398Y-48313779D02*
X73884779Y-48409017D01*
X73884779Y-48409017D02*
X73789541Y-48504256D01*
X73789541Y-48504256D02*
X73646684Y-48551875D01*
X73646684Y-48551875D02*
X73408589Y-48551875D01*
X75122875Y-48504256D02*
X75265732Y-48551875D01*
X75265732Y-48551875D02*
X75503827Y-48551875D01*
X75503827Y-48551875D02*
X75599065Y-48504256D01*
X75599065Y-48504256D02*
X75646684Y-48456636D01*
X75646684Y-48456636D02*
X75694303Y-48361398D01*
X75694303Y-48361398D02*
X75694303Y-48266160D01*
X75694303Y-48266160D02*
X75646684Y-48170922D01*
X75646684Y-48170922D02*
X75599065Y-48123303D01*
X75599065Y-48123303D02*
X75503827Y-48075684D01*
X75503827Y-48075684D02*
X75313351Y-48028065D01*
X75313351Y-48028065D02*
X75218113Y-47980446D01*
X75218113Y-47980446D02*
X75170494Y-47932827D01*
X75170494Y-47932827D02*
X75122875Y-47837589D01*
X75122875Y-47837589D02*
X75122875Y-47742351D01*
X75122875Y-47742351D02*
X75170494Y-47647113D01*
X75170494Y-47647113D02*
X75218113Y-47599494D01*
X75218113Y-47599494D02*
X75313351Y-47551875D01*
X75313351Y-47551875D02*
X75551446Y-47551875D01*
X75551446Y-47551875D02*
X75694303Y-47599494D01*
X76313351Y-47551875D02*
X76503827Y-47551875D01*
X76503827Y-47551875D02*
X76599065Y-47599494D01*
X76599065Y-47599494D02*
X76694303Y-47694732D01*
X76694303Y-47694732D02*
X76741922Y-47885208D01*
X76741922Y-47885208D02*
X76741922Y-48218541D01*
X76741922Y-48218541D02*
X76694303Y-48409017D01*
X76694303Y-48409017D02*
X76599065Y-48504256D01*
X76599065Y-48504256D02*
X76503827Y-48551875D01*
X76503827Y-48551875D02*
X76313351Y-48551875D01*
X76313351Y-48551875D02*
X76218113Y-48504256D01*
X76218113Y-48504256D02*
X76122875Y-48409017D01*
X76122875Y-48409017D02*
X76075256Y-48218541D01*
X76075256Y-48218541D02*
X76075256Y-47885208D01*
X76075256Y-47885208D02*
X76122875Y-47694732D01*
X76122875Y-47694732D02*
X76218113Y-47599494D01*
X76218113Y-47599494D02*
X76313351Y-47551875D01*
X77741922Y-48551875D02*
X77408589Y-48075684D01*
X77170494Y-48551875D02*
X77170494Y-47551875D01*
X77170494Y-47551875D02*
X77551446Y-47551875D01*
X77551446Y-47551875D02*
X77646684Y-47599494D01*
X77646684Y-47599494D02*
X77694303Y-47647113D01*
X77694303Y-47647113D02*
X77741922Y-47742351D01*
X77741922Y-47742351D02*
X77741922Y-47885208D01*
X77741922Y-47885208D02*
X77694303Y-47980446D01*
X77694303Y-47980446D02*
X77646684Y-48028065D01*
X77646684Y-48028065D02*
X77551446Y-48075684D01*
X77551446Y-48075684D02*
X77170494Y-48075684D01*
X78027637Y-47551875D02*
X78599065Y-47551875D01*
X78313351Y-48551875D02*
X78313351Y-47551875D01*
X78932399Y-48028065D02*
X79265732Y-48028065D01*
X79408589Y-48551875D02*
X78932399Y-48551875D01*
X78932399Y-48551875D02*
X78932399Y-47551875D01*
X78932399Y-47551875D02*
X79408589Y-47551875D01*
X80408589Y-48551875D02*
X80075256Y-48075684D01*
X79837161Y-48551875D02*
X79837161Y-47551875D01*
X79837161Y-47551875D02*
X80218113Y-47551875D01*
X80218113Y-47551875D02*
X80313351Y-47599494D01*
X80313351Y-47599494D02*
X80360970Y-47647113D01*
X80360970Y-47647113D02*
X80408589Y-47742351D01*
X80408589Y-47742351D02*
X80408589Y-47885208D01*
X80408589Y-47885208D02*
X80360970Y-47980446D01*
X80360970Y-47980446D02*
X80313351Y-48028065D01*
X80313351Y-48028065D02*
X80218113Y-48075684D01*
X80218113Y-48075684D02*
X79837161Y-48075684D01*
X80837161Y-48456636D02*
X80884780Y-48504256D01*
X80884780Y-48504256D02*
X80837161Y-48551875D01*
X80837161Y-48551875D02*
X80789542Y-48504256D01*
X80789542Y-48504256D02*
X80837161Y-48456636D01*
X80837161Y-48456636D02*
X80837161Y-48551875D01*
X80837161Y-47932827D02*
X80884780Y-47980446D01*
X80884780Y-47980446D02*
X80837161Y-48028065D01*
X80837161Y-48028065D02*
X80789542Y-47980446D01*
X80789542Y-47980446D02*
X80837161Y-47932827D01*
X80837161Y-47932827D02*
X80837161Y-48028065D01*
X66884779Y-50161819D02*
X66884779Y-49161819D01*
X66884779Y-49161819D02*
X67218112Y-49876104D01*
X67218112Y-49876104D02*
X67551445Y-49161819D01*
X67551445Y-49161819D02*
X67551445Y-50161819D01*
X67980017Y-49876104D02*
X68456207Y-49876104D01*
X67884779Y-50161819D02*
X68218112Y-49161819D01*
X68218112Y-49161819D02*
X68551445Y-50161819D01*
X68884779Y-50161819D02*
X68884779Y-49161819D01*
X69360969Y-50161819D02*
X69360969Y-49161819D01*
X69360969Y-49161819D02*
X69932397Y-50161819D01*
X69932397Y-50161819D02*
X69932397Y-49161819D01*
X71170493Y-50161819D02*
X71170493Y-49161819D01*
X71170493Y-49161819D02*
X71551445Y-49161819D01*
X71551445Y-49161819D02*
X71646683Y-49209438D01*
X71646683Y-49209438D02*
X71694302Y-49257057D01*
X71694302Y-49257057D02*
X71741921Y-49352295D01*
X71741921Y-49352295D02*
X71741921Y-49495152D01*
X71741921Y-49495152D02*
X71694302Y-49590390D01*
X71694302Y-49590390D02*
X71646683Y-49638009D01*
X71646683Y-49638009D02*
X71551445Y-49685628D01*
X71551445Y-49685628D02*
X71170493Y-49685628D01*
X72741921Y-50066580D02*
X72694302Y-50114200D01*
X72694302Y-50114200D02*
X72551445Y-50161819D01*
X72551445Y-50161819D02*
X72456207Y-50161819D01*
X72456207Y-50161819D02*
X72313350Y-50114200D01*
X72313350Y-50114200D02*
X72218112Y-50018961D01*
X72218112Y-50018961D02*
X72170493Y-49923723D01*
X72170493Y-49923723D02*
X72122874Y-49733247D01*
X72122874Y-49733247D02*
X72122874Y-49590390D01*
X72122874Y-49590390D02*
X72170493Y-49399914D01*
X72170493Y-49399914D02*
X72218112Y-49304676D01*
X72218112Y-49304676D02*
X72313350Y-49209438D01*
X72313350Y-49209438D02*
X72456207Y-49161819D01*
X72456207Y-49161819D02*
X72551445Y-49161819D01*
X72551445Y-49161819D02*
X72694302Y-49209438D01*
X72694302Y-49209438D02*
X72741921Y-49257057D01*
X73503826Y-49638009D02*
X73646683Y-49685628D01*
X73646683Y-49685628D02*
X73694302Y-49733247D01*
X73694302Y-49733247D02*
X73741921Y-49828485D01*
X73741921Y-49828485D02*
X73741921Y-49971342D01*
X73741921Y-49971342D02*
X73694302Y-50066580D01*
X73694302Y-50066580D02*
X73646683Y-50114200D01*
X73646683Y-50114200D02*
X73551445Y-50161819D01*
X73551445Y-50161819D02*
X73170493Y-50161819D01*
X73170493Y-50161819D02*
X73170493Y-49161819D01*
X73170493Y-49161819D02*
X73503826Y-49161819D01*
X73503826Y-49161819D02*
X73599064Y-49209438D01*
X73599064Y-49209438D02*
X73646683Y-49257057D01*
X73646683Y-49257057D02*
X73694302Y-49352295D01*
X73694302Y-49352295D02*
X73694302Y-49447533D01*
X73694302Y-49447533D02*
X73646683Y-49542771D01*
X73646683Y-49542771D02*
X73599064Y-49590390D01*
X73599064Y-49590390D02*
X73503826Y-49638009D01*
X73503826Y-49638009D02*
X73170493Y-49638009D01*
X74837160Y-49495152D02*
X75075255Y-50161819D01*
X75075255Y-50161819D02*
X75313350Y-49495152D01*
X75694303Y-50066580D02*
X75741922Y-50114200D01*
X75741922Y-50114200D02*
X75694303Y-50161819D01*
X75694303Y-50161819D02*
X75646684Y-50114200D01*
X75646684Y-50114200D02*
X75694303Y-50066580D01*
X75694303Y-50066580D02*
X75694303Y-50161819D01*
X76075255Y-49161819D02*
X76694302Y-49161819D01*
X76694302Y-49161819D02*
X76360969Y-49542771D01*
X76360969Y-49542771D02*
X76503826Y-49542771D01*
X76503826Y-49542771D02*
X76599064Y-49590390D01*
X76599064Y-49590390D02*
X76646683Y-49638009D01*
X76646683Y-49638009D02*
X76694302Y-49733247D01*
X76694302Y-49733247D02*
X76694302Y-49971342D01*
X76694302Y-49971342D02*
X76646683Y-50066580D01*
X76646683Y-50066580D02*
X76599064Y-50114200D01*
X76599064Y-50114200D02*
X76503826Y-50161819D01*
X76503826Y-50161819D02*
X76218112Y-50161819D01*
X76218112Y-50161819D02*
X76122874Y-50114200D01*
X76122874Y-50114200D02*
X76075255Y-50066580D01*
X113426904Y-53429819D02*
X113236428Y-53429819D01*
X113236428Y-53429819D02*
X113141190Y-53477438D01*
X113141190Y-53477438D02*
X113093571Y-53525057D01*
X113093571Y-53525057D02*
X112998333Y-53667914D01*
X112998333Y-53667914D02*
X112950714Y-53858390D01*
X112950714Y-53858390D02*
X112950714Y-54239342D01*
X112950714Y-54239342D02*
X112998333Y-54334580D01*
X112998333Y-54334580D02*
X113045952Y-54382200D01*
X113045952Y-54382200D02*
X113141190Y-54429819D01*
X113141190Y-54429819D02*
X113331666Y-54429819D01*
X113331666Y-54429819D02*
X113426904Y-54382200D01*
X113426904Y-54382200D02*
X113474523Y-54334580D01*
X113474523Y-54334580D02*
X113522142Y-54239342D01*
X113522142Y-54239342D02*
X113522142Y-54001247D01*
X113522142Y-54001247D02*
X113474523Y-53906009D01*
X113474523Y-53906009D02*
X113426904Y-53858390D01*
X113426904Y-53858390D02*
X113331666Y-53810771D01*
X113331666Y-53810771D02*
X113141190Y-53810771D01*
X113141190Y-53810771D02*
X113045952Y-53858390D01*
X113045952Y-53858390D02*
X112998333Y-53906009D01*
X112998333Y-53906009D02*
X112950714Y-54001247D01*
X113807857Y-53429819D02*
X114141190Y-54429819D01*
X114141190Y-54429819D02*
X114474523Y-53429819D01*
X103719333Y-48111580D02*
X103671714Y-48159200D01*
X103671714Y-48159200D02*
X103528857Y-48206819D01*
X103528857Y-48206819D02*
X103433619Y-48206819D01*
X103433619Y-48206819D02*
X103290762Y-48159200D01*
X103290762Y-48159200D02*
X103195524Y-48063961D01*
X103195524Y-48063961D02*
X103147905Y-47968723D01*
X103147905Y-47968723D02*
X103100286Y-47778247D01*
X103100286Y-47778247D02*
X103100286Y-47635390D01*
X103100286Y-47635390D02*
X103147905Y-47444914D01*
X103147905Y-47444914D02*
X103195524Y-47349676D01*
X103195524Y-47349676D02*
X103290762Y-47254438D01*
X103290762Y-47254438D02*
X103433619Y-47206819D01*
X103433619Y-47206819D02*
X103528857Y-47206819D01*
X103528857Y-47206819D02*
X103671714Y-47254438D01*
X103671714Y-47254438D02*
X103719333Y-47302057D01*
X104100286Y-47302057D02*
X104147905Y-47254438D01*
X104147905Y-47254438D02*
X104243143Y-47206819D01*
X104243143Y-47206819D02*
X104481238Y-47206819D01*
X104481238Y-47206819D02*
X104576476Y-47254438D01*
X104576476Y-47254438D02*
X104624095Y-47302057D01*
X104624095Y-47302057D02*
X104671714Y-47397295D01*
X104671714Y-47397295D02*
X104671714Y-47492533D01*
X104671714Y-47492533D02*
X104624095Y-47635390D01*
X104624095Y-47635390D02*
X104052667Y-48206819D01*
X104052667Y-48206819D02*
X104671714Y-48206819D01*
X87209333Y-29823580D02*
X87161714Y-29871200D01*
X87161714Y-29871200D02*
X87018857Y-29918819D01*
X87018857Y-29918819D02*
X86923619Y-29918819D01*
X86923619Y-29918819D02*
X86780762Y-29871200D01*
X86780762Y-29871200D02*
X86685524Y-29775961D01*
X86685524Y-29775961D02*
X86637905Y-29680723D01*
X86637905Y-29680723D02*
X86590286Y-29490247D01*
X86590286Y-29490247D02*
X86590286Y-29347390D01*
X86590286Y-29347390D02*
X86637905Y-29156914D01*
X86637905Y-29156914D02*
X86685524Y-29061676D01*
X86685524Y-29061676D02*
X86780762Y-28966438D01*
X86780762Y-28966438D02*
X86923619Y-28918819D01*
X86923619Y-28918819D02*
X87018857Y-28918819D01*
X87018857Y-28918819D02*
X87161714Y-28966438D01*
X87161714Y-28966438D02*
X87209333Y-29014057D01*
X88161714Y-29918819D02*
X87590286Y-29918819D01*
X87876000Y-29918819D02*
X87876000Y-28918819D01*
X87876000Y-28918819D02*
X87780762Y-29061676D01*
X87780762Y-29061676D02*
X87685524Y-29156914D01*
X87685524Y-29156914D02*
X87590286Y-29204533D01*
X67262476Y-61828819D02*
X67262476Y-60828819D01*
X67262476Y-60828819D02*
X67595809Y-61543104D01*
X67595809Y-61543104D02*
X67929142Y-60828819D01*
X67929142Y-60828819D02*
X67929142Y-61828819D01*
X68548190Y-61257390D02*
X68452952Y-61209771D01*
X68452952Y-61209771D02*
X68405333Y-61162152D01*
X68405333Y-61162152D02*
X68357714Y-61066914D01*
X68357714Y-61066914D02*
X68357714Y-61019295D01*
X68357714Y-61019295D02*
X68405333Y-60924057D01*
X68405333Y-60924057D02*
X68452952Y-60876438D01*
X68452952Y-60876438D02*
X68548190Y-60828819D01*
X68548190Y-60828819D02*
X68738666Y-60828819D01*
X68738666Y-60828819D02*
X68833904Y-60876438D01*
X68833904Y-60876438D02*
X68881523Y-60924057D01*
X68881523Y-60924057D02*
X68929142Y-61019295D01*
X68929142Y-61019295D02*
X68929142Y-61066914D01*
X68929142Y-61066914D02*
X68881523Y-61162152D01*
X68881523Y-61162152D02*
X68833904Y-61209771D01*
X68833904Y-61209771D02*
X68738666Y-61257390D01*
X68738666Y-61257390D02*
X68548190Y-61257390D01*
X68548190Y-61257390D02*
X68452952Y-61305009D01*
X68452952Y-61305009D02*
X68405333Y-61352628D01*
X68405333Y-61352628D02*
X68357714Y-61447866D01*
X68357714Y-61447866D02*
X68357714Y-61638342D01*
X68357714Y-61638342D02*
X68405333Y-61733580D01*
X68405333Y-61733580D02*
X68452952Y-61781200D01*
X68452952Y-61781200D02*
X68548190Y-61828819D01*
X68548190Y-61828819D02*
X68738666Y-61828819D01*
X68738666Y-61828819D02*
X68833904Y-61781200D01*
X68833904Y-61781200D02*
X68881523Y-61733580D01*
X68881523Y-61733580D02*
X68929142Y-61638342D01*
X68929142Y-61638342D02*
X68929142Y-61447866D01*
X68929142Y-61447866D02*
X68881523Y-61352628D01*
X68881523Y-61352628D02*
X68833904Y-61305009D01*
X68833904Y-61305009D02*
X68738666Y-61257390D01*
X47585333Y-66145580D02*
X47537714Y-66193200D01*
X47537714Y-66193200D02*
X47394857Y-66240819D01*
X47394857Y-66240819D02*
X47299619Y-66240819D01*
X47299619Y-66240819D02*
X47156762Y-66193200D01*
X47156762Y-66193200D02*
X47061524Y-66097961D01*
X47061524Y-66097961D02*
X47013905Y-66002723D01*
X47013905Y-66002723D02*
X46966286Y-65812247D01*
X46966286Y-65812247D02*
X46966286Y-65669390D01*
X46966286Y-65669390D02*
X47013905Y-65478914D01*
X47013905Y-65478914D02*
X47061524Y-65383676D01*
X47061524Y-65383676D02*
X47156762Y-65288438D01*
X47156762Y-65288438D02*
X47299619Y-65240819D01*
X47299619Y-65240819D02*
X47394857Y-65240819D01*
X47394857Y-65240819D02*
X47537714Y-65288438D01*
X47537714Y-65288438D02*
X47585333Y-65336057D01*
X48156762Y-65669390D02*
X48061524Y-65621771D01*
X48061524Y-65621771D02*
X48013905Y-65574152D01*
X48013905Y-65574152D02*
X47966286Y-65478914D01*
X47966286Y-65478914D02*
X47966286Y-65431295D01*
X47966286Y-65431295D02*
X48013905Y-65336057D01*
X48013905Y-65336057D02*
X48061524Y-65288438D01*
X48061524Y-65288438D02*
X48156762Y-65240819D01*
X48156762Y-65240819D02*
X48347238Y-65240819D01*
X48347238Y-65240819D02*
X48442476Y-65288438D01*
X48442476Y-65288438D02*
X48490095Y-65336057D01*
X48490095Y-65336057D02*
X48537714Y-65431295D01*
X48537714Y-65431295D02*
X48537714Y-65478914D01*
X48537714Y-65478914D02*
X48490095Y-65574152D01*
X48490095Y-65574152D02*
X48442476Y-65621771D01*
X48442476Y-65621771D02*
X48347238Y-65669390D01*
X48347238Y-65669390D02*
X48156762Y-65669390D01*
X48156762Y-65669390D02*
X48061524Y-65717009D01*
X48061524Y-65717009D02*
X48013905Y-65764628D01*
X48013905Y-65764628D02*
X47966286Y-65859866D01*
X47966286Y-65859866D02*
X47966286Y-66050342D01*
X47966286Y-66050342D02*
X48013905Y-66145580D01*
X48013905Y-66145580D02*
X48061524Y-66193200D01*
X48061524Y-66193200D02*
X48156762Y-66240819D01*
X48156762Y-66240819D02*
X48347238Y-66240819D01*
X48347238Y-66240819D02*
X48442476Y-66193200D01*
X48442476Y-66193200D02*
X48490095Y-66145580D01*
X48490095Y-66145580D02*
X48537714Y-66050342D01*
X48537714Y-66050342D02*
X48537714Y-65859866D01*
X48537714Y-65859866D02*
X48490095Y-65764628D01*
X48490095Y-65764628D02*
X48442476Y-65717009D01*
X48442476Y-65717009D02*
X48347238Y-65669390D01*
X77683577Y-20282819D02*
X77683577Y-20997104D01*
X77683577Y-20997104D02*
X77635958Y-21139961D01*
X77635958Y-21139961D02*
X77540720Y-21235200D01*
X77540720Y-21235200D02*
X77397863Y-21282819D01*
X77397863Y-21282819D02*
X77302625Y-21282819D01*
X78064530Y-20282819D02*
X78683577Y-20282819D01*
X78683577Y-20282819D02*
X78350244Y-20663771D01*
X78350244Y-20663771D02*
X78493101Y-20663771D01*
X78493101Y-20663771D02*
X78588339Y-20711390D01*
X78588339Y-20711390D02*
X78635958Y-20759009D01*
X78635958Y-20759009D02*
X78683577Y-20854247D01*
X78683577Y-20854247D02*
X78683577Y-21092342D01*
X78683577Y-21092342D02*
X78635958Y-21187580D01*
X78635958Y-21187580D02*
X78588339Y-21235200D01*
X78588339Y-21235200D02*
X78493101Y-21282819D01*
X78493101Y-21282819D02*
X78207387Y-21282819D01*
X78207387Y-21282819D02*
X78112149Y-21235200D01*
X78112149Y-21235200D02*
X78064530Y-21187580D01*
X79635958Y-21282819D02*
X79064530Y-21282819D01*
X79350244Y-21282819D02*
X79350244Y-20282819D01*
X79350244Y-20282819D02*
X79255006Y-20425676D01*
X79255006Y-20425676D02*
X79159768Y-20520914D01*
X79159768Y-20520914D02*
X79064530Y-20568533D01*
X112276095Y-48222819D02*
X112847523Y-48222819D01*
X112561809Y-49222819D02*
X112561809Y-48222819D01*
X113180857Y-49222819D02*
X113180857Y-48222819D01*
X113180857Y-48222819D02*
X113561809Y-48222819D01*
X113561809Y-48222819D02*
X113657047Y-48270438D01*
X113657047Y-48270438D02*
X113704666Y-48318057D01*
X113704666Y-48318057D02*
X113752285Y-48413295D01*
X113752285Y-48413295D02*
X113752285Y-48556152D01*
X113752285Y-48556152D02*
X113704666Y-48651390D01*
X113704666Y-48651390D02*
X113657047Y-48699009D01*
X113657047Y-48699009D02*
X113561809Y-48746628D01*
X113561809Y-48746628D02*
X113180857Y-48746628D01*
X114704666Y-49222819D02*
X114133238Y-49222819D01*
X114418952Y-49222819D02*
X114418952Y-48222819D01*
X114418952Y-48222819D02*
X114323714Y-48365676D01*
X114323714Y-48365676D02*
X114228476Y-48460914D01*
X114228476Y-48460914D02*
X114133238Y-48508533D01*
X114673142Y-32332819D02*
X114339809Y-31856628D01*
X114101714Y-32332819D02*
X114101714Y-31332819D01*
X114101714Y-31332819D02*
X114482666Y-31332819D01*
X114482666Y-31332819D02*
X114577904Y-31380438D01*
X114577904Y-31380438D02*
X114625523Y-31428057D01*
X114625523Y-31428057D02*
X114673142Y-31523295D01*
X114673142Y-31523295D02*
X114673142Y-31666152D01*
X114673142Y-31666152D02*
X114625523Y-31761390D01*
X114625523Y-31761390D02*
X114577904Y-31809009D01*
X114577904Y-31809009D02*
X114482666Y-31856628D01*
X114482666Y-31856628D02*
X114101714Y-31856628D01*
X115625523Y-32332819D02*
X115054095Y-32332819D01*
X115339809Y-32332819D02*
X115339809Y-31332819D01*
X115339809Y-31332819D02*
X115244571Y-31475676D01*
X115244571Y-31475676D02*
X115149333Y-31570914D01*
X115149333Y-31570914D02*
X115054095Y-31618533D01*
X116244571Y-31332819D02*
X116339809Y-31332819D01*
X116339809Y-31332819D02*
X116435047Y-31380438D01*
X116435047Y-31380438D02*
X116482666Y-31428057D01*
X116482666Y-31428057D02*
X116530285Y-31523295D01*
X116530285Y-31523295D02*
X116577904Y-31713771D01*
X116577904Y-31713771D02*
X116577904Y-31951866D01*
X116577904Y-31951866D02*
X116530285Y-32142342D01*
X116530285Y-32142342D02*
X116482666Y-32237580D01*
X116482666Y-32237580D02*
X116435047Y-32285200D01*
X116435047Y-32285200D02*
X116339809Y-32332819D01*
X116339809Y-32332819D02*
X116244571Y-32332819D01*
X116244571Y-32332819D02*
X116149333Y-32285200D01*
X116149333Y-32285200D02*
X116101714Y-32237580D01*
X116101714Y-32237580D02*
X116054095Y-32142342D01*
X116054095Y-32142342D02*
X116006476Y-31951866D01*
X116006476Y-31951866D02*
X116006476Y-31713771D01*
X116006476Y-31713771D02*
X116054095Y-31523295D01*
X116054095Y-31523295D02*
X116101714Y-31428057D01*
X116101714Y-31428057D02*
X116149333Y-31380438D01*
X116149333Y-31380438D02*
X116244571Y-31332819D01*
X90090666Y-20282819D02*
X90090666Y-20997104D01*
X90090666Y-20997104D02*
X90043047Y-21139961D01*
X90043047Y-21139961D02*
X89947809Y-21235200D01*
X89947809Y-21235200D02*
X89804952Y-21282819D01*
X89804952Y-21282819D02*
X89709714Y-21282819D01*
X90614476Y-21282819D02*
X90804952Y-21282819D01*
X90804952Y-21282819D02*
X90900190Y-21235200D01*
X90900190Y-21235200D02*
X90947809Y-21187580D01*
X90947809Y-21187580D02*
X91043047Y-21044723D01*
X91043047Y-21044723D02*
X91090666Y-20854247D01*
X91090666Y-20854247D02*
X91090666Y-20473295D01*
X91090666Y-20473295D02*
X91043047Y-20378057D01*
X91043047Y-20378057D02*
X90995428Y-20330438D01*
X90995428Y-20330438D02*
X90900190Y-20282819D01*
X90900190Y-20282819D02*
X90709714Y-20282819D01*
X90709714Y-20282819D02*
X90614476Y-20330438D01*
X90614476Y-20330438D02*
X90566857Y-20378057D01*
X90566857Y-20378057D02*
X90519238Y-20473295D01*
X90519238Y-20473295D02*
X90519238Y-20711390D01*
X90519238Y-20711390D02*
X90566857Y-20806628D01*
X90566857Y-20806628D02*
X90614476Y-20854247D01*
X90614476Y-20854247D02*
X90709714Y-20901866D01*
X90709714Y-20901866D02*
X90900190Y-20901866D01*
X90900190Y-20901866D02*
X90995428Y-20854247D01*
X90995428Y-20854247D02*
X91043047Y-20806628D01*
X91043047Y-20806628D02*
X91090666Y-20711390D01*
X43031580Y-61888666D02*
X43079200Y-61936285D01*
X43079200Y-61936285D02*
X43126819Y-62079142D01*
X43126819Y-62079142D02*
X43126819Y-62174380D01*
X43126819Y-62174380D02*
X43079200Y-62317237D01*
X43079200Y-62317237D02*
X42983961Y-62412475D01*
X42983961Y-62412475D02*
X42888723Y-62460094D01*
X42888723Y-62460094D02*
X42698247Y-62507713D01*
X42698247Y-62507713D02*
X42555390Y-62507713D01*
X42555390Y-62507713D02*
X42364914Y-62460094D01*
X42364914Y-62460094D02*
X42269676Y-62412475D01*
X42269676Y-62412475D02*
X42174438Y-62317237D01*
X42174438Y-62317237D02*
X42126819Y-62174380D01*
X42126819Y-62174380D02*
X42126819Y-62079142D01*
X42126819Y-62079142D02*
X42174438Y-61936285D01*
X42174438Y-61936285D02*
X42222057Y-61888666D01*
X42126819Y-61555332D02*
X42126819Y-60888666D01*
X42126819Y-60888666D02*
X43126819Y-61317237D01*
X63198476Y-61828819D02*
X63198476Y-60828819D01*
X63198476Y-60828819D02*
X63531809Y-61543104D01*
X63531809Y-61543104D02*
X63865142Y-60828819D01*
X63865142Y-60828819D02*
X63865142Y-61828819D01*
X64246095Y-60828819D02*
X64912761Y-60828819D01*
X64912761Y-60828819D02*
X64484190Y-61828819D01*
X93834819Y-68373523D02*
X92834819Y-68373523D01*
X92834819Y-68373523D02*
X93549104Y-68040190D01*
X93549104Y-68040190D02*
X92834819Y-67706857D01*
X92834819Y-67706857D02*
X93834819Y-67706857D01*
X92834819Y-67325904D02*
X92834819Y-66706857D01*
X92834819Y-66706857D02*
X93215771Y-67040190D01*
X93215771Y-67040190D02*
X93215771Y-66897333D01*
X93215771Y-66897333D02*
X93263390Y-66802095D01*
X93263390Y-66802095D02*
X93311009Y-66754476D01*
X93311009Y-66754476D02*
X93406247Y-66706857D01*
X93406247Y-66706857D02*
X93644342Y-66706857D01*
X93644342Y-66706857D02*
X93739580Y-66754476D01*
X93739580Y-66754476D02*
X93787200Y-66802095D01*
X93787200Y-66802095D02*
X93834819Y-66897333D01*
X93834819Y-66897333D02*
X93834819Y-67183047D01*
X93834819Y-67183047D02*
X93787200Y-67278285D01*
X93787200Y-67278285D02*
X93739580Y-67325904D01*
X98243219Y-31857142D02*
X98195600Y-31809523D01*
X98195600Y-31809523D02*
X98147980Y-31666666D01*
X98147980Y-31666666D02*
X98147980Y-31571428D01*
X98147980Y-31571428D02*
X98195600Y-31428571D01*
X98195600Y-31428571D02*
X98290838Y-31333333D01*
X98290838Y-31333333D02*
X98386076Y-31285714D01*
X98386076Y-31285714D02*
X98576552Y-31238095D01*
X98576552Y-31238095D02*
X98719409Y-31238095D01*
X98719409Y-31238095D02*
X98909885Y-31285714D01*
X98909885Y-31285714D02*
X99005123Y-31333333D01*
X99005123Y-31333333D02*
X99100361Y-31428571D01*
X99100361Y-31428571D02*
X99147980Y-31571428D01*
X99147980Y-31571428D02*
X99147980Y-31666666D01*
X99147980Y-31666666D02*
X99100361Y-31809523D01*
X99100361Y-31809523D02*
X99052742Y-31857142D01*
X98147980Y-32809523D02*
X98147980Y-32238095D01*
X98147980Y-32523809D02*
X99147980Y-32523809D01*
X99147980Y-32523809D02*
X99005123Y-32428571D01*
X99005123Y-32428571D02*
X98909885Y-32333333D01*
X98909885Y-32333333D02*
X98862266Y-32238095D01*
X99147980Y-33666666D02*
X99147980Y-33476190D01*
X99147980Y-33476190D02*
X99100361Y-33380952D01*
X99100361Y-33380952D02*
X99052742Y-33333333D01*
X99052742Y-33333333D02*
X98909885Y-33238095D01*
X98909885Y-33238095D02*
X98719409Y-33190476D01*
X98719409Y-33190476D02*
X98338457Y-33190476D01*
X98338457Y-33190476D02*
X98243219Y-33238095D01*
X98243219Y-33238095D02*
X98195600Y-33285714D01*
X98195600Y-33285714D02*
X98147980Y-33380952D01*
X98147980Y-33380952D02*
X98147980Y-33571428D01*
X98147980Y-33571428D02*
X98195600Y-33666666D01*
X98195600Y-33666666D02*
X98243219Y-33714285D01*
X98243219Y-33714285D02*
X98338457Y-33761904D01*
X98338457Y-33761904D02*
X98576552Y-33761904D01*
X98576552Y-33761904D02*
X98671790Y-33714285D01*
X98671790Y-33714285D02*
X98719409Y-33666666D01*
X98719409Y-33666666D02*
X98767028Y-33571428D01*
X98767028Y-33571428D02*
X98767028Y-33380952D01*
X98767028Y-33380952D02*
X98719409Y-33285714D01*
X98719409Y-33285714D02*
X98671790Y-33238095D01*
X98671790Y-33238095D02*
X98576552Y-33190476D01*
X118570476Y-20790819D02*
X118570476Y-21505104D01*
X118570476Y-21505104D02*
X118522857Y-21647961D01*
X118522857Y-21647961D02*
X118427619Y-21743200D01*
X118427619Y-21743200D02*
X118284762Y-21790819D01*
X118284762Y-21790819D02*
X118189524Y-21790819D01*
X118999048Y-20886057D02*
X119046667Y-20838438D01*
X119046667Y-20838438D02*
X119141905Y-20790819D01*
X119141905Y-20790819D02*
X119380000Y-20790819D01*
X119380000Y-20790819D02*
X119475238Y-20838438D01*
X119475238Y-20838438D02*
X119522857Y-20886057D01*
X119522857Y-20886057D02*
X119570476Y-20981295D01*
X119570476Y-20981295D02*
X119570476Y-21076533D01*
X119570476Y-21076533D02*
X119522857Y-21219390D01*
X119522857Y-21219390D02*
X118951429Y-21790819D01*
X118951429Y-21790819D02*
X119570476Y-21790819D01*
X119951429Y-20886057D02*
X119999048Y-20838438D01*
X119999048Y-20838438D02*
X120094286Y-20790819D01*
X120094286Y-20790819D02*
X120332381Y-20790819D01*
X120332381Y-20790819D02*
X120427619Y-20838438D01*
X120427619Y-20838438D02*
X120475238Y-20886057D01*
X120475238Y-20886057D02*
X120522857Y-20981295D01*
X120522857Y-20981295D02*
X120522857Y-21076533D01*
X120522857Y-21076533D02*
X120475238Y-21219390D01*
X120475238Y-21219390D02*
X119903810Y-21790819D01*
X119903810Y-21790819D02*
X120522857Y-21790819D01*
X104489333Y-21695580D02*
X104441714Y-21743200D01*
X104441714Y-21743200D02*
X104298857Y-21790819D01*
X104298857Y-21790819D02*
X104203619Y-21790819D01*
X104203619Y-21790819D02*
X104060762Y-21743200D01*
X104060762Y-21743200D02*
X103965524Y-21647961D01*
X103965524Y-21647961D02*
X103917905Y-21552723D01*
X103917905Y-21552723D02*
X103870286Y-21362247D01*
X103870286Y-21362247D02*
X103870286Y-21219390D01*
X103870286Y-21219390D02*
X103917905Y-21028914D01*
X103917905Y-21028914D02*
X103965524Y-20933676D01*
X103965524Y-20933676D02*
X104060762Y-20838438D01*
X104060762Y-20838438D02*
X104203619Y-20790819D01*
X104203619Y-20790819D02*
X104298857Y-20790819D01*
X104298857Y-20790819D02*
X104441714Y-20838438D01*
X104441714Y-20838438D02*
X104489333Y-20886057D01*
X105489333Y-21790819D02*
X105156000Y-21314628D01*
X104917905Y-21790819D02*
X104917905Y-20790819D01*
X104917905Y-20790819D02*
X105298857Y-20790819D01*
X105298857Y-20790819D02*
X105394095Y-20838438D01*
X105394095Y-20838438D02*
X105441714Y-20886057D01*
X105441714Y-20886057D02*
X105489333Y-20981295D01*
X105489333Y-20981295D02*
X105489333Y-21124152D01*
X105489333Y-21124152D02*
X105441714Y-21219390D01*
X105441714Y-21219390D02*
X105394095Y-21267009D01*
X105394095Y-21267009D02*
X105298857Y-21314628D01*
X105298857Y-21314628D02*
X104917905Y-21314628D01*
X106441714Y-21790819D02*
X105870286Y-21790819D01*
X106156000Y-21790819D02*
X106156000Y-20790819D01*
X106156000Y-20790819D02*
X106060762Y-20933676D01*
X106060762Y-20933676D02*
X105965524Y-21028914D01*
X105965524Y-21028914D02*
X105870286Y-21076533D01*
X96226980Y-23876000D02*
X95988885Y-23876000D01*
X96084123Y-23637905D02*
X95988885Y-23876000D01*
X95988885Y-23876000D02*
X96084123Y-24114095D01*
X95798409Y-23733143D02*
X95988885Y-23876000D01*
X95988885Y-23876000D02*
X95798409Y-24018857D01*
X95136619Y-23875999D02*
X95374714Y-23875999D01*
X95279476Y-24114094D02*
X95374714Y-23875999D01*
X95374714Y-23875999D02*
X95279476Y-23637904D01*
X95565190Y-24018856D02*
X95374714Y-23875999D01*
X95374714Y-23875999D02*
X95565190Y-23733142D01*
X42377580Y-70648666D02*
X42425200Y-70696285D01*
X42425200Y-70696285D02*
X42472819Y-70839142D01*
X42472819Y-70839142D02*
X42472819Y-70934380D01*
X42472819Y-70934380D02*
X42425200Y-71077237D01*
X42425200Y-71077237D02*
X42329961Y-71172475D01*
X42329961Y-71172475D02*
X42234723Y-71220094D01*
X42234723Y-71220094D02*
X42044247Y-71267713D01*
X42044247Y-71267713D02*
X41901390Y-71267713D01*
X41901390Y-71267713D02*
X41710914Y-71220094D01*
X41710914Y-71220094D02*
X41615676Y-71172475D01*
X41615676Y-71172475D02*
X41520438Y-71077237D01*
X41520438Y-71077237D02*
X41472819Y-70934380D01*
X41472819Y-70934380D02*
X41472819Y-70839142D01*
X41472819Y-70839142D02*
X41520438Y-70696285D01*
X41520438Y-70696285D02*
X41568057Y-70648666D01*
X41472819Y-70315332D02*
X41472819Y-69696285D01*
X41472819Y-69696285D02*
X41853771Y-70029618D01*
X41853771Y-70029618D02*
X41853771Y-69886761D01*
X41853771Y-69886761D02*
X41901390Y-69791523D01*
X41901390Y-69791523D02*
X41949009Y-69743904D01*
X41949009Y-69743904D02*
X42044247Y-69696285D01*
X42044247Y-69696285D02*
X42282342Y-69696285D01*
X42282342Y-69696285D02*
X42377580Y-69743904D01*
X42377580Y-69743904D02*
X42425200Y-69791523D01*
X42425200Y-69791523D02*
X42472819Y-69886761D01*
X42472819Y-69886761D02*
X42472819Y-70172475D01*
X42472819Y-70172475D02*
X42425200Y-70267713D01*
X42425200Y-70267713D02*
X42377580Y-70315332D01*
X93834819Y-60721713D02*
X92834819Y-60721713D01*
X92834819Y-60721713D02*
X93549104Y-60388380D01*
X93549104Y-60388380D02*
X92834819Y-60055047D01*
X92834819Y-60055047D02*
X93834819Y-60055047D01*
X93834819Y-59055047D02*
X93834819Y-59626475D01*
X93834819Y-59340761D02*
X92834819Y-59340761D01*
X92834819Y-59340761D02*
X92977676Y-59435999D01*
X92977676Y-59435999D02*
X93072914Y-59531237D01*
X93072914Y-59531237D02*
X93120533Y-59626475D01*
X92834819Y-58435999D02*
X92834819Y-58340761D01*
X92834819Y-58340761D02*
X92882438Y-58245523D01*
X92882438Y-58245523D02*
X92930057Y-58197904D01*
X92930057Y-58197904D02*
X93025295Y-58150285D01*
X93025295Y-58150285D02*
X93215771Y-58102666D01*
X93215771Y-58102666D02*
X93453866Y-58102666D01*
X93453866Y-58102666D02*
X93644342Y-58150285D01*
X93644342Y-58150285D02*
X93739580Y-58197904D01*
X93739580Y-58197904D02*
X93787200Y-58245523D01*
X93787200Y-58245523D02*
X93834819Y-58340761D01*
X93834819Y-58340761D02*
X93834819Y-58435999D01*
X93834819Y-58435999D02*
X93787200Y-58531237D01*
X93787200Y-58531237D02*
X93739580Y-58578856D01*
X93739580Y-58578856D02*
X93644342Y-58626475D01*
X93644342Y-58626475D02*
X93453866Y-58674094D01*
X93453866Y-58674094D02*
X93215771Y-58674094D01*
X93215771Y-58674094D02*
X93025295Y-58626475D01*
X93025295Y-58626475D02*
X92930057Y-58578856D01*
X92930057Y-58578856D02*
X92882438Y-58531237D01*
X92882438Y-58531237D02*
X92834819Y-58435999D01*
X145915142Y-29112380D02*
X145867523Y-29160000D01*
X145867523Y-29160000D02*
X145724666Y-29207619D01*
X145724666Y-29207619D02*
X145629428Y-29207619D01*
X145629428Y-29207619D02*
X145486571Y-29160000D01*
X145486571Y-29160000D02*
X145391333Y-29064761D01*
X145391333Y-29064761D02*
X145343714Y-28969523D01*
X145343714Y-28969523D02*
X145296095Y-28779047D01*
X145296095Y-28779047D02*
X145296095Y-28636190D01*
X145296095Y-28636190D02*
X145343714Y-28445714D01*
X145343714Y-28445714D02*
X145391333Y-28350476D01*
X145391333Y-28350476D02*
X145486571Y-28255238D01*
X145486571Y-28255238D02*
X145629428Y-28207619D01*
X145629428Y-28207619D02*
X145724666Y-28207619D01*
X145724666Y-28207619D02*
X145867523Y-28255238D01*
X145867523Y-28255238D02*
X145915142Y-28302857D01*
X146296095Y-28302857D02*
X146343714Y-28255238D01*
X146343714Y-28255238D02*
X146438952Y-28207619D01*
X146438952Y-28207619D02*
X146677047Y-28207619D01*
X146677047Y-28207619D02*
X146772285Y-28255238D01*
X146772285Y-28255238D02*
X146819904Y-28302857D01*
X146819904Y-28302857D02*
X146867523Y-28398095D01*
X146867523Y-28398095D02*
X146867523Y-28493333D01*
X146867523Y-28493333D02*
X146819904Y-28636190D01*
X146819904Y-28636190D02*
X146248476Y-29207619D01*
X146248476Y-29207619D02*
X146867523Y-29207619D01*
X147486571Y-28207619D02*
X147581809Y-28207619D01*
X147581809Y-28207619D02*
X147677047Y-28255238D01*
X147677047Y-28255238D02*
X147724666Y-28302857D01*
X147724666Y-28302857D02*
X147772285Y-28398095D01*
X147772285Y-28398095D02*
X147819904Y-28588571D01*
X147819904Y-28588571D02*
X147819904Y-28826666D01*
X147819904Y-28826666D02*
X147772285Y-29017142D01*
X147772285Y-29017142D02*
X147724666Y-29112380D01*
X147724666Y-29112380D02*
X147677047Y-29160000D01*
X147677047Y-29160000D02*
X147581809Y-29207619D01*
X147581809Y-29207619D02*
X147486571Y-29207619D01*
X147486571Y-29207619D02*
X147391333Y-29160000D01*
X147391333Y-29160000D02*
X147343714Y-29112380D01*
X147343714Y-29112380D02*
X147296095Y-29017142D01*
X147296095Y-29017142D02*
X147248476Y-28826666D01*
X147248476Y-28826666D02*
X147248476Y-28588571D01*
X147248476Y-28588571D02*
X147296095Y-28398095D01*
X147296095Y-28398095D02*
X147343714Y-28302857D01*
X147343714Y-28302857D02*
X147391333Y-28255238D01*
X147391333Y-28255238D02*
X147486571Y-28207619D01*
X112609333Y-21790819D02*
X112276000Y-21314628D01*
X112037905Y-21790819D02*
X112037905Y-20790819D01*
X112037905Y-20790819D02*
X112418857Y-20790819D01*
X112418857Y-20790819D02*
X112514095Y-20838438D01*
X112514095Y-20838438D02*
X112561714Y-20886057D01*
X112561714Y-20886057D02*
X112609333Y-20981295D01*
X112609333Y-20981295D02*
X112609333Y-21124152D01*
X112609333Y-21124152D02*
X112561714Y-21219390D01*
X112561714Y-21219390D02*
X112514095Y-21267009D01*
X112514095Y-21267009D02*
X112418857Y-21314628D01*
X112418857Y-21314628D02*
X112037905Y-21314628D01*
X113085524Y-21790819D02*
X113276000Y-21790819D01*
X113276000Y-21790819D02*
X113371238Y-21743200D01*
X113371238Y-21743200D02*
X113418857Y-21695580D01*
X113418857Y-21695580D02*
X113514095Y-21552723D01*
X113514095Y-21552723D02*
X113561714Y-21362247D01*
X113561714Y-21362247D02*
X113561714Y-20981295D01*
X113561714Y-20981295D02*
X113514095Y-20886057D01*
X113514095Y-20886057D02*
X113466476Y-20838438D01*
X113466476Y-20838438D02*
X113371238Y-20790819D01*
X113371238Y-20790819D02*
X113180762Y-20790819D01*
X113180762Y-20790819D02*
X113085524Y-20838438D01*
X113085524Y-20838438D02*
X113037905Y-20886057D01*
X113037905Y-20886057D02*
X112990286Y-20981295D01*
X112990286Y-20981295D02*
X112990286Y-21219390D01*
X112990286Y-21219390D02*
X113037905Y-21314628D01*
X113037905Y-21314628D02*
X113085524Y-21362247D01*
X113085524Y-21362247D02*
X113180762Y-21409866D01*
X113180762Y-21409866D02*
X113371238Y-21409866D01*
X113371238Y-21409866D02*
X113466476Y-21362247D01*
X113466476Y-21362247D02*
X113514095Y-21314628D01*
X113514095Y-21314628D02*
X113561714Y-21219390D01*
X133977142Y-27283580D02*
X133929523Y-27331200D01*
X133929523Y-27331200D02*
X133786666Y-27378819D01*
X133786666Y-27378819D02*
X133691428Y-27378819D01*
X133691428Y-27378819D02*
X133548571Y-27331200D01*
X133548571Y-27331200D02*
X133453333Y-27235961D01*
X133453333Y-27235961D02*
X133405714Y-27140723D01*
X133405714Y-27140723D02*
X133358095Y-26950247D01*
X133358095Y-26950247D02*
X133358095Y-26807390D01*
X133358095Y-26807390D02*
X133405714Y-26616914D01*
X133405714Y-26616914D02*
X133453333Y-26521676D01*
X133453333Y-26521676D02*
X133548571Y-26426438D01*
X133548571Y-26426438D02*
X133691428Y-26378819D01*
X133691428Y-26378819D02*
X133786666Y-26378819D01*
X133786666Y-26378819D02*
X133929523Y-26426438D01*
X133929523Y-26426438D02*
X133977142Y-26474057D01*
X134358095Y-26474057D02*
X134405714Y-26426438D01*
X134405714Y-26426438D02*
X134500952Y-26378819D01*
X134500952Y-26378819D02*
X134739047Y-26378819D01*
X134739047Y-26378819D02*
X134834285Y-26426438D01*
X134834285Y-26426438D02*
X134881904Y-26474057D01*
X134881904Y-26474057D02*
X134929523Y-26569295D01*
X134929523Y-26569295D02*
X134929523Y-26664533D01*
X134929523Y-26664533D02*
X134881904Y-26807390D01*
X134881904Y-26807390D02*
X134310476Y-27378819D01*
X134310476Y-27378819D02*
X134929523Y-27378819D01*
X135310476Y-26474057D02*
X135358095Y-26426438D01*
X135358095Y-26426438D02*
X135453333Y-26378819D01*
X135453333Y-26378819D02*
X135691428Y-26378819D01*
X135691428Y-26378819D02*
X135786666Y-26426438D01*
X135786666Y-26426438D02*
X135834285Y-26474057D01*
X135834285Y-26474057D02*
X135881904Y-26569295D01*
X135881904Y-26569295D02*
X135881904Y-26664533D01*
X135881904Y-26664533D02*
X135834285Y-26807390D01*
X135834285Y-26807390D02*
X135262857Y-27378819D01*
X135262857Y-27378819D02*
X135881904Y-27378819D01*
X42872819Y-57824666D02*
X42396628Y-58157999D01*
X42872819Y-58396094D02*
X41872819Y-58396094D01*
X41872819Y-58396094D02*
X41872819Y-58015142D01*
X41872819Y-58015142D02*
X41920438Y-57919904D01*
X41920438Y-57919904D02*
X41968057Y-57872285D01*
X41968057Y-57872285D02*
X42063295Y-57824666D01*
X42063295Y-57824666D02*
X42206152Y-57824666D01*
X42206152Y-57824666D02*
X42301390Y-57872285D01*
X42301390Y-57872285D02*
X42349009Y-57919904D01*
X42349009Y-57919904D02*
X42396628Y-58015142D01*
X42396628Y-58015142D02*
X42396628Y-58396094D01*
X42206152Y-56967523D02*
X42872819Y-56967523D01*
X41825200Y-57205618D02*
X42539485Y-57443713D01*
X42539485Y-57443713D02*
X42539485Y-56824666D01*
X82182133Y-55318819D02*
X81848800Y-54842628D01*
X81610705Y-55318819D02*
X81610705Y-54318819D01*
X81610705Y-54318819D02*
X81991657Y-54318819D01*
X81991657Y-54318819D02*
X82086895Y-54366438D01*
X82086895Y-54366438D02*
X82134514Y-54414057D01*
X82134514Y-54414057D02*
X82182133Y-54509295D01*
X82182133Y-54509295D02*
X82182133Y-54652152D01*
X82182133Y-54652152D02*
X82134514Y-54747390D01*
X82134514Y-54747390D02*
X82086895Y-54795009D01*
X82086895Y-54795009D02*
X81991657Y-54842628D01*
X81991657Y-54842628D02*
X81610705Y-54842628D01*
X82515467Y-54318819D02*
X83134514Y-54318819D01*
X83134514Y-54318819D02*
X82801181Y-54699771D01*
X82801181Y-54699771D02*
X82944038Y-54699771D01*
X82944038Y-54699771D02*
X83039276Y-54747390D01*
X83039276Y-54747390D02*
X83086895Y-54795009D01*
X83086895Y-54795009D02*
X83134514Y-54890247D01*
X83134514Y-54890247D02*
X83134514Y-55128342D01*
X83134514Y-55128342D02*
X83086895Y-55223580D01*
X83086895Y-55223580D02*
X83039276Y-55271200D01*
X83039276Y-55271200D02*
X82944038Y-55318819D01*
X82944038Y-55318819D02*
X82658324Y-55318819D01*
X82658324Y-55318819D02*
X82563086Y-55271200D01*
X82563086Y-55271200D02*
X82515467Y-55223580D01*
X105003695Y-33490819D02*
X105003695Y-34300342D01*
X105003695Y-34300342D02*
X105051314Y-34395580D01*
X105051314Y-34395580D02*
X105098933Y-34443200D01*
X105098933Y-34443200D02*
X105194171Y-34490819D01*
X105194171Y-34490819D02*
X105384647Y-34490819D01*
X105384647Y-34490819D02*
X105479885Y-34443200D01*
X105479885Y-34443200D02*
X105527504Y-34395580D01*
X105527504Y-34395580D02*
X105575123Y-34300342D01*
X105575123Y-34300342D02*
X105575123Y-33490819D01*
X106479885Y-33824152D02*
X106479885Y-34490819D01*
X106241790Y-33443200D02*
X106003695Y-34157485D01*
X106003695Y-34157485D02*
X106622742Y-34157485D01*
X70542666Y-58382819D02*
X70542666Y-59097104D01*
X70542666Y-59097104D02*
X70495047Y-59239961D01*
X70495047Y-59239961D02*
X70399809Y-59335200D01*
X70399809Y-59335200D02*
X70256952Y-59382819D01*
X70256952Y-59382819D02*
X70161714Y-59382819D01*
X71018857Y-59382819D02*
X71018857Y-58382819D01*
X71018857Y-58382819D02*
X71399809Y-58382819D01*
X71399809Y-58382819D02*
X71495047Y-58430438D01*
X71495047Y-58430438D02*
X71542666Y-58478057D01*
X71542666Y-58478057D02*
X71590285Y-58573295D01*
X71590285Y-58573295D02*
X71590285Y-58716152D01*
X71590285Y-58716152D02*
X71542666Y-58811390D01*
X71542666Y-58811390D02*
X71495047Y-58859009D01*
X71495047Y-58859009D02*
X71399809Y-58906628D01*
X71399809Y-58906628D02*
X71018857Y-58906628D01*
X71923619Y-58382819D02*
X72542666Y-58382819D01*
X72542666Y-58382819D02*
X72209333Y-58763771D01*
X72209333Y-58763771D02*
X72352190Y-58763771D01*
X72352190Y-58763771D02*
X72447428Y-58811390D01*
X72447428Y-58811390D02*
X72495047Y-58859009D01*
X72495047Y-58859009D02*
X72542666Y-58954247D01*
X72542666Y-58954247D02*
X72542666Y-59192342D01*
X72542666Y-59192342D02*
X72495047Y-59287580D01*
X72495047Y-59287580D02*
X72447428Y-59335200D01*
X72447428Y-59335200D02*
X72352190Y-59382819D01*
X72352190Y-59382819D02*
X72066476Y-59382819D01*
X72066476Y-59382819D02*
X71971238Y-59335200D01*
X71971238Y-59335200D02*
X71923619Y-59287580D01*
X145915142Y-32668380D02*
X145867523Y-32716000D01*
X145867523Y-32716000D02*
X145724666Y-32763619D01*
X145724666Y-32763619D02*
X145629428Y-32763619D01*
X145629428Y-32763619D02*
X145486571Y-32716000D01*
X145486571Y-32716000D02*
X145391333Y-32620761D01*
X145391333Y-32620761D02*
X145343714Y-32525523D01*
X145343714Y-32525523D02*
X145296095Y-32335047D01*
X145296095Y-32335047D02*
X145296095Y-32192190D01*
X145296095Y-32192190D02*
X145343714Y-32001714D01*
X145343714Y-32001714D02*
X145391333Y-31906476D01*
X145391333Y-31906476D02*
X145486571Y-31811238D01*
X145486571Y-31811238D02*
X145629428Y-31763619D01*
X145629428Y-31763619D02*
X145724666Y-31763619D01*
X145724666Y-31763619D02*
X145867523Y-31811238D01*
X145867523Y-31811238D02*
X145915142Y-31858857D01*
X146296095Y-31858857D02*
X146343714Y-31811238D01*
X146343714Y-31811238D02*
X146438952Y-31763619D01*
X146438952Y-31763619D02*
X146677047Y-31763619D01*
X146677047Y-31763619D02*
X146772285Y-31811238D01*
X146772285Y-31811238D02*
X146819904Y-31858857D01*
X146819904Y-31858857D02*
X146867523Y-31954095D01*
X146867523Y-31954095D02*
X146867523Y-32049333D01*
X146867523Y-32049333D02*
X146819904Y-32192190D01*
X146819904Y-32192190D02*
X146248476Y-32763619D01*
X146248476Y-32763619D02*
X146867523Y-32763619D01*
X147819904Y-32763619D02*
X147248476Y-32763619D01*
X147534190Y-32763619D02*
X147534190Y-31763619D01*
X147534190Y-31763619D02*
X147438952Y-31906476D01*
X147438952Y-31906476D02*
X147343714Y-32001714D01*
X147343714Y-32001714D02*
X147248476Y-32049333D01*
X55088476Y-61828819D02*
X55088476Y-60828819D01*
X55088476Y-60828819D02*
X55421809Y-61543104D01*
X55421809Y-61543104D02*
X55755142Y-60828819D01*
X55755142Y-60828819D02*
X55755142Y-61828819D01*
X56707523Y-60828819D02*
X56231333Y-60828819D01*
X56231333Y-60828819D02*
X56183714Y-61305009D01*
X56183714Y-61305009D02*
X56231333Y-61257390D01*
X56231333Y-61257390D02*
X56326571Y-61209771D01*
X56326571Y-61209771D02*
X56564666Y-61209771D01*
X56564666Y-61209771D02*
X56659904Y-61257390D01*
X56659904Y-61257390D02*
X56707523Y-61305009D01*
X56707523Y-61305009D02*
X56755142Y-61400247D01*
X56755142Y-61400247D02*
X56755142Y-61638342D01*
X56755142Y-61638342D02*
X56707523Y-61733580D01*
X56707523Y-61733580D02*
X56659904Y-61781200D01*
X56659904Y-61781200D02*
X56564666Y-61828819D01*
X56564666Y-61828819D02*
X56326571Y-61828819D01*
X56326571Y-61828819D02*
X56231333Y-61781200D01*
X56231333Y-61781200D02*
X56183714Y-61733580D01*
X73590666Y-58382819D02*
X73590666Y-59097104D01*
X73590666Y-59097104D02*
X73543047Y-59239961D01*
X73543047Y-59239961D02*
X73447809Y-59335200D01*
X73447809Y-59335200D02*
X73304952Y-59382819D01*
X73304952Y-59382819D02*
X73209714Y-59382819D01*
X74066857Y-59382819D02*
X74066857Y-58382819D01*
X74066857Y-58382819D02*
X74447809Y-58382819D01*
X74447809Y-58382819D02*
X74543047Y-58430438D01*
X74543047Y-58430438D02*
X74590666Y-58478057D01*
X74590666Y-58478057D02*
X74638285Y-58573295D01*
X74638285Y-58573295D02*
X74638285Y-58716152D01*
X74638285Y-58716152D02*
X74590666Y-58811390D01*
X74590666Y-58811390D02*
X74543047Y-58859009D01*
X74543047Y-58859009D02*
X74447809Y-58906628D01*
X74447809Y-58906628D02*
X74066857Y-58906628D01*
X75019238Y-58478057D02*
X75066857Y-58430438D01*
X75066857Y-58430438D02*
X75162095Y-58382819D01*
X75162095Y-58382819D02*
X75400190Y-58382819D01*
X75400190Y-58382819D02*
X75495428Y-58430438D01*
X75495428Y-58430438D02*
X75543047Y-58478057D01*
X75543047Y-58478057D02*
X75590666Y-58573295D01*
X75590666Y-58573295D02*
X75590666Y-58668533D01*
X75590666Y-58668533D02*
X75543047Y-58811390D01*
X75543047Y-58811390D02*
X74971619Y-59382819D01*
X74971619Y-59382819D02*
X75590666Y-59382819D01*
X107958095Y-64518819D02*
X108529523Y-64518819D01*
X108243809Y-65518819D02*
X108243809Y-64518819D01*
X108862857Y-65518819D02*
X108862857Y-64518819D01*
X108862857Y-64518819D02*
X109243809Y-64518819D01*
X109243809Y-64518819D02*
X109339047Y-64566438D01*
X109339047Y-64566438D02*
X109386666Y-64614057D01*
X109386666Y-64614057D02*
X109434285Y-64709295D01*
X109434285Y-64709295D02*
X109434285Y-64852152D01*
X109434285Y-64852152D02*
X109386666Y-64947390D01*
X109386666Y-64947390D02*
X109339047Y-64995009D01*
X109339047Y-64995009D02*
X109243809Y-65042628D01*
X109243809Y-65042628D02*
X108862857Y-65042628D01*
X110291428Y-64852152D02*
X110291428Y-65518819D01*
X110053333Y-64471200D02*
X109815238Y-65185485D01*
X109815238Y-65185485D02*
X110434285Y-65185485D01*
X76797333Y-58779580D02*
X76749714Y-58827200D01*
X76749714Y-58827200D02*
X76606857Y-58874819D01*
X76606857Y-58874819D02*
X76511619Y-58874819D01*
X76511619Y-58874819D02*
X76368762Y-58827200D01*
X76368762Y-58827200D02*
X76273524Y-58731961D01*
X76273524Y-58731961D02*
X76225905Y-58636723D01*
X76225905Y-58636723D02*
X76178286Y-58446247D01*
X76178286Y-58446247D02*
X76178286Y-58303390D01*
X76178286Y-58303390D02*
X76225905Y-58112914D01*
X76225905Y-58112914D02*
X76273524Y-58017676D01*
X76273524Y-58017676D02*
X76368762Y-57922438D01*
X76368762Y-57922438D02*
X76511619Y-57874819D01*
X76511619Y-57874819D02*
X76606857Y-57874819D01*
X76606857Y-57874819D02*
X76749714Y-57922438D01*
X76749714Y-57922438D02*
X76797333Y-57970057D01*
X77702095Y-57874819D02*
X77225905Y-57874819D01*
X77225905Y-57874819D02*
X77178286Y-58351009D01*
X77178286Y-58351009D02*
X77225905Y-58303390D01*
X77225905Y-58303390D02*
X77321143Y-58255771D01*
X77321143Y-58255771D02*
X77559238Y-58255771D01*
X77559238Y-58255771D02*
X77654476Y-58303390D01*
X77654476Y-58303390D02*
X77702095Y-58351009D01*
X77702095Y-58351009D02*
X77749714Y-58446247D01*
X77749714Y-58446247D02*
X77749714Y-58684342D01*
X77749714Y-58684342D02*
X77702095Y-58779580D01*
X77702095Y-58779580D02*
X77654476Y-58827200D01*
X77654476Y-58827200D02*
X77559238Y-58874819D01*
X77559238Y-58874819D02*
X77321143Y-58874819D01*
X77321143Y-58874819D02*
X77225905Y-58827200D01*
X77225905Y-58827200D02*
X77178286Y-58779580D01*
X73241333Y-66399580D02*
X73193714Y-66447200D01*
X73193714Y-66447200D02*
X73050857Y-66494819D01*
X73050857Y-66494819D02*
X72955619Y-66494819D01*
X72955619Y-66494819D02*
X72812762Y-66447200D01*
X72812762Y-66447200D02*
X72717524Y-66351961D01*
X72717524Y-66351961D02*
X72669905Y-66256723D01*
X72669905Y-66256723D02*
X72622286Y-66066247D01*
X72622286Y-66066247D02*
X72622286Y-65923390D01*
X72622286Y-65923390D02*
X72669905Y-65732914D01*
X72669905Y-65732914D02*
X72717524Y-65637676D01*
X72717524Y-65637676D02*
X72812762Y-65542438D01*
X72812762Y-65542438D02*
X72955619Y-65494819D01*
X72955619Y-65494819D02*
X73050857Y-65494819D01*
X73050857Y-65494819D02*
X73193714Y-65542438D01*
X73193714Y-65542438D02*
X73241333Y-65590057D01*
X74098476Y-65828152D02*
X74098476Y-66494819D01*
X73860381Y-65447200D02*
X73622286Y-66161485D01*
X73622286Y-66161485D02*
X74241333Y-66161485D01*
X127881142Y-25095580D02*
X127833523Y-25143200D01*
X127833523Y-25143200D02*
X127690666Y-25190819D01*
X127690666Y-25190819D02*
X127595428Y-25190819D01*
X127595428Y-25190819D02*
X127452571Y-25143200D01*
X127452571Y-25143200D02*
X127357333Y-25047961D01*
X127357333Y-25047961D02*
X127309714Y-24952723D01*
X127309714Y-24952723D02*
X127262095Y-24762247D01*
X127262095Y-24762247D02*
X127262095Y-24619390D01*
X127262095Y-24619390D02*
X127309714Y-24428914D01*
X127309714Y-24428914D02*
X127357333Y-24333676D01*
X127357333Y-24333676D02*
X127452571Y-24238438D01*
X127452571Y-24238438D02*
X127595428Y-24190819D01*
X127595428Y-24190819D02*
X127690666Y-24190819D01*
X127690666Y-24190819D02*
X127833523Y-24238438D01*
X127833523Y-24238438D02*
X127881142Y-24286057D01*
X128833523Y-25190819D02*
X128262095Y-25190819D01*
X128547809Y-25190819D02*
X128547809Y-24190819D01*
X128547809Y-24190819D02*
X128452571Y-24333676D01*
X128452571Y-24333676D02*
X128357333Y-24428914D01*
X128357333Y-24428914D02*
X128262095Y-24476533D01*
X129404952Y-24619390D02*
X129309714Y-24571771D01*
X129309714Y-24571771D02*
X129262095Y-24524152D01*
X129262095Y-24524152D02*
X129214476Y-24428914D01*
X129214476Y-24428914D02*
X129214476Y-24381295D01*
X129214476Y-24381295D02*
X129262095Y-24286057D01*
X129262095Y-24286057D02*
X129309714Y-24238438D01*
X129309714Y-24238438D02*
X129404952Y-24190819D01*
X129404952Y-24190819D02*
X129595428Y-24190819D01*
X129595428Y-24190819D02*
X129690666Y-24238438D01*
X129690666Y-24238438D02*
X129738285Y-24286057D01*
X129738285Y-24286057D02*
X129785904Y-24381295D01*
X129785904Y-24381295D02*
X129785904Y-24428914D01*
X129785904Y-24428914D02*
X129738285Y-24524152D01*
X129738285Y-24524152D02*
X129690666Y-24571771D01*
X129690666Y-24571771D02*
X129595428Y-24619390D01*
X129595428Y-24619390D02*
X129404952Y-24619390D01*
X129404952Y-24619390D02*
X129309714Y-24667009D01*
X129309714Y-24667009D02*
X129262095Y-24714628D01*
X129262095Y-24714628D02*
X129214476Y-24809866D01*
X129214476Y-24809866D02*
X129214476Y-25000342D01*
X129214476Y-25000342D02*
X129262095Y-25095580D01*
X129262095Y-25095580D02*
X129309714Y-25143200D01*
X129309714Y-25143200D02*
X129404952Y-25190819D01*
X129404952Y-25190819D02*
X129595428Y-25190819D01*
X129595428Y-25190819D02*
X129690666Y-25143200D01*
X129690666Y-25143200D02*
X129738285Y-25095580D01*
X129738285Y-25095580D02*
X129785904Y-25000342D01*
X129785904Y-25000342D02*
X129785904Y-24809866D01*
X129785904Y-24809866D02*
X129738285Y-24714628D01*
X129738285Y-24714628D02*
X129690666Y-24667009D01*
X129690666Y-24667009D02*
X129595428Y-24619390D01*
X127881142Y-21790819D02*
X127547809Y-21314628D01*
X127309714Y-21790819D02*
X127309714Y-20790819D01*
X127309714Y-20790819D02*
X127690666Y-20790819D01*
X127690666Y-20790819D02*
X127785904Y-20838438D01*
X127785904Y-20838438D02*
X127833523Y-20886057D01*
X127833523Y-20886057D02*
X127881142Y-20981295D01*
X127881142Y-20981295D02*
X127881142Y-21124152D01*
X127881142Y-21124152D02*
X127833523Y-21219390D01*
X127833523Y-21219390D02*
X127785904Y-21267009D01*
X127785904Y-21267009D02*
X127690666Y-21314628D01*
X127690666Y-21314628D02*
X127309714Y-21314628D01*
X128833523Y-21790819D02*
X128262095Y-21790819D01*
X128547809Y-21790819D02*
X128547809Y-20790819D01*
X128547809Y-20790819D02*
X128452571Y-20933676D01*
X128452571Y-20933676D02*
X128357333Y-21028914D01*
X128357333Y-21028914D02*
X128262095Y-21076533D01*
X129785904Y-21790819D02*
X129214476Y-21790819D01*
X129500190Y-21790819D02*
X129500190Y-20790819D01*
X129500190Y-20790819D02*
X129404952Y-20933676D01*
X129404952Y-20933676D02*
X129309714Y-21028914D01*
X129309714Y-21028914D02*
X129214476Y-21076533D01*
X139882666Y-26378819D02*
X139882666Y-27093104D01*
X139882666Y-27093104D02*
X139835047Y-27235961D01*
X139835047Y-27235961D02*
X139739809Y-27331200D01*
X139739809Y-27331200D02*
X139596952Y-27378819D01*
X139596952Y-27378819D02*
X139501714Y-27378819D01*
X140358857Y-27378819D02*
X140358857Y-26378819D01*
X140358857Y-26378819D02*
X140739809Y-26378819D01*
X140739809Y-26378819D02*
X140835047Y-26426438D01*
X140835047Y-26426438D02*
X140882666Y-26474057D01*
X140882666Y-26474057D02*
X140930285Y-26569295D01*
X140930285Y-26569295D02*
X140930285Y-26712152D01*
X140930285Y-26712152D02*
X140882666Y-26807390D01*
X140882666Y-26807390D02*
X140835047Y-26855009D01*
X140835047Y-26855009D02*
X140739809Y-26902628D01*
X140739809Y-26902628D02*
X140358857Y-26902628D01*
X141263619Y-26378819D02*
X141930285Y-26378819D01*
X141930285Y-26378819D02*
X141501714Y-27378819D01*
X121277142Y-33379580D02*
X121229523Y-33427200D01*
X121229523Y-33427200D02*
X121086666Y-33474819D01*
X121086666Y-33474819D02*
X120991428Y-33474819D01*
X120991428Y-33474819D02*
X120848571Y-33427200D01*
X120848571Y-33427200D02*
X120753333Y-33331961D01*
X120753333Y-33331961D02*
X120705714Y-33236723D01*
X120705714Y-33236723D02*
X120658095Y-33046247D01*
X120658095Y-33046247D02*
X120658095Y-32903390D01*
X120658095Y-32903390D02*
X120705714Y-32712914D01*
X120705714Y-32712914D02*
X120753333Y-32617676D01*
X120753333Y-32617676D02*
X120848571Y-32522438D01*
X120848571Y-32522438D02*
X120991428Y-32474819D01*
X120991428Y-32474819D02*
X121086666Y-32474819D01*
X121086666Y-32474819D02*
X121229523Y-32522438D01*
X121229523Y-32522438D02*
X121277142Y-32570057D01*
X122229523Y-33474819D02*
X121658095Y-33474819D01*
X121943809Y-33474819D02*
X121943809Y-32474819D01*
X121943809Y-32474819D02*
X121848571Y-32617676D01*
X121848571Y-32617676D02*
X121753333Y-32712914D01*
X121753333Y-32712914D02*
X121658095Y-32760533D01*
X122705714Y-33474819D02*
X122896190Y-33474819D01*
X122896190Y-33474819D02*
X122991428Y-33427200D01*
X122991428Y-33427200D02*
X123039047Y-33379580D01*
X123039047Y-33379580D02*
X123134285Y-33236723D01*
X123134285Y-33236723D02*
X123181904Y-33046247D01*
X123181904Y-33046247D02*
X123181904Y-32665295D01*
X123181904Y-32665295D02*
X123134285Y-32570057D01*
X123134285Y-32570057D02*
X123086666Y-32522438D01*
X123086666Y-32522438D02*
X122991428Y-32474819D01*
X122991428Y-32474819D02*
X122800952Y-32474819D01*
X122800952Y-32474819D02*
X122705714Y-32522438D01*
X122705714Y-32522438D02*
X122658095Y-32570057D01*
X122658095Y-32570057D02*
X122610476Y-32665295D01*
X122610476Y-32665295D02*
X122610476Y-32903390D01*
X122610476Y-32903390D02*
X122658095Y-32998628D01*
X122658095Y-32998628D02*
X122705714Y-33046247D01*
X122705714Y-33046247D02*
X122800952Y-33093866D01*
X122800952Y-33093866D02*
X122991428Y-33093866D01*
X122991428Y-33093866D02*
X123086666Y-33046247D01*
X123086666Y-33046247D02*
X123134285Y-32998628D01*
X123134285Y-32998628D02*
X123181904Y-32903390D01*
X43031580Y-59856666D02*
X43079200Y-59904285D01*
X43079200Y-59904285D02*
X43126819Y-60047142D01*
X43126819Y-60047142D02*
X43126819Y-60142380D01*
X43126819Y-60142380D02*
X43079200Y-60285237D01*
X43079200Y-60285237D02*
X42983961Y-60380475D01*
X42983961Y-60380475D02*
X42888723Y-60428094D01*
X42888723Y-60428094D02*
X42698247Y-60475713D01*
X42698247Y-60475713D02*
X42555390Y-60475713D01*
X42555390Y-60475713D02*
X42364914Y-60428094D01*
X42364914Y-60428094D02*
X42269676Y-60380475D01*
X42269676Y-60380475D02*
X42174438Y-60285237D01*
X42174438Y-60285237D02*
X42126819Y-60142380D01*
X42126819Y-60142380D02*
X42126819Y-60047142D01*
X42126819Y-60047142D02*
X42174438Y-59904285D01*
X42174438Y-59904285D02*
X42222057Y-59856666D01*
X42126819Y-58999523D02*
X42126819Y-59189999D01*
X42126819Y-59189999D02*
X42174438Y-59285237D01*
X42174438Y-59285237D02*
X42222057Y-59332856D01*
X42222057Y-59332856D02*
X42364914Y-59428094D01*
X42364914Y-59428094D02*
X42555390Y-59475713D01*
X42555390Y-59475713D02*
X42936342Y-59475713D01*
X42936342Y-59475713D02*
X43031580Y-59428094D01*
X43031580Y-59428094D02*
X43079200Y-59380475D01*
X43079200Y-59380475D02*
X43126819Y-59285237D01*
X43126819Y-59285237D02*
X43126819Y-59094761D01*
X43126819Y-59094761D02*
X43079200Y-58999523D01*
X43079200Y-58999523D02*
X43031580Y-58951904D01*
X43031580Y-58951904D02*
X42936342Y-58904285D01*
X42936342Y-58904285D02*
X42698247Y-58904285D01*
X42698247Y-58904285D02*
X42603009Y-58951904D01*
X42603009Y-58951904D02*
X42555390Y-58999523D01*
X42555390Y-58999523D02*
X42507771Y-59094761D01*
X42507771Y-59094761D02*
X42507771Y-59285237D01*
X42507771Y-59285237D02*
X42555390Y-59380475D01*
X42555390Y-59380475D02*
X42603009Y-59428094D01*
X42603009Y-59428094D02*
X42698247Y-59475713D01*
X93834819Y-52593713D02*
X92834819Y-52593713D01*
X92834819Y-52593713D02*
X93549104Y-52260380D01*
X93549104Y-52260380D02*
X92834819Y-51927047D01*
X92834819Y-51927047D02*
X93834819Y-51927047D01*
X93834819Y-50927047D02*
X93834819Y-51498475D01*
X93834819Y-51212761D02*
X92834819Y-51212761D01*
X92834819Y-51212761D02*
X92977676Y-51307999D01*
X92977676Y-51307999D02*
X93072914Y-51403237D01*
X93072914Y-51403237D02*
X93120533Y-51498475D01*
X92930057Y-50546094D02*
X92882438Y-50498475D01*
X92882438Y-50498475D02*
X92834819Y-50403237D01*
X92834819Y-50403237D02*
X92834819Y-50165142D01*
X92834819Y-50165142D02*
X92882438Y-50069904D01*
X92882438Y-50069904D02*
X92930057Y-50022285D01*
X92930057Y-50022285D02*
X93025295Y-49974666D01*
X93025295Y-49974666D02*
X93120533Y-49974666D01*
X93120533Y-49974666D02*
X93263390Y-50022285D01*
X93263390Y-50022285D02*
X93834819Y-50593713D01*
X93834819Y-50593713D02*
X93834819Y-49974666D01*
X119332476Y-61374819D02*
X119332476Y-62089104D01*
X119332476Y-62089104D02*
X119284857Y-62231961D01*
X119284857Y-62231961D02*
X119189619Y-62327200D01*
X119189619Y-62327200D02*
X119046762Y-62374819D01*
X119046762Y-62374819D02*
X118951524Y-62374819D01*
X119761048Y-61470057D02*
X119808667Y-61422438D01*
X119808667Y-61422438D02*
X119903905Y-61374819D01*
X119903905Y-61374819D02*
X120142000Y-61374819D01*
X120142000Y-61374819D02*
X120237238Y-61422438D01*
X120237238Y-61422438D02*
X120284857Y-61470057D01*
X120284857Y-61470057D02*
X120332476Y-61565295D01*
X120332476Y-61565295D02*
X120332476Y-61660533D01*
X120332476Y-61660533D02*
X120284857Y-61803390D01*
X120284857Y-61803390D02*
X119713429Y-62374819D01*
X119713429Y-62374819D02*
X120332476Y-62374819D01*
X121189619Y-61708152D02*
X121189619Y-62374819D01*
X120951524Y-61327200D02*
X120713429Y-62041485D01*
X120713429Y-62041485D02*
X121332476Y-62041485D01*
X87668533Y-55318819D02*
X87335200Y-54842628D01*
X87097105Y-55318819D02*
X87097105Y-54318819D01*
X87097105Y-54318819D02*
X87478057Y-54318819D01*
X87478057Y-54318819D02*
X87573295Y-54366438D01*
X87573295Y-54366438D02*
X87620914Y-54414057D01*
X87620914Y-54414057D02*
X87668533Y-54509295D01*
X87668533Y-54509295D02*
X87668533Y-54652152D01*
X87668533Y-54652152D02*
X87620914Y-54747390D01*
X87620914Y-54747390D02*
X87573295Y-54795009D01*
X87573295Y-54795009D02*
X87478057Y-54842628D01*
X87478057Y-54842628D02*
X87097105Y-54842628D01*
X88620914Y-55318819D02*
X88049486Y-55318819D01*
X88335200Y-55318819D02*
X88335200Y-54318819D01*
X88335200Y-54318819D02*
X88239962Y-54461676D01*
X88239962Y-54461676D02*
X88144724Y-54556914D01*
X88144724Y-54556914D02*
X88049486Y-54604533D01*
X60912476Y-20536819D02*
X60912476Y-21251104D01*
X60912476Y-21251104D02*
X60864857Y-21393961D01*
X60864857Y-21393961D02*
X60769619Y-21489200D01*
X60769619Y-21489200D02*
X60626762Y-21536819D01*
X60626762Y-21536819D02*
X60531524Y-21536819D01*
X61293429Y-20536819D02*
X61912476Y-20536819D01*
X61912476Y-20536819D02*
X61579143Y-20917771D01*
X61579143Y-20917771D02*
X61722000Y-20917771D01*
X61722000Y-20917771D02*
X61817238Y-20965390D01*
X61817238Y-20965390D02*
X61864857Y-21013009D01*
X61864857Y-21013009D02*
X61912476Y-21108247D01*
X61912476Y-21108247D02*
X61912476Y-21346342D01*
X61912476Y-21346342D02*
X61864857Y-21441580D01*
X61864857Y-21441580D02*
X61817238Y-21489200D01*
X61817238Y-21489200D02*
X61722000Y-21536819D01*
X61722000Y-21536819D02*
X61436286Y-21536819D01*
X61436286Y-21536819D02*
X61341048Y-21489200D01*
X61341048Y-21489200D02*
X61293429Y-21441580D01*
X62531524Y-20536819D02*
X62626762Y-20536819D01*
X62626762Y-20536819D02*
X62722000Y-20584438D01*
X62722000Y-20584438D02*
X62769619Y-20632057D01*
X62769619Y-20632057D02*
X62817238Y-20727295D01*
X62817238Y-20727295D02*
X62864857Y-20917771D01*
X62864857Y-20917771D02*
X62864857Y-21155866D01*
X62864857Y-21155866D02*
X62817238Y-21346342D01*
X62817238Y-21346342D02*
X62769619Y-21441580D01*
X62769619Y-21441580D02*
X62722000Y-21489200D01*
X62722000Y-21489200D02*
X62626762Y-21536819D01*
X62626762Y-21536819D02*
X62531524Y-21536819D01*
X62531524Y-21536819D02*
X62436286Y-21489200D01*
X62436286Y-21489200D02*
X62388667Y-21441580D01*
X62388667Y-21441580D02*
X62341048Y-21346342D01*
X62341048Y-21346342D02*
X62293429Y-21155866D01*
X62293429Y-21155866D02*
X62293429Y-20917771D01*
X62293429Y-20917771D02*
X62341048Y-20727295D01*
X62341048Y-20727295D02*
X62388667Y-20632057D01*
X62388667Y-20632057D02*
X62436286Y-20584438D01*
X62436286Y-20584438D02*
X62531524Y-20536819D01*
X66246476Y-21044819D02*
X66246476Y-21759104D01*
X66246476Y-21759104D02*
X66198857Y-21901961D01*
X66198857Y-21901961D02*
X66103619Y-21997200D01*
X66103619Y-21997200D02*
X65960762Y-22044819D01*
X65960762Y-22044819D02*
X65865524Y-22044819D01*
X66627429Y-21044819D02*
X67246476Y-21044819D01*
X67246476Y-21044819D02*
X66913143Y-21425771D01*
X66913143Y-21425771D02*
X67056000Y-21425771D01*
X67056000Y-21425771D02*
X67151238Y-21473390D01*
X67151238Y-21473390D02*
X67198857Y-21521009D01*
X67198857Y-21521009D02*
X67246476Y-21616247D01*
X67246476Y-21616247D02*
X67246476Y-21854342D01*
X67246476Y-21854342D02*
X67198857Y-21949580D01*
X67198857Y-21949580D02*
X67151238Y-21997200D01*
X67151238Y-21997200D02*
X67056000Y-22044819D01*
X67056000Y-22044819D02*
X66770286Y-22044819D01*
X66770286Y-22044819D02*
X66675048Y-21997200D01*
X66675048Y-21997200D02*
X66627429Y-21949580D01*
X67579810Y-21044819D02*
X68246476Y-21044819D01*
X68246476Y-21044819D02*
X67817905Y-22044819D01*
X47553666Y-59906819D02*
X47553666Y-60621104D01*
X47553666Y-60621104D02*
X47506047Y-60763961D01*
X47506047Y-60763961D02*
X47410809Y-60859200D01*
X47410809Y-60859200D02*
X47267952Y-60906819D01*
X47267952Y-60906819D02*
X47172714Y-60906819D01*
X48029857Y-60906819D02*
X48029857Y-59906819D01*
X48029857Y-59906819D02*
X48410809Y-59906819D01*
X48410809Y-59906819D02*
X48506047Y-59954438D01*
X48506047Y-59954438D02*
X48553666Y-60002057D01*
X48553666Y-60002057D02*
X48601285Y-60097295D01*
X48601285Y-60097295D02*
X48601285Y-60240152D01*
X48601285Y-60240152D02*
X48553666Y-60335390D01*
X48553666Y-60335390D02*
X48506047Y-60383009D01*
X48506047Y-60383009D02*
X48410809Y-60430628D01*
X48410809Y-60430628D02*
X48029857Y-60430628D01*
X49553666Y-60906819D02*
X48982238Y-60906819D01*
X49267952Y-60906819D02*
X49267952Y-59906819D01*
X49267952Y-59906819D02*
X49172714Y-60049676D01*
X49172714Y-60049676D02*
X49077476Y-60144914D01*
X49077476Y-60144914D02*
X48982238Y-60192533D01*
X95369142Y-21285580D02*
X95321523Y-21333200D01*
X95321523Y-21333200D02*
X95178666Y-21380819D01*
X95178666Y-21380819D02*
X95083428Y-21380819D01*
X95083428Y-21380819D02*
X94940571Y-21333200D01*
X94940571Y-21333200D02*
X94845333Y-21237961D01*
X94845333Y-21237961D02*
X94797714Y-21142723D01*
X94797714Y-21142723D02*
X94750095Y-20952247D01*
X94750095Y-20952247D02*
X94750095Y-20809390D01*
X94750095Y-20809390D02*
X94797714Y-20618914D01*
X94797714Y-20618914D02*
X94845333Y-20523676D01*
X94845333Y-20523676D02*
X94940571Y-20428438D01*
X94940571Y-20428438D02*
X95083428Y-20380819D01*
X95083428Y-20380819D02*
X95178666Y-20380819D01*
X95178666Y-20380819D02*
X95321523Y-20428438D01*
X95321523Y-20428438D02*
X95369142Y-20476057D01*
X96321523Y-21380819D02*
X95750095Y-21380819D01*
X96035809Y-21380819D02*
X96035809Y-20380819D01*
X96035809Y-20380819D02*
X95940571Y-20523676D01*
X95940571Y-20523676D02*
X95845333Y-20618914D01*
X95845333Y-20618914D02*
X95750095Y-20666533D01*
X97226285Y-20380819D02*
X96750095Y-20380819D01*
X96750095Y-20380819D02*
X96702476Y-20857009D01*
X96702476Y-20857009D02*
X96750095Y-20809390D01*
X96750095Y-20809390D02*
X96845333Y-20761771D01*
X96845333Y-20761771D02*
X97083428Y-20761771D01*
X97083428Y-20761771D02*
X97178666Y-20809390D01*
X97178666Y-20809390D02*
X97226285Y-20857009D01*
X97226285Y-20857009D02*
X97273904Y-20952247D01*
X97273904Y-20952247D02*
X97273904Y-21190342D01*
X97273904Y-21190342D02*
X97226285Y-21285580D01*
X97226285Y-21285580D02*
X97178666Y-21333200D01*
X97178666Y-21333200D02*
X97083428Y-21380819D01*
X97083428Y-21380819D02*
X96845333Y-21380819D01*
X96845333Y-21380819D02*
X96750095Y-21333200D01*
X96750095Y-21333200D02*
X96702476Y-21285580D01*
X50546095Y-34633819D02*
X50546095Y-35443342D01*
X50546095Y-35443342D02*
X50593714Y-35538580D01*
X50593714Y-35538580D02*
X50641333Y-35586200D01*
X50641333Y-35586200D02*
X50736571Y-35633819D01*
X50736571Y-35633819D02*
X50927047Y-35633819D01*
X50927047Y-35633819D02*
X51022285Y-35586200D01*
X51022285Y-35586200D02*
X51069904Y-35538580D01*
X51069904Y-35538580D02*
X51117523Y-35443342D01*
X51117523Y-35443342D02*
X51117523Y-34633819D01*
X51546095Y-34729057D02*
X51593714Y-34681438D01*
X51593714Y-34681438D02*
X51688952Y-34633819D01*
X51688952Y-34633819D02*
X51927047Y-34633819D01*
X51927047Y-34633819D02*
X52022285Y-34681438D01*
X52022285Y-34681438D02*
X52069904Y-34729057D01*
X52069904Y-34729057D02*
X52117523Y-34824295D01*
X52117523Y-34824295D02*
X52117523Y-34919533D01*
X52117523Y-34919533D02*
X52069904Y-35062390D01*
X52069904Y-35062390D02*
X51498476Y-35633819D01*
X51498476Y-35633819D02*
X52117523Y-35633819D01*
X143954667Y-23267200D02*
X144097524Y-23314819D01*
X144097524Y-23314819D02*
X144335619Y-23314819D01*
X144335619Y-23314819D02*
X144430857Y-23267200D01*
X144430857Y-23267200D02*
X144478476Y-23219580D01*
X144478476Y-23219580D02*
X144526095Y-23124342D01*
X144526095Y-23124342D02*
X144526095Y-23029104D01*
X144526095Y-23029104D02*
X144478476Y-22933866D01*
X144478476Y-22933866D02*
X144430857Y-22886247D01*
X144430857Y-22886247D02*
X144335619Y-22838628D01*
X144335619Y-22838628D02*
X144145143Y-22791009D01*
X144145143Y-22791009D02*
X144049905Y-22743390D01*
X144049905Y-22743390D02*
X144002286Y-22695771D01*
X144002286Y-22695771D02*
X143954667Y-22600533D01*
X143954667Y-22600533D02*
X143954667Y-22505295D01*
X143954667Y-22505295D02*
X144002286Y-22410057D01*
X144002286Y-22410057D02*
X144049905Y-22362438D01*
X144049905Y-22362438D02*
X144145143Y-22314819D01*
X144145143Y-22314819D02*
X144383238Y-22314819D01*
X144383238Y-22314819D02*
X144526095Y-22362438D01*
X144859429Y-22314819D02*
X145097524Y-23314819D01*
X145097524Y-23314819D02*
X145288000Y-22600533D01*
X145288000Y-22600533D02*
X145478476Y-23314819D01*
X145478476Y-23314819D02*
X145716572Y-22314819D01*
X146621333Y-23314819D02*
X146049905Y-23314819D01*
X146335619Y-23314819D02*
X146335619Y-22314819D01*
X146335619Y-22314819D02*
X146240381Y-22457676D01*
X146240381Y-22457676D02*
X146145143Y-22552914D01*
X146145143Y-22552914D02*
X146049905Y-22600533D01*
X93834819Y-56639713D02*
X92834819Y-56639713D01*
X92834819Y-56639713D02*
X93549104Y-56306380D01*
X93549104Y-56306380D02*
X92834819Y-55973047D01*
X92834819Y-55973047D02*
X93834819Y-55973047D01*
X93834819Y-54973047D02*
X93834819Y-55544475D01*
X93834819Y-55258761D02*
X92834819Y-55258761D01*
X92834819Y-55258761D02*
X92977676Y-55353999D01*
X92977676Y-55353999D02*
X93072914Y-55449237D01*
X93072914Y-55449237D02*
X93120533Y-55544475D01*
X93834819Y-54020666D02*
X93834819Y-54592094D01*
X93834819Y-54306380D02*
X92834819Y-54306380D01*
X92834819Y-54306380D02*
X92977676Y-54401618D01*
X92977676Y-54401618D02*
X93072914Y-54496856D01*
X93072914Y-54496856D02*
X93120533Y-54592094D01*
X137025142Y-27378819D02*
X136691809Y-26902628D01*
X136453714Y-27378819D02*
X136453714Y-26378819D01*
X136453714Y-26378819D02*
X136834666Y-26378819D01*
X136834666Y-26378819D02*
X136929904Y-26426438D01*
X136929904Y-26426438D02*
X136977523Y-26474057D01*
X136977523Y-26474057D02*
X137025142Y-26569295D01*
X137025142Y-26569295D02*
X137025142Y-26712152D01*
X137025142Y-26712152D02*
X136977523Y-26807390D01*
X136977523Y-26807390D02*
X136929904Y-26855009D01*
X136929904Y-26855009D02*
X136834666Y-26902628D01*
X136834666Y-26902628D02*
X136453714Y-26902628D01*
X137977523Y-27378819D02*
X137406095Y-27378819D01*
X137691809Y-27378819D02*
X137691809Y-26378819D01*
X137691809Y-26378819D02*
X137596571Y-26521676D01*
X137596571Y-26521676D02*
X137501333Y-26616914D01*
X137501333Y-26616914D02*
X137406095Y-26664533D01*
X138358476Y-26474057D02*
X138406095Y-26426438D01*
X138406095Y-26426438D02*
X138501333Y-26378819D01*
X138501333Y-26378819D02*
X138739428Y-26378819D01*
X138739428Y-26378819D02*
X138834666Y-26426438D01*
X138834666Y-26426438D02*
X138882285Y-26474057D01*
X138882285Y-26474057D02*
X138929904Y-26569295D01*
X138929904Y-26569295D02*
X138929904Y-26664533D01*
X138929904Y-26664533D02*
X138882285Y-26807390D01*
X138882285Y-26807390D02*
X138310857Y-27378819D01*
X138310857Y-27378819D02*
X138929904Y-27378819D01*
X93834819Y-64309523D02*
X92834819Y-64309523D01*
X92834819Y-64309523D02*
X93549104Y-63976190D01*
X93549104Y-63976190D02*
X92834819Y-63642857D01*
X92834819Y-63642857D02*
X93834819Y-63642857D01*
X93834819Y-63119047D02*
X93834819Y-62928571D01*
X93834819Y-62928571D02*
X93787200Y-62833333D01*
X93787200Y-62833333D02*
X93739580Y-62785714D01*
X93739580Y-62785714D02*
X93596723Y-62690476D01*
X93596723Y-62690476D02*
X93406247Y-62642857D01*
X93406247Y-62642857D02*
X93025295Y-62642857D01*
X93025295Y-62642857D02*
X92930057Y-62690476D01*
X92930057Y-62690476D02*
X92882438Y-62738095D01*
X92882438Y-62738095D02*
X92834819Y-62833333D01*
X92834819Y-62833333D02*
X92834819Y-63023809D01*
X92834819Y-63023809D02*
X92882438Y-63119047D01*
X92882438Y-63119047D02*
X92930057Y-63166666D01*
X92930057Y-63166666D02*
X93025295Y-63214285D01*
X93025295Y-63214285D02*
X93263390Y-63214285D01*
X93263390Y-63214285D02*
X93358628Y-63166666D01*
X93358628Y-63166666D02*
X93406247Y-63119047D01*
X93406247Y-63119047D02*
X93453866Y-63023809D01*
X93453866Y-63023809D02*
X93453866Y-62833333D01*
X93453866Y-62833333D02*
X93406247Y-62738095D01*
X93406247Y-62738095D02*
X93358628Y-62690476D01*
X93358628Y-62690476D02*
X93263390Y-62642857D01*
X48974476Y-21282819D02*
X48974476Y-20282819D01*
X48974476Y-20282819D02*
X49307809Y-20997104D01*
X49307809Y-20997104D02*
X49641142Y-20282819D01*
X49641142Y-20282819D02*
X49641142Y-21282819D01*
X50069714Y-20378057D02*
X50117333Y-20330438D01*
X50117333Y-20330438D02*
X50212571Y-20282819D01*
X50212571Y-20282819D02*
X50450666Y-20282819D01*
X50450666Y-20282819D02*
X50545904Y-20330438D01*
X50545904Y-20330438D02*
X50593523Y-20378057D01*
X50593523Y-20378057D02*
X50641142Y-20473295D01*
X50641142Y-20473295D02*
X50641142Y-20568533D01*
X50641142Y-20568533D02*
X50593523Y-20711390D01*
X50593523Y-20711390D02*
X50022095Y-21282819D01*
X50022095Y-21282819D02*
X50641142Y-21282819D01*
X103894095Y-64478819D02*
X104465523Y-64478819D01*
X104179809Y-65478819D02*
X104179809Y-64478819D01*
X104798857Y-65478819D02*
X104798857Y-64478819D01*
X104798857Y-64478819D02*
X105179809Y-64478819D01*
X105179809Y-64478819D02*
X105275047Y-64526438D01*
X105275047Y-64526438D02*
X105322666Y-64574057D01*
X105322666Y-64574057D02*
X105370285Y-64669295D01*
X105370285Y-64669295D02*
X105370285Y-64812152D01*
X105370285Y-64812152D02*
X105322666Y-64907390D01*
X105322666Y-64907390D02*
X105275047Y-64955009D01*
X105275047Y-64955009D02*
X105179809Y-65002628D01*
X105179809Y-65002628D02*
X104798857Y-65002628D01*
X106275047Y-64478819D02*
X105798857Y-64478819D01*
X105798857Y-64478819D02*
X105751238Y-64955009D01*
X105751238Y-64955009D02*
X105798857Y-64907390D01*
X105798857Y-64907390D02*
X105894095Y-64859771D01*
X105894095Y-64859771D02*
X106132190Y-64859771D01*
X106132190Y-64859771D02*
X106227428Y-64907390D01*
X106227428Y-64907390D02*
X106275047Y-64955009D01*
X106275047Y-64955009D02*
X106322666Y-65050247D01*
X106322666Y-65050247D02*
X106322666Y-65288342D01*
X106322666Y-65288342D02*
X106275047Y-65383580D01*
X106275047Y-65383580D02*
X106227428Y-65431200D01*
X106227428Y-65431200D02*
X106132190Y-65478819D01*
X106132190Y-65478819D02*
X105894095Y-65478819D01*
X105894095Y-65478819D02*
X105798857Y-65431200D01*
X105798857Y-65431200D02*
X105751238Y-65383580D01*
X78662666Y-58978819D02*
X78662666Y-59693104D01*
X78662666Y-59693104D02*
X78615047Y-59835961D01*
X78615047Y-59835961D02*
X78519809Y-59931200D01*
X78519809Y-59931200D02*
X78376952Y-59978819D01*
X78376952Y-59978819D02*
X78281714Y-59978819D01*
X79662666Y-59978819D02*
X79091238Y-59978819D01*
X79376952Y-59978819D02*
X79376952Y-58978819D01*
X79376952Y-58978819D02*
X79281714Y-59121676D01*
X79281714Y-59121676D02*
X79186476Y-59216914D01*
X79186476Y-59216914D02*
X79091238Y-59264533D01*
X42571200Y-67373332D02*
X42618819Y-67230475D01*
X42618819Y-67230475D02*
X42618819Y-66992380D01*
X42618819Y-66992380D02*
X42571200Y-66897142D01*
X42571200Y-66897142D02*
X42523580Y-66849523D01*
X42523580Y-66849523D02*
X42428342Y-66801904D01*
X42428342Y-66801904D02*
X42333104Y-66801904D01*
X42333104Y-66801904D02*
X42237866Y-66849523D01*
X42237866Y-66849523D02*
X42190247Y-66897142D01*
X42190247Y-66897142D02*
X42142628Y-66992380D01*
X42142628Y-66992380D02*
X42095009Y-67182856D01*
X42095009Y-67182856D02*
X42047390Y-67278094D01*
X42047390Y-67278094D02*
X41999771Y-67325713D01*
X41999771Y-67325713D02*
X41904533Y-67373332D01*
X41904533Y-67373332D02*
X41809295Y-67373332D01*
X41809295Y-67373332D02*
X41714057Y-67325713D01*
X41714057Y-67325713D02*
X41666438Y-67278094D01*
X41666438Y-67278094D02*
X41618819Y-67182856D01*
X41618819Y-67182856D02*
X41618819Y-66944761D01*
X41618819Y-66944761D02*
X41666438Y-66801904D01*
X41618819Y-66468570D02*
X42618819Y-66230475D01*
X42618819Y-66230475D02*
X41904533Y-66039999D01*
X41904533Y-66039999D02*
X42618819Y-65849523D01*
X42618819Y-65849523D02*
X41618819Y-65611428D01*
X41714057Y-65278094D02*
X41666438Y-65230475D01*
X41666438Y-65230475D02*
X41618819Y-65135237D01*
X41618819Y-65135237D02*
X41618819Y-64897142D01*
X41618819Y-64897142D02*
X41666438Y-64801904D01*
X41666438Y-64801904D02*
X41714057Y-64754285D01*
X41714057Y-64754285D02*
X41809295Y-64706666D01*
X41809295Y-64706666D02*
X41904533Y-64706666D01*
X41904533Y-64706666D02*
X42047390Y-64754285D01*
X42047390Y-64754285D02*
X42618819Y-65325713D01*
X42618819Y-65325713D02*
X42618819Y-64706666D01*
X130889476Y-61303819D02*
X130889476Y-62018104D01*
X130889476Y-62018104D02*
X130841857Y-62160961D01*
X130841857Y-62160961D02*
X130746619Y-62256200D01*
X130746619Y-62256200D02*
X130603762Y-62303819D01*
X130603762Y-62303819D02*
X130508524Y-62303819D01*
X131318048Y-61399057D02*
X131365667Y-61351438D01*
X131365667Y-61351438D02*
X131460905Y-61303819D01*
X131460905Y-61303819D02*
X131699000Y-61303819D01*
X131699000Y-61303819D02*
X131794238Y-61351438D01*
X131794238Y-61351438D02*
X131841857Y-61399057D01*
X131841857Y-61399057D02*
X131889476Y-61494295D01*
X131889476Y-61494295D02*
X131889476Y-61589533D01*
X131889476Y-61589533D02*
X131841857Y-61732390D01*
X131841857Y-61732390D02*
X131270429Y-62303819D01*
X131270429Y-62303819D02*
X131889476Y-62303819D01*
X132794238Y-61303819D02*
X132318048Y-61303819D01*
X132318048Y-61303819D02*
X132270429Y-61780009D01*
X132270429Y-61780009D02*
X132318048Y-61732390D01*
X132318048Y-61732390D02*
X132413286Y-61684771D01*
X132413286Y-61684771D02*
X132651381Y-61684771D01*
X132651381Y-61684771D02*
X132746619Y-61732390D01*
X132746619Y-61732390D02*
X132794238Y-61780009D01*
X132794238Y-61780009D02*
X132841857Y-61875247D01*
X132841857Y-61875247D02*
X132841857Y-62113342D01*
X132841857Y-62113342D02*
X132794238Y-62208580D01*
X132794238Y-62208580D02*
X132746619Y-62256200D01*
X132746619Y-62256200D02*
X132651381Y-62303819D01*
X132651381Y-62303819D02*
X132413286Y-62303819D01*
X132413286Y-62303819D02*
X132318048Y-62256200D01*
X132318048Y-62256200D02*
X132270429Y-62208580D01*
X51006476Y-61828819D02*
X51006476Y-60828819D01*
X51006476Y-60828819D02*
X51339809Y-61543104D01*
X51339809Y-61543104D02*
X51673142Y-60828819D01*
X51673142Y-60828819D02*
X51673142Y-61828819D01*
X52577904Y-61162152D02*
X52577904Y-61828819D01*
X52339809Y-60781200D02*
X52101714Y-61495485D01*
X52101714Y-61495485D02*
X52720761Y-61495485D01*
X137533142Y-23571580D02*
X137485523Y-23619200D01*
X137485523Y-23619200D02*
X137342666Y-23666819D01*
X137342666Y-23666819D02*
X137247428Y-23666819D01*
X137247428Y-23666819D02*
X137104571Y-23619200D01*
X137104571Y-23619200D02*
X137009333Y-23523961D01*
X137009333Y-23523961D02*
X136961714Y-23428723D01*
X136961714Y-23428723D02*
X136914095Y-23238247D01*
X136914095Y-23238247D02*
X136914095Y-23095390D01*
X136914095Y-23095390D02*
X136961714Y-22904914D01*
X136961714Y-22904914D02*
X137009333Y-22809676D01*
X137009333Y-22809676D02*
X137104571Y-22714438D01*
X137104571Y-22714438D02*
X137247428Y-22666819D01*
X137247428Y-22666819D02*
X137342666Y-22666819D01*
X137342666Y-22666819D02*
X137485523Y-22714438D01*
X137485523Y-22714438D02*
X137533142Y-22762057D01*
X138485523Y-23666819D02*
X137914095Y-23666819D01*
X138199809Y-23666819D02*
X138199809Y-22666819D01*
X138199809Y-22666819D02*
X138104571Y-22809676D01*
X138104571Y-22809676D02*
X138009333Y-22904914D01*
X138009333Y-22904914D02*
X137914095Y-22952533D01*
X138818857Y-22666819D02*
X139485523Y-22666819D01*
X139485523Y-22666819D02*
X139056952Y-23666819D01*
X145494476Y-61394819D02*
X145494476Y-62109104D01*
X145494476Y-62109104D02*
X145446857Y-62251961D01*
X145446857Y-62251961D02*
X145351619Y-62347200D01*
X145351619Y-62347200D02*
X145208762Y-62394819D01*
X145208762Y-62394819D02*
X145113524Y-62394819D01*
X145923048Y-61490057D02*
X145970667Y-61442438D01*
X145970667Y-61442438D02*
X146065905Y-61394819D01*
X146065905Y-61394819D02*
X146304000Y-61394819D01*
X146304000Y-61394819D02*
X146399238Y-61442438D01*
X146399238Y-61442438D02*
X146446857Y-61490057D01*
X146446857Y-61490057D02*
X146494476Y-61585295D01*
X146494476Y-61585295D02*
X146494476Y-61680533D01*
X146494476Y-61680533D02*
X146446857Y-61823390D01*
X146446857Y-61823390D02*
X145875429Y-62394819D01*
X145875429Y-62394819D02*
X146494476Y-62394819D01*
X146827810Y-61394819D02*
X147446857Y-61394819D01*
X147446857Y-61394819D02*
X147113524Y-61775771D01*
X147113524Y-61775771D02*
X147256381Y-61775771D01*
X147256381Y-61775771D02*
X147351619Y-61823390D01*
X147351619Y-61823390D02*
X147399238Y-61871009D01*
X147399238Y-61871009D02*
X147446857Y-61966247D01*
X147446857Y-61966247D02*
X147446857Y-62204342D01*
X147446857Y-62204342D02*
X147399238Y-62299580D01*
X147399238Y-62299580D02*
X147351619Y-62347200D01*
X147351619Y-62347200D02*
X147256381Y-62394819D01*
X147256381Y-62394819D02*
X146970667Y-62394819D01*
X146970667Y-62394819D02*
X146875429Y-62347200D01*
X146875429Y-62347200D02*
X146827810Y-62299580D01*
X85153933Y-55318819D02*
X84820600Y-54842628D01*
X84582505Y-55318819D02*
X84582505Y-54318819D01*
X84582505Y-54318819D02*
X84963457Y-54318819D01*
X84963457Y-54318819D02*
X85058695Y-54366438D01*
X85058695Y-54366438D02*
X85106314Y-54414057D01*
X85106314Y-54414057D02*
X85153933Y-54509295D01*
X85153933Y-54509295D02*
X85153933Y-54652152D01*
X85153933Y-54652152D02*
X85106314Y-54747390D01*
X85106314Y-54747390D02*
X85058695Y-54795009D01*
X85058695Y-54795009D02*
X84963457Y-54842628D01*
X84963457Y-54842628D02*
X84582505Y-54842628D01*
X85534886Y-54414057D02*
X85582505Y-54366438D01*
X85582505Y-54366438D02*
X85677743Y-54318819D01*
X85677743Y-54318819D02*
X85915838Y-54318819D01*
X85915838Y-54318819D02*
X86011076Y-54366438D01*
X86011076Y-54366438D02*
X86058695Y-54414057D01*
X86058695Y-54414057D02*
X86106314Y-54509295D01*
X86106314Y-54509295D02*
X86106314Y-54604533D01*
X86106314Y-54604533D02*
X86058695Y-54747390D01*
X86058695Y-54747390D02*
X85487267Y-55318819D01*
X85487267Y-55318819D02*
X86106314Y-55318819D01*
X137922095Y-34506819D02*
X137922095Y-35316342D01*
X137922095Y-35316342D02*
X137969714Y-35411580D01*
X137969714Y-35411580D02*
X138017333Y-35459200D01*
X138017333Y-35459200D02*
X138112571Y-35506819D01*
X138112571Y-35506819D02*
X138303047Y-35506819D01*
X138303047Y-35506819D02*
X138398285Y-35459200D01*
X138398285Y-35459200D02*
X138445904Y-35411580D01*
X138445904Y-35411580D02*
X138493523Y-35316342D01*
X138493523Y-35316342D02*
X138493523Y-34506819D01*
X139493523Y-35506819D02*
X138922095Y-35506819D01*
X139207809Y-35506819D02*
X139207809Y-34506819D01*
X139207809Y-34506819D02*
X139112571Y-34649676D01*
X139112571Y-34649676D02*
X139017333Y-34744914D01*
X139017333Y-34744914D02*
X138922095Y-34792533D01*
X44910476Y-21282819D02*
X44910476Y-20282819D01*
X44910476Y-20282819D02*
X45243809Y-20997104D01*
X45243809Y-20997104D02*
X45577142Y-20282819D01*
X45577142Y-20282819D02*
X45577142Y-21282819D01*
X46577142Y-21282819D02*
X46005714Y-21282819D01*
X46291428Y-21282819D02*
X46291428Y-20282819D01*
X46291428Y-20282819D02*
X46196190Y-20425676D01*
X46196190Y-20425676D02*
X46100952Y-20520914D01*
X46100952Y-20520914D02*
X46005714Y-20568533D01*
X83066095Y-34927819D02*
X83637523Y-34927819D01*
X83351809Y-35927819D02*
X83351809Y-34927819D01*
X83970857Y-35927819D02*
X83970857Y-34927819D01*
X83970857Y-34927819D02*
X84351809Y-34927819D01*
X84351809Y-34927819D02*
X84447047Y-34975438D01*
X84447047Y-34975438D02*
X84494666Y-35023057D01*
X84494666Y-35023057D02*
X84542285Y-35118295D01*
X84542285Y-35118295D02*
X84542285Y-35261152D01*
X84542285Y-35261152D02*
X84494666Y-35356390D01*
X84494666Y-35356390D02*
X84447047Y-35404009D01*
X84447047Y-35404009D02*
X84351809Y-35451628D01*
X84351809Y-35451628D02*
X83970857Y-35451628D01*
X84875619Y-34927819D02*
X85494666Y-34927819D01*
X85494666Y-34927819D02*
X85161333Y-35308771D01*
X85161333Y-35308771D02*
X85304190Y-35308771D01*
X85304190Y-35308771D02*
X85399428Y-35356390D01*
X85399428Y-35356390D02*
X85447047Y-35404009D01*
X85447047Y-35404009D02*
X85494666Y-35499247D01*
X85494666Y-35499247D02*
X85494666Y-35737342D01*
X85494666Y-35737342D02*
X85447047Y-35832580D01*
X85447047Y-35832580D02*
X85399428Y-35880200D01*
X85399428Y-35880200D02*
X85304190Y-35927819D01*
X85304190Y-35927819D02*
X85018476Y-35927819D01*
X85018476Y-35927819D02*
X84923238Y-35880200D01*
X84923238Y-35880200D02*
X84875619Y-35832580D01*
X59170476Y-61828819D02*
X59170476Y-60828819D01*
X59170476Y-60828819D02*
X59503809Y-61543104D01*
X59503809Y-61543104D02*
X59837142Y-60828819D01*
X59837142Y-60828819D02*
X59837142Y-61828819D01*
X60741904Y-60828819D02*
X60551428Y-60828819D01*
X60551428Y-60828819D02*
X60456190Y-60876438D01*
X60456190Y-60876438D02*
X60408571Y-60924057D01*
X60408571Y-60924057D02*
X60313333Y-61066914D01*
X60313333Y-61066914D02*
X60265714Y-61257390D01*
X60265714Y-61257390D02*
X60265714Y-61638342D01*
X60265714Y-61638342D02*
X60313333Y-61733580D01*
X60313333Y-61733580D02*
X60360952Y-61781200D01*
X60360952Y-61781200D02*
X60456190Y-61828819D01*
X60456190Y-61828819D02*
X60646666Y-61828819D01*
X60646666Y-61828819D02*
X60741904Y-61781200D01*
X60741904Y-61781200D02*
X60789523Y-61733580D01*
X60789523Y-61733580D02*
X60837142Y-61638342D01*
X60837142Y-61638342D02*
X60837142Y-61400247D01*
X60837142Y-61400247D02*
X60789523Y-61305009D01*
X60789523Y-61305009D02*
X60741904Y-61257390D01*
X60741904Y-61257390D02*
X60646666Y-61209771D01*
X60646666Y-61209771D02*
X60456190Y-61209771D01*
X60456190Y-61209771D02*
X60360952Y-61257390D01*
X60360952Y-61257390D02*
X60313333Y-61305009D01*
X60313333Y-61305009D02*
X60265714Y-61400247D01*
X127309666Y-32198819D02*
X127309666Y-32913104D01*
X127309666Y-32913104D02*
X127262047Y-33055961D01*
X127262047Y-33055961D02*
X127166809Y-33151200D01*
X127166809Y-33151200D02*
X127023952Y-33198819D01*
X127023952Y-33198819D02*
X126928714Y-33198819D01*
X127785857Y-33198819D02*
X127785857Y-32198819D01*
X127785857Y-32198819D02*
X128166809Y-32198819D01*
X128166809Y-32198819D02*
X128262047Y-32246438D01*
X128262047Y-32246438D02*
X128309666Y-32294057D01*
X128309666Y-32294057D02*
X128357285Y-32389295D01*
X128357285Y-32389295D02*
X128357285Y-32532152D01*
X128357285Y-32532152D02*
X128309666Y-32627390D01*
X128309666Y-32627390D02*
X128262047Y-32675009D01*
X128262047Y-32675009D02*
X128166809Y-32722628D01*
X128166809Y-32722628D02*
X127785857Y-32722628D01*
X128928714Y-32627390D02*
X128833476Y-32579771D01*
X128833476Y-32579771D02*
X128785857Y-32532152D01*
X128785857Y-32532152D02*
X128738238Y-32436914D01*
X128738238Y-32436914D02*
X128738238Y-32389295D01*
X128738238Y-32389295D02*
X128785857Y-32294057D01*
X128785857Y-32294057D02*
X128833476Y-32246438D01*
X128833476Y-32246438D02*
X128928714Y-32198819D01*
X128928714Y-32198819D02*
X129119190Y-32198819D01*
X129119190Y-32198819D02*
X129214428Y-32246438D01*
X129214428Y-32246438D02*
X129262047Y-32294057D01*
X129262047Y-32294057D02*
X129309666Y-32389295D01*
X129309666Y-32389295D02*
X129309666Y-32436914D01*
X129309666Y-32436914D02*
X129262047Y-32532152D01*
X129262047Y-32532152D02*
X129214428Y-32579771D01*
X129214428Y-32579771D02*
X129119190Y-32627390D01*
X129119190Y-32627390D02*
X128928714Y-32627390D01*
X128928714Y-32627390D02*
X128833476Y-32675009D01*
X128833476Y-32675009D02*
X128785857Y-32722628D01*
X128785857Y-32722628D02*
X128738238Y-32817866D01*
X128738238Y-32817866D02*
X128738238Y-33008342D01*
X128738238Y-33008342D02*
X128785857Y-33103580D01*
X128785857Y-33103580D02*
X128833476Y-33151200D01*
X128833476Y-33151200D02*
X128928714Y-33198819D01*
X128928714Y-33198819D02*
X129119190Y-33198819D01*
X129119190Y-33198819D02*
X129214428Y-33151200D01*
X129214428Y-33151200D02*
X129262047Y-33103580D01*
X129262047Y-33103580D02*
X129309666Y-33008342D01*
X129309666Y-33008342D02*
X129309666Y-32817866D01*
X129309666Y-32817866D02*
X129262047Y-32722628D01*
X129262047Y-32722628D02*
X129214428Y-32675009D01*
X129214428Y-32675009D02*
X129119190Y-32627390D01*
D14*
%TO.C,C2*%
X103158000Y-49612437D02*
X103158000Y-54068000D01*
X103158000Y-54068000D02*
X104858000Y-54068000D01*
X104222437Y-48548000D02*
X103158000Y-49612437D01*
X104222437Y-48548000D02*
X104858000Y-48548000D01*
X107603000Y-47683000D02*
X107603000Y-48308000D01*
X107613563Y-48548000D02*
X106978000Y-48548000D01*
X107613563Y-48548000D02*
X108678000Y-49612437D01*
X107915500Y-47995500D02*
X107290500Y-47995500D01*
X108678000Y-49612437D02*
X108678000Y-54068000D01*
X108678000Y-54068000D02*
X106978000Y-54068000D01*
%TO.C,C1*%
X86648000Y-30260000D02*
X88348000Y-30260000D01*
X86648000Y-34715563D02*
X86648000Y-30260000D01*
X87410500Y-36332500D02*
X88035500Y-36332500D01*
X87712437Y-35780000D02*
X86648000Y-34715563D01*
X87712437Y-35780000D02*
X88348000Y-35780000D01*
X87723000Y-36645000D02*
X87723000Y-36020000D01*
X91103563Y-35780000D02*
X90468000Y-35780000D01*
X91103563Y-35780000D02*
X92168000Y-34715563D01*
X92168000Y-30260000D02*
X90468000Y-30260000D01*
X92168000Y-34715563D02*
X92168000Y-30260000D01*
%TO.C,M8*%
X66692000Y-62374000D02*
X68072000Y-62374000D01*
X66692000Y-63754000D02*
X66692000Y-62374000D01*
X66692000Y-65024000D02*
X66692000Y-70214000D01*
X66692000Y-65024000D02*
X69452000Y-65024000D01*
X66692000Y-70214000D02*
X69452000Y-70214000D01*
X69452000Y-65024000D02*
X69452000Y-70214000D01*
%TO.C,C8*%
X47017000Y-68587252D02*
X47017000Y-68064748D01*
X48487000Y-68587252D02*
X48487000Y-68064748D01*
D15*
%TO.C,J31*%
X71012801Y-21868200D02*
X71012801Y-23422560D01*
X71012801Y-25383440D02*
X71012801Y-27380000D01*
X71012801Y-27380000D02*
X73257960Y-27380000D01*
X83728242Y-27380000D02*
X85973401Y-27380000D01*
X85973401Y-21868200D02*
X71012801Y-21868200D01*
X85973401Y-23422560D02*
X85973401Y-21868200D01*
X85973401Y-27380000D02*
X85973401Y-25383440D01*
D14*
%TO.C,TP1*%
X115038000Y-51308000D02*
G75*
G02*
X112038000Y-51308000I-1500000J0D01*
G01*
X112038000Y-51308000D02*
G75*
G02*
X115038000Y-51308000I1500000J0D01*
G01*
%TO.C,R10*%
X115088936Y-32793000D02*
X115543064Y-32793000D01*
X115088936Y-34263000D02*
X115543064Y-34263000D01*
D15*
%TO.C,J9*%
X87579200Y-21768999D02*
X87579200Y-28372999D01*
X87579200Y-28372999D02*
X92760800Y-28372999D01*
X92760800Y-21768999D02*
X87579200Y-21768999D01*
X92760800Y-28372999D02*
X92760800Y-21768999D01*
D14*
%TO.C,C7*%
X44950748Y-60987000D02*
X45473252Y-60987000D01*
X44950748Y-62457000D02*
X45473252Y-62457000D01*
%TO.C,M7*%
X62628000Y-62374000D02*
X64008000Y-62374000D01*
X62628000Y-63754000D02*
X62628000Y-62374000D01*
X62628000Y-65024000D02*
X62628000Y-70214000D01*
X62628000Y-65024000D02*
X65388000Y-65024000D01*
X62628000Y-70214000D02*
X65388000Y-70214000D01*
X65388000Y-65024000D02*
X65388000Y-70214000D01*
%TO.C,M3*%
X94380000Y-68944000D02*
X94380000Y-67564000D01*
X95760000Y-68944000D02*
X94380000Y-68944000D01*
X97030000Y-66184000D02*
X102220000Y-66184000D01*
X97030000Y-68944000D02*
X97030000Y-66184000D01*
X97030000Y-68944000D02*
X102220000Y-68944000D01*
X102220000Y-68944000D02*
X102220000Y-66184000D01*
%TO.C,C16*%
X95750748Y-31777000D02*
X96273252Y-31777000D01*
X95750748Y-33247000D02*
X96273252Y-33247000D01*
%TO.C,J22*%
X114710000Y-26516000D02*
X114710000Y-28216000D01*
X124050000Y-26516000D02*
X124050000Y-28216000D01*
D15*
%TO.C,CR1*%
X97891600Y-26708100D02*
X97891600Y-28663900D01*
X97891600Y-28663900D02*
X99644200Y-28663900D01*
X99161600Y-24676100D02*
X97536000Y-24676100D01*
X99161600Y-25615900D02*
X97536000Y-25615900D01*
X99161600Y-29756100D02*
X97536000Y-29756100D01*
X99161600Y-30695900D02*
X97536000Y-30695900D01*
X99644200Y-22415500D02*
X99644200Y-26708100D01*
X99644200Y-26708100D02*
X97891600Y-26708100D01*
X99644200Y-28663900D02*
X99644200Y-32956500D01*
X99644200Y-32956500D02*
X102019751Y-32956500D01*
X102019751Y-22415500D02*
X99644200Y-22415500D01*
D14*
%TO.C,C3*%
X44442748Y-69496000D02*
X44965252Y-69496000D01*
X44442748Y-70966000D02*
X44965252Y-70966000D01*
%TO.C,M10*%
X94380000Y-60816000D02*
X94380000Y-59436000D01*
X95760000Y-60816000D02*
X94380000Y-60816000D01*
X97030000Y-58056000D02*
X102220000Y-58056000D01*
X97030000Y-60816000D02*
X97030000Y-58056000D01*
X97030000Y-60816000D02*
X102220000Y-60816000D01*
X102220000Y-60816000D02*
X102220000Y-58056000D01*
%TO.C,C20*%
X146296748Y-29618000D02*
X146819252Y-29618000D01*
X146296748Y-31088000D02*
X146819252Y-31088000D01*
%TO.C,R9*%
X112041000Y-24103064D02*
X112041000Y-23648936D01*
X113511000Y-24103064D02*
X113511000Y-23648936D01*
%TO.C,C22*%
X133885000Y-29202748D02*
X133885000Y-29725252D01*
X135355000Y-29202748D02*
X135355000Y-29725252D01*
%TO.C,R4*%
X45185064Y-56923000D02*
X44730936Y-56923000D01*
X45185064Y-58393000D02*
X44730936Y-58393000D01*
%TO.C,R3*%
X81588400Y-57176936D02*
X81588400Y-57631064D01*
X83058400Y-57176936D02*
X83058400Y-57631064D01*
D15*
%TO.C,U4*%
X100330000Y-37515800D02*
X98196400Y-37515800D01*
X100330000Y-38430200D02*
X98196400Y-38430200D01*
X100330000Y-40055800D02*
X98196400Y-40055800D01*
X100330000Y-40970200D02*
X98196400Y-40970200D01*
X100330000Y-42595800D02*
X98196400Y-42595800D01*
X100330000Y-43510200D02*
X98196400Y-43510200D01*
D14*
%TO.C,JP3*%
X70376000Y-62168000D02*
X70376000Y-60768000D01*
X71076000Y-60068000D02*
X71676000Y-60068000D01*
X71676000Y-62868000D02*
X71076000Y-62868000D01*
X72376000Y-60768000D02*
X72376000Y-62168000D01*
X70376000Y-60768000D02*
G75*
G02*
X71076000Y-60068000I700000J0D01*
G01*
X71076000Y-62868000D02*
G75*
G02*
X70376000Y-62168000I-1J699999D01*
G01*
X71676000Y-60068000D02*
G75*
G02*
X72376000Y-60768000I0J-700000D01*
G01*
X72376000Y-62168000D02*
G75*
G02*
X71676000Y-62868000I-699999J-1D01*
G01*
%TO.C,C21*%
X146296748Y-33174000D02*
X146819252Y-33174000D01*
X146296748Y-34644000D02*
X146819252Y-34644000D01*
%TO.C,M5*%
X54518000Y-62374000D02*
X55898000Y-62374000D01*
X54518000Y-63754000D02*
X54518000Y-62374000D01*
X54518000Y-65024000D02*
X54518000Y-70214000D01*
X54518000Y-65024000D02*
X57278000Y-65024000D01*
X54518000Y-70214000D02*
X57278000Y-70214000D01*
X57278000Y-65024000D02*
X57278000Y-70214000D01*
%TO.C,JP2*%
X73424000Y-62168000D02*
X73424000Y-60768000D01*
X74124000Y-60068000D02*
X74724000Y-60068000D01*
X74724000Y-62868000D02*
X74124000Y-62868000D01*
X75424000Y-60768000D02*
X75424000Y-62168000D01*
X73424000Y-60768000D02*
G75*
G02*
X74124000Y-60068000I700000J0D01*
G01*
X74124000Y-62868000D02*
G75*
G02*
X73424000Y-62168000I-1J699999D01*
G01*
X74724000Y-60068000D02*
G75*
G02*
X75424000Y-60768000I0J-700000D01*
G01*
X75424000Y-62168000D02*
G75*
G02*
X74724000Y-62868000I-699999J-1D01*
G01*
%TO.C,TP4*%
X110720000Y-67564000D02*
G75*
G02*
X107720000Y-67564000I-1500000J0D01*
G01*
X107720000Y-67564000D02*
G75*
G02*
X110720000Y-67564000I1500000J0D01*
G01*
%TO.C,C5*%
X76229000Y-61221252D02*
X76229000Y-60698748D01*
X77699000Y-61221252D02*
X77699000Y-60698748D01*
%TO.C,C4*%
X73669252Y-67337000D02*
X73146748Y-67337000D01*
X73669252Y-68807000D02*
X73146748Y-68807000D01*
%TO.C,C18*%
X128262748Y-25681000D02*
X128785252Y-25681000D01*
X128262748Y-27151000D02*
X128785252Y-27151000D01*
%TO.C,R11*%
X128751064Y-22379000D02*
X128296936Y-22379000D01*
X128751064Y-23849000D02*
X128296936Y-23849000D01*
%TO.C,JP7*%
X139716000Y-30164000D02*
X139716000Y-28764000D01*
X140416000Y-28064000D02*
X141016000Y-28064000D01*
X141016000Y-30864000D02*
X140416000Y-30864000D01*
X141716000Y-28764000D02*
X141716000Y-30164000D01*
X139716000Y-28764000D02*
G75*
G02*
X140416000Y-28064000I699999J1D01*
G01*
X140416000Y-30864000D02*
G75*
G02*
X139716000Y-30164000I0J700000D01*
G01*
X141016000Y-28064000D02*
G75*
G02*
X141716000Y-28764000I1J-699999D01*
G01*
X141716000Y-30164000D02*
G75*
G02*
X141016000Y-30864000I-700000J0D01*
G01*
%TO.C,C19*%
X122181252Y-33809000D02*
X121658748Y-33809000D01*
X122181252Y-35279000D02*
X121658748Y-35279000D01*
%TO.C,C6*%
X44950748Y-58955000D02*
X45473252Y-58955000D01*
X44950748Y-60425000D02*
X45473252Y-60425000D01*
%TO.C,M12*%
X94380000Y-52688000D02*
X94380000Y-51308000D01*
X95760000Y-52688000D02*
X94380000Y-52688000D01*
X97030000Y-49928000D02*
X102220000Y-49928000D01*
X97030000Y-52688000D02*
X97030000Y-49928000D01*
X97030000Y-52688000D02*
X102220000Y-52688000D01*
X102220000Y-52688000D02*
X102220000Y-49928000D01*
%TO.C,J24*%
X112122000Y-64040000D02*
X112122000Y-68040000D01*
X112412000Y-63010000D02*
X112412000Y-69030000D01*
X112412000Y-69030000D02*
X127872000Y-69030000D01*
X112992000Y-63010000D02*
X112992000Y-63610000D01*
X112992000Y-63610000D02*
X114592000Y-63610000D01*
X113792000Y-68030000D02*
X114042000Y-67500000D01*
X113792000Y-68030000D02*
X126492000Y-68030000D01*
X113792000Y-69030000D02*
X113792000Y-68030000D01*
X114042000Y-67500000D02*
X126242000Y-67500000D01*
X114042000Y-69030000D02*
X114042000Y-68030000D01*
X114592000Y-63610000D02*
X114592000Y-63010000D01*
X115532000Y-63010000D02*
X115532000Y-63610000D01*
X115532000Y-63610000D02*
X117132000Y-63610000D01*
X117132000Y-63610000D02*
X117132000Y-63010000D01*
X118072000Y-63010000D02*
X118072000Y-63610000D01*
X118072000Y-63610000D02*
X119672000Y-63610000D01*
X119672000Y-63610000D02*
X119672000Y-63010000D01*
X120612000Y-63010000D02*
X120612000Y-63610000D01*
X120612000Y-63610000D02*
X122212000Y-63610000D01*
X122212000Y-63610000D02*
X122212000Y-63010000D01*
X123152000Y-63010000D02*
X123152000Y-63610000D01*
X123152000Y-63610000D02*
X124752000Y-63610000D01*
X124752000Y-63610000D02*
X124752000Y-63010000D01*
X125692000Y-63010000D02*
X125692000Y-63610000D01*
X125692000Y-63610000D02*
X127292000Y-63610000D01*
X126242000Y-67500000D02*
X126492000Y-68030000D01*
X126242000Y-69030000D02*
X126242000Y-68030000D01*
X126492000Y-68030000D02*
X126492000Y-69030000D01*
X127292000Y-63610000D02*
X127292000Y-63010000D01*
X127872000Y-63010000D02*
X112412000Y-63010000D01*
X127872000Y-69030000D02*
X127872000Y-63010000D01*
%TO.C,R1*%
X87151000Y-57656464D02*
X87151000Y-57202336D01*
X88621000Y-57656464D02*
X88621000Y-57202336D01*
%TO.C,J30*%
X52468000Y-21902000D02*
X52468000Y-27922000D01*
X52468000Y-27922000D02*
X62848000Y-27922000D01*
X53048000Y-27322000D02*
X53048000Y-27922000D01*
X53848000Y-22902000D02*
X53848000Y-21902000D01*
X54098000Y-21902000D02*
X54098000Y-22902000D01*
X54098000Y-23432000D02*
X53848000Y-22902000D01*
X54648000Y-27322000D02*
X53048000Y-27322000D01*
X54648000Y-27922000D02*
X54648000Y-27322000D01*
X55588000Y-27322000D02*
X55588000Y-27922000D01*
X57188000Y-27322000D02*
X55588000Y-27322000D01*
X57188000Y-27922000D02*
X57188000Y-27322000D01*
X58128000Y-27322000D02*
X58128000Y-27922000D01*
X59728000Y-27322000D02*
X58128000Y-27322000D01*
X59728000Y-27922000D02*
X59728000Y-27322000D01*
X60668000Y-27322000D02*
X60668000Y-27922000D01*
X61218000Y-21902000D02*
X61218000Y-22902000D01*
X61218000Y-23432000D02*
X54098000Y-23432000D01*
X61468000Y-21902000D02*
X61468000Y-22902000D01*
X61468000Y-22902000D02*
X53848000Y-22902000D01*
X61468000Y-22902000D02*
X61218000Y-23432000D01*
X62268000Y-27322000D02*
X60668000Y-27322000D01*
X62268000Y-27922000D02*
X62268000Y-27322000D01*
X62848000Y-21902000D02*
X52468000Y-21902000D01*
X62848000Y-27922000D02*
X62848000Y-21902000D01*
X63138000Y-26892000D02*
X63138000Y-22892000D01*
D15*
%TO.C,J37*%
X64211200Y-22530999D02*
X64211200Y-29134999D01*
X64211200Y-29134999D02*
X69392800Y-29134999D01*
X69392800Y-22530999D02*
X64211200Y-22530999D01*
X69392800Y-29134999D02*
X69392800Y-22530999D01*
D14*
%TO.C,JP1*%
X47387000Y-63692000D02*
X47387000Y-62292000D01*
X48087000Y-61592000D02*
X48687000Y-61592000D01*
X48687000Y-64392000D02*
X48087000Y-64392000D01*
X49387000Y-62292000D02*
X49387000Y-63692000D01*
X47387000Y-62292000D02*
G75*
G02*
X48087000Y-61592000I700000J0D01*
G01*
X48087000Y-64392000D02*
G75*
G02*
X47387000Y-63692000I-1J699999D01*
G01*
X48687000Y-61592000D02*
G75*
G02*
X49387000Y-62292000I0J-700000D01*
G01*
X49387000Y-63692000D02*
G75*
G02*
X48687000Y-64392000I-699999J-1D01*
G01*
%TO.C,C15*%
X95750748Y-21871000D02*
X96273252Y-21871000D01*
X95750748Y-23341000D02*
X96273252Y-23341000D01*
%TO.C,JP9*%
X126616000Y-30780000D02*
X126616000Y-30180000D01*
X127316000Y-29480000D02*
X128716000Y-29480000D01*
X128716000Y-31480000D02*
X127316000Y-31480000D01*
X129416000Y-30180000D02*
X129416000Y-30780000D01*
X126616000Y-30180000D02*
G75*
G02*
X127316000Y-29480000I699999J1D01*
G01*
X127316000Y-31480000D02*
G75*
G02*
X126616000Y-30780000I-1J699999D01*
G01*
X128716000Y-29480000D02*
G75*
G02*
X129416000Y-30180000I0J-700000D01*
G01*
X129416000Y-30780000D02*
G75*
G02*
X128716000Y-31480000I-700000J0D01*
G01*
%TO.C,U2*%
X35360000Y-36520000D02*
X41560000Y-36520000D01*
X35360000Y-54920000D02*
X35360000Y-36520000D01*
X35360000Y-54920000D02*
X41560000Y-54920000D01*
X60210000Y-54920000D02*
X61210000Y-54920000D01*
X61210000Y-36520000D02*
X60210000Y-36520000D01*
X61210000Y-36520000D02*
X61210000Y-38020000D01*
X61210000Y-54920000D02*
X61210000Y-53420000D01*
X42235000Y-55420000D02*
X41735000Y-54920000D01*
X42235000Y-54920000D01*
X42235000Y-55420000D01*
G36*
X42235000Y-55420000D02*
G01*
X41735000Y-54920000D01*
X42235000Y-54920000D01*
X42235000Y-55420000D01*
G37*
D15*
%TO.C,SW1*%
X142963900Y-25013341D02*
X142963900Y-25786659D01*
X142963900Y-27228800D02*
X147612100Y-27228800D01*
X147612100Y-23571200D02*
X142963900Y-23571200D01*
X147612100Y-25786659D02*
X147612100Y-25013341D01*
D14*
%TO.C,M11*%
X94380000Y-56734000D02*
X94380000Y-55354000D01*
X95760000Y-56734000D02*
X94380000Y-56734000D01*
X97030000Y-53974000D02*
X102220000Y-53974000D01*
X97030000Y-56734000D02*
X97030000Y-53974000D01*
X97030000Y-56734000D02*
X102220000Y-56734000D01*
X102220000Y-56734000D02*
X102220000Y-53974000D01*
%TO.C,R12*%
X136933000Y-29691064D02*
X136933000Y-29236936D01*
X138403000Y-29691064D02*
X138403000Y-29236936D01*
%TO.C,M9*%
X94380000Y-64880000D02*
X94380000Y-63500000D01*
X95760000Y-64880000D02*
X94380000Y-64880000D01*
X97030000Y-62120000D02*
X102220000Y-62120000D01*
X97030000Y-64880000D02*
X97030000Y-62120000D01*
X97030000Y-64880000D02*
X102220000Y-64880000D01*
X102220000Y-64880000D02*
X102220000Y-62120000D01*
%TO.C,M2*%
X48404000Y-27178000D02*
X48404000Y-21988000D01*
X51164000Y-21988000D02*
X48404000Y-21988000D01*
X51164000Y-27178000D02*
X48404000Y-27178000D01*
X51164000Y-27178000D02*
X51164000Y-21988000D01*
X51164000Y-28448000D02*
X51164000Y-29828000D01*
X51164000Y-29828000D02*
X49784000Y-29828000D01*
%TO.C,TP5*%
X106656000Y-67564000D02*
G75*
G02*
X103656000Y-67564000I-1500000J0D01*
G01*
X103656000Y-67564000D02*
G75*
G02*
X106656000Y-67564000I1500000J0D01*
G01*
%TO.C,J1*%
X78898000Y-64924000D02*
X78898000Y-63224000D01*
X88238000Y-64924000D02*
X88238000Y-63224000D01*
D15*
%TO.C,SW2*%
X42875200Y-63715900D02*
X42875200Y-68364100D01*
X44317341Y-68364100D02*
X45090659Y-68364100D01*
X45090659Y-63715900D02*
X44317341Y-63715900D01*
X46532800Y-68364100D02*
X46532800Y-63715900D01*
%TO.C,J25*%
X129171700Y-62813001D02*
X129171700Y-69417001D01*
X129171700Y-69417001D02*
X134353300Y-69417001D01*
X134353300Y-62813001D02*
X129171700Y-62813001D01*
X134353300Y-69417001D02*
X134353300Y-62813001D01*
D14*
%TO.C,M4*%
X50436000Y-62374000D02*
X51816000Y-62374000D01*
X50436000Y-63754000D02*
X50436000Y-62374000D01*
X50436000Y-65024000D02*
X50436000Y-70214000D01*
X50436000Y-65024000D02*
X53196000Y-65024000D01*
X50436000Y-70214000D02*
X53196000Y-70214000D01*
X53196000Y-65024000D02*
X53196000Y-70214000D01*
%TO.C,C17*%
X137914748Y-24157000D02*
X138437252Y-24157000D01*
X137914748Y-25627000D02*
X138437252Y-25627000D01*
%TO.C,J23*%
X136429800Y-64060000D02*
X136429800Y-68060000D01*
X136719800Y-63030000D02*
X136719800Y-69050000D01*
X136719800Y-69050000D02*
X147099800Y-69050000D01*
X137299800Y-63030000D02*
X137299800Y-63630000D01*
X137299800Y-63630000D02*
X138899800Y-63630000D01*
X138099800Y-68050000D02*
X138349800Y-67520000D01*
X138099800Y-68050000D02*
X145719800Y-68050000D01*
X138099800Y-69050000D02*
X138099800Y-68050000D01*
X138349800Y-67520000D02*
X145469800Y-67520000D01*
X138349800Y-69050000D02*
X138349800Y-68050000D01*
X138899800Y-63630000D02*
X138899800Y-63030000D01*
X139839800Y-63030000D02*
X139839800Y-63630000D01*
X139839800Y-63630000D02*
X141439800Y-63630000D01*
X141439800Y-63630000D02*
X141439800Y-63030000D01*
X142379800Y-63030000D02*
X142379800Y-63630000D01*
X142379800Y-63630000D02*
X143979800Y-63630000D01*
X143979800Y-63630000D02*
X143979800Y-63030000D01*
X144919800Y-63030000D02*
X144919800Y-63630000D01*
X144919800Y-63630000D02*
X146519800Y-63630000D01*
X145469800Y-67520000D02*
X145719800Y-68050000D01*
X145469800Y-69050000D02*
X145469800Y-68050000D01*
X145719800Y-68050000D02*
X145719800Y-69050000D01*
X146519800Y-63630000D02*
X146519800Y-63030000D01*
X147099800Y-63030000D02*
X136719800Y-63030000D01*
X147099800Y-69050000D02*
X147099800Y-63030000D01*
%TO.C,R2*%
X84585600Y-57176936D02*
X84585600Y-57631064D01*
X86055600Y-57176936D02*
X86055600Y-57631064D01*
%TO.C,U1*%
X128782000Y-36520000D02*
X128782000Y-38020000D01*
X128782000Y-54920000D02*
X128782000Y-53420000D01*
X128782000Y-54920000D02*
X129782000Y-54920000D01*
X129782000Y-36520000D02*
X128782000Y-36520000D01*
X154632000Y-36520000D02*
X148432000Y-36520000D01*
X154632000Y-36520000D02*
X154632000Y-54920000D01*
X154632000Y-54920000D02*
X148432000Y-54920000D01*
X148257000Y-36520000D02*
X147757000Y-36520000D01*
X147757000Y-36020000D01*
X148257000Y-36520000D01*
G36*
X148257000Y-36520000D02*
G01*
X147757000Y-36520000D01*
X147757000Y-36020000D01*
X148257000Y-36520000D01*
G37*
%TO.C,M1*%
X44340000Y-27178000D02*
X44340000Y-21988000D01*
X47100000Y-21988000D02*
X44340000Y-21988000D01*
X47100000Y-27178000D02*
X44340000Y-27178000D01*
X47100000Y-27178000D02*
X47100000Y-21988000D01*
X47100000Y-28448000D02*
X47100000Y-29828000D01*
X47100000Y-29828000D02*
X45720000Y-29828000D01*
%TO.C,TP3*%
X85828000Y-37973000D02*
G75*
G02*
X82828000Y-37973000I-1500000J0D01*
G01*
X82828000Y-37973000D02*
G75*
G02*
X85828000Y-37973000I1500000J0D01*
G01*
%TO.C,M6*%
X58600000Y-62374000D02*
X59980000Y-62374000D01*
X58600000Y-63754000D02*
X58600000Y-62374000D01*
X58600000Y-65024000D02*
X58600000Y-70214000D01*
X58600000Y-65024000D02*
X61360000Y-65024000D01*
X58600000Y-70214000D02*
X61360000Y-70214000D01*
X61360000Y-65024000D02*
X61360000Y-70214000D01*
%TO.C,JP8*%
X126743000Y-34844000D02*
X126743000Y-34244000D01*
X127443000Y-33544000D02*
X128843000Y-33544000D01*
X128843000Y-35544000D02*
X127443000Y-35544000D01*
X129543000Y-34244000D02*
X129543000Y-34844000D01*
X126743000Y-34244000D02*
G75*
G02*
X127443000Y-33544000I699999J1D01*
G01*
X127443000Y-35544000D02*
G75*
G02*
X126743000Y-34844000I-1J699999D01*
G01*
X128843000Y-33544000D02*
G75*
G02*
X129543000Y-34244000I0J-700000D01*
G01*
X129543000Y-34844000D02*
G75*
G02*
X128843000Y-35544000I-700000J0D01*
G01*
%TD*%
%LPC*%
%TO.C,JP3*%
G36*
X70626000Y-61618000D02*
G01*
X72126000Y-61618000D01*
X72126000Y-61318000D01*
X70626000Y-61318000D01*
X70626000Y-61618000D01*
G37*
%TO.C,JP2*%
G36*
X73674000Y-61618000D02*
G01*
X75174000Y-61618000D01*
X75174000Y-61318000D01*
X73674000Y-61318000D01*
X73674000Y-61618000D01*
G37*
%TO.C,JP7*%
G36*
X141466000Y-29314000D02*
G01*
X139966000Y-29314000D01*
X139966000Y-29614000D01*
X141466000Y-29614000D01*
X141466000Y-29314000D01*
G37*
%TO.C,JP1*%
G36*
X47637000Y-63142000D02*
G01*
X49137000Y-63142000D01*
X49137000Y-62842000D01*
X47637000Y-62842000D01*
X47637000Y-63142000D01*
G37*
%TO.C,JP9*%
G36*
X127866000Y-29730000D02*
G01*
X128166000Y-29730000D01*
X128166000Y-31230000D01*
X127866000Y-31230000D01*
X127866000Y-29730000D01*
G37*
%TO.C,JP8*%
G36*
X127993000Y-33794000D02*
G01*
X128293000Y-33794000D01*
X128293000Y-35294000D01*
X127993000Y-35294000D01*
X127993000Y-33794000D01*
G37*
%TD*%
D16*
%TO.C,C2*%
X105918000Y-49108000D03*
X105918000Y-53508000D03*
%TD*%
D17*
%TO.C,C1*%
X89408000Y-35220000D03*
X89408000Y-30820000D03*
%TD*%
D18*
%TO.C,M8*%
X68072000Y-63754000D03*
D19*
X68072000Y-66294000D03*
X68072000Y-68834000D03*
%TD*%
D20*
%TO.C,REF\u002A\u002A*%
X38608000Y-22860000D03*
%TD*%
D21*
%TO.C,C8*%
X47752000Y-69363500D03*
X47752000Y-67288500D03*
%TD*%
D22*
%TO.C,J31*%
X83243102Y-27103000D03*
X82743100Y-27103000D03*
X82243101Y-27103000D03*
X81743102Y-27103000D03*
X81243101Y-27103000D03*
X80743102Y-27103000D03*
X80243100Y-27103000D03*
X79743101Y-27103000D03*
X79243102Y-27103000D03*
X78743101Y-27103000D03*
X78243101Y-27103000D03*
X77743100Y-27103000D03*
X77243101Y-27103000D03*
X76743102Y-27103000D03*
X76243100Y-27103000D03*
X75743101Y-27103000D03*
X75243100Y-27103000D03*
X74743101Y-27103000D03*
X74243102Y-27103000D03*
X73743100Y-27103000D03*
D23*
X85543102Y-24403000D03*
X71443100Y-24403000D03*
%TD*%
D24*
%TO.C,TP1*%
X113538000Y-51308000D03*
%TD*%
D25*
%TO.C,R10*%
X114403500Y-33528000D03*
X116228500Y-33528000D03*
%TD*%
D26*
%TO.C,J9*%
X91440000Y-25146000D03*
X88900000Y-25146000D03*
%TD*%
D27*
%TO.C,C7*%
X44174500Y-61722000D03*
X46249500Y-61722000D03*
%TD*%
D18*
%TO.C,M7*%
X64008000Y-63754000D03*
D19*
X64008000Y-66294000D03*
X64008000Y-68834000D03*
%TD*%
D18*
%TO.C,M3*%
X95760000Y-67564000D03*
D19*
X98300000Y-67564000D03*
X100840000Y-67564000D03*
%TD*%
D27*
%TO.C,C16*%
X94974500Y-32512000D03*
X97049500Y-32512000D03*
%TD*%
D28*
%TO.C,J22*%
X122270000Y-29021000D03*
X116490000Y-29021000D03*
D29*
X122580000Y-30096000D03*
X121780000Y-30096000D03*
D30*
X120630000Y-30096000D03*
X119630000Y-30096000D03*
X119130000Y-30096000D03*
X118130000Y-30096000D03*
D29*
X116980000Y-30096000D03*
X116180000Y-30096000D03*
X116180000Y-30096000D03*
X116980000Y-30096000D03*
D30*
X117630000Y-30096000D03*
X118630000Y-30096000D03*
X120130000Y-30096000D03*
X121130000Y-30096000D03*
D29*
X121780000Y-30096000D03*
X122580000Y-30096000D03*
D31*
X123700000Y-29521000D03*
D32*
X123700000Y-25341000D03*
D31*
X115060000Y-29521000D03*
D32*
X115060000Y-25341000D03*
%TD*%
D33*
%TO.C,CR1*%
X95681800Y-25146000D03*
X95681800Y-30226000D03*
D34*
X106692700Y-27686000D03*
%TD*%
D27*
%TO.C,C3*%
X43666500Y-70231000D03*
X45741500Y-70231000D03*
%TD*%
D18*
%TO.C,M10*%
X95760000Y-59436000D03*
D19*
X98300000Y-59436000D03*
X100840000Y-59436000D03*
%TD*%
D27*
%TO.C,C20*%
X145520500Y-30353000D03*
X147595500Y-30353000D03*
%TD*%
D35*
%TO.C,R9*%
X112776000Y-24788500D03*
X112776000Y-22963500D03*
%TD*%
D36*
%TO.C,C22*%
X134620000Y-28426500D03*
X134620000Y-30501500D03*
%TD*%
D37*
%TO.C,R4*%
X45870500Y-57658000D03*
X44045500Y-57658000D03*
%TD*%
D38*
%TO.C,R3*%
X82323400Y-56491500D03*
X82323400Y-58316500D03*
%TD*%
D39*
%TO.C,U4*%
X96088200Y-37973000D03*
X96088200Y-40513000D03*
X96088200Y-43053000D03*
D40*
X105918000Y-40513000D03*
%TD*%
D41*
%TO.C,JP3*%
X71376000Y-62118000D03*
D42*
X71376000Y-60818000D03*
%TD*%
D27*
%TO.C,C21*%
X145520500Y-33909000D03*
X147595500Y-33909000D03*
%TD*%
D18*
%TO.C,M5*%
X55898000Y-63754000D03*
D19*
X55898000Y-66294000D03*
X55898000Y-68834000D03*
%TD*%
D41*
%TO.C,JP2*%
X74424000Y-62118000D03*
D42*
X74424000Y-60818000D03*
%TD*%
D24*
%TO.C,TP4*%
X109220000Y-67564000D03*
%TD*%
D21*
%TO.C,C5*%
X76964000Y-61997500D03*
X76964000Y-59922500D03*
%TD*%
D43*
%TO.C,C4*%
X74445500Y-68072000D03*
X72370500Y-68072000D03*
%TD*%
D27*
%TO.C,C18*%
X127486500Y-26416000D03*
X129561500Y-26416000D03*
%TD*%
D37*
%TO.C,R11*%
X129436500Y-23114000D03*
X127611500Y-23114000D03*
%TD*%
D44*
%TO.C,JP7*%
X140716000Y-28814000D03*
D45*
X140716000Y-30114000D03*
%TD*%
D43*
%TO.C,C19*%
X122957500Y-34544000D03*
X120882500Y-34544000D03*
%TD*%
D27*
%TO.C,C6*%
X44174500Y-59690000D03*
X46249500Y-59690000D03*
%TD*%
D18*
%TO.C,M12*%
X95760000Y-51308000D03*
D19*
X98300000Y-51308000D03*
X100840000Y-51308000D03*
%TD*%
D46*
%TO.C,J24*%
X113792000Y-66040000D03*
D47*
X116332000Y-66040000D03*
X118872000Y-66040000D03*
X121412000Y-66040000D03*
X123952000Y-66040000D03*
X126492000Y-66040000D03*
%TD*%
D35*
%TO.C,R1*%
X87886000Y-58341900D03*
X87886000Y-56516900D03*
%TD*%
D48*
%TO.C,J30*%
X61468000Y-24892000D03*
D47*
X58928000Y-24892000D03*
X56388000Y-24892000D03*
X53848000Y-24892000D03*
%TD*%
D26*
%TO.C,J37*%
X68072000Y-25908000D03*
X65532000Y-25908000D03*
%TD*%
D41*
%TO.C,JP1*%
X48387000Y-63642000D03*
D42*
X48387000Y-62342000D03*
%TD*%
D27*
%TO.C,C15*%
X94974500Y-22606000D03*
X97049500Y-22606000D03*
%TD*%
D20*
%TO.C,REF\u002A\u002A*%
X38608000Y-69596000D03*
%TD*%
%TO.C,REF\u002A\u002A*%
X151892000Y-69596000D03*
%TD*%
D49*
%TO.C,JP9*%
X127366000Y-30480000D03*
D50*
X128666000Y-30480000D03*
%TD*%
D51*
%TO.C,U2*%
X43000000Y-54470000D03*
X44270000Y-54470000D03*
X45540000Y-54470000D03*
X46810000Y-54470000D03*
X48080000Y-54470000D03*
X49350000Y-54470000D03*
X50620000Y-54470000D03*
X51890000Y-54470000D03*
X53160000Y-54470000D03*
X54430000Y-54470000D03*
X55700000Y-54470000D03*
X56970000Y-54470000D03*
X58240000Y-54470000D03*
X59510000Y-54470000D03*
D52*
X60760000Y-52705000D03*
X60760000Y-51435000D03*
X60760000Y-50165000D03*
X60760000Y-48895000D03*
X60760000Y-47625000D03*
X60760000Y-46355000D03*
X60760000Y-45085000D03*
X60760000Y-43815000D03*
X60760000Y-42545000D03*
X60760000Y-41275000D03*
X60760000Y-40005000D03*
X60760000Y-38735000D03*
D51*
X59510000Y-36970000D03*
X58240000Y-36970000D03*
X56970000Y-36970000D03*
X55700000Y-36970000D03*
X54430000Y-36970000D03*
X53160000Y-36970000D03*
X51890000Y-36970000D03*
X50620000Y-36970000D03*
X49350000Y-36970000D03*
X48080000Y-36970000D03*
X46810000Y-36970000D03*
X45540000Y-36970000D03*
X44270000Y-36970000D03*
X43000000Y-36970000D03*
D53*
X50020000Y-48620000D03*
X51420000Y-48620000D03*
X49320000Y-47920000D03*
X50720000Y-47920000D03*
X52120000Y-47920000D03*
X50020000Y-47220000D03*
D54*
X50720000Y-47220000D03*
D53*
X51420000Y-47220000D03*
X49320000Y-46520000D03*
X50720000Y-46520000D03*
X52120000Y-46520000D03*
X50020000Y-45820000D03*
X51420000Y-45820000D03*
%TD*%
D55*
%TO.C,SW1*%
X143037999Y-24325001D03*
X147538001Y-24325001D03*
X143037999Y-26474999D03*
X147538001Y-26474999D03*
%TD*%
D18*
%TO.C,M11*%
X95760000Y-55354000D03*
D19*
X98300000Y-55354000D03*
X100840000Y-55354000D03*
%TD*%
D35*
%TO.C,R12*%
X137668000Y-30376500D03*
X137668000Y-28551500D03*
%TD*%
D18*
%TO.C,M9*%
X95760000Y-63500000D03*
D19*
X98300000Y-63500000D03*
X100840000Y-63500000D03*
%TD*%
D18*
%TO.C,M2*%
X49784000Y-28448000D03*
D19*
X49784000Y-25908000D03*
X49784000Y-23368000D03*
%TD*%
D24*
%TO.C,TP5*%
X105156000Y-67564000D03*
%TD*%
D28*
%TO.C,J1*%
X80678000Y-62419000D03*
X86458000Y-62419000D03*
D56*
X80368000Y-61344000D03*
X81168000Y-61344000D03*
D57*
X82318000Y-61344000D03*
X83318000Y-61344000D03*
X83818000Y-61344000D03*
X84818000Y-61344000D03*
D56*
X85968000Y-61344000D03*
X86768000Y-61344000D03*
X86768000Y-61344000D03*
X85968000Y-61344000D03*
D57*
X85318000Y-61344000D03*
X84318000Y-61344000D03*
X82818000Y-61344000D03*
X81818000Y-61344000D03*
D56*
X81168000Y-61344000D03*
X80368000Y-61344000D03*
D31*
X79248000Y-61919000D03*
D32*
X79248000Y-66099000D03*
D31*
X87888000Y-61919000D03*
D32*
X87888000Y-66099000D03*
%TD*%
D58*
%TO.C,SW2*%
X43629001Y-68290001D03*
X43629001Y-63789999D03*
X45778999Y-68290001D03*
X45778999Y-63789999D03*
%TD*%
D26*
%TO.C,J25*%
X130492500Y-66040000D03*
X133032500Y-66040000D03*
%TD*%
D18*
%TO.C,M4*%
X51816000Y-63754000D03*
D19*
X51816000Y-66294000D03*
X51816000Y-68834000D03*
%TD*%
D27*
%TO.C,C17*%
X137138500Y-24892000D03*
X139213500Y-24892000D03*
%TD*%
D46*
%TO.C,J23*%
X138099800Y-66060000D03*
D47*
X140639800Y-66060000D03*
X143179800Y-66060000D03*
X145719800Y-66060000D03*
%TD*%
D38*
%TO.C,R2*%
X85320600Y-56491500D03*
X85320600Y-58316500D03*
%TD*%
D51*
%TO.C,U1*%
X146992000Y-36970000D03*
X145722000Y-36970000D03*
X144452000Y-36970000D03*
X143182000Y-36970000D03*
X141912000Y-36970000D03*
X140642000Y-36970000D03*
X139372000Y-36970000D03*
X138102000Y-36970000D03*
X136832000Y-36970000D03*
X135562000Y-36970000D03*
X134292000Y-36970000D03*
X133022000Y-36970000D03*
X131752000Y-36970000D03*
X130482000Y-36970000D03*
D52*
X129232000Y-38735000D03*
X129232000Y-40005000D03*
X129232000Y-41275000D03*
X129232000Y-42545000D03*
X129232000Y-43815000D03*
X129232000Y-45085000D03*
X129232000Y-46355000D03*
X129232000Y-47625000D03*
X129232000Y-48895000D03*
X129232000Y-50165000D03*
X129232000Y-51435000D03*
X129232000Y-52705000D03*
D51*
X130482000Y-54470000D03*
X131752000Y-54470000D03*
X133022000Y-54470000D03*
X134292000Y-54470000D03*
X135562000Y-54470000D03*
X136832000Y-54470000D03*
X138102000Y-54470000D03*
X139372000Y-54470000D03*
X140642000Y-54470000D03*
X141912000Y-54470000D03*
X143182000Y-54470000D03*
X144452000Y-54470000D03*
X145722000Y-54470000D03*
X146992000Y-54470000D03*
D53*
X139972000Y-42820000D03*
X138572000Y-42820000D03*
X140672000Y-43520000D03*
X139272000Y-43520000D03*
X137872000Y-43520000D03*
X139972000Y-44220000D03*
D54*
X139272000Y-44220000D03*
D53*
X138572000Y-44220000D03*
X140672000Y-44920000D03*
X139272000Y-44920000D03*
X137872000Y-44920000D03*
X139972000Y-45620000D03*
X138572000Y-45620000D03*
%TD*%
D18*
%TO.C,M1*%
X45720000Y-28448000D03*
D19*
X45720000Y-25908000D03*
X45720000Y-23368000D03*
%TD*%
D24*
%TO.C,TP3*%
X84328000Y-37973000D03*
%TD*%
D18*
%TO.C,M6*%
X59980000Y-63754000D03*
D19*
X59980000Y-66294000D03*
X59980000Y-68834000D03*
%TD*%
D49*
%TO.C,JP8*%
X127493000Y-34544000D03*
D50*
X128793000Y-34544000D03*
%TD*%
D20*
%TO.C,REF\u002A\u002A*%
X151892000Y-22860000D03*
%TD*%
%LPD*%
M02*
