%TF.GenerationSoftware,KiCad,Pcbnew,9.0.6*%
%TF.CreationDate,2026-04-22T13:10:59-04:00*%
%TF.ProjectId,User_Interface_PCB,55736572-5f49-46e7-9465-72666163655f,rev?*%
%TF.SameCoordinates,Original*%
%TF.FileFunction,Legend,Top*%
%TF.FilePolarity,Positive*%
%FSLAX46Y46*%
G04 Gerber Fmt 4.6, Leading zero omitted, Abs format (unit mm)*
G04 Created by KiCad (PCBNEW 9.0.6) date 2026-04-22 13:10:59*
%MOMM*%
%LPD*%
G01*
G04 APERTURE LIST*
%ADD10C,0.150000*%
%ADD11C,0.120000*%
G04 APERTURE END LIST*
D10*
X67137200Y-60548332D02*
X67184819Y-60405475D01*
X67184819Y-60405475D02*
X67184819Y-60167380D01*
X67184819Y-60167380D02*
X67137200Y-60072142D01*
X67137200Y-60072142D02*
X67089580Y-60024523D01*
X67089580Y-60024523D02*
X66994342Y-59976904D01*
X66994342Y-59976904D02*
X66899104Y-59976904D01*
X66899104Y-59976904D02*
X66803866Y-60024523D01*
X66803866Y-60024523D02*
X66756247Y-60072142D01*
X66756247Y-60072142D02*
X66708628Y-60167380D01*
X66708628Y-60167380D02*
X66661009Y-60357856D01*
X66661009Y-60357856D02*
X66613390Y-60453094D01*
X66613390Y-60453094D02*
X66565771Y-60500713D01*
X66565771Y-60500713D02*
X66470533Y-60548332D01*
X66470533Y-60548332D02*
X66375295Y-60548332D01*
X66375295Y-60548332D02*
X66280057Y-60500713D01*
X66280057Y-60500713D02*
X66232438Y-60453094D01*
X66232438Y-60453094D02*
X66184819Y-60357856D01*
X66184819Y-60357856D02*
X66184819Y-60119761D01*
X66184819Y-60119761D02*
X66232438Y-59976904D01*
X66184819Y-59643570D02*
X67184819Y-59405475D01*
X67184819Y-59405475D02*
X66470533Y-59214999D01*
X66470533Y-59214999D02*
X67184819Y-59024523D01*
X67184819Y-59024523D02*
X66184819Y-58786428D01*
X66280057Y-58453094D02*
X66232438Y-58405475D01*
X66232438Y-58405475D02*
X66184819Y-58310237D01*
X66184819Y-58310237D02*
X66184819Y-58072142D01*
X66184819Y-58072142D02*
X66232438Y-57976904D01*
X66232438Y-57976904D02*
X66280057Y-57929285D01*
X66280057Y-57929285D02*
X66375295Y-57881666D01*
X66375295Y-57881666D02*
X66470533Y-57881666D01*
X66470533Y-57881666D02*
X66613390Y-57929285D01*
X66613390Y-57929285D02*
X67184819Y-58500713D01*
X67184819Y-58500713D02*
X67184819Y-57881666D01*
X93988095Y-80776819D02*
X94559523Y-80776819D01*
X94273809Y-81776819D02*
X94273809Y-80776819D01*
X94892857Y-81776819D02*
X94892857Y-80776819D01*
X94892857Y-80776819D02*
X95273809Y-80776819D01*
X95273809Y-80776819D02*
X95369047Y-80824438D01*
X95369047Y-80824438D02*
X95416666Y-80872057D01*
X95416666Y-80872057D02*
X95464285Y-80967295D01*
X95464285Y-80967295D02*
X95464285Y-81110152D01*
X95464285Y-81110152D02*
X95416666Y-81205390D01*
X95416666Y-81205390D02*
X95369047Y-81253009D01*
X95369047Y-81253009D02*
X95273809Y-81300628D01*
X95273809Y-81300628D02*
X94892857Y-81300628D01*
X96321428Y-81110152D02*
X96321428Y-81776819D01*
X96083333Y-80729200D02*
X95845238Y-81443485D01*
X95845238Y-81443485D02*
X96464285Y-81443485D01*
X67318095Y-61726819D02*
X67889523Y-61726819D01*
X67603809Y-62726819D02*
X67603809Y-61726819D01*
X68222857Y-62726819D02*
X68222857Y-61726819D01*
X68222857Y-61726819D02*
X68603809Y-61726819D01*
X68603809Y-61726819D02*
X68699047Y-61774438D01*
X68699047Y-61774438D02*
X68746666Y-61822057D01*
X68746666Y-61822057D02*
X68794285Y-61917295D01*
X68794285Y-61917295D02*
X68794285Y-62060152D01*
X68794285Y-62060152D02*
X68746666Y-62155390D01*
X68746666Y-62155390D02*
X68699047Y-62203009D01*
X68699047Y-62203009D02*
X68603809Y-62250628D01*
X68603809Y-62250628D02*
X68222857Y-62250628D01*
X69127619Y-61726819D02*
X69746666Y-61726819D01*
X69746666Y-61726819D02*
X69413333Y-62107771D01*
X69413333Y-62107771D02*
X69556190Y-62107771D01*
X69556190Y-62107771D02*
X69651428Y-62155390D01*
X69651428Y-62155390D02*
X69699047Y-62203009D01*
X69699047Y-62203009D02*
X69746666Y-62298247D01*
X69746666Y-62298247D02*
X69746666Y-62536342D01*
X69746666Y-62536342D02*
X69699047Y-62631580D01*
X69699047Y-62631580D02*
X69651428Y-62679200D01*
X69651428Y-62679200D02*
X69556190Y-62726819D01*
X69556190Y-62726819D02*
X69270476Y-62726819D01*
X69270476Y-62726819D02*
X69175238Y-62679200D01*
X69175238Y-62679200D02*
X69127619Y-62631580D01*
X51211667Y-67137200D02*
X51354524Y-67184819D01*
X51354524Y-67184819D02*
X51592619Y-67184819D01*
X51592619Y-67184819D02*
X51687857Y-67137200D01*
X51687857Y-67137200D02*
X51735476Y-67089580D01*
X51735476Y-67089580D02*
X51783095Y-66994342D01*
X51783095Y-66994342D02*
X51783095Y-66899104D01*
X51783095Y-66899104D02*
X51735476Y-66803866D01*
X51735476Y-66803866D02*
X51687857Y-66756247D01*
X51687857Y-66756247D02*
X51592619Y-66708628D01*
X51592619Y-66708628D02*
X51402143Y-66661009D01*
X51402143Y-66661009D02*
X51306905Y-66613390D01*
X51306905Y-66613390D02*
X51259286Y-66565771D01*
X51259286Y-66565771D02*
X51211667Y-66470533D01*
X51211667Y-66470533D02*
X51211667Y-66375295D01*
X51211667Y-66375295D02*
X51259286Y-66280057D01*
X51259286Y-66280057D02*
X51306905Y-66232438D01*
X51306905Y-66232438D02*
X51402143Y-66184819D01*
X51402143Y-66184819D02*
X51640238Y-66184819D01*
X51640238Y-66184819D02*
X51783095Y-66232438D01*
X52116429Y-66184819D02*
X52354524Y-67184819D01*
X52354524Y-67184819D02*
X52545000Y-66470533D01*
X52545000Y-66470533D02*
X52735476Y-67184819D01*
X52735476Y-67184819D02*
X52973572Y-66184819D01*
X53878333Y-67184819D02*
X53306905Y-67184819D01*
X53592619Y-67184819D02*
X53592619Y-66184819D01*
X53592619Y-66184819D02*
X53497381Y-66327676D01*
X53497381Y-66327676D02*
X53402143Y-66422914D01*
X53402143Y-66422914D02*
X53306905Y-66470533D01*
X86771667Y-67137200D02*
X86914524Y-67184819D01*
X86914524Y-67184819D02*
X87152619Y-67184819D01*
X87152619Y-67184819D02*
X87247857Y-67137200D01*
X87247857Y-67137200D02*
X87295476Y-67089580D01*
X87295476Y-67089580D02*
X87343095Y-66994342D01*
X87343095Y-66994342D02*
X87343095Y-66899104D01*
X87343095Y-66899104D02*
X87295476Y-66803866D01*
X87295476Y-66803866D02*
X87247857Y-66756247D01*
X87247857Y-66756247D02*
X87152619Y-66708628D01*
X87152619Y-66708628D02*
X86962143Y-66661009D01*
X86962143Y-66661009D02*
X86866905Y-66613390D01*
X86866905Y-66613390D02*
X86819286Y-66565771D01*
X86819286Y-66565771D02*
X86771667Y-66470533D01*
X86771667Y-66470533D02*
X86771667Y-66375295D01*
X86771667Y-66375295D02*
X86819286Y-66280057D01*
X86819286Y-66280057D02*
X86866905Y-66232438D01*
X86866905Y-66232438D02*
X86962143Y-66184819D01*
X86962143Y-66184819D02*
X87200238Y-66184819D01*
X87200238Y-66184819D02*
X87343095Y-66232438D01*
X87676429Y-66184819D02*
X87914524Y-67184819D01*
X87914524Y-67184819D02*
X88105000Y-66470533D01*
X88105000Y-66470533D02*
X88295476Y-67184819D01*
X88295476Y-67184819D02*
X88533572Y-66184819D01*
X89343095Y-66518152D02*
X89343095Y-67184819D01*
X89105000Y-66137200D02*
X88866905Y-66851485D01*
X88866905Y-66851485D02*
X89485952Y-66851485D01*
X67137200Y-78328332D02*
X67184819Y-78185475D01*
X67184819Y-78185475D02*
X67184819Y-77947380D01*
X67184819Y-77947380D02*
X67137200Y-77852142D01*
X67137200Y-77852142D02*
X67089580Y-77804523D01*
X67089580Y-77804523D02*
X66994342Y-77756904D01*
X66994342Y-77756904D02*
X66899104Y-77756904D01*
X66899104Y-77756904D02*
X66803866Y-77804523D01*
X66803866Y-77804523D02*
X66756247Y-77852142D01*
X66756247Y-77852142D02*
X66708628Y-77947380D01*
X66708628Y-77947380D02*
X66661009Y-78137856D01*
X66661009Y-78137856D02*
X66613390Y-78233094D01*
X66613390Y-78233094D02*
X66565771Y-78280713D01*
X66565771Y-78280713D02*
X66470533Y-78328332D01*
X66470533Y-78328332D02*
X66375295Y-78328332D01*
X66375295Y-78328332D02*
X66280057Y-78280713D01*
X66280057Y-78280713D02*
X66232438Y-78233094D01*
X66232438Y-78233094D02*
X66184819Y-78137856D01*
X66184819Y-78137856D02*
X66184819Y-77899761D01*
X66184819Y-77899761D02*
X66232438Y-77756904D01*
X66184819Y-77423570D02*
X67184819Y-77185475D01*
X67184819Y-77185475D02*
X66470533Y-76994999D01*
X66470533Y-76994999D02*
X67184819Y-76804523D01*
X67184819Y-76804523D02*
X66184819Y-76566428D01*
X66184819Y-76280713D02*
X66184819Y-75661666D01*
X66184819Y-75661666D02*
X66565771Y-75994999D01*
X66565771Y-75994999D02*
X66565771Y-75852142D01*
X66565771Y-75852142D02*
X66613390Y-75756904D01*
X66613390Y-75756904D02*
X66661009Y-75709285D01*
X66661009Y-75709285D02*
X66756247Y-75661666D01*
X66756247Y-75661666D02*
X66994342Y-75661666D01*
X66994342Y-75661666D02*
X67089580Y-75709285D01*
X67089580Y-75709285D02*
X67137200Y-75756904D01*
X67137200Y-75756904D02*
X67184819Y-75852142D01*
X67184819Y-75852142D02*
X67184819Y-76137856D01*
X67184819Y-76137856D02*
X67137200Y-76233094D01*
X67137200Y-76233094D02*
X67089580Y-76280713D01*
X67137200Y-96108332D02*
X67184819Y-95965475D01*
X67184819Y-95965475D02*
X67184819Y-95727380D01*
X67184819Y-95727380D02*
X67137200Y-95632142D01*
X67137200Y-95632142D02*
X67089580Y-95584523D01*
X67089580Y-95584523D02*
X66994342Y-95536904D01*
X66994342Y-95536904D02*
X66899104Y-95536904D01*
X66899104Y-95536904D02*
X66803866Y-95584523D01*
X66803866Y-95584523D02*
X66756247Y-95632142D01*
X66756247Y-95632142D02*
X66708628Y-95727380D01*
X66708628Y-95727380D02*
X66661009Y-95917856D01*
X66661009Y-95917856D02*
X66613390Y-96013094D01*
X66613390Y-96013094D02*
X66565771Y-96060713D01*
X66565771Y-96060713D02*
X66470533Y-96108332D01*
X66470533Y-96108332D02*
X66375295Y-96108332D01*
X66375295Y-96108332D02*
X66280057Y-96060713D01*
X66280057Y-96060713D02*
X66232438Y-96013094D01*
X66232438Y-96013094D02*
X66184819Y-95917856D01*
X66184819Y-95917856D02*
X66184819Y-95679761D01*
X66184819Y-95679761D02*
X66232438Y-95536904D01*
X66184819Y-95203570D02*
X67184819Y-94965475D01*
X67184819Y-94965475D02*
X66470533Y-94774999D01*
X66470533Y-94774999D02*
X67184819Y-94584523D01*
X67184819Y-94584523D02*
X66184819Y-94346428D01*
X66184819Y-93489285D02*
X66184819Y-93965475D01*
X66184819Y-93965475D02*
X66661009Y-94013094D01*
X66661009Y-94013094D02*
X66613390Y-93965475D01*
X66613390Y-93965475D02*
X66565771Y-93870237D01*
X66565771Y-93870237D02*
X66565771Y-93632142D01*
X66565771Y-93632142D02*
X66613390Y-93536904D01*
X66613390Y-93536904D02*
X66661009Y-93489285D01*
X66661009Y-93489285D02*
X66756247Y-93441666D01*
X66756247Y-93441666D02*
X66994342Y-93441666D01*
X66994342Y-93441666D02*
X67089580Y-93489285D01*
X67089580Y-93489285D02*
X67137200Y-93536904D01*
X67137200Y-93536904D02*
X67184819Y-93632142D01*
X67184819Y-93632142D02*
X67184819Y-93870237D01*
X67184819Y-93870237D02*
X67137200Y-93965475D01*
X67137200Y-93965475D02*
X67089580Y-94013094D01*
X58428095Y-60456819D02*
X58999523Y-60456819D01*
X58713809Y-61456819D02*
X58713809Y-60456819D01*
X59332857Y-61456819D02*
X59332857Y-60456819D01*
X59332857Y-60456819D02*
X59713809Y-60456819D01*
X59713809Y-60456819D02*
X59809047Y-60504438D01*
X59809047Y-60504438D02*
X59856666Y-60552057D01*
X59856666Y-60552057D02*
X59904285Y-60647295D01*
X59904285Y-60647295D02*
X59904285Y-60790152D01*
X59904285Y-60790152D02*
X59856666Y-60885390D01*
X59856666Y-60885390D02*
X59809047Y-60933009D01*
X59809047Y-60933009D02*
X59713809Y-60980628D01*
X59713809Y-60980628D02*
X59332857Y-60980628D01*
X60856666Y-61456819D02*
X60285238Y-61456819D01*
X60570952Y-61456819D02*
X60570952Y-60456819D01*
X60570952Y-60456819D02*
X60475714Y-60599676D01*
X60475714Y-60599676D02*
X60380476Y-60694914D01*
X60380476Y-60694914D02*
X60285238Y-60742533D01*
X82558095Y-49026819D02*
X83129523Y-49026819D01*
X82843809Y-50026819D02*
X82843809Y-49026819D01*
X83462857Y-50026819D02*
X83462857Y-49026819D01*
X83462857Y-49026819D02*
X83843809Y-49026819D01*
X83843809Y-49026819D02*
X83939047Y-49074438D01*
X83939047Y-49074438D02*
X83986666Y-49122057D01*
X83986666Y-49122057D02*
X84034285Y-49217295D01*
X84034285Y-49217295D02*
X84034285Y-49360152D01*
X84034285Y-49360152D02*
X83986666Y-49455390D01*
X83986666Y-49455390D02*
X83939047Y-49503009D01*
X83939047Y-49503009D02*
X83843809Y-49550628D01*
X83843809Y-49550628D02*
X83462857Y-49550628D01*
X84415238Y-49122057D02*
X84462857Y-49074438D01*
X84462857Y-49074438D02*
X84558095Y-49026819D01*
X84558095Y-49026819D02*
X84796190Y-49026819D01*
X84796190Y-49026819D02*
X84891428Y-49074438D01*
X84891428Y-49074438D02*
X84939047Y-49122057D01*
X84939047Y-49122057D02*
X84986666Y-49217295D01*
X84986666Y-49217295D02*
X84986666Y-49312533D01*
X84986666Y-49312533D02*
X84939047Y-49455390D01*
X84939047Y-49455390D02*
X84367619Y-50026819D01*
X84367619Y-50026819D02*
X84986666Y-50026819D01*
X62238095Y-84586819D02*
X62809523Y-84586819D01*
X62523809Y-85586819D02*
X62523809Y-84586819D01*
X63142857Y-85586819D02*
X63142857Y-84586819D01*
X63142857Y-84586819D02*
X63523809Y-84586819D01*
X63523809Y-84586819D02*
X63619047Y-84634438D01*
X63619047Y-84634438D02*
X63666666Y-84682057D01*
X63666666Y-84682057D02*
X63714285Y-84777295D01*
X63714285Y-84777295D02*
X63714285Y-84920152D01*
X63714285Y-84920152D02*
X63666666Y-85015390D01*
X63666666Y-85015390D02*
X63619047Y-85063009D01*
X63619047Y-85063009D02*
X63523809Y-85110628D01*
X63523809Y-85110628D02*
X63142857Y-85110628D01*
X64619047Y-84586819D02*
X64142857Y-84586819D01*
X64142857Y-84586819D02*
X64095238Y-85063009D01*
X64095238Y-85063009D02*
X64142857Y-85015390D01*
X64142857Y-85015390D02*
X64238095Y-84967771D01*
X64238095Y-84967771D02*
X64476190Y-84967771D01*
X64476190Y-84967771D02*
X64571428Y-85015390D01*
X64571428Y-85015390D02*
X64619047Y-85063009D01*
X64619047Y-85063009D02*
X64666666Y-85158247D01*
X64666666Y-85158247D02*
X64666666Y-85396342D01*
X64666666Y-85396342D02*
X64619047Y-85491580D01*
X64619047Y-85491580D02*
X64571428Y-85539200D01*
X64571428Y-85539200D02*
X64476190Y-85586819D01*
X64476190Y-85586819D02*
X64238095Y-85586819D01*
X64238095Y-85586819D02*
X64142857Y-85539200D01*
X64142857Y-85539200D02*
X64095238Y-85491580D01*
D11*
%TO.C,SW2*%
X67680000Y-61040000D02*
X78690000Y-61040000D01*
X68500000Y-53230000D02*
X68500000Y-55880000D01*
X68620000Y-50720000D02*
X78700000Y-50720000D01*
X78820000Y-58530000D02*
X78820000Y-53230000D01*
%TO.C,TP4*%
X96950000Y-83820000D02*
G75*
G02*
X93550000Y-83820000I-1700000J0D01*
G01*
X93550000Y-83820000D02*
G75*
G02*
X96950000Y-83820000I1700000J0D01*
G01*
%TO.C,TP3*%
X70280000Y-64770000D02*
G75*
G02*
X66880000Y-64770000I-1700000J0D01*
G01*
X66880000Y-64770000D02*
G75*
G02*
X70280000Y-64770000I1700000J0D01*
G01*
%TO.C,SW1*%
X50720000Y-67680000D02*
X50720000Y-78690000D01*
X53230000Y-78820000D02*
X58530000Y-78820000D01*
X58530000Y-68500000D02*
X55880000Y-68500000D01*
X61040000Y-68620000D02*
X61040000Y-78700000D01*
%TO.C,SW4*%
X86280000Y-67680000D02*
X86280000Y-78690000D01*
X88790000Y-78820000D02*
X94090000Y-78820000D01*
X94090000Y-68500000D02*
X91440000Y-68500000D01*
X96600000Y-68620000D02*
X96600000Y-78700000D01*
%TO.C,SW3*%
X67680000Y-78820000D02*
X78690000Y-78820000D01*
X68500000Y-71010000D02*
X68500000Y-73660000D01*
X68620000Y-68500000D02*
X78700000Y-68500000D01*
X78820000Y-76310000D02*
X78820000Y-71010000D01*
%TO.C,SW5*%
X67680000Y-96600000D02*
X78690000Y-96600000D01*
X68500000Y-88790000D02*
X68500000Y-91440000D01*
X68620000Y-86280000D02*
X78700000Y-86280000D01*
X78820000Y-94090000D02*
X78820000Y-88790000D01*
%TO.C,TP1*%
X61390000Y-63500000D02*
G75*
G02*
X57990000Y-63500000I-1700000J0D01*
G01*
X57990000Y-63500000D02*
G75*
G02*
X61390000Y-63500000I1700000J0D01*
G01*
%TO.C,TP2*%
X85520000Y-52070000D02*
G75*
G02*
X82120000Y-52070000I-1700000J0D01*
G01*
X82120000Y-52070000D02*
G75*
G02*
X85520000Y-52070000I1700000J0D01*
G01*
%TO.C,TP5*%
X65200000Y-87630000D02*
G75*
G02*
X61800000Y-87630000I-1700000J0D01*
G01*
X61800000Y-87630000D02*
G75*
G02*
X65200000Y-87630000I1700000J0D01*
G01*
%TD*%
M02*
