%TF.GenerationSoftware,KiCad,Pcbnew,9.0.6*%
%TF.CreationDate,2026-04-22T13:07:07-04:00*%
%TF.ProjectId,Lighting_PCB,4c696768-7469-46e6-975f-5043422e6b69,v.1*%
%TF.SameCoordinates,Original*%
%TF.FileFunction,Copper,L1,Top*%
%TF.FilePolarity,Positive*%
%FSLAX46Y46*%
G04 Gerber Fmt 4.6, Leading zero omitted, Abs format (unit mm)*
G04 Created by KiCad (PCBNEW 9.0.6) date 2026-04-22 13:07:07*
%MOMM*%
%LPD*%
G01*
G04 APERTURE LIST*
G04 Aperture macros list*
%AMRoundRect*
0 Rectangle with rounded corners*
0 $1 Rounding radius*
0 $2 $3 $4 $5 $6 $7 $8 $9 X,Y pos of 4 corners*
0 Add a 4 corners polygon primitive as box body*
4,1,4,$2,$3,$4,$5,$6,$7,$8,$9,$2,$3,0*
0 Add four circle primitives for the rounded corners*
1,1,$1+$1,$2,$3*
1,1,$1+$1,$4,$5*
1,1,$1+$1,$6,$7*
1,1,$1+$1,$8,$9*
0 Add four rect primitives between the rounded corners*
20,1,$1+$1,$2,$3,$4,$5,0*
20,1,$1+$1,$4,$5,$6,$7,0*
20,1,$1+$1,$6,$7,$8,$9,0*
20,1,$1+$1,$8,$9,$2,$3,0*%
G04 Aperture macros list end*
%TA.AperFunction,SMDPad,CuDef*%
%ADD10RoundRect,0.250000X0.450000X-0.350000X0.450000X0.350000X-0.450000X0.350000X-0.450000X-0.350000X0*%
%TD*%
%TA.AperFunction,SMDPad,CuDef*%
%ADD11R,0.800000X2.000000*%
%TD*%
%TA.AperFunction,SMDPad,CuDef*%
%ADD12R,0.800000X1.200000*%
%TD*%
%TA.AperFunction,SMDPad,CuDef*%
%ADD13R,2.000000X0.800000*%
%TD*%
%TA.AperFunction,SMDPad,CuDef*%
%ADD14R,1.200000X0.800000*%
%TD*%
%TA.AperFunction,SMDPad,CuDef*%
%ADD15RoundRect,0.250000X-0.350000X-0.450000X0.350000X-0.450000X0.350000X0.450000X-0.350000X0.450000X0*%
%TD*%
%TA.AperFunction,ComponentPad*%
%ADD16RoundRect,0.250000X0.620000X0.845000X-0.620000X0.845000X-0.620000X-0.845000X0.620000X-0.845000X0*%
%TD*%
%TA.AperFunction,ComponentPad*%
%ADD17O,1.740000X2.190000*%
%TD*%
%TA.AperFunction,ViaPad*%
%ADD18C,0.600000*%
%TD*%
%TA.AperFunction,Conductor*%
%ADD19C,0.200000*%
%TD*%
%TA.AperFunction,Conductor*%
%ADD20C,0.635000*%
%TD*%
G04 APERTURE END LIST*
D10*
%TO.P,R6,1*%
%TO.N,GND*%
X179260000Y-81000000D03*
%TO.P,R6,2*%
%TO.N,Net-(D6-Pad1)*%
X179260000Y-79000000D03*
%TD*%
%TO.P,R5,1*%
%TO.N,GND*%
X179260000Y-75000000D03*
%TO.P,R5,2*%
%TO.N,Net-(D5-Pad1)*%
X179260000Y-73000000D03*
%TD*%
D11*
%TO.P,D5,1*%
%TO.N,Net-(D5-Pad1)*%
X175260000Y-73130000D03*
D12*
%TO.P,D5,2*%
%TO.N,VCC*%
X175260000Y-75280000D03*
%TD*%
D10*
%TO.P,R2,1*%
%TO.N,GND*%
X150000000Y-75000000D03*
%TO.P,R2,2*%
%TO.N,Net-(D2-Pad1)*%
X150000000Y-73000000D03*
%TD*%
%TO.P,R1,1*%
%TO.N,GND*%
X150000000Y-69000000D03*
%TO.P,R1,2*%
%TO.N,Net-(D1-Pad1)*%
X150000000Y-67000000D03*
%TD*%
D13*
%TO.P,D7,1*%
%TO.N,Net-(D7-Pad1)*%
X160870000Y-84836000D03*
D14*
%TO.P,D7,2*%
%TO.N,VCC*%
X158720000Y-84836000D03*
%TD*%
D11*
%TO.P,D2,1*%
%TO.N,Net-(D2-Pad1)*%
X154000000Y-73130000D03*
D12*
%TO.P,D2,2*%
%TO.N,VCC*%
X154000000Y-75280000D03*
%TD*%
D11*
%TO.P,D3,1*%
%TO.N,Net-(D3-Pad1)*%
X154000000Y-79130000D03*
D12*
%TO.P,D3,2*%
%TO.N,VCC*%
X154000000Y-81280000D03*
%TD*%
D11*
%TO.P,D4,1*%
%TO.N,Net-(D4-Pad1)*%
X175260000Y-67130000D03*
D12*
%TO.P,D4,2*%
%TO.N,VCC*%
X175260000Y-69280000D03*
%TD*%
D10*
%TO.P,R3,1*%
%TO.N,GND*%
X150000000Y-81000000D03*
%TO.P,R3,2*%
%TO.N,Net-(D3-Pad1)*%
X150000000Y-79000000D03*
%TD*%
D11*
%TO.P,D6,1*%
%TO.N,Net-(D6-Pad1)*%
X175260000Y-79130000D03*
D12*
%TO.P,D6,2*%
%TO.N,VCC*%
X175260000Y-81280000D03*
%TD*%
D15*
%TO.P,R7,1*%
%TO.N,GND*%
X159020000Y-87196000D03*
%TO.P,R7,2*%
%TO.N,Net-(D7-Pad1)*%
X161020000Y-87196000D03*
%TD*%
D10*
%TO.P,R4,1*%
%TO.N,GND*%
X179260000Y-69000000D03*
%TO.P,R4,2*%
%TO.N,Net-(D4-Pad1)*%
X179260000Y-67000000D03*
%TD*%
D11*
%TO.P,D1,1*%
%TO.N,Net-(D1-Pad1)*%
X154000000Y-67130000D03*
D12*
%TO.P,D1,2*%
%TO.N,VCC*%
X154000000Y-69280000D03*
%TD*%
D15*
%TO.P,R8,1*%
%TO.N,GND*%
X167148000Y-87196000D03*
%TO.P,R8,2*%
%TO.N,Net-(D8-Pad1)*%
X169148000Y-87196000D03*
%TD*%
D13*
%TO.P,D8,1*%
%TO.N,Net-(D8-Pad1)*%
X168870000Y-84836000D03*
D14*
%TO.P,D8,2*%
%TO.N,VCC*%
X166720000Y-84836000D03*
%TD*%
D16*
%TO.P,J1,1,Pin_1*%
%TO.N,VCC*%
X152146000Y-86614000D03*
D17*
%TO.P,J1,2,Pin_2*%
%TO.N,GND*%
X149606000Y-86614000D03*
%TD*%
D18*
%TO.N,GND*%
X151561800Y-75006200D03*
X179247800Y-82448400D03*
X148463000Y-69113400D03*
X177419000Y-69037200D03*
X177393600Y-75006200D03*
X149987000Y-82448400D03*
X157581600Y-87172800D03*
X165608000Y-87198200D03*
%TD*%
D19*
%TO.N,Net-(D1-Pad1)*%
X150368000Y-65024000D02*
X150000000Y-65392000D01*
X154000000Y-65608000D02*
X153416000Y-65024000D01*
X153416000Y-65024000D02*
X150368000Y-65024000D01*
X150000000Y-65392000D02*
X150000000Y-67000000D01*
X154000000Y-67130000D02*
X154000000Y-65608000D01*
%TO.N,Net-(D2-Pad1)*%
X150000000Y-73000000D02*
X150000000Y-71488000D01*
X153416000Y-71120000D02*
X154000000Y-71704000D01*
X150368000Y-71120000D02*
X153416000Y-71120000D01*
X150000000Y-71488000D02*
X150368000Y-71120000D01*
X154000000Y-71704000D02*
X154000000Y-73130000D01*
%TO.N,Net-(D3-Pad1)*%
X150000000Y-77584000D02*
X150368000Y-77216000D01*
X150000000Y-79000000D02*
X150000000Y-77584000D01*
X154000000Y-77800000D02*
X154000000Y-79130000D01*
X153416000Y-77216000D02*
X154000000Y-77800000D01*
X150368000Y-77216000D02*
X153416000Y-77216000D01*
%TO.N,Net-(D4-Pad1)*%
X179260000Y-65468000D02*
X179260000Y-67000000D01*
X175768000Y-65024000D02*
X178816000Y-65024000D01*
X178816000Y-65024000D02*
X179260000Y-65468000D01*
X175260000Y-67130000D02*
X175260000Y-65532000D01*
X175260000Y-65532000D02*
X175768000Y-65024000D01*
%TO.N,Net-(D5-Pad1)*%
X175260000Y-73130000D02*
X175260000Y-71628000D01*
X178816000Y-71120000D02*
X175768000Y-71120000D01*
X175260000Y-71628000D02*
X175768000Y-71120000D01*
X179260000Y-73000000D02*
X179260000Y-71564000D01*
X179260000Y-71564000D02*
X178816000Y-71120000D01*
%TO.N,Net-(D6-Pad1)*%
X175768000Y-77216000D02*
X175260000Y-77724000D01*
X178816000Y-77216000D02*
X175768000Y-77216000D01*
X179260000Y-79000000D02*
X179260000Y-77660000D01*
X175260000Y-77724000D02*
X175260000Y-79130000D01*
X179260000Y-77660000D02*
X178816000Y-77216000D01*
%TO.N,Net-(D7-Pad1)*%
X162560000Y-87196000D02*
X161020000Y-87196000D01*
X163068000Y-85164000D02*
X163068000Y-86688000D01*
X162740000Y-84836000D02*
X163068000Y-85164000D01*
X163068000Y-86688000D02*
X162560000Y-87196000D01*
X160870000Y-84836000D02*
X162740000Y-84836000D01*
%TO.N,Net-(D8-Pad1)*%
X171196000Y-86688000D02*
X170688000Y-87196000D01*
X171196000Y-85164000D02*
X171196000Y-86688000D01*
X168870000Y-84836000D02*
X170868000Y-84836000D01*
X170688000Y-87196000D02*
X169148000Y-87196000D01*
X170868000Y-84836000D02*
X171196000Y-85164000D01*
D20*
%TO.N,GND*%
X179247800Y-82448400D02*
X179247800Y-81012200D01*
X179253800Y-75006200D02*
X179260000Y-75000000D01*
X167145800Y-87198200D02*
X167148000Y-87196000D01*
X179222800Y-69037200D02*
X179260000Y-69000000D01*
X149886600Y-69113400D02*
X150000000Y-69000000D01*
X149987000Y-81013000D02*
X150000000Y-81000000D01*
X177393600Y-75006200D02*
X179253800Y-75006200D01*
X158996800Y-87172800D02*
X159020000Y-87196000D01*
X177419000Y-69037200D02*
X179222800Y-69037200D01*
X157581600Y-87172800D02*
X158996800Y-87172800D01*
X179247800Y-81012200D02*
X179260000Y-81000000D01*
X148463000Y-69113400D02*
X149886600Y-69113400D01*
X151561800Y-75006200D02*
X150006200Y-75006200D01*
X165608000Y-87198200D02*
X167145800Y-87198200D01*
X150006200Y-75006200D02*
X150000000Y-75000000D01*
X149987000Y-82448400D02*
X149987000Y-81013000D01*
%TD*%
%TA.AperFunction,Conductor*%
%TO.N,VCC*%
G36*
X180290539Y-64027685D02*
G01*
X180336294Y-64080489D01*
X180347500Y-64132000D01*
X180347500Y-65939257D01*
X180327815Y-66006296D01*
X180275011Y-66052051D01*
X180205853Y-66061995D01*
X180158404Y-66044796D01*
X180029340Y-65965189D01*
X180029335Y-65965187D01*
X180029334Y-65965186D01*
X179945495Y-65937404D01*
X179888051Y-65897632D01*
X179861228Y-65833116D01*
X179860500Y-65819699D01*
X179860500Y-65557059D01*
X179860501Y-65557046D01*
X179860501Y-65388945D01*
X179860501Y-65388943D01*
X179819577Y-65236215D01*
X179777470Y-65163284D01*
X179742699Y-65103058D01*
X179740522Y-65099287D01*
X179740521Y-65099286D01*
X179740520Y-65099284D01*
X179628716Y-64987480D01*
X179628715Y-64987479D01*
X179624385Y-64983149D01*
X179624374Y-64983139D01*
X179303590Y-64662355D01*
X179303588Y-64662352D01*
X179184717Y-64543481D01*
X179184716Y-64543480D01*
X179097904Y-64493360D01*
X179097904Y-64493359D01*
X179097900Y-64493358D01*
X179047785Y-64464423D01*
X178895057Y-64423499D01*
X178736943Y-64423499D01*
X178729347Y-64423499D01*
X178729331Y-64423500D01*
X175688940Y-64423500D01*
X175648019Y-64434464D01*
X175648019Y-64434465D01*
X175610751Y-64444451D01*
X175536214Y-64464423D01*
X175536209Y-64464426D01*
X175399290Y-64543475D01*
X175399282Y-64543481D01*
X174779479Y-65163284D01*
X174757605Y-65201171D01*
X174748360Y-65217186D01*
X174700423Y-65300215D01*
X174659499Y-65452943D01*
X174659499Y-65452945D01*
X174659499Y-65592820D01*
X174639814Y-65659859D01*
X174609811Y-65692086D01*
X174502452Y-65772455D01*
X174416206Y-65887664D01*
X174416202Y-65887671D01*
X174365908Y-66022517D01*
X174359501Y-66082116D01*
X174359501Y-66082123D01*
X174359500Y-66082135D01*
X174359500Y-68177870D01*
X174359501Y-68177876D01*
X174365908Y-68237481D01*
X174370814Y-68250635D01*
X174412493Y-68362381D01*
X174417477Y-68432071D01*
X174412493Y-68449046D01*
X174366403Y-68572619D01*
X174366401Y-68572627D01*
X174360000Y-68632155D01*
X174360000Y-69030000D01*
X176160000Y-69030000D01*
X176160000Y-68632172D01*
X176159999Y-68632155D01*
X176153598Y-68572627D01*
X176153597Y-68572623D01*
X176107506Y-68449049D01*
X176102522Y-68379357D01*
X176107501Y-68362394D01*
X176154091Y-68237483D01*
X176160500Y-68177873D01*
X176160499Y-66082128D01*
X176154091Y-66022517D01*
X176132708Y-65965187D01*
X176103797Y-65887671D01*
X176103796Y-65887669D01*
X176103099Y-65886738D01*
X176055242Y-65822810D01*
X176030826Y-65757347D01*
X176045677Y-65689074D01*
X176095082Y-65639668D01*
X176154510Y-65624500D01*
X178515903Y-65624500D01*
X178545343Y-65633144D01*
X178575330Y-65639668D01*
X178580345Y-65643422D01*
X178582942Y-65644185D01*
X178603584Y-65660819D01*
X178623181Y-65680416D01*
X178656666Y-65741739D01*
X178659500Y-65768097D01*
X178659500Y-65819699D01*
X178639815Y-65886738D01*
X178587011Y-65932493D01*
X178574507Y-65937403D01*
X178541962Y-65948188D01*
X178490668Y-65965185D01*
X178490663Y-65965187D01*
X178341342Y-66057289D01*
X178217289Y-66181342D01*
X178125187Y-66330663D01*
X178125186Y-66330666D01*
X178070001Y-66497203D01*
X178070001Y-66497204D01*
X178070000Y-66497204D01*
X178059500Y-66599983D01*
X178059500Y-67400001D01*
X178059501Y-67400019D01*
X178070000Y-67502796D01*
X178070001Y-67502799D01*
X178125185Y-67669331D01*
X178125187Y-67669336D01*
X178217289Y-67818657D01*
X178310951Y-67912319D01*
X178315289Y-67920264D01*
X178322537Y-67925690D01*
X178331771Y-67950449D01*
X178344436Y-67973642D01*
X178343790Y-67982671D01*
X178346954Y-67991154D01*
X178341337Y-68016974D01*
X178339452Y-68043334D01*
X178333633Y-68052387D01*
X178332102Y-68059427D01*
X178310951Y-68087681D01*
X178215751Y-68182881D01*
X178154428Y-68216366D01*
X178128070Y-68219200D01*
X177338429Y-68219200D01*
X177180405Y-68250633D01*
X177180397Y-68250635D01*
X177031533Y-68312296D01*
X176897552Y-68401819D01*
X176783619Y-68515752D01*
X176694096Y-68649733D01*
X176632435Y-68798597D01*
X176632433Y-68798605D01*
X176601000Y-68956629D01*
X176601000Y-69117770D01*
X176632433Y-69275794D01*
X176632435Y-69275802D01*
X176694096Y-69424666D01*
X176783619Y-69558647D01*
X176897552Y-69672580D01*
X177031533Y-69762103D01*
X177105965Y-69792933D01*
X177180398Y-69823765D01*
X177338429Y-69855199D01*
X177338433Y-69855200D01*
X177338434Y-69855200D01*
X178202470Y-69855200D01*
X178269509Y-69874885D01*
X178290151Y-69891519D01*
X178341344Y-69942712D01*
X178490666Y-70034814D01*
X178657203Y-70089999D01*
X178759991Y-70100500D01*
X179760008Y-70100499D01*
X179760016Y-70100498D01*
X179760019Y-70100498D01*
X179816302Y-70094748D01*
X179862797Y-70089999D01*
X180029334Y-70034814D01*
X180158406Y-69955202D01*
X180225796Y-69936763D01*
X180292459Y-69957686D01*
X180337229Y-70011327D01*
X180347500Y-70060742D01*
X180347500Y-71939257D01*
X180327815Y-72006296D01*
X180275011Y-72052051D01*
X180205853Y-72061995D01*
X180158404Y-72044796D01*
X180029340Y-71965189D01*
X180029335Y-71965187D01*
X180029334Y-71965186D01*
X179945495Y-71937404D01*
X179925463Y-71923534D01*
X179903297Y-71913412D01*
X179897248Y-71903999D01*
X179888051Y-71897632D01*
X179878697Y-71875133D01*
X179865523Y-71854634D01*
X179863064Y-71837532D01*
X179861228Y-71833116D01*
X179860500Y-71819699D01*
X179860500Y-71653059D01*
X179860501Y-71653046D01*
X179860501Y-71484945D01*
X179860501Y-71484943D01*
X179819577Y-71332215D01*
X179777470Y-71259284D01*
X179742699Y-71199058D01*
X179740522Y-71195287D01*
X179740521Y-71195286D01*
X179740520Y-71195284D01*
X179628716Y-71083480D01*
X179628715Y-71083479D01*
X179624385Y-71079149D01*
X179624374Y-71079139D01*
X179303590Y-70758355D01*
X179303588Y-70758352D01*
X179184717Y-70639481D01*
X179184716Y-70639480D01*
X179097904Y-70589360D01*
X179097904Y-70589359D01*
X179097900Y-70589358D01*
X179047785Y-70560423D01*
X178895057Y-70519499D01*
X178736943Y-70519499D01*
X178729347Y-70519499D01*
X178729331Y-70519500D01*
X176012627Y-70519500D01*
X175945588Y-70499815D01*
X175899833Y-70447011D01*
X175889889Y-70377853D01*
X175918914Y-70314297D01*
X175938316Y-70296234D01*
X176017187Y-70237190D01*
X176017190Y-70237187D01*
X176103350Y-70122093D01*
X176103354Y-70122086D01*
X176153596Y-69987379D01*
X176153598Y-69987372D01*
X176159999Y-69927844D01*
X176160000Y-69927827D01*
X176160000Y-69530000D01*
X175510000Y-69530000D01*
X175510000Y-70380000D01*
X175519710Y-70389710D01*
X175553195Y-70451033D01*
X175548211Y-70520725D01*
X175506339Y-70576658D01*
X175494029Y-70584778D01*
X175399287Y-70639477D01*
X175399282Y-70639481D01*
X174779481Y-71259282D01*
X174779475Y-71259290D01*
X174737374Y-71332213D01*
X174737374Y-71332215D01*
X174700423Y-71396214D01*
X174700423Y-71396215D01*
X174659499Y-71548943D01*
X174659499Y-71548945D01*
X174659499Y-71592820D01*
X174639814Y-71659859D01*
X174609811Y-71692086D01*
X174502452Y-71772455D01*
X174416206Y-71887664D01*
X174416202Y-71887671D01*
X174365908Y-72022517D01*
X174359501Y-72082116D01*
X174359501Y-72082123D01*
X174359500Y-72082135D01*
X174359500Y-74177870D01*
X174359501Y-74177876D01*
X174365908Y-74237481D01*
X174365909Y-74237483D01*
X174412493Y-74362381D01*
X174417477Y-74432071D01*
X174412493Y-74449046D01*
X174366403Y-74572619D01*
X174366401Y-74572627D01*
X174360000Y-74632155D01*
X174360000Y-75030000D01*
X176160000Y-75030000D01*
X176160000Y-74632172D01*
X176159999Y-74632155D01*
X176153598Y-74572627D01*
X176153597Y-74572623D01*
X176107506Y-74449049D01*
X176102522Y-74379357D01*
X176107501Y-74362394D01*
X176154091Y-74237483D01*
X176160500Y-74177873D01*
X176160499Y-72082128D01*
X176154091Y-72022517D01*
X176148041Y-72006296D01*
X176103858Y-71887833D01*
X176098874Y-71818141D01*
X176132359Y-71756818D01*
X176193683Y-71723334D01*
X176220040Y-71720500D01*
X178460656Y-71720500D01*
X178527695Y-71740185D01*
X178573450Y-71792989D01*
X178583394Y-71862147D01*
X178554369Y-71925703D01*
X178499662Y-71962204D01*
X178490669Y-71965185D01*
X178490666Y-71965186D01*
X178490663Y-71965187D01*
X178341342Y-72057289D01*
X178217289Y-72181342D01*
X178125187Y-72330663D01*
X178125186Y-72330666D01*
X178070001Y-72497203D01*
X178070001Y-72497204D01*
X178070000Y-72497204D01*
X178059500Y-72599983D01*
X178059500Y-73400001D01*
X178059501Y-73400019D01*
X178070000Y-73502796D01*
X178070001Y-73502799D01*
X178125185Y-73669331D01*
X178125187Y-73669336D01*
X178217289Y-73818657D01*
X178310950Y-73912318D01*
X178315287Y-73920262D01*
X178322536Y-73925688D01*
X178331772Y-73950450D01*
X178344435Y-73973641D01*
X178343789Y-73982669D01*
X178346953Y-73991152D01*
X178341336Y-74016974D01*
X178339451Y-74043333D01*
X178333633Y-74052385D01*
X178332102Y-74059425D01*
X178310951Y-74087680D01*
X178246751Y-74151881D01*
X178185428Y-74185366D01*
X178159069Y-74188200D01*
X177313029Y-74188200D01*
X177155005Y-74219633D01*
X177154997Y-74219635D01*
X177006133Y-74281296D01*
X176872152Y-74370819D01*
X176758219Y-74484752D01*
X176668696Y-74618733D01*
X176607035Y-74767597D01*
X176607033Y-74767605D01*
X176575600Y-74925629D01*
X176575600Y-75086770D01*
X176607033Y-75244794D01*
X176607035Y-75244802D01*
X176668696Y-75393666D01*
X176758219Y-75527647D01*
X176872152Y-75641580D01*
X177006133Y-75731103D01*
X177080565Y-75761933D01*
X177154998Y-75792765D01*
X177313029Y-75824199D01*
X177313033Y-75824200D01*
X177313034Y-75824200D01*
X178171470Y-75824200D01*
X178238509Y-75843885D01*
X178259151Y-75860519D01*
X178341344Y-75942712D01*
X178490666Y-76034814D01*
X178657203Y-76089999D01*
X178759991Y-76100500D01*
X179760008Y-76100499D01*
X179760016Y-76100498D01*
X179760019Y-76100498D01*
X179816302Y-76094748D01*
X179862797Y-76089999D01*
X180029334Y-76034814D01*
X180158406Y-75955202D01*
X180225796Y-75936763D01*
X180292459Y-75957686D01*
X180337229Y-76011327D01*
X180347500Y-76060742D01*
X180347500Y-77939257D01*
X180327815Y-78006296D01*
X180275011Y-78052051D01*
X180205853Y-78061995D01*
X180158404Y-78044796D01*
X180029340Y-77965189D01*
X180029335Y-77965187D01*
X180029334Y-77965186D01*
X179945495Y-77937404D01*
X179925463Y-77923534D01*
X179903297Y-77913412D01*
X179897248Y-77903999D01*
X179888051Y-77897632D01*
X179878697Y-77875133D01*
X179865523Y-77854634D01*
X179863064Y-77837532D01*
X179861228Y-77833116D01*
X179860500Y-77819699D01*
X179860500Y-77749059D01*
X179860501Y-77749046D01*
X179860501Y-77580945D01*
X179860501Y-77580943D01*
X179819577Y-77428215D01*
X179777470Y-77355284D01*
X179742699Y-77295058D01*
X179740522Y-77291287D01*
X179740521Y-77291286D01*
X179740520Y-77291284D01*
X179628716Y-77179480D01*
X179628715Y-77179479D01*
X179624385Y-77175149D01*
X179624374Y-77175139D01*
X179303590Y-76854355D01*
X179303588Y-76854352D01*
X179184717Y-76735481D01*
X179184716Y-76735480D01*
X179097904Y-76685360D01*
X179097904Y-76685359D01*
X179097900Y-76685358D01*
X179047785Y-76656423D01*
X178895057Y-76615499D01*
X178736943Y-76615499D01*
X178729347Y-76615499D01*
X178729331Y-76615500D01*
X175847057Y-76615500D01*
X175688942Y-76615500D01*
X175648019Y-76626465D01*
X175646492Y-76626873D01*
X175646492Y-76626874D01*
X175536214Y-76656423D01*
X175536209Y-76656426D01*
X175399290Y-76735475D01*
X175399282Y-76735481D01*
X174779481Y-77355282D01*
X174779475Y-77355290D01*
X174742386Y-77419531D01*
X174742382Y-77419539D01*
X174737374Y-77428215D01*
X174700423Y-77492215D01*
X174665659Y-77621953D01*
X174663448Y-77627787D01*
X174645973Y-77650873D01*
X174630907Y-77675591D01*
X174621810Y-77683103D01*
X174502452Y-77772455D01*
X174416206Y-77887664D01*
X174416202Y-77887671D01*
X174365908Y-78022517D01*
X174359501Y-78082116D01*
X174359501Y-78082123D01*
X174359500Y-78082135D01*
X174359500Y-80177870D01*
X174359501Y-80177876D01*
X174365908Y-80237481D01*
X174365909Y-80237483D01*
X174412493Y-80362381D01*
X174417477Y-80432071D01*
X174412493Y-80449046D01*
X174366403Y-80572619D01*
X174366401Y-80572627D01*
X174360000Y-80632155D01*
X174360000Y-81030000D01*
X176160000Y-81030000D01*
X176160000Y-80632172D01*
X176159999Y-80632155D01*
X176153598Y-80572627D01*
X176153597Y-80572623D01*
X176107506Y-80449049D01*
X176102522Y-80379357D01*
X176107501Y-80362394D01*
X176154091Y-80237483D01*
X176160500Y-80177873D01*
X176160499Y-78082128D01*
X176154091Y-78022517D01*
X176153787Y-78021703D01*
X176139663Y-77983833D01*
X176134679Y-77914141D01*
X176168164Y-77852818D01*
X176229487Y-77819334D01*
X176255845Y-77816500D01*
X178294485Y-77816500D01*
X178361524Y-77836185D01*
X178407279Y-77888989D01*
X178417223Y-77958147D01*
X178388198Y-78021703D01*
X178359582Y-78046038D01*
X178341347Y-78057285D01*
X178341343Y-78057288D01*
X178217289Y-78181342D01*
X178125187Y-78330663D01*
X178125186Y-78330666D01*
X178070001Y-78497203D01*
X178070001Y-78497204D01*
X178070000Y-78497204D01*
X178059500Y-78599983D01*
X178059500Y-79400001D01*
X178059501Y-79400019D01*
X178070000Y-79502796D01*
X178070001Y-79502799D01*
X178125185Y-79669331D01*
X178125187Y-79669336D01*
X178217289Y-79818657D01*
X178310951Y-79912319D01*
X178344436Y-79973642D01*
X178339452Y-80043334D01*
X178310951Y-80087681D01*
X178217289Y-80181342D01*
X178125187Y-80330663D01*
X178125185Y-80330668D01*
X178109051Y-80379357D01*
X178070001Y-80497203D01*
X178070001Y-80497204D01*
X178070000Y-80497204D01*
X178059500Y-80599983D01*
X178059500Y-81400001D01*
X178059501Y-81400019D01*
X178070000Y-81502796D01*
X178070001Y-81502799D01*
X178125185Y-81669331D01*
X178125187Y-81669336D01*
X178217289Y-81818657D01*
X178341345Y-81942713D01*
X178370894Y-81960938D01*
X178417620Y-82012884D01*
X178429800Y-82066478D01*
X178429800Y-82528970D01*
X178461233Y-82686994D01*
X178461235Y-82687002D01*
X178522896Y-82835866D01*
X178612419Y-82969847D01*
X178726352Y-83083780D01*
X178860333Y-83173303D01*
X178934765Y-83204133D01*
X179009198Y-83234965D01*
X179167229Y-83266399D01*
X179167233Y-83266400D01*
X179167234Y-83266400D01*
X179328367Y-83266400D01*
X179328368Y-83266399D01*
X179486402Y-83234965D01*
X179635268Y-83173302D01*
X179769245Y-83083782D01*
X179883182Y-82969845D01*
X179972702Y-82835868D01*
X180034365Y-82687002D01*
X180065800Y-82528966D01*
X180065800Y-82081528D01*
X180068674Y-82071737D01*
X180067410Y-82061611D01*
X180078352Y-82038778D01*
X180085485Y-82014489D01*
X180094000Y-82006130D01*
X180097607Y-81998604D01*
X180124702Y-81975990D01*
X180158404Y-81955202D01*
X180225796Y-81936763D01*
X180292460Y-81957686D01*
X180337229Y-82011328D01*
X180347500Y-82060742D01*
X180347500Y-89545500D01*
X180327815Y-89612539D01*
X180275011Y-89658294D01*
X180223500Y-89669500D01*
X148198500Y-89669500D01*
X148131461Y-89649815D01*
X148085706Y-89597011D01*
X148074500Y-89545500D01*
X148074500Y-87343462D01*
X148094185Y-87276423D01*
X148146989Y-87230668D01*
X148216147Y-87220724D01*
X148279703Y-87249749D01*
X148316430Y-87305142D01*
X148335908Y-87365089D01*
X148433843Y-87557299D01*
X148560641Y-87731821D01*
X148713179Y-87884359D01*
X148887701Y-88011157D01*
X149079911Y-88109092D01*
X149285074Y-88175754D01*
X149364973Y-88188408D01*
X149498134Y-88209500D01*
X149498139Y-88209500D01*
X149713866Y-88209500D01*
X149832230Y-88190752D01*
X149926926Y-88175754D01*
X150132089Y-88109092D01*
X150324299Y-88011157D01*
X150498821Y-87884359D01*
X150641186Y-87741993D01*
X150702505Y-87708511D01*
X150772197Y-87713495D01*
X150828131Y-87755366D01*
X150841248Y-87777277D01*
X150841640Y-87778118D01*
X150933684Y-87927345D01*
X151057654Y-88051315D01*
X151206875Y-88143356D01*
X151206880Y-88143358D01*
X151373302Y-88198505D01*
X151373309Y-88198506D01*
X151476019Y-88208999D01*
X151895999Y-88208999D01*
X151896000Y-88208998D01*
X151896000Y-87156709D01*
X151916339Y-87168452D01*
X152067667Y-87209000D01*
X152224333Y-87209000D01*
X152375661Y-87168452D01*
X152396000Y-87156709D01*
X152396000Y-88208999D01*
X152815972Y-88208999D01*
X152815986Y-88208998D01*
X152918697Y-88198505D01*
X153085119Y-88143358D01*
X153085124Y-88143356D01*
X153234345Y-88051315D01*
X153358315Y-87927345D01*
X153450356Y-87778124D01*
X153450358Y-87778119D01*
X153505505Y-87611697D01*
X153505506Y-87611690D01*
X153515999Y-87508986D01*
X153516000Y-87508973D01*
X153516000Y-87092229D01*
X156763600Y-87092229D01*
X156763600Y-87253370D01*
X156795033Y-87411394D01*
X156795035Y-87411402D01*
X156856696Y-87560266D01*
X156946219Y-87694247D01*
X157060152Y-87808180D01*
X157194133Y-87897703D01*
X157255452Y-87923102D01*
X157342998Y-87959365D01*
X157470689Y-87984764D01*
X157501029Y-87990799D01*
X157501033Y-87990800D01*
X157501034Y-87990800D01*
X157931686Y-87990800D01*
X157998725Y-88010485D01*
X158037224Y-88049702D01*
X158077288Y-88114656D01*
X158201344Y-88238712D01*
X158350666Y-88330814D01*
X158517203Y-88385999D01*
X158619991Y-88396500D01*
X159420008Y-88396499D01*
X159420016Y-88396498D01*
X159420019Y-88396498D01*
X159476302Y-88390748D01*
X159522797Y-88385999D01*
X159689334Y-88330814D01*
X159838656Y-88238712D01*
X159932319Y-88145049D01*
X159993642Y-88111564D01*
X160063334Y-88116548D01*
X160107681Y-88145049D01*
X160201344Y-88238712D01*
X160350666Y-88330814D01*
X160517203Y-88385999D01*
X160619991Y-88396500D01*
X161420008Y-88396499D01*
X161420016Y-88396498D01*
X161420019Y-88396498D01*
X161476302Y-88390748D01*
X161522797Y-88385999D01*
X161689334Y-88330814D01*
X161838656Y-88238712D01*
X161962712Y-88114656D01*
X162054814Y-87965334D01*
X162082595Y-87881495D01*
X162122368Y-87824051D01*
X162186884Y-87797228D01*
X162200301Y-87796500D01*
X162473331Y-87796500D01*
X162473347Y-87796501D01*
X162480943Y-87796501D01*
X162639054Y-87796501D01*
X162639057Y-87796501D01*
X162791785Y-87755577D01*
X162841904Y-87726639D01*
X162928716Y-87676520D01*
X163040520Y-87564716D01*
X163040520Y-87564714D01*
X163050728Y-87554507D01*
X163050730Y-87554504D01*
X163436713Y-87168521D01*
X163436716Y-87168520D01*
X163487607Y-87117629D01*
X164790000Y-87117629D01*
X164790000Y-87278770D01*
X164821433Y-87436794D01*
X164821435Y-87436802D01*
X164883096Y-87585666D01*
X164972619Y-87719647D01*
X165086552Y-87833580D01*
X165220533Y-87923103D01*
X165294965Y-87953933D01*
X165369398Y-87984765D01*
X165502076Y-88011156D01*
X165527429Y-88016199D01*
X165527433Y-88016200D01*
X165527434Y-88016200D01*
X166075353Y-88016200D01*
X166142392Y-88035885D01*
X166180890Y-88075101D01*
X166205288Y-88114656D01*
X166329344Y-88238712D01*
X166478666Y-88330814D01*
X166645203Y-88385999D01*
X166747991Y-88396500D01*
X167548008Y-88396499D01*
X167548016Y-88396498D01*
X167548019Y-88396498D01*
X167604302Y-88390748D01*
X167650797Y-88385999D01*
X167817334Y-88330814D01*
X167966656Y-88238712D01*
X168060319Y-88145049D01*
X168121642Y-88111564D01*
X168191334Y-88116548D01*
X168235681Y-88145049D01*
X168329344Y-88238712D01*
X168478666Y-88330814D01*
X168645203Y-88385999D01*
X168747991Y-88396500D01*
X169548008Y-88396499D01*
X169548016Y-88396498D01*
X169548019Y-88396498D01*
X169604302Y-88390748D01*
X169650797Y-88385999D01*
X169817334Y-88330814D01*
X169966656Y-88238712D01*
X170090712Y-88114656D01*
X170182814Y-87965334D01*
X170210595Y-87881495D01*
X170250368Y-87824051D01*
X170314884Y-87797228D01*
X170328301Y-87796500D01*
X170601331Y-87796500D01*
X170601347Y-87796501D01*
X170608943Y-87796501D01*
X170767054Y-87796501D01*
X170767057Y-87796501D01*
X170919785Y-87755577D01*
X170969904Y-87726639D01*
X171056716Y-87676520D01*
X171168520Y-87564716D01*
X171168520Y-87564714D01*
X171178728Y-87554507D01*
X171178730Y-87554504D01*
X171554506Y-87178728D01*
X171554511Y-87178724D01*
X171564714Y-87168520D01*
X171564716Y-87168520D01*
X171676520Y-87056716D01*
X171755577Y-86919784D01*
X171796500Y-86767057D01*
X171796500Y-85253059D01*
X171796501Y-85253046D01*
X171796501Y-85084945D01*
X171796501Y-85084943D01*
X171755577Y-84932215D01*
X171726639Y-84882095D01*
X171676520Y-84795284D01*
X171564716Y-84683480D01*
X171564715Y-84683479D01*
X171560385Y-84679149D01*
X171560374Y-84679139D01*
X171355590Y-84474355D01*
X171355588Y-84474352D01*
X171236717Y-84355481D01*
X171236716Y-84355480D01*
X171149904Y-84305360D01*
X171149904Y-84305359D01*
X171149900Y-84305358D01*
X171099785Y-84276423D01*
X170947057Y-84235499D01*
X170788943Y-84235499D01*
X170781347Y-84235499D01*
X170781331Y-84235500D01*
X170407180Y-84235500D01*
X170340141Y-84215815D01*
X170307913Y-84185811D01*
X170227546Y-84078454D01*
X170204709Y-84061358D01*
X170112335Y-83992206D01*
X170112328Y-83992202D01*
X169977482Y-83941908D01*
X169977483Y-83941908D01*
X169917883Y-83935501D01*
X169917881Y-83935500D01*
X169917873Y-83935500D01*
X169917864Y-83935500D01*
X167822129Y-83935500D01*
X167822123Y-83935501D01*
X167762515Y-83941909D01*
X167637617Y-83988492D01*
X167567926Y-83993476D01*
X167550952Y-83988492D01*
X167427380Y-83942403D01*
X167427372Y-83942401D01*
X167367844Y-83936000D01*
X166970000Y-83936000D01*
X166970000Y-85736000D01*
X167367828Y-85736000D01*
X167367844Y-85735999D01*
X167427372Y-85729598D01*
X167427376Y-85729597D01*
X167550951Y-85683506D01*
X167620643Y-85678522D01*
X167637605Y-85683501D01*
X167762517Y-85730091D01*
X167822127Y-85736500D01*
X169917872Y-85736499D01*
X169977483Y-85730091D01*
X170112331Y-85679796D01*
X170227546Y-85593546D01*
X170307914Y-85486188D01*
X170311569Y-85483451D01*
X170313467Y-85479297D01*
X170339281Y-85462706D01*
X170363847Y-85444318D01*
X170369476Y-85443302D01*
X170372245Y-85441523D01*
X170407180Y-85436500D01*
X170471500Y-85436500D01*
X170538539Y-85456185D01*
X170584294Y-85508989D01*
X170595500Y-85560500D01*
X170595500Y-86387903D01*
X170575815Y-86454942D01*
X170559181Y-86475584D01*
X170475584Y-86559181D01*
X170414261Y-86592666D01*
X170387903Y-86595500D01*
X170328301Y-86595500D01*
X170261262Y-86575815D01*
X170215507Y-86523011D01*
X170210595Y-86510504D01*
X170182814Y-86426666D01*
X170090712Y-86277344D01*
X169966656Y-86153288D01*
X169873888Y-86096069D01*
X169817336Y-86061187D01*
X169817331Y-86061185D01*
X169812391Y-86059548D01*
X169650797Y-86006001D01*
X169650795Y-86006000D01*
X169548010Y-85995500D01*
X168747998Y-85995500D01*
X168747980Y-85995501D01*
X168645203Y-86006000D01*
X168645200Y-86006001D01*
X168478668Y-86061185D01*
X168478663Y-86061187D01*
X168329342Y-86153289D01*
X168235681Y-86246951D01*
X168174358Y-86280436D01*
X168104666Y-86275452D01*
X168060319Y-86246951D01*
X167966657Y-86153289D01*
X167966656Y-86153288D01*
X167873888Y-86096069D01*
X167817336Y-86061187D01*
X167817331Y-86061185D01*
X167812391Y-86059548D01*
X167650797Y-86006001D01*
X167650795Y-86006000D01*
X167548010Y-85995500D01*
X166747998Y-85995500D01*
X166747980Y-85995501D01*
X166645203Y-86006000D01*
X166645200Y-86006001D01*
X166478668Y-86061185D01*
X166478663Y-86061187D01*
X166329342Y-86153289D01*
X166205289Y-86277342D01*
X166178178Y-86321297D01*
X166126230Y-86368021D01*
X166072639Y-86380200D01*
X165527429Y-86380200D01*
X165369405Y-86411633D01*
X165369397Y-86411635D01*
X165220533Y-86473296D01*
X165086552Y-86562819D01*
X164972619Y-86676752D01*
X164883096Y-86810733D01*
X164821435Y-86959597D01*
X164821433Y-86959605D01*
X164790000Y-87117629D01*
X163487607Y-87117629D01*
X163548520Y-87056716D01*
X163627577Y-86919784D01*
X163668500Y-86767057D01*
X163668500Y-85283844D01*
X165620000Y-85283844D01*
X165626401Y-85343372D01*
X165626403Y-85343379D01*
X165676645Y-85478086D01*
X165676649Y-85478093D01*
X165762809Y-85593187D01*
X165762812Y-85593190D01*
X165877906Y-85679350D01*
X165877913Y-85679354D01*
X166012620Y-85729596D01*
X166012627Y-85729598D01*
X166072155Y-85735999D01*
X166072172Y-85736000D01*
X166470000Y-85736000D01*
X166470000Y-85086000D01*
X165620000Y-85086000D01*
X165620000Y-85283844D01*
X163668500Y-85283844D01*
X163668500Y-85243060D01*
X163668501Y-85243057D01*
X163668501Y-85084943D01*
X163627577Y-84932215D01*
X163598639Y-84882095D01*
X163548520Y-84795284D01*
X163436716Y-84683480D01*
X163436715Y-84683479D01*
X163432385Y-84679149D01*
X163432374Y-84679139D01*
X163227566Y-84474331D01*
X163225744Y-84472508D01*
X163141391Y-84388155D01*
X165620000Y-84388155D01*
X165620000Y-84586000D01*
X166470000Y-84586000D01*
X166470000Y-83936000D01*
X166072155Y-83936000D01*
X166012627Y-83942401D01*
X166012620Y-83942403D01*
X165877913Y-83992645D01*
X165877906Y-83992649D01*
X165762812Y-84078809D01*
X165762809Y-84078812D01*
X165676649Y-84193906D01*
X165676645Y-84193913D01*
X165626403Y-84328620D01*
X165626401Y-84328627D01*
X165620000Y-84388155D01*
X163141391Y-84388155D01*
X163108717Y-84355481D01*
X163108716Y-84355480D01*
X163021904Y-84305360D01*
X163021904Y-84305359D01*
X163021900Y-84305358D01*
X162971785Y-84276423D01*
X162819057Y-84235499D01*
X162660943Y-84235499D01*
X162653347Y-84235499D01*
X162653331Y-84235500D01*
X162407180Y-84235500D01*
X162340141Y-84215815D01*
X162307913Y-84185811D01*
X162227546Y-84078454D01*
X162204709Y-84061358D01*
X162112335Y-83992206D01*
X162112328Y-83992202D01*
X161977482Y-83941908D01*
X161977483Y-83941908D01*
X161917883Y-83935501D01*
X161917881Y-83935500D01*
X161917873Y-83935500D01*
X161917864Y-83935500D01*
X159822129Y-83935500D01*
X159822123Y-83935501D01*
X159762515Y-83941909D01*
X159637617Y-83988492D01*
X159567926Y-83993476D01*
X159550952Y-83988492D01*
X159427380Y-83942403D01*
X159427372Y-83942401D01*
X159367844Y-83936000D01*
X158970000Y-83936000D01*
X158970000Y-85736000D01*
X159367828Y-85736000D01*
X159367844Y-85735999D01*
X159427372Y-85729598D01*
X159427376Y-85729597D01*
X159550951Y-85683506D01*
X159620643Y-85678522D01*
X159637605Y-85683501D01*
X159762517Y-85730091D01*
X159822127Y-85736500D01*
X161917872Y-85736499D01*
X161977483Y-85730091D01*
X162112331Y-85679796D01*
X162227546Y-85593546D01*
X162244234Y-85571252D01*
X162300167Y-85529383D01*
X162369859Y-85524399D01*
X162431182Y-85557884D01*
X162464666Y-85619207D01*
X162467500Y-85645565D01*
X162467500Y-86387903D01*
X162458855Y-86417343D01*
X162452332Y-86447330D01*
X162448577Y-86452345D01*
X162447815Y-86454942D01*
X162431181Y-86475584D01*
X162347584Y-86559181D01*
X162286261Y-86592666D01*
X162259903Y-86595500D01*
X162200301Y-86595500D01*
X162133262Y-86575815D01*
X162087507Y-86523011D01*
X162082595Y-86510504D01*
X162054814Y-86426666D01*
X161962712Y-86277344D01*
X161838656Y-86153288D01*
X161745888Y-86096069D01*
X161689336Y-86061187D01*
X161689331Y-86061185D01*
X161684391Y-86059548D01*
X161522797Y-86006001D01*
X161522795Y-86006000D01*
X161420010Y-85995500D01*
X160619998Y-85995500D01*
X160619980Y-85995501D01*
X160517203Y-86006000D01*
X160517200Y-86006001D01*
X160350668Y-86061185D01*
X160350663Y-86061187D01*
X160201342Y-86153289D01*
X160107681Y-86246951D01*
X160046358Y-86280436D01*
X159976666Y-86275452D01*
X159932319Y-86246951D01*
X159838657Y-86153289D01*
X159838656Y-86153288D01*
X159745888Y-86096069D01*
X159689336Y-86061187D01*
X159689331Y-86061185D01*
X159684391Y-86059548D01*
X159522797Y-86006001D01*
X159522795Y-86006000D01*
X159420010Y-85995500D01*
X158619998Y-85995500D01*
X158619980Y-85995501D01*
X158517203Y-86006000D01*
X158517200Y-86006001D01*
X158350668Y-86061185D01*
X158350663Y-86061187D01*
X158201342Y-86153289D01*
X158077289Y-86277342D01*
X158077288Y-86277344D01*
X158065843Y-86295898D01*
X158013897Y-86342621D01*
X157960306Y-86354800D01*
X157501029Y-86354800D01*
X157343005Y-86386233D01*
X157342997Y-86386235D01*
X157194133Y-86447896D01*
X157060152Y-86537419D01*
X156946219Y-86651352D01*
X156856696Y-86785333D01*
X156795035Y-86934197D01*
X156795033Y-86934205D01*
X156763600Y-87092229D01*
X153516000Y-87092229D01*
X153516000Y-86864000D01*
X152688709Y-86864000D01*
X152700452Y-86843661D01*
X152741000Y-86692333D01*
X152741000Y-86535667D01*
X152700452Y-86384339D01*
X152688709Y-86364000D01*
X153515999Y-86364000D01*
X153515999Y-85719028D01*
X153515998Y-85719013D01*
X153505505Y-85616302D01*
X153450358Y-85449880D01*
X153450356Y-85449875D01*
X153358315Y-85300654D01*
X153341505Y-85283844D01*
X157620000Y-85283844D01*
X157626401Y-85343372D01*
X157626403Y-85343379D01*
X157676645Y-85478086D01*
X157676649Y-85478093D01*
X157762809Y-85593187D01*
X157762812Y-85593190D01*
X157877906Y-85679350D01*
X157877913Y-85679354D01*
X158012620Y-85729596D01*
X158012627Y-85729598D01*
X158072155Y-85735999D01*
X158072172Y-85736000D01*
X158470000Y-85736000D01*
X158470000Y-85086000D01*
X157620000Y-85086000D01*
X157620000Y-85283844D01*
X153341505Y-85283844D01*
X153234344Y-85176683D01*
X153234340Y-85176680D01*
X153175161Y-85140177D01*
X153175158Y-85140177D01*
X153085124Y-85084643D01*
X153085119Y-85084641D01*
X152918697Y-85029494D01*
X152918690Y-85029493D01*
X152815986Y-85019000D01*
X152396000Y-85019000D01*
X152396000Y-86071290D01*
X152375661Y-86059548D01*
X152224333Y-86019000D01*
X152067667Y-86019000D01*
X151916339Y-86059548D01*
X151896000Y-86071290D01*
X151896000Y-85019000D01*
X151476028Y-85019000D01*
X151476012Y-85019001D01*
X151373302Y-85029494D01*
X151206880Y-85084641D01*
X151206875Y-85084643D01*
X151057654Y-85176684D01*
X150933684Y-85300654D01*
X150841637Y-85449885D01*
X150841245Y-85450728D01*
X150840821Y-85451208D01*
X150837851Y-85456025D01*
X150837027Y-85455517D01*
X150795072Y-85503167D01*
X150727879Y-85522318D01*
X150660998Y-85502101D01*
X150641183Y-85486003D01*
X150498823Y-85343643D01*
X150498821Y-85343641D01*
X150324299Y-85216843D01*
X150132089Y-85118908D01*
X149926926Y-85052246D01*
X149926924Y-85052245D01*
X149926922Y-85052245D01*
X149713866Y-85018500D01*
X149713861Y-85018500D01*
X149498139Y-85018500D01*
X149498134Y-85018500D01*
X149285077Y-85052245D01*
X149079908Y-85118909D01*
X148887700Y-85216843D01*
X148837854Y-85253059D01*
X148713179Y-85343641D01*
X148713177Y-85343643D01*
X148713176Y-85343643D01*
X148560643Y-85496176D01*
X148560643Y-85496177D01*
X148560641Y-85496179D01*
X148555564Y-85503167D01*
X148433843Y-85670700D01*
X148335910Y-85862906D01*
X148335909Y-85862908D01*
X148335908Y-85862911D01*
X148328882Y-85884537D01*
X148316431Y-85922856D01*
X148276993Y-85980531D01*
X148212634Y-86007729D01*
X148143788Y-85995814D01*
X148092312Y-85948570D01*
X148074500Y-85884537D01*
X148074500Y-84388155D01*
X157620000Y-84388155D01*
X157620000Y-84586000D01*
X158470000Y-84586000D01*
X158470000Y-83936000D01*
X158072155Y-83936000D01*
X158012627Y-83942401D01*
X158012620Y-83942403D01*
X157877913Y-83992645D01*
X157877906Y-83992649D01*
X157762812Y-84078809D01*
X157762809Y-84078812D01*
X157676649Y-84193906D01*
X157676645Y-84193913D01*
X157626403Y-84328620D01*
X157626401Y-84328627D01*
X157620000Y-84388155D01*
X148074500Y-84388155D01*
X148074500Y-70021242D01*
X148094185Y-69954203D01*
X148146989Y-69908448D01*
X148216147Y-69898504D01*
X148222692Y-69899625D01*
X148224394Y-69899963D01*
X148224398Y-69899965D01*
X148382432Y-69931399D01*
X148382433Y-69931400D01*
X148382434Y-69931400D01*
X149027838Y-69931400D01*
X149092934Y-69949861D01*
X149230659Y-70034810D01*
X149230660Y-70034810D01*
X149230666Y-70034814D01*
X149397203Y-70089999D01*
X149499991Y-70100500D01*
X150500008Y-70100499D01*
X150500016Y-70100498D01*
X150500019Y-70100498D01*
X150556302Y-70094748D01*
X150602797Y-70089999D01*
X150769334Y-70034814D01*
X150918656Y-69942712D01*
X151042712Y-69818656D01*
X151134814Y-69669334D01*
X151189999Y-69502797D01*
X151200500Y-69400009D01*
X151200499Y-68599992D01*
X151189999Y-68497203D01*
X151134814Y-68330666D01*
X151042712Y-68181344D01*
X150949049Y-68087681D01*
X150915564Y-68026358D01*
X150920548Y-67956666D01*
X150949049Y-67912319D01*
X151042712Y-67818656D01*
X151134814Y-67669334D01*
X151189999Y-67502797D01*
X151200500Y-67400009D01*
X151200499Y-66599992D01*
X151189999Y-66497203D01*
X151134814Y-66330666D01*
X151042712Y-66181344D01*
X150918656Y-66057288D01*
X150769334Y-65965186D01*
X150685495Y-65937404D01*
X150665463Y-65923534D01*
X150643297Y-65913412D01*
X150637248Y-65903999D01*
X150628051Y-65897632D01*
X150618697Y-65875133D01*
X150605523Y-65854634D01*
X150603064Y-65837532D01*
X150601228Y-65833116D01*
X150600500Y-65819699D01*
X150600500Y-65748500D01*
X150620185Y-65681461D01*
X150672989Y-65635706D01*
X150724500Y-65624500D01*
X153105490Y-65624500D01*
X153172529Y-65644185D01*
X153218284Y-65696989D01*
X153228228Y-65766147D01*
X153204757Y-65822811D01*
X153156203Y-65887669D01*
X153156202Y-65887671D01*
X153105908Y-66022517D01*
X153099501Y-66082116D01*
X153099501Y-66082123D01*
X153099500Y-66082135D01*
X153099500Y-68177870D01*
X153099501Y-68177876D01*
X153105908Y-68237481D01*
X153110814Y-68250635D01*
X153152493Y-68362381D01*
X153157477Y-68432071D01*
X153152493Y-68449046D01*
X153106403Y-68572619D01*
X153106401Y-68572627D01*
X153100000Y-68632155D01*
X153100000Y-69030000D01*
X153876000Y-69030000D01*
X153943039Y-69049685D01*
X153988794Y-69102489D01*
X154000000Y-69154000D01*
X154000000Y-69280000D01*
X154126000Y-69280000D01*
X154193039Y-69299685D01*
X154238794Y-69352489D01*
X154250000Y-69404000D01*
X154250000Y-70380000D01*
X154447828Y-70380000D01*
X154447844Y-70379999D01*
X154507372Y-70373598D01*
X154507379Y-70373596D01*
X154642086Y-70323354D01*
X154642089Y-70323352D01*
X154749188Y-70243178D01*
X154814653Y-70218760D01*
X154882926Y-70233611D01*
X154932332Y-70283016D01*
X154947500Y-70342444D01*
X154947500Y-71666931D01*
X154943705Y-71679854D01*
X154944666Y-71693290D01*
X154934052Y-71712726D01*
X154927815Y-71733970D01*
X154917637Y-71742788D01*
X154911181Y-71754613D01*
X154891742Y-71765226D01*
X154875011Y-71779725D01*
X154861680Y-71781641D01*
X154849858Y-71788097D01*
X154827771Y-71786517D01*
X154805853Y-71789669D01*
X154792082Y-71783965D01*
X154780166Y-71783113D01*
X154749189Y-71766198D01*
X154736659Y-71756818D01*
X154644893Y-71688122D01*
X154603023Y-71632189D01*
X154599436Y-71620970D01*
X154559577Y-71472216D01*
X154523047Y-71408943D01*
X154480524Y-71335290D01*
X154480518Y-71335282D01*
X153784715Y-70639479D01*
X153736058Y-70611388D01*
X153687842Y-70560821D01*
X153674618Y-70492214D01*
X153700586Y-70427349D01*
X153714676Y-70417314D01*
X153713681Y-70416319D01*
X153750000Y-70380000D01*
X153750000Y-69530000D01*
X153100000Y-69530000D01*
X153100000Y-69927844D01*
X153106401Y-69987372D01*
X153106403Y-69987379D01*
X153156645Y-70122086D01*
X153156649Y-70122093D01*
X153242809Y-70237187D01*
X153242812Y-70237190D01*
X153321684Y-70296234D01*
X153363555Y-70352167D01*
X153368539Y-70421859D01*
X153335053Y-70483182D01*
X153273730Y-70516666D01*
X153247373Y-70519500D01*
X150454670Y-70519500D01*
X150454654Y-70519499D01*
X150447058Y-70519499D01*
X150288943Y-70519499D01*
X150212579Y-70539961D01*
X150136214Y-70560423D01*
X150136209Y-70560426D01*
X149999290Y-70639475D01*
X149999282Y-70639481D01*
X149624217Y-71014546D01*
X149624214Y-71014548D01*
X149624215Y-71014549D01*
X149519477Y-71119287D01*
X149473423Y-71199057D01*
X149473423Y-71199058D01*
X149440423Y-71256214D01*
X149439600Y-71259285D01*
X149399499Y-71408943D01*
X149399499Y-71408945D01*
X149399499Y-71577046D01*
X149399500Y-71577059D01*
X149399500Y-71819699D01*
X149379815Y-71886738D01*
X149327011Y-71932493D01*
X149314507Y-71937403D01*
X149281962Y-71948188D01*
X149230668Y-71965185D01*
X149230663Y-71965187D01*
X149081342Y-72057289D01*
X148957289Y-72181342D01*
X148865187Y-72330663D01*
X148865186Y-72330666D01*
X148810001Y-72497203D01*
X148810001Y-72497204D01*
X148810000Y-72497204D01*
X148799500Y-72599983D01*
X148799500Y-73400001D01*
X148799501Y-73400019D01*
X148810000Y-73502796D01*
X148810001Y-73502799D01*
X148865185Y-73669331D01*
X148865187Y-73669336D01*
X148957289Y-73818657D01*
X149050951Y-73912319D01*
X149084436Y-73973642D01*
X149079452Y-74043334D01*
X149050951Y-74087681D01*
X148957289Y-74181342D01*
X148865187Y-74330663D01*
X148865185Y-74330668D01*
X148849051Y-74379357D01*
X148810001Y-74497203D01*
X148810001Y-74497204D01*
X148810000Y-74497204D01*
X148799500Y-74599983D01*
X148799500Y-75400001D01*
X148799501Y-75400019D01*
X148810000Y-75502796D01*
X148810001Y-75502799D01*
X148818235Y-75527647D01*
X148865186Y-75669334D01*
X148957288Y-75818656D01*
X149081344Y-75942712D01*
X149230666Y-76034814D01*
X149397203Y-76089999D01*
X149499991Y-76100500D01*
X150500008Y-76100499D01*
X150500016Y-76100498D01*
X150500019Y-76100498D01*
X150556302Y-76094748D01*
X150602797Y-76089999D01*
X150769334Y-76034814D01*
X150918656Y-75942712D01*
X150933524Y-75927844D01*
X153100000Y-75927844D01*
X153106401Y-75987372D01*
X153106403Y-75987379D01*
X153156645Y-76122086D01*
X153156649Y-76122093D01*
X153242809Y-76237187D01*
X153242812Y-76237190D01*
X153357906Y-76323350D01*
X153357913Y-76323354D01*
X153497232Y-76375317D01*
X153518178Y-76390996D01*
X153526874Y-76389052D01*
X153555084Y-76380035D01*
X153558035Y-76380000D01*
X153750000Y-76380000D01*
X153750000Y-75530000D01*
X153100000Y-75530000D01*
X153100000Y-75927844D01*
X150933524Y-75927844D01*
X151000849Y-75860519D01*
X151062172Y-75827034D01*
X151088530Y-75824200D01*
X151642367Y-75824200D01*
X151642368Y-75824199D01*
X151800402Y-75792765D01*
X151949268Y-75731102D01*
X152083245Y-75641582D01*
X152197182Y-75527645D01*
X152286702Y-75393668D01*
X152348365Y-75244802D01*
X152379800Y-75086766D01*
X152379800Y-74925634D01*
X152348365Y-74767598D01*
X152317533Y-74693165D01*
X152286703Y-74618733D01*
X152197180Y-74484752D01*
X152083247Y-74370819D01*
X151949266Y-74281296D01*
X151800402Y-74219635D01*
X151800394Y-74219633D01*
X151642370Y-74188200D01*
X151642366Y-74188200D01*
X151100931Y-74188200D01*
X151071490Y-74179555D01*
X151041504Y-74173032D01*
X151036488Y-74169277D01*
X151033892Y-74168515D01*
X151013250Y-74151881D01*
X150949049Y-74087680D01*
X150915564Y-74026357D01*
X150920548Y-73956665D01*
X150949045Y-73912322D01*
X151042712Y-73818656D01*
X151134814Y-73669334D01*
X151189999Y-73502797D01*
X151200500Y-73400009D01*
X151200499Y-72599992D01*
X151189999Y-72497203D01*
X151134814Y-72330666D01*
X151042712Y-72181344D01*
X150918656Y-72057288D01*
X150769334Y-71965186D01*
X150760337Y-71962204D01*
X150702894Y-71922433D01*
X150676072Y-71857917D01*
X150688387Y-71789141D01*
X150735931Y-71737941D01*
X150799344Y-71720500D01*
X153039960Y-71720500D01*
X153106999Y-71740185D01*
X153152754Y-71792989D01*
X153162698Y-71862147D01*
X153156142Y-71887833D01*
X153105908Y-72022517D01*
X153099501Y-72082116D01*
X153099501Y-72082123D01*
X153099500Y-72082135D01*
X153099500Y-74177870D01*
X153099501Y-74177876D01*
X153105908Y-74237481D01*
X153105909Y-74237483D01*
X153152493Y-74362381D01*
X153157477Y-74432071D01*
X153152493Y-74449046D01*
X153106403Y-74572619D01*
X153106401Y-74572627D01*
X153100000Y-74632155D01*
X153100000Y-75030000D01*
X153876000Y-75030000D01*
X153943039Y-75049685D01*
X153988794Y-75102489D01*
X154000000Y-75154000D01*
X154000000Y-75280000D01*
X154126000Y-75280000D01*
X154193039Y-75299685D01*
X154238794Y-75352489D01*
X154250000Y-75404000D01*
X154250000Y-76380000D01*
X154447828Y-76380000D01*
X154447844Y-76379999D01*
X154507372Y-76373598D01*
X154507379Y-76373596D01*
X154642086Y-76323354D01*
X154642089Y-76323352D01*
X154749188Y-76243178D01*
X154814653Y-76218760D01*
X154882926Y-76233611D01*
X154932332Y-76283016D01*
X154947500Y-76342444D01*
X154947500Y-77666931D01*
X154944135Y-77678390D01*
X154945282Y-77690279D01*
X154934472Y-77711297D01*
X154927815Y-77733970D01*
X154918790Y-77741789D01*
X154913327Y-77752413D01*
X154892868Y-77764251D01*
X154875011Y-77779725D01*
X154863190Y-77781424D01*
X154852852Y-77787407D01*
X154829244Y-77786305D01*
X154805853Y-77789669D01*
X154793237Y-77784625D01*
X154783059Y-77784151D01*
X154755473Y-77769528D01*
X154751672Y-77768009D01*
X154750415Y-77767116D01*
X154642331Y-77686204D01*
X154630172Y-77681669D01*
X154616915Y-77672248D01*
X154604947Y-77657060D01*
X154589469Y-77645471D01*
X154579271Y-77624476D01*
X154573671Y-77617369D01*
X154573138Y-77611849D01*
X154568969Y-77603265D01*
X154559578Y-77568220D01*
X154559577Y-77568216D01*
X154523047Y-77504943D01*
X154480524Y-77431290D01*
X154480518Y-77431282D01*
X153784717Y-76735481D01*
X153784716Y-76735480D01*
X153697904Y-76685360D01*
X153647785Y-76656423D01*
X153520581Y-76622338D01*
X153515371Y-76620429D01*
X153494645Y-76605099D01*
X153453899Y-76615499D01*
X153329347Y-76615499D01*
X153329331Y-76615500D01*
X150454670Y-76615500D01*
X150454654Y-76615499D01*
X150447058Y-76615499D01*
X150288943Y-76615499D01*
X150212579Y-76635961D01*
X150136214Y-76656423D01*
X150136209Y-76656426D01*
X149999290Y-76735475D01*
X149999282Y-76735481D01*
X149624217Y-77110546D01*
X149624214Y-77110548D01*
X149624215Y-77110549D01*
X149519477Y-77215287D01*
X149473423Y-77295057D01*
X149473423Y-77295058D01*
X149440423Y-77352214D01*
X149439600Y-77355285D01*
X149399499Y-77504943D01*
X149399499Y-77504945D01*
X149399499Y-77673046D01*
X149399500Y-77673059D01*
X149399500Y-77819699D01*
X149379815Y-77886738D01*
X149327011Y-77932493D01*
X149314507Y-77937403D01*
X149281962Y-77948188D01*
X149230668Y-77965185D01*
X149230663Y-77965187D01*
X149081342Y-78057289D01*
X148957289Y-78181342D01*
X148865187Y-78330663D01*
X148865186Y-78330666D01*
X148810001Y-78497203D01*
X148810001Y-78497204D01*
X148810000Y-78497204D01*
X148799500Y-78599983D01*
X148799500Y-79400001D01*
X148799501Y-79400019D01*
X148810000Y-79502796D01*
X148810001Y-79502799D01*
X148865185Y-79669331D01*
X148865187Y-79669336D01*
X148957289Y-79818657D01*
X149050951Y-79912319D01*
X149084436Y-79973642D01*
X149079452Y-80043334D01*
X149050951Y-80087681D01*
X148957289Y-80181342D01*
X148865187Y-80330663D01*
X148865185Y-80330668D01*
X148849051Y-80379357D01*
X148810001Y-80497203D01*
X148810001Y-80497204D01*
X148810000Y-80497204D01*
X148799500Y-80599983D01*
X148799500Y-81400001D01*
X148799501Y-81400019D01*
X148810000Y-81502796D01*
X148810001Y-81502799D01*
X148819015Y-81530000D01*
X148865186Y-81669334D01*
X148957288Y-81818656D01*
X149081344Y-81942712D01*
X149110098Y-81960447D01*
X149156820Y-82012391D01*
X149169000Y-82065984D01*
X149169000Y-82528970D01*
X149200433Y-82686994D01*
X149200435Y-82687002D01*
X149262096Y-82835866D01*
X149351619Y-82969847D01*
X149465552Y-83083780D01*
X149599533Y-83173303D01*
X149673965Y-83204133D01*
X149748398Y-83234965D01*
X149906429Y-83266399D01*
X149906433Y-83266400D01*
X149906434Y-83266400D01*
X150067567Y-83266400D01*
X150067568Y-83266399D01*
X150225602Y-83234965D01*
X150374468Y-83173302D01*
X150508445Y-83083782D01*
X150622382Y-82969845D01*
X150711902Y-82835868D01*
X150773565Y-82687002D01*
X150805000Y-82528966D01*
X150805000Y-82082022D01*
X150824685Y-82014983D01*
X150863904Y-81976483D01*
X150864705Y-81975989D01*
X150918656Y-81942712D01*
X150933524Y-81927844D01*
X153100000Y-81927844D01*
X153106401Y-81987372D01*
X153106403Y-81987379D01*
X153156645Y-82122086D01*
X153156649Y-82122093D01*
X153242809Y-82237187D01*
X153242812Y-82237190D01*
X153357906Y-82323350D01*
X153357913Y-82323354D01*
X153492620Y-82373596D01*
X153492627Y-82373598D01*
X153552155Y-82379999D01*
X153552172Y-82380000D01*
X153750000Y-82380000D01*
X153750000Y-81530000D01*
X153100000Y-81530000D01*
X153100000Y-81927844D01*
X150933524Y-81927844D01*
X151042712Y-81818656D01*
X151134814Y-81669334D01*
X151189999Y-81502797D01*
X151200500Y-81400009D01*
X151200499Y-80599992D01*
X151189999Y-80497203D01*
X151134814Y-80330666D01*
X151042712Y-80181344D01*
X150949049Y-80087681D01*
X150915564Y-80026358D01*
X150920548Y-79956666D01*
X150949049Y-79912319D01*
X151042712Y-79818656D01*
X151134814Y-79669334D01*
X151189999Y-79502797D01*
X151200500Y-79400009D01*
X151200499Y-78599992D01*
X151189999Y-78497203D01*
X151134814Y-78330666D01*
X151042712Y-78181344D01*
X150918656Y-78057288D01*
X150918652Y-78057285D01*
X150900418Y-78046038D01*
X150853693Y-77994090D01*
X150842472Y-77925127D01*
X150870315Y-77861046D01*
X150928384Y-77822190D01*
X150965515Y-77816500D01*
X153004155Y-77816500D01*
X153071194Y-77836185D01*
X153116949Y-77888989D01*
X153126893Y-77958147D01*
X153120337Y-77983833D01*
X153105908Y-78022517D01*
X153099501Y-78082116D01*
X153099501Y-78082123D01*
X153099500Y-78082135D01*
X153099500Y-80177870D01*
X153099501Y-80177876D01*
X153105908Y-80237481D01*
X153105909Y-80237483D01*
X153152493Y-80362381D01*
X153157477Y-80432071D01*
X153152493Y-80449046D01*
X153106403Y-80572619D01*
X153106401Y-80572627D01*
X153100000Y-80632155D01*
X153100000Y-81030000D01*
X153876000Y-81030000D01*
X153943039Y-81049685D01*
X153988794Y-81102489D01*
X154000000Y-81154000D01*
X154000000Y-81280000D01*
X154126000Y-81280000D01*
X154193039Y-81299685D01*
X154238794Y-81352489D01*
X154250000Y-81404000D01*
X154250000Y-82380000D01*
X154447828Y-82380000D01*
X154447844Y-82379999D01*
X154507372Y-82373598D01*
X154507379Y-82373596D01*
X154642086Y-82323354D01*
X154642093Y-82323350D01*
X154757187Y-82237190D01*
X154757190Y-82237187D01*
X154843349Y-82122094D01*
X154845526Y-82118109D01*
X154894931Y-82068703D01*
X154963204Y-82053851D01*
X155028668Y-82078267D01*
X155042040Y-82089854D01*
X155047499Y-82095313D01*
X155047500Y-82095314D01*
X155140686Y-82188500D01*
X155254814Y-82254392D01*
X155382108Y-82288500D01*
X155382110Y-82288500D01*
X172760490Y-82288500D01*
X172760492Y-82288500D01*
X172887786Y-82254392D01*
X173001914Y-82188500D01*
X173095100Y-82095314D01*
X173160992Y-81981186D01*
X173175285Y-81927844D01*
X174360000Y-81927844D01*
X174366401Y-81987372D01*
X174366403Y-81987379D01*
X174416645Y-82122086D01*
X174416649Y-82122093D01*
X174502809Y-82237187D01*
X174502812Y-82237190D01*
X174617906Y-82323350D01*
X174617913Y-82323354D01*
X174752620Y-82373596D01*
X174752627Y-82373598D01*
X174812155Y-82379999D01*
X174812172Y-82380000D01*
X175010000Y-82380000D01*
X175510000Y-82380000D01*
X175707828Y-82380000D01*
X175707844Y-82379999D01*
X175767372Y-82373598D01*
X175767379Y-82373596D01*
X175902086Y-82323354D01*
X175902093Y-82323350D01*
X176017187Y-82237190D01*
X176017190Y-82237187D01*
X176103350Y-82122093D01*
X176103354Y-82122086D01*
X176153596Y-81987379D01*
X176153598Y-81987372D01*
X176159999Y-81927844D01*
X176160000Y-81927827D01*
X176160000Y-81530000D01*
X175510000Y-81530000D01*
X175510000Y-82380000D01*
X175010000Y-82380000D01*
X175010000Y-81530000D01*
X174360000Y-81530000D01*
X174360000Y-81927844D01*
X173175285Y-81927844D01*
X173195100Y-81853892D01*
X173195100Y-75927844D01*
X174360000Y-75927844D01*
X174366401Y-75987372D01*
X174366403Y-75987379D01*
X174416645Y-76122086D01*
X174416649Y-76122093D01*
X174502809Y-76237187D01*
X174502812Y-76237190D01*
X174617906Y-76323350D01*
X174617913Y-76323354D01*
X174752620Y-76373596D01*
X174752627Y-76373598D01*
X174812155Y-76379999D01*
X174812172Y-76380000D01*
X175010000Y-76380000D01*
X175510000Y-76380000D01*
X175621662Y-76380000D01*
X175779596Y-76369040D01*
X175902086Y-76323354D01*
X175902093Y-76323350D01*
X176017187Y-76237190D01*
X176017190Y-76237187D01*
X176103350Y-76122093D01*
X176103354Y-76122086D01*
X176153596Y-75987379D01*
X176153598Y-75987372D01*
X176159999Y-75927844D01*
X176160000Y-75927827D01*
X176160000Y-75530000D01*
X175510000Y-75530000D01*
X175510000Y-76380000D01*
X175010000Y-76380000D01*
X175010000Y-75530000D01*
X174360000Y-75530000D01*
X174360000Y-75927844D01*
X173195100Y-75927844D01*
X173195100Y-69927844D01*
X174360000Y-69927844D01*
X174366401Y-69987372D01*
X174366403Y-69987379D01*
X174416645Y-70122086D01*
X174416649Y-70122093D01*
X174502809Y-70237187D01*
X174502812Y-70237190D01*
X174617906Y-70323350D01*
X174617913Y-70323354D01*
X174752620Y-70373596D01*
X174752627Y-70373598D01*
X174812155Y-70379999D01*
X174812172Y-70380000D01*
X175010000Y-70380000D01*
X175010000Y-69530000D01*
X174360000Y-69530000D01*
X174360000Y-69927844D01*
X173195100Y-69927844D01*
X173195100Y-64958108D01*
X173160992Y-64830814D01*
X173095100Y-64716686D01*
X173001914Y-64623500D01*
X172944850Y-64590554D01*
X172887787Y-64557608D01*
X172824139Y-64540554D01*
X172760492Y-64523500D01*
X155513892Y-64523500D01*
X155382108Y-64523500D01*
X155254812Y-64557608D01*
X155140686Y-64623500D01*
X155140683Y-64623502D01*
X155047502Y-64716683D01*
X155047500Y-64716686D01*
X154981608Y-64830812D01*
X154947500Y-64958108D01*
X154947500Y-65666931D01*
X154943705Y-65679854D01*
X154944666Y-65693290D01*
X154934052Y-65712726D01*
X154927815Y-65733970D01*
X154917637Y-65742788D01*
X154911181Y-65754613D01*
X154891743Y-65765226D01*
X154875011Y-65779725D01*
X154861679Y-65781641D01*
X154849857Y-65788097D01*
X154827772Y-65786517D01*
X154805853Y-65789669D01*
X154792081Y-65783964D01*
X154780165Y-65783112D01*
X154749189Y-65766197D01*
X154650190Y-65692086D01*
X154608319Y-65636153D01*
X154600501Y-65592820D01*
X154600501Y-65528944D01*
X154587670Y-65481059D01*
X154559577Y-65376216D01*
X154523047Y-65312943D01*
X154480524Y-65239290D01*
X154480518Y-65239282D01*
X153784717Y-64543481D01*
X153784716Y-64543480D01*
X153697904Y-64493360D01*
X153697904Y-64493359D01*
X153697900Y-64493358D01*
X153647785Y-64464423D01*
X153495057Y-64423499D01*
X153336943Y-64423499D01*
X153329347Y-64423499D01*
X153329331Y-64423500D01*
X150454670Y-64423500D01*
X150454654Y-64423499D01*
X150447058Y-64423499D01*
X150288943Y-64423499D01*
X150212579Y-64443961D01*
X150136214Y-64464423D01*
X150136209Y-64464426D01*
X149999290Y-64543475D01*
X149999282Y-64543481D01*
X149624217Y-64918546D01*
X149624214Y-64918548D01*
X149624215Y-64918549D01*
X149519477Y-65023287D01*
X149473423Y-65103057D01*
X149473423Y-65103058D01*
X149440423Y-65160214D01*
X149439600Y-65163285D01*
X149399499Y-65312943D01*
X149399499Y-65312945D01*
X149399499Y-65481046D01*
X149399500Y-65481059D01*
X149399500Y-65819699D01*
X149379815Y-65886738D01*
X149327011Y-65932493D01*
X149314507Y-65937403D01*
X149281962Y-65948188D01*
X149230668Y-65965185D01*
X149230663Y-65965187D01*
X149081342Y-66057289D01*
X148957289Y-66181342D01*
X148865187Y-66330663D01*
X148865186Y-66330666D01*
X148810001Y-66497203D01*
X148810001Y-66497204D01*
X148810000Y-66497204D01*
X148799500Y-66599983D01*
X148799500Y-67400001D01*
X148799501Y-67400019D01*
X148810000Y-67502796D01*
X148810001Y-67502799D01*
X148865185Y-67669331D01*
X148865187Y-67669336D01*
X148957289Y-67818657D01*
X149050951Y-67912319D01*
X149052835Y-67915770D01*
X149056165Y-67917863D01*
X149069445Y-67946188D01*
X149084436Y-67973642D01*
X149084155Y-67977564D01*
X149085825Y-67981125D01*
X149081683Y-68012133D01*
X149079452Y-68043334D01*
X149076945Y-68047607D01*
X149076575Y-68050379D01*
X149067981Y-68062889D01*
X149057792Y-68080260D01*
X149054527Y-68084104D01*
X148957288Y-68181344D01*
X148918334Y-68244497D01*
X148912253Y-68251660D01*
X148890590Y-68265889D01*
X148871322Y-68283221D01*
X148860444Y-68285692D01*
X148853856Y-68290021D01*
X148840825Y-68290151D01*
X148817731Y-68295400D01*
X148382429Y-68295400D01*
X148222691Y-68327174D01*
X148153099Y-68320947D01*
X148097922Y-68278084D01*
X148074678Y-68212194D01*
X148074500Y-68205557D01*
X148074500Y-64132000D01*
X148094185Y-64064961D01*
X148146989Y-64019206D01*
X148198500Y-64008000D01*
X180223500Y-64008000D01*
X180290539Y-64027685D01*
G37*
%TD.AperFunction*%
%TD*%
M02*
