%TF.GenerationSoftware,KiCad,Pcbnew,9.0.6*%
%TF.CreationDate,2026-04-22T13:07:07-04:00*%
%TF.ProjectId,Lighting_PCB,4c696768-7469-46e6-975f-5043422e6b69,v.1*%
%TF.SameCoordinates,Original*%
%TF.FileFunction,Legend,Top*%
%TF.FilePolarity,Positive*%
%FSLAX46Y46*%
G04 Gerber Fmt 4.6, Leading zero omitted, Abs format (unit mm)*
G04 Created by KiCad (PCBNEW 9.0.6) date 2026-04-22 13:07:07*
%MOMM*%
%LPD*%
G01*
G04 APERTURE LIST*
%ADD10C,0.150000*%
%ADD11C,0.120000*%
%ADD12C,0.200000*%
G04 APERTURE END LIST*
D10*
X178064819Y-80166666D02*
X177588628Y-80499999D01*
X178064819Y-80738094D02*
X177064819Y-80738094D01*
X177064819Y-80738094D02*
X177064819Y-80357142D01*
X177064819Y-80357142D02*
X177112438Y-80261904D01*
X177112438Y-80261904D02*
X177160057Y-80214285D01*
X177160057Y-80214285D02*
X177255295Y-80166666D01*
X177255295Y-80166666D02*
X177398152Y-80166666D01*
X177398152Y-80166666D02*
X177493390Y-80214285D01*
X177493390Y-80214285D02*
X177541009Y-80261904D01*
X177541009Y-80261904D02*
X177588628Y-80357142D01*
X177588628Y-80357142D02*
X177588628Y-80738094D01*
X177064819Y-79309523D02*
X177064819Y-79499999D01*
X177064819Y-79499999D02*
X177112438Y-79595237D01*
X177112438Y-79595237D02*
X177160057Y-79642856D01*
X177160057Y-79642856D02*
X177302914Y-79738094D01*
X177302914Y-79738094D02*
X177493390Y-79785713D01*
X177493390Y-79785713D02*
X177874342Y-79785713D01*
X177874342Y-79785713D02*
X177969580Y-79738094D01*
X177969580Y-79738094D02*
X178017200Y-79690475D01*
X178017200Y-79690475D02*
X178064819Y-79595237D01*
X178064819Y-79595237D02*
X178064819Y-79404761D01*
X178064819Y-79404761D02*
X178017200Y-79309523D01*
X178017200Y-79309523D02*
X177969580Y-79261904D01*
X177969580Y-79261904D02*
X177874342Y-79214285D01*
X177874342Y-79214285D02*
X177636247Y-79214285D01*
X177636247Y-79214285D02*
X177541009Y-79261904D01*
X177541009Y-79261904D02*
X177493390Y-79309523D01*
X177493390Y-79309523D02*
X177445771Y-79404761D01*
X177445771Y-79404761D02*
X177445771Y-79595237D01*
X177445771Y-79595237D02*
X177493390Y-79690475D01*
X177493390Y-79690475D02*
X177541009Y-79738094D01*
X177541009Y-79738094D02*
X177636247Y-79785713D01*
X178064819Y-74166666D02*
X177588628Y-74499999D01*
X178064819Y-74738094D02*
X177064819Y-74738094D01*
X177064819Y-74738094D02*
X177064819Y-74357142D01*
X177064819Y-74357142D02*
X177112438Y-74261904D01*
X177112438Y-74261904D02*
X177160057Y-74214285D01*
X177160057Y-74214285D02*
X177255295Y-74166666D01*
X177255295Y-74166666D02*
X177398152Y-74166666D01*
X177398152Y-74166666D02*
X177493390Y-74214285D01*
X177493390Y-74214285D02*
X177541009Y-74261904D01*
X177541009Y-74261904D02*
X177588628Y-74357142D01*
X177588628Y-74357142D02*
X177588628Y-74738094D01*
X177064819Y-73261904D02*
X177064819Y-73738094D01*
X177064819Y-73738094D02*
X177541009Y-73785713D01*
X177541009Y-73785713D02*
X177493390Y-73738094D01*
X177493390Y-73738094D02*
X177445771Y-73642856D01*
X177445771Y-73642856D02*
X177445771Y-73404761D01*
X177445771Y-73404761D02*
X177493390Y-73309523D01*
X177493390Y-73309523D02*
X177541009Y-73261904D01*
X177541009Y-73261904D02*
X177636247Y-73214285D01*
X177636247Y-73214285D02*
X177874342Y-73214285D01*
X177874342Y-73214285D02*
X177969580Y-73261904D01*
X177969580Y-73261904D02*
X178017200Y-73309523D01*
X178017200Y-73309523D02*
X178064819Y-73404761D01*
X178064819Y-73404761D02*
X178064819Y-73642856D01*
X178064819Y-73642856D02*
X178017200Y-73738094D01*
X178017200Y-73738094D02*
X177969580Y-73785713D01*
X173879819Y-74738094D02*
X172879819Y-74738094D01*
X172879819Y-74738094D02*
X172879819Y-74499999D01*
X172879819Y-74499999D02*
X172927438Y-74357142D01*
X172927438Y-74357142D02*
X173022676Y-74261904D01*
X173022676Y-74261904D02*
X173117914Y-74214285D01*
X173117914Y-74214285D02*
X173308390Y-74166666D01*
X173308390Y-74166666D02*
X173451247Y-74166666D01*
X173451247Y-74166666D02*
X173641723Y-74214285D01*
X173641723Y-74214285D02*
X173736961Y-74261904D01*
X173736961Y-74261904D02*
X173832200Y-74357142D01*
X173832200Y-74357142D02*
X173879819Y-74499999D01*
X173879819Y-74499999D02*
X173879819Y-74738094D01*
X172879819Y-73261904D02*
X172879819Y-73738094D01*
X172879819Y-73738094D02*
X173356009Y-73785713D01*
X173356009Y-73785713D02*
X173308390Y-73738094D01*
X173308390Y-73738094D02*
X173260771Y-73642856D01*
X173260771Y-73642856D02*
X173260771Y-73404761D01*
X173260771Y-73404761D02*
X173308390Y-73309523D01*
X173308390Y-73309523D02*
X173356009Y-73261904D01*
X173356009Y-73261904D02*
X173451247Y-73214285D01*
X173451247Y-73214285D02*
X173689342Y-73214285D01*
X173689342Y-73214285D02*
X173784580Y-73261904D01*
X173784580Y-73261904D02*
X173832200Y-73309523D01*
X173832200Y-73309523D02*
X173879819Y-73404761D01*
X173879819Y-73404761D02*
X173879819Y-73642856D01*
X173879819Y-73642856D02*
X173832200Y-73738094D01*
X173832200Y-73738094D02*
X173784580Y-73785713D01*
X175204466Y-76743809D02*
X175204466Y-76256190D01*
X175448276Y-76499999D02*
X174960657Y-76499999D01*
X148804819Y-74166666D02*
X148328628Y-74499999D01*
X148804819Y-74738094D02*
X147804819Y-74738094D01*
X147804819Y-74738094D02*
X147804819Y-74357142D01*
X147804819Y-74357142D02*
X147852438Y-74261904D01*
X147852438Y-74261904D02*
X147900057Y-74214285D01*
X147900057Y-74214285D02*
X147995295Y-74166666D01*
X147995295Y-74166666D02*
X148138152Y-74166666D01*
X148138152Y-74166666D02*
X148233390Y-74214285D01*
X148233390Y-74214285D02*
X148281009Y-74261904D01*
X148281009Y-74261904D02*
X148328628Y-74357142D01*
X148328628Y-74357142D02*
X148328628Y-74738094D01*
X147900057Y-73785713D02*
X147852438Y-73738094D01*
X147852438Y-73738094D02*
X147804819Y-73642856D01*
X147804819Y-73642856D02*
X147804819Y-73404761D01*
X147804819Y-73404761D02*
X147852438Y-73309523D01*
X147852438Y-73309523D02*
X147900057Y-73261904D01*
X147900057Y-73261904D02*
X147995295Y-73214285D01*
X147995295Y-73214285D02*
X148090533Y-73214285D01*
X148090533Y-73214285D02*
X148233390Y-73261904D01*
X148233390Y-73261904D02*
X148804819Y-73833332D01*
X148804819Y-73833332D02*
X148804819Y-73214285D01*
X148790819Y-68162466D02*
X148314628Y-68495799D01*
X148790819Y-68733894D02*
X147790819Y-68733894D01*
X147790819Y-68733894D02*
X147790819Y-68352942D01*
X147790819Y-68352942D02*
X147838438Y-68257704D01*
X147838438Y-68257704D02*
X147886057Y-68210085D01*
X147886057Y-68210085D02*
X147981295Y-68162466D01*
X147981295Y-68162466D02*
X148124152Y-68162466D01*
X148124152Y-68162466D02*
X148219390Y-68210085D01*
X148219390Y-68210085D02*
X148267009Y-68257704D01*
X148267009Y-68257704D02*
X148314628Y-68352942D01*
X148314628Y-68352942D02*
X148314628Y-68733894D01*
X148790819Y-67210085D02*
X148790819Y-67781513D01*
X148790819Y-67495799D02*
X147790819Y-67495799D01*
X147790819Y-67495799D02*
X147933676Y-67591037D01*
X147933676Y-67591037D02*
X148028914Y-67686275D01*
X148028914Y-67686275D02*
X148076533Y-67781513D01*
X159261905Y-83455819D02*
X159261905Y-82455819D01*
X159261905Y-82455819D02*
X159500000Y-82455819D01*
X159500000Y-82455819D02*
X159642857Y-82503438D01*
X159642857Y-82503438D02*
X159738095Y-82598676D01*
X159738095Y-82598676D02*
X159785714Y-82693914D01*
X159785714Y-82693914D02*
X159833333Y-82884390D01*
X159833333Y-82884390D02*
X159833333Y-83027247D01*
X159833333Y-83027247D02*
X159785714Y-83217723D01*
X159785714Y-83217723D02*
X159738095Y-83312961D01*
X159738095Y-83312961D02*
X159642857Y-83408200D01*
X159642857Y-83408200D02*
X159500000Y-83455819D01*
X159500000Y-83455819D02*
X159261905Y-83455819D01*
X160166667Y-82455819D02*
X160833333Y-82455819D01*
X160833333Y-82455819D02*
X160404762Y-83455819D01*
X157256190Y-84780466D02*
X157743810Y-84780466D01*
X157500000Y-85024276D02*
X157500000Y-84536657D01*
X152619819Y-74738094D02*
X151619819Y-74738094D01*
X151619819Y-74738094D02*
X151619819Y-74499999D01*
X151619819Y-74499999D02*
X151667438Y-74357142D01*
X151667438Y-74357142D02*
X151762676Y-74261904D01*
X151762676Y-74261904D02*
X151857914Y-74214285D01*
X151857914Y-74214285D02*
X152048390Y-74166666D01*
X152048390Y-74166666D02*
X152191247Y-74166666D01*
X152191247Y-74166666D02*
X152381723Y-74214285D01*
X152381723Y-74214285D02*
X152476961Y-74261904D01*
X152476961Y-74261904D02*
X152572200Y-74357142D01*
X152572200Y-74357142D02*
X152619819Y-74499999D01*
X152619819Y-74499999D02*
X152619819Y-74738094D01*
X151715057Y-73785713D02*
X151667438Y-73738094D01*
X151667438Y-73738094D02*
X151619819Y-73642856D01*
X151619819Y-73642856D02*
X151619819Y-73404761D01*
X151619819Y-73404761D02*
X151667438Y-73309523D01*
X151667438Y-73309523D02*
X151715057Y-73261904D01*
X151715057Y-73261904D02*
X151810295Y-73214285D01*
X151810295Y-73214285D02*
X151905533Y-73214285D01*
X151905533Y-73214285D02*
X152048390Y-73261904D01*
X152048390Y-73261904D02*
X152619819Y-73833332D01*
X152619819Y-73833332D02*
X152619819Y-73214285D01*
X153944466Y-76743809D02*
X153944466Y-76256190D01*
X154188276Y-76499999D02*
X153700657Y-76499999D01*
X152600819Y-80738094D02*
X151600819Y-80738094D01*
X151600819Y-80738094D02*
X151600819Y-80499999D01*
X151600819Y-80499999D02*
X151648438Y-80357142D01*
X151648438Y-80357142D02*
X151743676Y-80261904D01*
X151743676Y-80261904D02*
X151838914Y-80214285D01*
X151838914Y-80214285D02*
X152029390Y-80166666D01*
X152029390Y-80166666D02*
X152172247Y-80166666D01*
X152172247Y-80166666D02*
X152362723Y-80214285D01*
X152362723Y-80214285D02*
X152457961Y-80261904D01*
X152457961Y-80261904D02*
X152553200Y-80357142D01*
X152553200Y-80357142D02*
X152600819Y-80499999D01*
X152600819Y-80499999D02*
X152600819Y-80738094D01*
X151600819Y-79833332D02*
X151600819Y-79214285D01*
X151600819Y-79214285D02*
X151981771Y-79547618D01*
X151981771Y-79547618D02*
X151981771Y-79404761D01*
X151981771Y-79404761D02*
X152029390Y-79309523D01*
X152029390Y-79309523D02*
X152077009Y-79261904D01*
X152077009Y-79261904D02*
X152172247Y-79214285D01*
X152172247Y-79214285D02*
X152410342Y-79214285D01*
X152410342Y-79214285D02*
X152505580Y-79261904D01*
X152505580Y-79261904D02*
X152553200Y-79309523D01*
X152553200Y-79309523D02*
X152600819Y-79404761D01*
X152600819Y-79404761D02*
X152600819Y-79690475D01*
X152600819Y-79690475D02*
X152553200Y-79785713D01*
X152553200Y-79785713D02*
X152505580Y-79833332D01*
X153944466Y-82743809D02*
X153944466Y-82256190D01*
X154188276Y-82499999D02*
X153700657Y-82499999D01*
X173879819Y-68738094D02*
X172879819Y-68738094D01*
X172879819Y-68738094D02*
X172879819Y-68499999D01*
X172879819Y-68499999D02*
X172927438Y-68357142D01*
X172927438Y-68357142D02*
X173022676Y-68261904D01*
X173022676Y-68261904D02*
X173117914Y-68214285D01*
X173117914Y-68214285D02*
X173308390Y-68166666D01*
X173308390Y-68166666D02*
X173451247Y-68166666D01*
X173451247Y-68166666D02*
X173641723Y-68214285D01*
X173641723Y-68214285D02*
X173736961Y-68261904D01*
X173736961Y-68261904D02*
X173832200Y-68357142D01*
X173832200Y-68357142D02*
X173879819Y-68499999D01*
X173879819Y-68499999D02*
X173879819Y-68738094D01*
X173213152Y-67309523D02*
X173879819Y-67309523D01*
X172832200Y-67547618D02*
X173546485Y-67785713D01*
X173546485Y-67785713D02*
X173546485Y-67166666D01*
X175204466Y-70743809D02*
X175204466Y-70256190D01*
X175448276Y-70499999D02*
X174960657Y-70499999D01*
X148804819Y-80166666D02*
X148328628Y-80499999D01*
X148804819Y-80738094D02*
X147804819Y-80738094D01*
X147804819Y-80738094D02*
X147804819Y-80357142D01*
X147804819Y-80357142D02*
X147852438Y-80261904D01*
X147852438Y-80261904D02*
X147900057Y-80214285D01*
X147900057Y-80214285D02*
X147995295Y-80166666D01*
X147995295Y-80166666D02*
X148138152Y-80166666D01*
X148138152Y-80166666D02*
X148233390Y-80214285D01*
X148233390Y-80214285D02*
X148281009Y-80261904D01*
X148281009Y-80261904D02*
X148328628Y-80357142D01*
X148328628Y-80357142D02*
X148328628Y-80738094D01*
X147804819Y-79833332D02*
X147804819Y-79214285D01*
X147804819Y-79214285D02*
X148185771Y-79547618D01*
X148185771Y-79547618D02*
X148185771Y-79404761D01*
X148185771Y-79404761D02*
X148233390Y-79309523D01*
X148233390Y-79309523D02*
X148281009Y-79261904D01*
X148281009Y-79261904D02*
X148376247Y-79214285D01*
X148376247Y-79214285D02*
X148614342Y-79214285D01*
X148614342Y-79214285D02*
X148709580Y-79261904D01*
X148709580Y-79261904D02*
X148757200Y-79309523D01*
X148757200Y-79309523D02*
X148804819Y-79404761D01*
X148804819Y-79404761D02*
X148804819Y-79690475D01*
X148804819Y-79690475D02*
X148757200Y-79785713D01*
X148757200Y-79785713D02*
X148709580Y-79833332D01*
X173879819Y-80738094D02*
X172879819Y-80738094D01*
X172879819Y-80738094D02*
X172879819Y-80499999D01*
X172879819Y-80499999D02*
X172927438Y-80357142D01*
X172927438Y-80357142D02*
X173022676Y-80261904D01*
X173022676Y-80261904D02*
X173117914Y-80214285D01*
X173117914Y-80214285D02*
X173308390Y-80166666D01*
X173308390Y-80166666D02*
X173451247Y-80166666D01*
X173451247Y-80166666D02*
X173641723Y-80214285D01*
X173641723Y-80214285D02*
X173736961Y-80261904D01*
X173736961Y-80261904D02*
X173832200Y-80357142D01*
X173832200Y-80357142D02*
X173879819Y-80499999D01*
X173879819Y-80499999D02*
X173879819Y-80738094D01*
X172879819Y-79309523D02*
X172879819Y-79499999D01*
X172879819Y-79499999D02*
X172927438Y-79595237D01*
X172927438Y-79595237D02*
X172975057Y-79642856D01*
X172975057Y-79642856D02*
X173117914Y-79738094D01*
X173117914Y-79738094D02*
X173308390Y-79785713D01*
X173308390Y-79785713D02*
X173689342Y-79785713D01*
X173689342Y-79785713D02*
X173784580Y-79738094D01*
X173784580Y-79738094D02*
X173832200Y-79690475D01*
X173832200Y-79690475D02*
X173879819Y-79595237D01*
X173879819Y-79595237D02*
X173879819Y-79404761D01*
X173879819Y-79404761D02*
X173832200Y-79309523D01*
X173832200Y-79309523D02*
X173784580Y-79261904D01*
X173784580Y-79261904D02*
X173689342Y-79214285D01*
X173689342Y-79214285D02*
X173451247Y-79214285D01*
X173451247Y-79214285D02*
X173356009Y-79261904D01*
X173356009Y-79261904D02*
X173308390Y-79309523D01*
X173308390Y-79309523D02*
X173260771Y-79404761D01*
X173260771Y-79404761D02*
X173260771Y-79595237D01*
X173260771Y-79595237D02*
X173308390Y-79690475D01*
X173308390Y-79690475D02*
X173356009Y-79738094D01*
X173356009Y-79738094D02*
X173451247Y-79785713D01*
X175204466Y-82743809D02*
X175204466Y-82256190D01*
X175448276Y-82499999D02*
X174960657Y-82499999D01*
X159904133Y-89481819D02*
X159570800Y-89005628D01*
X159332705Y-89481819D02*
X159332705Y-88481819D01*
X159332705Y-88481819D02*
X159713657Y-88481819D01*
X159713657Y-88481819D02*
X159808895Y-88529438D01*
X159808895Y-88529438D02*
X159856514Y-88577057D01*
X159856514Y-88577057D02*
X159904133Y-88672295D01*
X159904133Y-88672295D02*
X159904133Y-88815152D01*
X159904133Y-88815152D02*
X159856514Y-88910390D01*
X159856514Y-88910390D02*
X159808895Y-88958009D01*
X159808895Y-88958009D02*
X159713657Y-89005628D01*
X159713657Y-89005628D02*
X159332705Y-89005628D01*
X160237467Y-88481819D02*
X160904133Y-88481819D01*
X160904133Y-88481819D02*
X160475562Y-89481819D01*
X178064819Y-68166666D02*
X177588628Y-68499999D01*
X178064819Y-68738094D02*
X177064819Y-68738094D01*
X177064819Y-68738094D02*
X177064819Y-68357142D01*
X177064819Y-68357142D02*
X177112438Y-68261904D01*
X177112438Y-68261904D02*
X177160057Y-68214285D01*
X177160057Y-68214285D02*
X177255295Y-68166666D01*
X177255295Y-68166666D02*
X177398152Y-68166666D01*
X177398152Y-68166666D02*
X177493390Y-68214285D01*
X177493390Y-68214285D02*
X177541009Y-68261904D01*
X177541009Y-68261904D02*
X177588628Y-68357142D01*
X177588628Y-68357142D02*
X177588628Y-68738094D01*
X177398152Y-67309523D02*
X178064819Y-67309523D01*
X177017200Y-67547618D02*
X177731485Y-67785713D01*
X177731485Y-67785713D02*
X177731485Y-67166666D01*
X152619819Y-68738094D02*
X151619819Y-68738094D01*
X151619819Y-68738094D02*
X151619819Y-68499999D01*
X151619819Y-68499999D02*
X151667438Y-68357142D01*
X151667438Y-68357142D02*
X151762676Y-68261904D01*
X151762676Y-68261904D02*
X151857914Y-68214285D01*
X151857914Y-68214285D02*
X152048390Y-68166666D01*
X152048390Y-68166666D02*
X152191247Y-68166666D01*
X152191247Y-68166666D02*
X152381723Y-68214285D01*
X152381723Y-68214285D02*
X152476961Y-68261904D01*
X152476961Y-68261904D02*
X152572200Y-68357142D01*
X152572200Y-68357142D02*
X152619819Y-68499999D01*
X152619819Y-68499999D02*
X152619819Y-68738094D01*
X152619819Y-67214285D02*
X152619819Y-67785713D01*
X152619819Y-67499999D02*
X151619819Y-67499999D01*
X151619819Y-67499999D02*
X151762676Y-67595237D01*
X151762676Y-67595237D02*
X151857914Y-67690475D01*
X151857914Y-67690475D02*
X151905533Y-67785713D01*
X153944466Y-70743809D02*
X153944466Y-70256190D01*
X154188276Y-70499999D02*
X153700657Y-70499999D01*
X167981333Y-89456419D02*
X167648000Y-88980228D01*
X167409905Y-89456419D02*
X167409905Y-88456419D01*
X167409905Y-88456419D02*
X167790857Y-88456419D01*
X167790857Y-88456419D02*
X167886095Y-88504038D01*
X167886095Y-88504038D02*
X167933714Y-88551657D01*
X167933714Y-88551657D02*
X167981333Y-88646895D01*
X167981333Y-88646895D02*
X167981333Y-88789752D01*
X167981333Y-88789752D02*
X167933714Y-88884990D01*
X167933714Y-88884990D02*
X167886095Y-88932609D01*
X167886095Y-88932609D02*
X167790857Y-88980228D01*
X167790857Y-88980228D02*
X167409905Y-88980228D01*
X168552762Y-88884990D02*
X168457524Y-88837371D01*
X168457524Y-88837371D02*
X168409905Y-88789752D01*
X168409905Y-88789752D02*
X168362286Y-88694514D01*
X168362286Y-88694514D02*
X168362286Y-88646895D01*
X168362286Y-88646895D02*
X168409905Y-88551657D01*
X168409905Y-88551657D02*
X168457524Y-88504038D01*
X168457524Y-88504038D02*
X168552762Y-88456419D01*
X168552762Y-88456419D02*
X168743238Y-88456419D01*
X168743238Y-88456419D02*
X168838476Y-88504038D01*
X168838476Y-88504038D02*
X168886095Y-88551657D01*
X168886095Y-88551657D02*
X168933714Y-88646895D01*
X168933714Y-88646895D02*
X168933714Y-88694514D01*
X168933714Y-88694514D02*
X168886095Y-88789752D01*
X168886095Y-88789752D02*
X168838476Y-88837371D01*
X168838476Y-88837371D02*
X168743238Y-88884990D01*
X168743238Y-88884990D02*
X168552762Y-88884990D01*
X168552762Y-88884990D02*
X168457524Y-88932609D01*
X168457524Y-88932609D02*
X168409905Y-88980228D01*
X168409905Y-88980228D02*
X168362286Y-89075466D01*
X168362286Y-89075466D02*
X168362286Y-89265942D01*
X168362286Y-89265942D02*
X168409905Y-89361180D01*
X168409905Y-89361180D02*
X168457524Y-89408800D01*
X168457524Y-89408800D02*
X168552762Y-89456419D01*
X168552762Y-89456419D02*
X168743238Y-89456419D01*
X168743238Y-89456419D02*
X168838476Y-89408800D01*
X168838476Y-89408800D02*
X168886095Y-89361180D01*
X168886095Y-89361180D02*
X168933714Y-89265942D01*
X168933714Y-89265942D02*
X168933714Y-89075466D01*
X168933714Y-89075466D02*
X168886095Y-88980228D01*
X168886095Y-88980228D02*
X168838476Y-88932609D01*
X168838476Y-88932609D02*
X168743238Y-88884990D01*
X167261905Y-83455819D02*
X167261905Y-82455819D01*
X167261905Y-82455819D02*
X167500000Y-82455819D01*
X167500000Y-82455819D02*
X167642857Y-82503438D01*
X167642857Y-82503438D02*
X167738095Y-82598676D01*
X167738095Y-82598676D02*
X167785714Y-82693914D01*
X167785714Y-82693914D02*
X167833333Y-82884390D01*
X167833333Y-82884390D02*
X167833333Y-83027247D01*
X167833333Y-83027247D02*
X167785714Y-83217723D01*
X167785714Y-83217723D02*
X167738095Y-83312961D01*
X167738095Y-83312961D02*
X167642857Y-83408200D01*
X167642857Y-83408200D02*
X167500000Y-83455819D01*
X167500000Y-83455819D02*
X167261905Y-83455819D01*
X168404762Y-82884390D02*
X168309524Y-82836771D01*
X168309524Y-82836771D02*
X168261905Y-82789152D01*
X168261905Y-82789152D02*
X168214286Y-82693914D01*
X168214286Y-82693914D02*
X168214286Y-82646295D01*
X168214286Y-82646295D02*
X168261905Y-82551057D01*
X168261905Y-82551057D02*
X168309524Y-82503438D01*
X168309524Y-82503438D02*
X168404762Y-82455819D01*
X168404762Y-82455819D02*
X168595238Y-82455819D01*
X168595238Y-82455819D02*
X168690476Y-82503438D01*
X168690476Y-82503438D02*
X168738095Y-82551057D01*
X168738095Y-82551057D02*
X168785714Y-82646295D01*
X168785714Y-82646295D02*
X168785714Y-82693914D01*
X168785714Y-82693914D02*
X168738095Y-82789152D01*
X168738095Y-82789152D02*
X168690476Y-82836771D01*
X168690476Y-82836771D02*
X168595238Y-82884390D01*
X168595238Y-82884390D02*
X168404762Y-82884390D01*
X168404762Y-82884390D02*
X168309524Y-82932009D01*
X168309524Y-82932009D02*
X168261905Y-82979628D01*
X168261905Y-82979628D02*
X168214286Y-83074866D01*
X168214286Y-83074866D02*
X168214286Y-83265342D01*
X168214286Y-83265342D02*
X168261905Y-83360580D01*
X168261905Y-83360580D02*
X168309524Y-83408200D01*
X168309524Y-83408200D02*
X168404762Y-83455819D01*
X168404762Y-83455819D02*
X168595238Y-83455819D01*
X168595238Y-83455819D02*
X168690476Y-83408200D01*
X168690476Y-83408200D02*
X168738095Y-83360580D01*
X168738095Y-83360580D02*
X168785714Y-83265342D01*
X168785714Y-83265342D02*
X168785714Y-83074866D01*
X168785714Y-83074866D02*
X168738095Y-82979628D01*
X168738095Y-82979628D02*
X168690476Y-82932009D01*
X168690476Y-82932009D02*
X168595238Y-82884390D01*
X165256190Y-84780466D02*
X165743810Y-84780466D01*
X165500000Y-85024276D02*
X165500000Y-84536657D01*
D11*
%TO.C,R6*%
X178525000Y-80227064D02*
X178525000Y-79772936D01*
X179995000Y-80227064D02*
X179995000Y-79772936D01*
%TO.C,R5*%
X178525000Y-74227064D02*
X178525000Y-73772936D01*
X179995000Y-74227064D02*
X179995000Y-73772936D01*
D12*
%TO.C,D5*%
X174460000Y-72400000D02*
X174560000Y-72400000D01*
X174460000Y-75600000D02*
X174460000Y-72400000D01*
X174460000Y-75600000D02*
X174560000Y-75600000D01*
X175960000Y-72400000D02*
X176060000Y-72400000D01*
X175960000Y-75600000D02*
X176060000Y-75600000D01*
X176060000Y-75600000D02*
X176060000Y-72400000D01*
D11*
%TO.C,R2*%
X149265000Y-74227064D02*
X149265000Y-73772936D01*
X150735000Y-74227064D02*
X150735000Y-73772936D01*
%TO.C,R1*%
X149265000Y-68227064D02*
X149265000Y-67772936D01*
X150735000Y-68227064D02*
X150735000Y-67772936D01*
D12*
%TO.C,D7*%
X158400000Y-84036000D02*
X158400000Y-84136000D01*
X158400000Y-84036000D02*
X161600000Y-84036000D01*
X158400000Y-85536000D02*
X158400000Y-85636000D01*
X158400000Y-85636000D02*
X161600000Y-85636000D01*
X161600000Y-84036000D02*
X161600000Y-84136000D01*
X161600000Y-85536000D02*
X161600000Y-85636000D01*
%TO.C,D2*%
X153200000Y-72400000D02*
X153300000Y-72400000D01*
X153200000Y-75600000D02*
X153200000Y-72400000D01*
X153200000Y-75600000D02*
X153300000Y-75600000D01*
X154700000Y-72400000D02*
X154800000Y-72400000D01*
X154700000Y-75600000D02*
X154800000Y-75600000D01*
X154800000Y-75600000D02*
X154800000Y-72400000D01*
%TO.C,D3*%
X153200000Y-78400000D02*
X153300000Y-78400000D01*
X153200000Y-81600000D02*
X153200000Y-78400000D01*
X153200000Y-81600000D02*
X153300000Y-81600000D01*
X154700000Y-78400000D02*
X154800000Y-78400000D01*
X154700000Y-81600000D02*
X154800000Y-81600000D01*
X154800000Y-81600000D02*
X154800000Y-78400000D01*
%TO.C,D4*%
X174460000Y-66400000D02*
X174560000Y-66400000D01*
X174460000Y-69600000D02*
X174460000Y-66400000D01*
X174460000Y-69600000D02*
X174560000Y-69600000D01*
X175960000Y-66400000D02*
X176060000Y-66400000D01*
X175960000Y-69600000D02*
X176060000Y-69600000D01*
X176060000Y-69600000D02*
X176060000Y-66400000D01*
D11*
%TO.C,R3*%
X149265000Y-80227064D02*
X149265000Y-79772936D01*
X150735000Y-80227064D02*
X150735000Y-79772936D01*
D12*
%TO.C,D6*%
X174460000Y-78400000D02*
X174560000Y-78400000D01*
X174460000Y-81600000D02*
X174460000Y-78400000D01*
X174460000Y-81600000D02*
X174560000Y-81600000D01*
X175960000Y-78400000D02*
X176060000Y-78400000D01*
X175960000Y-81600000D02*
X176060000Y-81600000D01*
X176060000Y-81600000D02*
X176060000Y-78400000D01*
D11*
%TO.C,R7*%
X159792936Y-86461000D02*
X160247064Y-86461000D01*
X159792936Y-87931000D02*
X160247064Y-87931000D01*
%TO.C,R4*%
X178525000Y-68227064D02*
X178525000Y-67772936D01*
X179995000Y-68227064D02*
X179995000Y-67772936D01*
D12*
%TO.C,D1*%
X153200000Y-66400000D02*
X153300000Y-66400000D01*
X153200000Y-69600000D02*
X153200000Y-66400000D01*
X153200000Y-69600000D02*
X153300000Y-69600000D01*
X154700000Y-66400000D02*
X154800000Y-66400000D01*
X154700000Y-69600000D02*
X154800000Y-69600000D01*
X154800000Y-69600000D02*
X154800000Y-66400000D01*
D11*
%TO.C,R8*%
X167920936Y-86461000D02*
X168375064Y-86461000D01*
X167920936Y-87931000D02*
X168375064Y-87931000D01*
D12*
%TO.C,D8*%
X166400000Y-84036000D02*
X166400000Y-84136000D01*
X166400000Y-84036000D02*
X169600000Y-84036000D01*
X166400000Y-85536000D02*
X166400000Y-85636000D01*
X166400000Y-85636000D02*
X169600000Y-85636000D01*
X169600000Y-84036000D02*
X169600000Y-84136000D01*
X169600000Y-85536000D02*
X169600000Y-85636000D01*
%TD*%
M02*
